<svg xmlns="http://www.w3.org/2000/svg" xmlns:xlink="http://www.w3.org/1999/xlink" viewBox="0 0 3187 2286"><defs><style>.cls-1{fill:none;}.cls-109,.cls-2{fill:#fff;}.cls-3{fill:url(#linear-gradient);}.cls-4{fill:url(#linear-gradient-2);}.cls-5{fill:url(#linear-gradient-3);}.cls-6{fill:url(#linear-gradient-4);}.cls-7{clip-path:url(#clip-path);}.cls-8{fill:url(#linear-gradient-5);}.cls-9{fill:url(#linear-gradient-6);}.cls-10{fill:#fbda19;}.cls-11{fill:url(#linear-gradient-7);}.cls-12{fill:url(#linear-gradient-8);}.cls-13{fill:url(#linear-gradient-9);}.cls-14{fill:url(#linear-gradient-10);}.cls-15{fill:url(#linear-gradient-11);}.cls-16{fill:url(#linear-gradient-12);}.cls-17{fill:url(#linear-gradient-13);}.cls-18{fill:url(#linear-gradient-14);}.cls-19{fill:url(#linear-gradient-15);}.cls-20,.cls-22{stroke:#fcee21;stroke-miterlimit:10;stroke-width:5px;}.cls-20{fill:url(#linear-gradient-16);}.cls-21{fill:#ffe245;}.cls-22{fill:url(#linear-gradient-17);}.cls-23{fill:url(#linear-gradient-18);}.cls-24{fill:url(#linear-gradient-19);}.cls-25{fill:url(#linear-gradient-20);}.cls-26{fill:url(#linear-gradient-21);}.cls-27{fill:url(#linear-gradient-22);}.cls-28{fill:url(#linear-gradient-23);}.cls-29{fill:url(#linear-gradient-24);}.cls-30{fill:url(#linear-gradient-25);}.cls-31{fill:url(#linear-gradient-26);}.cls-32{fill:url(#linear-gradient-27);}.cls-33{fill:url(#linear-gradient-28);}.cls-34{fill:url(#linear-gradient-29);}.cls-35{fill:url(#linear-gradient-30);}.cls-36{fill:url(#linear-gradient-31);}.cls-37{fill:url(#linear-gradient-32);}.cls-38{fill:url(#linear-gradient-33);}.cls-39{fill:url(#linear-gradient-34);}.cls-40{fill:url(#linear-gradient-35);}.cls-41{fill:url(#linear-gradient-36);}.cls-42{fill:url(#linear-gradient-37);}.cls-43{fill:url(#linear-gradient-38);}.cls-44{fill:url(#linear-gradient-39);}.cls-45{fill:#91b3fa;}.cls-46{fill:url(#linear-gradient-40);}.cls-47{fill:url(#linear-gradient-41);}.cls-48{fill:url(#linear-gradient-42);}.cls-49{fill:url(#linear-gradient-43);}.cls-50{fill:url(#linear-gradient-44);}.cls-51{fill:url(#linear-gradient-45);}.cls-52{fill:url(#linear-gradient-46);}.cls-53{fill:url(#linear-gradient-47);}.cls-54{fill:url(#linear-gradient-48);}.cls-55{fill:url(#linear-gradient-49);}.cls-56{fill:url(#linear-gradient-50);}.cls-57{fill:url(#linear-gradient-51);}.cls-58{fill:url(#linear-gradient-52);}.cls-59{fill:url(#linear-gradient-53);}.cls-60{fill:url(#linear-gradient-54);}.cls-61{fill:#7d97f4;}.cls-62{fill:url(#linear-gradient-55);}.cls-63{fill:url(#linear-gradient-56);}.cls-64{fill:url(#linear-gradient-57);}.cls-65{fill:url(#linear-gradient-58);}.cls-66{fill:url(#linear-gradient-59);}.cls-67{fill:url(#linear-gradient-60);}.cls-68{fill:url(#linear-gradient-61);}.cls-69{fill:url(#linear-gradient-62);}.cls-70{fill:url(#linear-gradient-63);}.cls-71{fill:url(#linear-gradient-64);}.cls-72{fill:url(#linear-gradient-65);}.cls-73{fill:url(#linear-gradient-66);}.cls-74{fill:url(#linear-gradient-67);}.cls-75{fill:url(#linear-gradient-68);}.cls-76{fill:url(#linear-gradient-69);}.cls-77{fill:url(#linear-gradient-70);}.cls-78{fill:url(#linear-gradient-71);}.cls-79{fill:url(#linear-gradient-72);}.cls-80{fill:url(#linear-gradient-73);}.cls-81{fill:url(#linear-gradient-74);}.cls-82{fill:url(#linear-gradient-75);}.cls-83{fill:url(#linear-gradient-76);}.cls-84{fill:url(#linear-gradient-77);}.cls-85{fill:url(#linear-gradient-78);}.cls-86{fill:url(#linear-gradient-79);}.cls-87{fill:url(#linear-gradient-80);}.cls-88{fill:url(#linear-gradient-81);}.cls-89{fill:url(#linear-gradient-82);}.cls-90{fill:url(#linear-gradient-83);}.cls-91{fill:url(#linear-gradient-84);}.cls-92{fill:url(#linear-gradient-85);}.cls-93{fill:url(#linear-gradient-86);}.cls-94{fill:url(#linear-gradient-87);}.cls-95{fill:url(#linear-gradient-88);}.cls-96{fill:url(#linear-gradient-89);}.cls-97{fill:url(#linear-gradient-90);}.cls-98{fill:url(#linear-gradient-91);}.cls-99{fill:url(#linear-gradient-92);}.cls-100{fill:url(#linear-gradient-93);}.cls-101{fill:url(#linear-gradient-94);}.cls-102{fill:url(#linear-gradient-95);}.cls-103{fill:url(#linear-gradient-96);}.cls-104{fill:url(#linear-gradient-97);}.cls-105{fill:url(#linear-gradient-98);}.cls-106{fill:url(#linear-gradient-99);}.cls-107{fill:#0080ff;}.cls-108{fill:#00d954;}.cls-109{fill-rule:evenodd;}</style><linearGradient id="linear-gradient" x1="579.81" y1="2166.98" x2="1107.37" y2="1459.28" gradientUnits="userSpaceOnUse"><stop offset="0" stop-color="#1d125d"/><stop offset="1" stop-color="#2c4a91"/></linearGradient><linearGradient id="linear-gradient-2" x1="1463.66" y1="457.81" x2="2418.06" y2="2157.64" gradientUnits="userSpaceOnUse"><stop offset="0" stop-color="#795ee2"/><stop offset="1" stop-color="#4f52ff"/></linearGradient><linearGradient id="linear-gradient-3" x1="3261.64" y1="673.23" x2="2286.2" y2="1079.67" xlink:href="#linear-gradient"/><linearGradient id="linear-gradient-4" x1="2277.92" y1="1028.61" x2="2662.24" y2="993.67" xlink:href="#linear-gradient-2"/><clipPath id="clip-path" transform="translate(2 -2)"><path class="cls-1" d="M2450.41,1690.92c-13.16-13.55-41.83-65.82-66.41-201-23.76-130.61-36.84-300-36.84-477s13.08-346.41,36.84-477c24.58-135.15,53.25-187.42,66.41-201,13.16,13.55,41.83,65.82,66.41,201,23.75,130.61,211.2,300,211.2,477s-187.45,346.41-211.2,477C2492.24,1625.1,2463.57,1677.37,2450.41,1690.92Z"/></clipPath><linearGradient id="linear-gradient-5" x1="2761.97" y1="989.19" x2="1728.23" y2="1048.5" gradientUnits="userSpaceOnUse"><stop offset="0" stop-color="#393812"/><stop offset="1" stop-color="#561526"/></linearGradient><linearGradient id="linear-gradient-6" x1="804.06" y1="1360.62" x2="765.47" y2="389.56" xlink:href="#linear-gradient"/><linearGradient id="linear-gradient-7" x1="1165.12" y1="604.21" x2="2299.86" y2="604.21" gradientUnits="userSpaceOnUse"><stop offset="0" stop-color="#fef1b1"/><stop offset="1" stop-color="#fdc138"/></linearGradient><linearGradient id="linear-gradient-8" x1="1013.32" y1="835.85" x2="1083.32" y2="835.85" xlink:href="#linear-gradient-7"/><linearGradient id="linear-gradient-9" x1="2373.82" y1="907.82" x2="2608.45" y2="907.82" xlink:href="#linear-gradient-7"/><linearGradient id="linear-gradient-10" x1="1276.55" y1="1092.12" x2="1299.6" y2="1092.12" xlink:href="#linear-gradient"/><linearGradient id="linear-gradient-11" x1="802.34" y1="903.4" x2="1234.88" y2="903.4" xlink:href="#linear-gradient"/><linearGradient id="linear-gradient-12" x1="830.56" y1="627.69" x2="845.54" y2="627.69" xlink:href="#linear-gradient"/><linearGradient id="linear-gradient-13" x1="1027.62" y1="444" x2="1051.18" y2="444" xlink:href="#linear-gradient"/><linearGradient id="linear-gradient-14" x1="1093.2" y1="651.86" x2="1498.04" y2="651.86" xlink:href="#linear-gradient"/><linearGradient id="linear-gradient-15" x1="1447.48" y1="933.55" x2="1463.13" y2="933.55" xlink:href="#linear-gradient"/><linearGradient id="linear-gradient-16" x1="881.82" y1="773.57" x2="1413.12" y2="773.57" xlink:href="#linear-gradient"/><linearGradient id="linear-gradient-17" x1="673.72" y1="453.23" x2="971.99" y2="453.23" xlink:href="#linear-gradient"/><linearGradient id="linear-gradient-18" x1="926.98" y1="594.8" x2="947.73" y2="594.8" xlink:href="#linear-gradient"/><linearGradient id="linear-gradient-19" x1="642.82" y1="565.22" x2="886.41" y2="565.22" xlink:href="#linear-gradient"/><linearGradient id="linear-gradient-20" x1="638.24" y1="432.03" x2="648.29" y2="432.03" xlink:href="#linear-gradient"/><linearGradient id="linear-gradient-21" x1="709.73" y1="302.36" x2="731.31" y2="302.36" xlink:href="#linear-gradient"/><linearGradient id="linear-gradient-22" x1="772.99" y1="345.08" x2="1004.78" y2="345.08" xlink:href="#linear-gradient"/><linearGradient id="linear-gradient-23" x1="995.8" y1="482.8" x2="1006.6" y2="482.8" xlink:href="#linear-gradient"/><linearGradient id="linear-gradient-24" x1="1906.52" y1="696.25" x2="1864.79" y2="971.72" xlink:href="#linear-gradient-5"/><linearGradient id="linear-gradient-25" x1="1890.15" y1="820.08" x2="1801.89" y2="1141.6" xlink:href="#linear-gradient-2"/><linearGradient id="linear-gradient-26" x1="1886.87" y1="818.92" x2="1798.57" y2="1140.58" xlink:href="#linear-gradient-2"/><linearGradient id="linear-gradient-27" x1="1878.66" y1="816.43" x2="1790.36" y2="1138.1" xlink:href="#linear-gradient-2"/><linearGradient id="linear-gradient-28" x1="1876.44" y1="815.63" x2="1788.12" y2="1137.36" xlink:href="#linear-gradient-2"/><linearGradient id="linear-gradient-29" x1="1951.13" y1="455.76" x2="1971.14" y2="1091.28" gradientUnits="userSpaceOnUse"><stop offset="0" stop-color="#e1473d"/><stop offset="1" stop-color="#e9605a"/></linearGradient><linearGradient id="linear-gradient-30" x1="1842.29" y1="459.24" x2="1862.29" y2="1094.68" xlink:href="#linear-gradient-29"/><linearGradient id="linear-gradient-31" x1="1808.44" y1="-311.44" x2="1900.79" y2="340.13" gradientUnits="userSpaceOnUse"><stop offset="0" stop-color="#ff928e"/><stop offset="1" stop-color="#feb3b1"/></linearGradient><linearGradient id="linear-gradient-32" x1="2143.83" y1="-16.68" x2="2109.64" y2="224.37" xlink:href="#linear-gradient-31"/><linearGradient id="linear-gradient-33" x1="2157.47" y1="-15.07" x2="2123.25" y2="226.17" xlink:href="#linear-gradient-31"/><linearGradient id="linear-gradient-34" x1="6651.47" y1="2032.07" x2="6264.13" y2="2453.39" gradientTransform="translate(-4983.74 -57.6) rotate(0.54)" xlink:href="#linear-gradient"/><linearGradient id="linear-gradient-35" x1="6525.9" y1="2062.82" x2="6560.3" y2="2062.82" gradientTransform="translate(-4983.74 -57.6) rotate(0.54)" xlink:href="#linear-gradient-31"/><linearGradient id="linear-gradient-36" x1="6684.11" y1="1549.16" x2="6350.66" y2="2001.11" gradientTransform="translate(-4983.74 -57.6) rotate(0.54)" xlink:href="#linear-gradient"/><linearGradient id="linear-gradient-37" x1="6565.79" y1="1950.97" x2="6175.68" y2="2375.3" gradientTransform="translate(-4983.74 -57.6) rotate(0.54)" xlink:href="#linear-gradient"/><linearGradient id="linear-gradient-38" x1="6401.94" y1="2061.02" x2="6431.64" y2="2061.02" gradientTransform="translate(-4983.74 -57.6) rotate(0.54)" xlink:href="#linear-gradient-31"/><linearGradient id="linear-gradient-39" x1="6625.34" y1="1505.97" x2="6292.45" y2="1957.16" gradientTransform="translate(-4983.74 -57.6) rotate(0.54)" xlink:href="#linear-gradient"/><linearGradient id="linear-gradient-40" x1="1681.74" y1="1242.74" x2="1865.65" y2="1049.75" xlink:href="#linear-gradient-31"/><linearGradient id="linear-gradient-41" x1="1667.89" y1="1229.69" x2="1851.93" y2="1036.56" xlink:href="#linear-gradient-31"/><linearGradient id="linear-gradient-42" x1="6842.21" y1="1034.33" x2="6891.94" y2="957.87" gradientTransform="translate(-4983.74 -57.6) rotate(0.54)" xlink:href="#linear-gradient-31"/><linearGradient id="linear-gradient-43" x1="6282.87" y1="1406.42" x2="6505.25" y2="1406.42" gradientTransform="translate(-4983.74 -57.6) rotate(0.54)" xlink:href="#linear-gradient-31"/><linearGradient id="linear-gradient-44" x1="1512.58" y1="1145.57" x2="1468.19" y2="1312.89" xlink:href="#linear-gradient-31"/><linearGradient id="linear-gradient-45" x1="1505.74" y1="1022.63" x2="1546.67" y2="1142" xlink:href="#linear-gradient-31"/><linearGradient id="linear-gradient-46" x1="-1073.97" y1="2343.85" x2="-1046.3" y2="2501.7" gradientTransform="matrix(0.75, -0.66, 0.66, 0.75, 684.94, -1480.43)" xlink:href="#linear-gradient-5"/><linearGradient id="linear-gradient-47" x1="1472.05" y1="1034.29" x2="1512.96" y2="1153.6" xlink:href="#linear-gradient-31"/><linearGradient id="linear-gradient-48" x1="6273.16" y1="1265.66" x2="6397.24" y2="1782.69" gradientTransform="translate(-4705.66)" xlink:href="#linear-gradient"/><linearGradient id="linear-gradient-49" x1="6189.36" y1="1402.39" x2="6258.89" y2="1402.39" gradientTransform="translate(-4705.66)" xlink:href="#linear-gradient-31"/><linearGradient id="linear-gradient-50" x1="4716.37" y1="1320.68" x2="4734.92" y2="1397.98" gradientTransform="matrix(-1, 0, 0, 1, 6333.66, 0)" xlink:href="#linear-gradient-2"/><linearGradient id="linear-gradient-51" x1="1530.31" y1="1319.26" x2="1679.5" y2="1319.26" xlink:href="#linear-gradient-7"/><linearGradient id="linear-gradient-52" x1="984.31" y1="1828.86" x2="790.26" y2="2268.03" xlink:href="#linear-gradient-2"/><linearGradient id="linear-gradient-53" x1="1142.43" y1="1899.49" x2="948.11" y2="2339.26" xlink:href="#linear-gradient-2"/><linearGradient id="linear-gradient-54" x1="1005.43" y1="1895.61" x2="1005.43" y2="1723.67" xlink:href="#linear-gradient-2"/><linearGradient id="linear-gradient-55" x1="1327.19" y1="1860.65" x2="1289.82" y2="2118.81" xlink:href="#linear-gradient"/><linearGradient id="linear-gradient-56" x1="1229.19" y1="2082.34" x2="1265.86" y2="2082.34" xlink:href="#linear-gradient-31"/><linearGradient id="linear-gradient-57" x1="1510.56" y1="1887.11" x2="1473.14" y2="2145.65" xlink:href="#linear-gradient"/><linearGradient id="linear-gradient-58" x1="1134.08" y1="2086.36" x2="1105.84" y2="2284.01" xlink:href="#linear-gradient-29"/><linearGradient id="linear-gradient-59" x1="1402.89" y1="2085.47" x2="1446.67" y2="2085.47" xlink:href="#linear-gradient-31"/><linearGradient id="linear-gradient-60" x1="1119.22" y1="2147.4" x2="1232.38" y2="1761.62" xlink:href="#linear-gradient-29"/><linearGradient id="linear-gradient-61" x1="1184.91" y1="1410.8" x2="1118.45" y2="1512.19" xlink:href="#linear-gradient-31"/><linearGradient id="linear-gradient-62" x1="1069.32" y1="1585.97" x2="1308.95" y2="1979.37" xlink:href="#linear-gradient-2"/><linearGradient id="linear-gradient-63" x1="1420" y1="1369.56" x2="1139.05" y2="1588.08" xlink:href="#linear-gradient"/><linearGradient id="linear-gradient-64" x1="1344.1" y1="1675.25" x2="1445.23" y2="1675.25" xlink:href="#linear-gradient-31"/><linearGradient id="linear-gradient-65" x1="1243.76" y1="1334.47" x2="1173.9" y2="1399.22" xlink:href="#linear-gradient-31"/><linearGradient id="linear-gradient-66" x1="2995.1" y1="1851.62" x2="3094.14" y2="1979.14" gradientTransform="translate(-2069.8 -150.95) rotate(-7.5)" xlink:href="#linear-gradient-5"/><linearGradient id="linear-gradient-67" x1="1229.49" y1="1318.92" x2="1159.66" y2="1383.64" xlink:href="#linear-gradient-31"/><linearGradient id="linear-gradient-68" x1="10894.35" y1="-14805.56" x2="10623.68" y2="-14543.89" gradientTransform="matrix(-1.39, -0.07, -0.07, 1.39, -6236.51, -215.95)" xlink:href="#linear-gradient-5"/><linearGradient id="linear-gradient-69" x1="8523.59" y1="-15507.64" x2="8251.89" y2="-15244.96" gradientTransform="matrix(0.65, -1.23, -1.23, -0.65, 7293.9, -7927.84)" xlink:href="#linear-gradient-5"/><linearGradient id="linear-gradient-70" x1="2091.4" y1="2113.23" x2="2138.01" y2="1820.01" xlink:href="#linear-gradient-2"/><linearGradient id="linear-gradient-71" x1="2108.08" y1="2118.26" x2="2154.33" y2="1827.36" xlink:href="#linear-gradient-2"/><linearGradient id="linear-gradient-72" x1="2072.17" y1="2111.57" x2="2118.61" y2="1819.43" xlink:href="#linear-gradient-2"/><linearGradient id="linear-gradient-73" x1="1889.72" y1="1968.27" x2="1765.91" y2="2048.92" xlink:href="#linear-gradient-31"/><linearGradient id="linear-gradient-74" x1="1966.42" y1="2028.5" x2="1943.87" y2="2374.24" xlink:href="#linear-gradient-2"/><linearGradient id="linear-gradient-75" x1="2057.14" y1="1898.98" x2="1827.94" y2="1947.53" xlink:href="#linear-gradient-31"/><linearGradient id="linear-gradient-76" x1="1751.39" y1="2014.48" x2="1728.87" y2="2359.72" xlink:href="#linear-gradient-2"/><linearGradient id="linear-gradient-77" x1="2145.85" y1="1164.31" x2="2092.41" y2="1445.06" xlink:href="#linear-gradient-5"/><linearGradient id="linear-gradient-78" x1="2021.36" y1="1376.93" x2="2077.11" y2="1473.64" xlink:href="#linear-gradient-31"/><linearGradient id="linear-gradient-79" x1="2075.33" y1="1303.27" x2="1976.95" y2="1355.28" xlink:href="#linear-gradient-31"/><linearGradient id="linear-gradient-80" x1="-803.33" y1="5387.17" x2="-856.33" y2="5665.58" gradientTransform="translate(-1901.31 -2673.77) rotate(-52.83)" xlink:href="#linear-gradient-5"/><linearGradient id="linear-gradient-81" x1="2078.32" y1="1309.81" x2="1979.76" y2="1361.92" xlink:href="#linear-gradient-31"/><linearGradient id="linear-gradient-82" x1="2146.72" y1="1674.65" x2="2447.09" y2="1674.65" xlink:href="#linear-gradient-31"/><linearGradient id="linear-gradient-83" x1="2055.61" y1="1834.51" x2="1866.5" y2="1886.34" gradientTransform="translate(8.67 -86.8) rotate(-2.83)" xlink:href="#linear-gradient"/><linearGradient id="linear-gradient-84" x1="1897.07" y1="1520.08" x2="1761.98" y2="1662.86" xlink:href="#linear-gradient"/><linearGradient id="linear-gradient-85" x1="-10271.7" y1="2351.72" x2="-10269.7" y2="2564.26" gradientTransform="matrix(-1, 0, 0, 1, -7955.28, 0)" xlink:href="#linear-gradient"/><linearGradient id="linear-gradient-86" x1="-10322.29" y1="2114.37" x2="-10333.33" y2="2028.12" gradientTransform="matrix(-1, 0, 0, 1, -7955.28, 0)" xlink:href="#linear-gradient-31"/><linearGradient id="linear-gradient-87" x1="-10555.43" y1="2354.45" x2="-10553.42" y2="2567" gradientTransform="matrix(-1, 0, 0, 1, -7955.28, 0)" xlink:href="#linear-gradient"/><linearGradient id="linear-gradient-88" x1="-10560.42" y1="2143.93" x2="-10571.16" y2="2059.95" gradientTransform="matrix(-1, 0, 0, 1, -7955.28, 0)" xlink:href="#linear-gradient-31"/><linearGradient id="linear-gradient-89" x1="-10634.69" y1="1824.64" x2="-10307.88" y2="1824.64" gradientTransform="matrix(-1, 0, 0, 1, -7955.28, 0)" xlink:href="#linear-gradient"/><linearGradient id="linear-gradient-90" x1="-10567.42" y1="1773.81" x2="-10555.4" y2="1749.76" gradientTransform="matrix(-1, 0, 0, 1, -7955.28, 0)" xlink:href="#linear-gradient-2"/><linearGradient id="linear-gradient-91" x1="-10480.24" y1="1592.05" x2="-10331.43" y2="1592.05" gradientTransform="matrix(-1, 0, 0, 1, -7955.28, 0)" xlink:href="#linear-gradient-31"/><linearGradient id="linear-gradient-92" x1="-10343.11" y1="1403.22" x2="-10065.2" y2="1403.22" gradientTransform="matrix(-1, 0, 0, 1, -7955.28, 0)" xlink:href="#linear-gradient-31"/><linearGradient id="linear-gradient-93" x1="-10443.58" y1="1245.08" x2="-10346.08" y2="1145.05" gradientTransform="matrix(-1, 0, 0, 1, -7955.28, 0)" xlink:href="#linear-gradient-31"/><linearGradient id="linear-gradient-94" x1="-10302.68" y1="1081.92" x2="-10424.12" y2="1242.58" gradientTransform="matrix(-1, 0, 0, 1, -7955.28, 0)" xlink:href="#linear-gradient-31"/><linearGradient id="linear-gradient-95" x1="-10394.98" y1="1120.67" x2="-10250.95" y2="1120.67" gradientTransform="matrix(-1, 0, 0, 1, -7955.28, 0)" xlink:href="#linear-gradient-29"/><linearGradient id="linear-gradient-96" x1="-10480.22" y1="1209.17" x2="-10382.76" y2="1109.18" gradientTransform="matrix(-1, 0, 0, 1, -7955.28, 0)" xlink:href="#linear-gradient-31"/><linearGradient id="linear-gradient-97" x1="-10304.38" y1="1667" x2="-10506.23" y2="1797.85" gradientTransform="matrix(-1, 0, 0, 1, -7955.28, 0)" xlink:href="#linear-gradient-31"/><linearGradient id="linear-gradient-98" x1="-6514.74" y1="1819.72" x2="-6515.74" y2="1759.69" gradientTransform="matrix(-1, 0, 0, 1, -4129.28, 0)" xlink:href="#linear-gradient-29"/><linearGradient id="linear-gradient-99" x1="1017.5" y1="658.01" x2="1299.28" y2="896" gradientUnits="userSpaceOnUse"><stop offset="0" stop-color="#ffe185"/><stop offset="0.21" stop-color="#ffbb36"/><stop offset="0.38" stop-color="#ff5176"/><stop offset="0.52" stop-color="#f63395"/><stop offset="0.74" stop-color="#a436d2"/><stop offset="1" stop-color="#5f4eed"/></linearGradient></defs><g id="Background"><rect class="cls-2" width="3187" height="2286"/></g><g id="Illustration"><path class="cls-3" d="M633.68,1293s238.45,636.57,313.79,769c87.45,153.72,342.85,55.77,330.14-72.88s-311.1-660.38-311.1-660.38Z" transform="translate(2 -2)"/><polygon class="cls-4" points="957.87 827.28 2439.96 307.13 2424.39 1714.72 917.37 1374.36 957.87 827.28"/><ellipse class="cls-5" cx="2441.36" cy="1015.01" rx="145.61" ry="723.37"/><path class="cls-6" d="M2450.41,1690.92c-13.16-13.55-41.83-65.82-66.41-201-23.76-130.61-36.84-300-36.84-477s13.08-346.41,36.84-477c24.58-135.15,53.25-187.42,66.41-201,13.16,13.55,41.83,65.82,66.41,201,23.75,130.61,36.83,300,36.83,477s-13.08,346.41-36.83,477C2492.24,1625.1,2463.57,1677.37,2450.41,1690.92Z" transform="translate(2 -2)"/><g class="cls-7"><path class="cls-8" d="M2637,1007.54c0,122.91-65.41,222.55-194.88,222.55s-234.41-99.64-234.41-222.55S2312.7,785,2442.16,785,2637,884.64,2637,1007.54Z" transform="translate(2 -2)"/></g><path class="cls-9" d="M716.84,799c69.72-8.2,169.69-11.14,277.79,13.91-35.61,188.32-30.24,384.59,11,587.83H700.69c-48.61,0-90.06-35.74-97.64-84.34-15.19-97.42-33.77-261.16-14-392.67C599,857.75,651.32,806.72,716.84,799Z" transform="translate(2 -2)"/><path class="cls-10" d="M899.82,943.24H662.27a21.32,21.32,0,0,1-19-11.44,21.88,21.88,0,0,1,.84-22.4,6.09,6.09,0,0,1,8.45-1.83,6.25,6.25,0,0,1,1.81,8.56,9.52,9.52,0,0,0-.37,9.76,9.31,9.31,0,0,0,8.3,5H899.82a9.51,9.51,0,0,0,9.44-9.56V904.21a9.5,9.5,0,0,0-9.44-9.56H660.51a6.19,6.19,0,0,1,0-12.37H899.82a21.82,21.82,0,0,1,21.66,21.93v17.11A21.82,21.82,0,0,1,899.82,943.24Z" transform="translate(2 -2)"/><path class="cls-10" d="M878.63,1049.73H641.09a21.32,21.32,0,0,1-19-11.44,21.88,21.88,0,0,1,.84-22.4,6.09,6.09,0,0,1,8.45-1.83,6.25,6.25,0,0,1,1.81,8.56,9.52,9.52,0,0,0-.37,9.76,9.31,9.31,0,0,0,8.3,5H878.63a9.52,9.52,0,0,0,9.45-9.56V1010.7a9.52,9.52,0,0,0-9.45-9.56H639.33a6.19,6.19,0,0,1,0-12.37h239.3a21.83,21.83,0,0,1,21.67,21.93v17.11A21.82,21.82,0,0,1,878.63,1049.73Z" transform="translate(2 -2)"/><path class="cls-11" d="M1171.23,791.18a6.12,6.12,0,0,1-5.82-4.31,6.21,6.21,0,0,1,4-7.77L2291.89,417.53a6.11,6.11,0,0,1,7.68,4,6.21,6.21,0,0,1-4,7.77L1173.09,790.89A6.06,6.06,0,0,1,1171.23,791.18Z" transform="translate(2 -2)"/><path class="cls-12" d="M1019.44,854a6.12,6.12,0,0,1-5.66-3.84,6.22,6.22,0,0,1,3.34-8.07l57.77-23.9a6.09,6.09,0,0,1,8,3.39,6.2,6.2,0,0,1-3.34,8.06l-57.78,23.9A5.87,5.87,0,0,1,1019.44,854Z" transform="translate(2 -2)"/><path class="cls-10" d="M899.82,1174.45H662.27a21.33,21.33,0,0,1-19-11.45,21.86,21.86,0,0,1,.84-22.39,6.08,6.08,0,0,1,8.45-1.84,6.24,6.24,0,0,1,1.81,8.55,9.54,9.54,0,0,0-.37,9.77,9.29,9.29,0,0,0,8.3,5H899.82a9.51,9.51,0,0,0,9.44-9.56v-17.11a9.51,9.51,0,0,0-9.44-9.56H660.51a6.18,6.18,0,0,1,0-12.36H899.82a21.82,21.82,0,0,1,21.66,21.92v17.11A21.82,21.82,0,0,1,899.82,1174.45Z" transform="translate(2 -2)"/><path class="cls-10" d="M922.06,1312.88H684.51a21.35,21.35,0,0,1-19-11.45,21.86,21.86,0,0,1,.84-22.39,6.07,6.07,0,0,1,8.45-1.83,6.23,6.23,0,0,1,1.81,8.55,9.53,9.53,0,0,0-.37,9.76,9.31,9.31,0,0,0,8.3,5H922.06a9.51,9.51,0,0,0,9.44-9.56v-17.12a9.51,9.51,0,0,0-9.44-9.56H682.75a6.18,6.18,0,0,1,0-12.36H922.06a21.82,21.82,0,0,1,21.66,21.92V1291A21.82,21.82,0,0,1,922.06,1312.88Z" transform="translate(2 -2)"/><path class="cls-10" d="M1134.22,2065.53a153.62,153.62,0,0,1-33-3.63c-48.3-10.65-87.61-42.89-107.87-88.44L803.51,1546.68a6.23,6.23,0,0,1,3.07-8.18,6.08,6.08,0,0,1,8.07,3.1l189.79,426.79c18.65,41.94,54.86,71.62,99.33,81.42a136.67,136.67,0,0,0,121.35-31.4q2.7-2.39,5.4-4.89a6.05,6.05,0,0,1,8.63.4,6.23,6.23,0,0,1-.39,8.73c-1.87,1.74-3.73,3.42-5.59,5.07A148.51,148.51,0,0,1,1134.22,2065.53Z" transform="translate(2 -2)"/><path class="cls-10" d="M781,1487.22a6.12,6.12,0,0,1-5.58-3.64L754.28,1436a6.21,6.21,0,0,1,3.06-8.17,6.09,6.09,0,0,1,8.08,3.1l21.17,47.61a6.22,6.22,0,0,1-3.06,8.18A6.06,6.06,0,0,1,781,1487.22Z" transform="translate(2 -2)"/><path class="cls-13" d="M2602.34,1001.14a6.14,6.14,0,0,1-6.09-5.75c-4.22-60.22-24.84-105.12-61.29-133.45-63-49-153-32.15-153.87-32a6.12,6.12,0,0,1-7.16-4.9,6.19,6.19,0,0,1,4.85-7.25c3.89-.76,96.28-18,163.62,34.3,39.34,30.58,61.56,78.48,66,142.38a6.16,6.16,0,0,1-5.66,6.61Z" transform="translate(2 -2)"/><path class="cls-14" d="M1280.62,1099.55a4.09,4.09,0,0,1-3.77-2.56,4.14,4.14,0,0,1,2.22-5.38c5-2.07,10-4.27,14.74-6.53a4.05,4.05,0,0,1,5.41,2,4.15,4.15,0,0,1-2,5.48c-4.91,2.32-10,4.57-15.1,6.69A4,4,0,0,1,1280.62,1099.55Z" transform="translate(2 -2)"/><path class="cls-15" d="M1146.92,1125.47h0c-10.84-.09-21.79-.71-32.55-1.82a4.12,4.12,0,0,1,.83-8.2c10.51,1.09,21.2,1.69,31.78,1.77a4.13,4.13,0,0,1,0,8.25Zm52.22-3.54a4.13,4.13,0,0,1-.57-8.21c10.47-1.51,21-3.54,31.28-6a4.07,4.07,0,0,1,4.91,3,4.12,4.12,0,0,1-3,5c-10.53,2.56-21.31,4.64-32,6.19A5.65,5.65,0,0,1,1199.14,1121.93Zm-135.92-7.69a4.1,4.1,0,0,1-1-.13c-10.46-2.77-20.93-6.08-31.12-9.85a4.13,4.13,0,0,1-2.43-5.28,4.06,4.06,0,0,1,5.22-2.46c10,3.68,20.18,6.91,30.39,9.61a4.13,4.13,0,0,1-1,8.11ZM984.8,1082.6a4,4,0,0,1-1.95-.52c-9.48-5.27-18.84-11.07-27.81-17.23a4.15,4.15,0,0,1-1.08-5.73,4,4,0,0,1,5.65-1.09c8.77,6,17.9,11.68,27.16,16.83a4.16,4.16,0,0,1,1.61,5.6A4.08,4.08,0,0,1,984.8,1082.6Zm-68.43-50a4.08,4.08,0,0,1-2.77-1.1c-7.94-7.46-15.63-15.38-22.84-23.55a4.15,4.15,0,0,1,.32-5.82,4,4,0,0,1,5.75.32c7,8,14.55,15.72,22.31,23a4.16,4.16,0,0,1,.22,5.83A4.09,4.09,0,0,1,916.37,1032.58ZM862,967.28a4.07,4.07,0,0,1-3.42-1.87c-5.92-9.21-11.47-18.79-16.49-28.47a4.15,4.15,0,0,1,1.71-5.57,4.06,4.06,0,0,1,5.5,1.74c4.9,9.46,10.32,18.81,16.11,27.8a4.16,4.16,0,0,1-1.19,5.7A4.06,4.06,0,0,1,862,967.28Zm-37-76.79a4.07,4.07,0,0,1-3.85-2.78c-3.5-10.35-6.56-21-9.1-31.69a4.14,4.14,0,0,1,3-5,4.09,4.09,0,0,1,4.91,3.05c2.48,10.41,5.46,20.83,8.89,30.94a4.14,4.14,0,0,1-2.54,5.23A4.06,4.06,0,0,1,825,890.49Zm-17.32-83.61a4.09,4.09,0,0,1-4-3.76l-.08-.92c-.78-9.71-1.18-19.54-1.18-29.2v-2.87a4.1,4.1,0,0,1,4.07-4.09h0a4.09,4.09,0,0,1,4,4.16V773c0,9.44.39,19,1.16,28.53l.07.87a4.11,4.11,0,0,1-3.7,4.47Zm3.18-85.39a3.63,3.63,0,0,1-.65,0,4.12,4.12,0,0,1-3.37-4.73c1.74-10.84,4-21.71,6.74-32.3a4.07,4.07,0,0,1,5-2.95,4.12,4.12,0,0,1,2.91,5c-2.67,10.35-4.88,21-6.58,31.54A4.09,4.09,0,0,1,810.83,721.49Z" transform="translate(2 -2)"/><path class="cls-16" d="M834.64,639.29A4,4,0,0,1,833,639a4.15,4.15,0,0,1-2.12-5.42c2.15-5,4.48-10.12,6.91-15.14a4.06,4.06,0,0,1,5.45-1.88,4.15,4.15,0,0,1,1.86,5.52c-2.37,4.9-4.64,9.87-6.75,14.78A4.06,4.06,0,0,1,834.64,639.29Z" transform="translate(2 -2)"/><path class="cls-17" d="M1031.69,450.78a4.07,4.07,0,0,1-3.82-2.71,4.13,4.13,0,0,1,2.42-5.29c5.14-1.9,10.39-3.71,15.6-5.36a4.06,4.06,0,0,1,5.1,2.7,4.13,4.13,0,0,1-2.67,5.17c-5.09,1.61-10.21,3.37-15.23,5.24A4,4,0,0,1,1031.69,450.78Z" transform="translate(2 -2)"/><path class="cls-18" d="M1478.26,881.74a4,4,0,0,1-1.23-.19,4.13,4.13,0,0,1-2.66-5.17c3.12-10,5.81-20.37,8-30.66a4.08,4.08,0,0,1,4.84-3.17,4.13,4.13,0,0,1,3.13,4.9c-2.24,10.54-5,21.11-8.19,31.4A4.08,4.08,0,0,1,1478.26,881.74Zm15.07-82.69h-.25a4.11,4.11,0,0,1-3.81-4.37c.41-6.91.62-13.95.62-20.92,0-3.58-.05-7.19-.17-10.79a4.1,4.1,0,0,1,4-4.25,4,4,0,0,1,4.19,4q.18,5.55.18,11c0,7.14-.22,14.34-.65,21.42A4.09,4.09,0,0,1,1493.33,799.05Zm-4.93-83.92a4.08,4.08,0,0,1-4-3.39c-1.86-10.38-4.21-20.79-7-30.9a4.14,4.14,0,0,1,2.84-5.08,4.07,4.07,0,0,1,5,2.87c2.85,10.36,5.26,21,7.16,31.65a4.13,4.13,0,0,1-3.28,4.79A4.49,4.49,0,0,1,1488.4,715.13Zm-24.57-80.28a4.06,4.06,0,0,1-3.71-2.44c-4.26-9.59-9-19.1-14.16-28.28a4.15,4.15,0,0,1,1.54-5.62,4.05,4.05,0,0,1,5.55,1.55c5.26,9.41,10.14,19.15,14.49,29a4.13,4.13,0,0,1-2,5.45A4,4,0,0,1,1463.83,634.85Zm-43-71.91a4.05,4.05,0,0,1-3.21-1.58c-6.42-8.28-13.3-16.36-20.45-24a4.16,4.16,0,0,1,.16-5.82,4,4,0,0,1,5.76.16c7.32,7.84,14.37,16.11,20.94,24.6a4.14,4.14,0,0,1-.69,5.78A4,4,0,0,1,1420.86,562.94Zm-58.76-59.41a4,4,0,0,1-2.51-.88c-8.18-6.48-16.77-12.68-25.52-18.39a4.16,4.16,0,0,1-1.22-5.7,4.05,4.05,0,0,1,5.63-1.23c9,5.85,17.76,12.19,26.14,18.84a4.14,4.14,0,0,1,.69,5.78A4,4,0,0,1,1362.1,503.53ZM1291,460a4,4,0,0,1-1.67-.37c-9.47-4.32-19.27-8.24-29.13-11.66a4.14,4.14,0,0,1-2.53-5.24,4.06,4.06,0,0,1,5.17-2.56c10.1,3.5,20.13,7.52,29.83,11.94a4.14,4.14,0,0,1,2,5.46A4.07,4.07,0,0,1,1291,460Zm-79.33-24.95a3.68,3.68,0,0,1-.73-.07c-10.24-1.88-20.68-3.29-31-4.2a4.11,4.11,0,0,1-3.71-4.46,4,4,0,0,1,4.41-3.75c10.61.93,21.31,2.38,31.79,4.3a4.13,4.13,0,0,1-.72,8.18Zm-114.44-1.4a4.13,4.13,0,0,1-.61-8.2c8.3-1.3,16.73-2.31,25.06-3q3.42-.28,6.83-.5a4.12,4.12,0,0,1,.51,8.23q-3.33.21-6.67.49c-8.14.67-16.38,1.66-24.49,2.93A4.46,4.46,0,0,1,1097.26,433.68Z" transform="translate(2 -2)"/><path class="cls-19" d="M1451.54,945a4,4,0,0,1-2-.51,4.15,4.15,0,0,1-1.61-5.6c2.58-4.75,5.08-9.61,7.42-14.44a4,4,0,0,1,5.45-1.89,4.15,4.15,0,0,1,1.86,5.52c-2.4,5-5,9.93-7.59,14.79A4.09,4.09,0,0,1,1451.54,945Z" transform="translate(2 -2)"/><path class="cls-20" d="M1363.8,930.54a4.2,4.2,0,0,0,.56-4.82l-24.23-44.52A222.86,222.86,0,0,0,1364,813.64l46.56-18.94a4.16,4.16,0,0,0,2.58-4.08l-3-60.9a4.17,4.17,0,0,0-3-3.8l-48.2-14.13A222.66,222.66,0,0,0,1328.54,647l19.71-46.76a4.2,4.2,0,0,0-1-4.73l-44.67-40.9a4.08,4.08,0,0,0-4.76-.56l-44,24.52a217.17,217.17,0,0,0-66.75-24.13l-18.71-47.13a4.13,4.13,0,0,0-4-2.61l-60.16,3.05a4.13,4.13,0,0,0-3.76,3l-14,48.79a217.32,217.32,0,0,0-64,30.75l-46.19-19.95a4.09,4.09,0,0,0-4.67,1l-40.41,45.22a4.22,4.22,0,0,0-.56,4.82l24.23,44.52A223.11,223.11,0,0,0,931,733.49l-46.57,18.94a4.17,4.17,0,0,0-2.58,4.08l3,60.9a4.17,4.17,0,0,0,3,3.8L936,835.35a222.58,222.58,0,0,0,30.38,64.8l-19.7,46.76a4.2,4.2,0,0,0,1,4.73l44.67,40.9a4.08,4.08,0,0,0,4.76.56l44-24.52a217.2,217.2,0,0,0,66.74,24.13l18.71,47.13a4.13,4.13,0,0,0,4,2.61l60.15-3a4.13,4.13,0,0,0,3.76-3l14-48.8a217.39,217.39,0,0,0,64-30.75l46.19,19.95a4.11,4.11,0,0,0,4.68-1Z" transform="translate(2 -2)"/><path class="cls-21" d="M1147.51,833.89a59.8,59.8,0,0,1-57-42.65c-9.62-31.8,8.11-65.6,39.52-75.35a58.53,58.53,0,0,1,45.4,4.4,59.75,59.75,0,0,1,29,35.6c9.63,31.81-8.1,65.61-39.52,75.35A58.63,58.63,0,0,1,1147.51,833.89Zm0-108.3a46.82,46.82,0,0,0-14,2.13c-25,7.74-39.07,34.61-31.42,59.9s34.21,39.54,59.18,31.8,39.07-34.62,31.42-59.91a47.53,47.53,0,0,0-23.08-28.3A46.69,46.69,0,0,0,1147.54,725.59Z" transform="translate(2 -2)"/><path class="cls-21" d="M1146.28,926.08a149.39,149.39,0,0,1-101.43-39.61,153.07,153.07,0,0,1-49.66-106c-.13-2.6-.19-5.18-.19-7.76,0-81,63-148.92,143.87-153,83.41-4.15,154.66,61,158.84,145.44h0a155.42,155.42,0,0,1-1.79,32.58l-12.06-2a142.45,142.45,0,0,0,1.83-22.84c0-2.37-.06-4.75-.18-7.12-3.84-77.62-69.39-137.7-146-133.71-74.32,3.77-132.27,66.18-132.27,140.68,0,2.37.06,4.74.17,7.13a140.77,140.77,0,0,0,45.66,97.47A138,138,0,0,0,1223.84,890l6.79,10.27a150,150,0,0,1-76.6,25.65C1151.44,926,1148.85,926.08,1146.28,926.08Z" transform="translate(2 -2)"/><path class="cls-22" d="M950.67,528.47l-15.49-23.78a125.24,125.24,0,0,0,10.35-38.81l25.18-12.67a2.35,2.35,0,0,0,1.26-2.4l-4.36-33.87a2.32,2.32,0,0,0-1.82-2l-27.54-5.73a124.53,124.53,0,0,0-19.82-34.83l9-27a2.37,2.37,0,0,0-.78-2.6L899.86,324a2.3,2.3,0,0,0-2.68-.09l-23.49,15.67a121.4,121.4,0,0,0-38.34-10.48l-12.52-25.48a2.31,2.31,0,0,0-2.37-1.28L787,306.7a2.33,2.33,0,0,0-2,1.85l-5.66,27.88A122.24,122.24,0,0,0,745,356.48l-26.67-9.06a2.3,2.3,0,0,0-2.57.79l-20.58,27.07A2.36,2.36,0,0,0,695,378l15.48,23.78a125.32,125.32,0,0,0-10.35,38.81L675,453.25a2.35,2.35,0,0,0-1.26,2.4l4.35,33.87a2.33,2.33,0,0,0,1.83,2l27.54,5.73a124.5,124.5,0,0,0,19.81,34.83l-8.95,27a2.35,2.35,0,0,0,.78,2.6l26.74,20.84a2.33,2.33,0,0,0,2.69.1L772,566.93a121.34,121.34,0,0,0,38.33,10.48l12.52,25.48a2.3,2.3,0,0,0,2.37,1.28l33.47-4.41a2.33,2.33,0,0,0,2-1.85L866.33,570a122.1,122.1,0,0,0,34.41-20L927.41,559a2.29,2.29,0,0,0,2.57-.79l20.59-27.07A2.36,2.36,0,0,0,950.67,528.47Z" transform="translate(2 -2)"/><path class="cls-21" d="M822.84,489.77a36.11,36.11,0,0,1-33.53-23.11,36.65,36.65,0,0,1,.44-27.94,35.92,35.92,0,0,1,66.65,1.08,36.69,36.69,0,0,1-20.28,47.38A35.51,35.51,0,0,1,822.84,489.77Zm0-60.69A23.8,23.8,0,0,0,801,443.63a24.27,24.27,0,0,0-.29,18.49,23.84,23.84,0,0,0,12.7,13.27,23.43,23.43,0,0,0,18.26.3A24.28,24.28,0,0,0,845,444.35,23.91,23.91,0,0,0,822.82,429.08Z" transform="translate(2 -2)"/><path class="cls-23" d="M931.06,604.14a4,4,0,0,1-3.27-1.66,4.15,4.15,0,0,1,.83-5.77c4.23-3.19,8.37-6.62,12.31-10.2a4,4,0,0,1,5.75.31,4.14,4.14,0,0,1-.31,5.82c-4.12,3.75-8.46,7.34-12.88,10.68A4,4,0,0,1,931.06,604.14Z" transform="translate(2 -2)"/><path class="cls-24" d="M849.32,638.54a4.13,4.13,0,0,1-.6-8.2A176.2,176.2,0,0,0,881,622.27a4.05,4.05,0,0,1,5.19,2.53,4.14,4.14,0,0,1-2.5,5.25,183.94,183.94,0,0,1-33.76,8.45A4,4,0,0,1,849.32,638.54Zm-55.11-.35a3.49,3.49,0,0,1-.65-.05,183.73,183.73,0,0,1-33.66-8.83,4.14,4.14,0,0,1-2.44-5.28,4,4,0,0,1,5.21-2.47A176.49,176.49,0,0,0,794.85,630a4.13,4.13,0,0,1-.64,8.19ZM712.9,602.83a4,4,0,0,1-2.47-.84,186.18,186.18,0,0,1-25.52-23.89,4.15,4.15,0,0,1,.32-5.82,4,4,0,0,1,5.75.33,178,178,0,0,0,24.39,22.82,4.16,4.16,0,0,1,.77,5.78A4,4,0,0,1,712.9,602.83Zm-55-70.13a4.06,4.06,0,0,1-3.71-2.43c-1.2-2.68-2.33-5.41-3.41-8.17A190.69,190.69,0,0,1,642.93,497a4.12,4.12,0,0,1,3-5,4.08,4.08,0,0,1,4.92,3,181.94,181.94,0,0,0,7.52,24q1.54,4,3.26,7.82a4.1,4.1,0,0,1-3.71,5.81Z" transform="translate(2 -2)"/><path class="cls-25" d="M642.32,444.34H642a4.1,4.1,0,0,1-3.77-4.4c.4-5.59,1-11.22,2-16.74a4.05,4.05,0,0,1,4.67-3.41,4.12,4.12,0,0,1,3.36,4.74c-.85,5.28-1.47,10.66-1.85,16A4.1,4.1,0,0,1,642.32,444.34Z" transform="translate(2 -2)"/><path class="cls-26" d="M713.8,311.14a4,4,0,0,1-3.26-1.65,4.15,4.15,0,0,1,.81-5.77c4.43-3.37,9-6.58,13.73-9.52a4,4,0,0,1,5.61,1.33,4.14,4.14,0,0,1-1.31,5.67c-4.48,2.82-8.9,5.88-13.13,9.11A4,4,0,0,1,713.8,311.14Z" transform="translate(2 -2)"/><path class="cls-27" d="M1000.7,423.78a4.09,4.09,0,0,1-4-3.36,182.11,182.11,0,0,0-9-31.82,4.14,4.14,0,0,1,2.32-5.33,4.06,4.06,0,0,1,5.27,2.35,190.48,190.48,0,0,1,9.38,33.28,4.12,4.12,0,0,1-3.26,4.81A3.81,3.81,0,0,1,1000.7,423.78Zm-36-80.19a4.05,4.05,0,0,1-3.19-1.56,177.23,177.23,0,0,0-22.57-23.9,4.16,4.16,0,0,1-.4-5.82,4,4,0,0,1,5.74-.41,185.58,185.58,0,0,1,23.61,25,4.15,4.15,0,0,1-.66,5.79A4,4,0,0,1,964.66,343.59Zm-68.87-53.82a4,4,0,0,1-1.64-.35,177.13,177.13,0,0,0-31-10.51,4.12,4.12,0,0,1,1.87-8,184.4,184.4,0,0,1,32.41,11,4.14,4.14,0,0,1,2.09,5.43A4.09,4.09,0,0,1,895.79,289.77Zm-118.73-9.62a4.13,4.13,0,0,1-1-8.11,182.27,182.27,0,0,1,33.73-5.65,4.06,4.06,0,0,1,4.36,3.81,4.12,4.12,0,0,1-3.78,4.41A174.69,174.69,0,0,0,778.1,280,3.77,3.77,0,0,1,777.06,280.15Z" transform="translate(2 -2)"/><path class="cls-28" d="M999.88,495.05A4,4,0,0,1,999,495a4.13,4.13,0,0,1-3.15-4.89c1.1-5.24,2-10.58,2.59-15.89a4.07,4.07,0,1,1,8.09,1c-.65,5.54-1.56,11.14-2.71,16.62A4.08,4.08,0,0,1,999.88,495.05Z" transform="translate(2 -2)"/><path class="cls-21" d="M822.07,541.46a86.21,86.21,0,0,1-53.22-18.41,88.25,88.25,0,0,1-33.41-58.78,91.14,91.14,0,0,1-.75-11.62,88.65,88.65,0,0,1,18.19-53.86,86.84,86.84,0,0,1,122.77-16.17,88.29,88.29,0,0,1,33.41,58.78,89.94,89.94,0,0,1,.54,17.5c0,.45-.06.9-.1,1.36l-12.17-1q.25-3.14.25-6.29a76.92,76.92,0,0,0-.64-9.94h0a76.88,76.88,0,0,0-1.66-8.86s0,0,0-.06h0a.29.29,0,0,1,0-.09h0a75.77,75.77,0,0,0-27.06-41.57,74.71,74.71,0,0,0-105.63,13.91,76.28,76.28,0,0,0-15.65,46.35,78.27,78.27,0,0,0,.64,10,76,76,0,0,0,28.75,50.59,74.67,74.67,0,0,0,92.64-.58l7.58,9.69a86.85,86.85,0,0,1-43,18.34A89,89,0,0,1,822.07,541.46Z" transform="translate(2 -2)"/><path class="cls-29" d="M2001.68,717.27c-.36-4.51-4.9-8.4-12.6-11.53,8.36-4.66,13-9.66,12.6-14.57-1.19-14.84-47.62-23.16-103.71-18.58s-100.61,20.32-99.43,35.16c.36,4.5,4.9,8.4,12.59,11.52-8.36,4.67-13,9.67-12.59,14.58.36,4.5,4.9,8.39,12.59,11.52-8.36,4.66-13,9.66-12.59,14.57.36,4.5,4.9,8.4,12.59,11.52-8.36,4.67-13,9.67-12.59,14.57.52,6.56,9.91,11.85,25,15.31a134.94,134.94,0,0,0,.39,16c2.19,27.34,32.58,48.79,72.77,48.79s75-29.24,75.38-56.67a139.73,139.73,0,0,0-.78-17.9c19.23-6.51,30.94-14.45,30.33-22.15-.36-4.5-4.9-8.4-12.6-11.52,8.36-4.67,13-9.67,12.6-14.57-.36-4.5-4.9-8.4-12.6-11.52C1997.44,727.17,2002.07,722.17,2001.68,717.27Z" transform="translate(2 -2)"/><path class="cls-30" d="M1872,807.25c-16.66,0-31.9-1.24-44.5-3.69a1.36,1.36,0,0,1-1.07-1.59,1.34,1.34,0,0,1,1.58-1.08c19.71,3.82,46,4.66,74.12,2.36,23-1.87,44.48-5.62,62.16-10.85a1.35,1.35,0,0,1,1.67.93,1.36,1.36,0,0,1-.91,1.69c-17.86,5.27-39.54,9.06-62.7,11C1891.92,806.82,1881.73,807.25,1872,807.25Z" transform="translate(2 -2)"/><path class="cls-31" d="M1872.29,781.13c-21.65,0-41-2.06-54.63-6a1.37,1.37,0,0,1,.74-2.63c19.44,5.61,50.74,7.34,83.74,4.65,32.64-2.66,63.08-9.37,81.43-17.93a1.33,1.33,0,0,1,1.78.67,1.37,1.37,0,0,1-.66,1.81c-18.62,8.69-49.4,15.48-82.33,18.17C1892.08,780.72,1882,781.13,1872.29,781.13Z" transform="translate(2 -2)"/><path class="cls-32" d="M1872,755.06c-23.37,0-43.82-2.42-57.58-7a1.35,1.35,0,0,1-.86-1.72,1.33,1.33,0,0,1,1.7-.87c19.15,6.39,51.63,8.49,86.87,5.62,32.64-2.66,63.08-9.37,81.43-17.93a1.33,1.33,0,0,1,1.78.66,1.37,1.37,0,0,1-.66,1.81c-18.62,8.7-49.4,15.49-82.33,18.18C1891.92,754.64,1881.71,755.06,1872,755.06Z" transform="translate(2 -2)"/><path class="cls-33" d="M1872.19,729c-18.54,0-35.4-1.52-48.51-4.46a1.38,1.38,0,0,1-1-1.63,1.35,1.35,0,0,1,1.61-1c19.71,4.44,48.09,5.59,77.87,3.16,32.34-2.64,62.63-9.28,81-17.74a1.33,1.33,0,0,1,1.78.67,1.37,1.37,0,0,1-.66,1.81c-18.65,8.59-49.27,15.31-81.91,18C1892,728.54,1881.89,729,1872.19,729Z" transform="translate(2 -2)"/><path class="cls-21" d="M1760.89,585.55a192.92,192.92,0,0,0-34-67.13c-33.4-42.6-87.87-129.24-94.58-247.49-9.75-172,140.94-258.1,278.46-246.41S2184,139.85,2169.15,299.86C2160,398.31,2105.57,473,2065,515.87a228.73,228.73,0,0,0-54,96.91c-12.17,44.46-41.12,99.86-109.92,103.24C1812,720.39,1775.07,636.38,1760.89,585.55Z" transform="translate(2 -2)"/><path class="cls-34" d="M1923.82,681.72l48.12-316.78c1-6.54,4.17-10.94,7.1-9.81s4.5,7.34,3.51,13.88c0,.17-.06.39-.09.56L1927.65,683.4c-.41,2.36-1.59,3.85-2.64,3.33S1923.48,684,1923.82,681.72Z" transform="translate(2 -2)"/><path class="cls-35" d="M1873.88,684.23l-48.12-316.77c-1-6.55-4.18-10.94-7.11-9.82s-4.5,7.34-3.5,13.89c0,.17.06.38.09.56l54.81,313.83c.41,2.36,1.59,3.85,2.64,3.33S1874.22,686.52,1873.88,684.23Z" transform="translate(2 -2)"/><path class="cls-36" d="M1971.59,337.74a5,5,0,0,0-6.31-1.65l-26.8,12.67-9.3-26.83a5.68,5.68,0,0,0-3.25-3.31,6.58,6.58,0,0,0-8.24,2.56l0,.09-22,40.67-20.44-57.89,0-.1a6.58,6.58,0,0,0-3.09-3.53,8,8,0,0,0-10.12,2l-30.8,42.92a3.8,3.8,0,0,0,1.08,5.42,5.13,5.13,0,0,0,6.55-.72l27.13-30.63,24.41,55.07,0,0a4.38,4.38,0,0,0,2.15,2.14,5.07,5.07,0,0,0,6.39-1.68l23.57-38.27,8.87,19.36.08.17a2.32,2.32,0,0,0,.22.41,5,5,0,0,0,6.31,1.66l31.8-15A3.86,3.86,0,0,0,1971.59,337.74Z" transform="translate(2 -2)"/><path class="cls-37" d="M2066.08,475a6,6,0,0,1-3.63-1.22,6.23,6.23,0,0,1-1.27-8.65,360.57,360.57,0,0,0,22.32-34.32,6.08,6.08,0,0,1,8.35-2.26,6.22,6.22,0,0,1,2.23,8.44A372,372,0,0,1,2071,472.54,6.06,6.06,0,0,1,2066.08,475Z" transform="translate(2 -2)"/><path class="cls-38" d="M2105.66,406.27a6,6,0,0,1-2.43-.51,6.2,6.2,0,0,1-3.16-8.13c50.84-118.53,7-218,6.54-219a6.21,6.21,0,0,1,3-8.19,6.08,6.08,0,0,1,8.1,3c1.92,4.25,46.55,105.54-6.45,229.07A6.11,6.11,0,0,1,2105.66,406.27Z" transform="translate(2 -2)"/><path class="cls-39" d="M1525.85,2067.34s-4.22,22.94-6.4,45.67a15.61,15.61,0,0,0,14.65,17.13c29.91,1.55,93.91,4.62,116.89,3.8a5.09,5.09,0,0,0,4.5-6.94h0a11.37,11.37,0,0,0-5.71-6.21l-105.28-50.21Z" transform="translate(2 -2)"/><path class="cls-40" d="M1522.7,2053.81l3,27.51s18.44,8.91,31.18-.79l-7.38-30.71Z" transform="translate(2 -2)"/><path class="cls-41" d="M1530,1537.05c-1.46,7.17-10.85,358.14,24.74,515.81a5.36,5.36,0,0,1-3.15,6.18,91,91,0,0,1-30.25,5.92,9.1,9.1,0,0,1-8.95-6.69c-10.25-36.6-59.31-220-64.28-394.71-5.57-195.26.06-6.64.06-6.64l5.48-120.62Z" transform="translate(2 -2)"/><path class="cls-42" d="M1404.1,2078.15s-6.49,11.54-13,42.31a9.54,9.54,0,0,0,8.2,11.53c9.87,1.08,25.08,2.49,37.26,2.53A9.5,9.5,0,0,0,1446,2124c-1.25-11.26-5.28-29.77-18.13-44.28Z" transform="translate(2 -2)"/><path class="cls-43" d="M1398.83,2042.74l7.13,41.65s7.39,5.67,22.16,1.75l-3.17-44.76Z" transform="translate(2 -2)"/><path class="cls-44" d="M1383.16,1546.41c-32.06,184.91,2.27,457.82,14.21,511.28a8.25,8.25,0,0,0,6.57,6.38c5.55,1,14.69,1.84,23.73-.73a7.6,7.6,0,0,0,5.48-7c2.07-43.12,1.56-307.9,30.8-412.27a23.75,23.75,0,0,1,9.18-13l55.2-38.93,4.81-63.73Z" transform="translate(2 -2)"/><path class="cls-45" d="M1579.66,1197.34c-90.84-2.4-191.34,22.3-191.34,22.3-28.59,159.7-8,344.42-8,344.42,70.16,19.35,149.8-10,149.8-10,12.32-66.75,68.64-254.39,68.64-254.39,44.44-5.14,81.13-17.76,111.41-34.6-22.72-27.18-33.22-61.58-37.74-81.9C1640.24,1193,1607.68,1198.08,1579.66,1197.34Z" transform="translate(2 -2)"/><path class="cls-46" d="M1849.31,1064.47c-8.82-11-20.17-6-20.17-6-13.9,57-84.45,102.72-156.69,124.68,4.52,20.32,15,54.72,37.74,81.9C1830.36,1198.22,1849.31,1064.47,1849.31,1064.47Z" transform="translate(2 -2)"/><path class="cls-47" d="M1847.12,1067.22c.91,3-9.95,7.49-16.2-4.86-.17-5.9-3.47-31.17,0-35.93,18.76-25.38,55-57.08,55-57.08,6,6.12,1,12,1,12l-17.6,18.2c3.59,6.7,8,12.37,10,20.45a25,25,0,0,1-2.6,18.16c-3.11,5.55-7.35,12.76-11.35,18.39C1857.76,1067.24,1847.12,1067.22,1847.12,1067.22Z" transform="translate(2 -2)"/><path class="cls-48" d="M1861.57,1011.42l-16,13.47-5.11,13.52,14,16s5-26.87,8.61-32.66S1864.85,1013.16,1861.57,1011.42Z" transform="translate(2 -2)"/><path class="cls-45" d="M1422.33,1309l-34-89.39s-85.41,57.55-100.07,131.42c16,1.35,45.17,5.85,73.59,20.73C1368.45,1336.9,1422.33,1309,1422.33,1309Z" transform="translate(2 -2)"/><path class="cls-49" d="M1495.71,1393.54s-95.8,53.59-127.51,6.74c-6.58-9.73-8.09-19.35-6.36-28.49-28.42-14.88-57.56-19.38-73.59-20.73a103.3,103.3,0,0,0,10.31,70.12c55.33,104.83,209.53-3.74,209.53-3.74Z" transform="translate(2 -2)"/><path class="cls-50" d="M1488.33,1121.79l-29.71,84.35a3.07,3.07,0,0,0,1.34,3.68c7.84,4.49,36.11,17.51,70.53-4.12a14.35,14.35,0,0,0,6.63-10.19l10.06-73.15Z" transform="translate(2 -2)"/><path class="cls-51" d="M1552,1044s31.18,60.79,26.88,85.19-43.63,22.26-77.8,2.08l-23.39-65.54Z" transform="translate(2 -2)"/><path class="cls-52" d="M1502.87,1099.24a2.5,2.5,0,0,0,1.11-3.64c-2.5-3.95-7.19-12-8.65-19.06,0,0-5.67-3.76,14.61-8.46s50.52-12,57-29.4c6.35-16.93-9.5-59.83-35.74-26a2.44,2.44,0,0,1-3.9,0c-4.19-5.63-15.25-17.36-30.83-10.47-14.57,6.45-16.31,17.2-16.16,22.63a2.46,2.46,0,0,1-2.93,2.51c-7.32-1.49-24.92-2.87-33.31,15.33-6.91,15-2.59,23.56,1.38,27.77a2.5,2.5,0,0,1-1.09,4.12c-4.84,1.45-11.11,5.53-10.59,17,.71,15.82,18.19,14.59,23.17,13.92a2.46,2.46,0,0,1,2.18.8c4.21,4.82,23.23,25.28,44,27.93a2.5,2.5,0,0,0,2.63-3.3l-8.74-26.56a2.51,2.51,0,0,1,1.36-3.09Z" transform="translate(2 -2)"/><path class="cls-53" d="M1506.46,1103s-22.46-15.91-24.24-2.71,20.18,19.35,31.12,14.52Z" transform="translate(2 -2)"/><path class="cls-54" d="M1476.13,1478.23l52.18-184.47a5.34,5.34,0,0,1,4.5-3.87c9.45-1.12,36.85-4.25,68.48-7,38.1-3.26,82.35-5.9,108.79-3.66a5.4,5.4,0,0,1,4.36,7.77c-15,30.79-76.88,156-107.85,197.08a5.36,5.36,0,0,1-4.31,2.14l-121.07-1.15A5.38,5.38,0,0,1,1476.13,1478.23Z" transform="translate(2 -2)"/><path class="cls-55" d="M1488.74,1433.66s-7.27-30.25-4.34-41,8.61-24.53,27.55-21.47,41.28,11.15,41.28,11.15-1.13,14-15.52,9.47l8.92,7s-1.28,11.19-13.43,5.21l8.3,9.27s-5.22,9.2-14.17,3.3S1514.1,1437.31,1488.74,1433.66Z" transform="translate(2 -2)"/><path class="cls-56" d="M1597.81,1338a15.32,15.32,0,1,0,15.32-15.51A15.41,15.41,0,0,0,1597.81,1338Z" transform="translate(2 -2)"/><path class="cls-57" d="M1534.22,1348.22l-3.91-1.17,10.63-36.48a16.49,16.49,0,0,1,12.36-11.64c33.68-7.12,122.37-8.57,126.13-8.63l.07,4.12c-.92,0-92.07,1.51-125.37,8.54a12.41,12.41,0,0,0-9.29,8.78Z" transform="translate(2 -2)"/><path class="cls-58" d="M916.62,1864.46c-5.56,8.33-27.67,197-31.13,266.65a8.19,8.19,0,0,0,8.15,8.64h0a8.18,8.18,0,0,0,8.06-7l40.44-262.31Z" transform="translate(2 -2)"/><path class="cls-59" d="M1094.38,1864.46c5.56,8.33,27.67,197,31.13,266.65a8.19,8.19,0,0,1-8.15,8.64h0a8.18,8.18,0,0,1-8.06-7l-40.44-262.31Z" transform="translate(2 -2)"/><path class="cls-60" d="M883.18,1849.74l0,2.06c-.13,14.8,12.46,26.94,28.24,27.21l186.91,3.21c15.54.27,28.5-11.1,29.26-25.67l.09-1.88c.79-15.2-12-28-28.17-28.29l-187-3.39C896.49,1822.7,883.32,1834.72,883.18,1849.74Z" transform="translate(2 -2)"/><path class="cls-61" d="M1276.92,2124.26c-33.22,0-47.93-2.88-54.5-5.51a12.65,12.65,0,0,0,12.28,9.88h117.55a5.78,5.78,0,0,0,5.51-7.31C1344.36,2122.41,1315.9,2124.26,1276.92,2124.26Z" transform="translate(2 -2)"/><path class="cls-62" d="M1357.76,2121.32a5.46,5.46,0,0,0-1-2c-9-11.57-26.94-29.75-51.4-29.4-35.85.51-48.34,4.45-76.2.22l-6.57,22.05a12.83,12.83,0,0,0-.2,6.58c6.57,2.63,21.28,5.51,54.5,5.51C1315.9,2124.26,1344.36,2122.41,1357.76,2121.32Z" transform="translate(2 -2)"/><path class="cls-63" d="M1237.26,2066.36l-8.07,27.77s17.87,8.24,33.59,1.63l3.08-24.06Z" transform="translate(2 -2)"/><path class="cls-61" d="M1480.89,2106.78c-25.91,21.06-39.14,28.14-45.89,30.27a12.46,12.46,0,0,0,15.66-.12l91.63-74.52a5.82,5.82,0,0,0-.2-9.17C1532.31,2062.59,1511.27,2082.06,1480.89,2106.78Z" transform="translate(2 -2)"/><path class="cls-64" d="M1542.09,2053.24a5.47,5.47,0,0,0-2-1c-14.11-3.3-39.32-6-58.18,9.79-27.62,23.12-34.94,34.1-59.26,48.48l8.46,21.27a12.47,12.47,0,0,0,3.89,5.23c6.75-2.13,20-9.21,45.89-30.27C1511.27,2082.06,1532.31,2062.59,1542.09,2053.24Z" transform="translate(2 -2)"/><path class="cls-65" d="M1064.71,1750s198.93,16.44,239.74,35.88-33.3,292-33.3,292-11.11,5.41-35.83-2.37c0,0,25.35-201.12,6.48-244.73l-215.39-35.66Z" transform="translate(2 -2)"/><path class="cls-66" d="M1402.89,2072.27c1.84,1.7,19.76,38.28,19.76,38.28s19.95-4.37,24-17.15l-18-33Z" transform="translate(2 -2)"/><path class="cls-67" d="M944.9,1748.31a103.16,103.16,0,0,0-6.22,36.77,54.91,54.91,0,0,0,52.05,54L1225.89,1850a11.33,11.33,0,0,1,10.42,8.58c5.52,21.64,32.53,88.08,164.57,220.66a10.54,10.54,0,0,0,13.17,1.45l18.8-12a4.42,4.42,0,0,0,1.42-5.92L1297.34,1826a53,53,0,0,0-32.19-24.17L1064.71,1750Z" transform="translate(2 -2)"/><path class="cls-68" d="M1176.65,1378.6s-25.19,45.08-50.87,66.93l53.09,30s12-47.73,39.29-61.71Z" transform="translate(2 -2)"/><path class="cls-69" d="M940.63,1750s63.48,15.66,124.08,0c0,0,84.8-115.38,117.6-146.79,0,0,52.33,83.58,168.8,95.43l6.49-14.7s-92.72-43.26-121.26-109.74-40-94.83-66-112.18c-16.18-10.8-25.86-18.18-30.87-22.21a8.24,8.24,0,0,0-9.51-.61C1102.42,1456.2,972.74,1546.1,940.63,1750Z" transform="translate(2 -2)"/><path class="cls-70" d="M1178.87,1601.59a4,4,0,0,1-3.23-1.62c-20.22-26.68-31.48-56.1-32-57.33a4.14,4.14,0,0,1,2.34-5.33,4.07,4.07,0,0,1,5.26,2.37c.11.3,11.33,29.57,30.81,55.28a4.15,4.15,0,0,1-.76,5.78A4,4,0,0,1,1178.87,1601.59Z" transform="translate(2 -2)"/><path class="cls-71" d="M1344.1,1676.27l13.11-3.54,39.81-9.33a18.28,18.28,0,0,1,14,2.39l34.22,21.8-94.51-.16Z" transform="translate(2 -2)"/><path class="cls-72" d="M1216.65,1311s24.49,41.2,28.73,64,11.07,37-14.53,45.11-49.39-2.15-64.32-23.41c0,0-23.32-32.71-21-47.69S1216.65,1311,1216.65,1311Z" transform="translate(2 -2)"/><path class="cls-73" d="M1173.34,1379l3.31-.44s-17.33-26.52-6-33.1,57.57-22.71,65.6-41.14c7.74-17.77-3.84-37.84-17.8-42a1.76,1.76,0,0,0-2.13,1.13l-.82,2.24a1.79,1.79,0,0,1-3.33.1h0a1.78,1.78,0,0,0-3.25-.07c-2.48,5.52-9.89,15-32.12,22.24-31.54,10.36-51.19,26.45-48.78,49.14a1.8,1.8,0,0,1-2.56,1.84c-2.58-1.15-6.49-1.34-11,3.69-7.89,8.74-1.71,27.85,19.85,41.38a1.81,1.81,0,0,1,.29,2.9c-3.22,2.8-7.76,9,6.83,14.58,14.92,5.69,23.06,3.76,26.07,2.54a1.81,1.81,0,0,0,1.1-2l-3.83-19.88a1.81,1.81,0,0,1,1.53-2.15Z" transform="translate(2 -2)"/><path class="cls-74" d="M1174.7,1383.13s-10.8-27-22.15-17.49,10.49,30.42,20.57,30.14Z" transform="translate(2 -2)"/><path class="cls-75" d="M1307.59,1706.35l.46,0,201.92-.21a9.13,9.13,0,0,0,0-18.26l-201.91.2a9.13,9.13,0,0,0-.44,18.25Z" transform="translate(2 -2)"/><path class="cls-76" d="M1588.16,1506.2c-.07.14-.14.28-.2.42L1503,1692a9.19,9.19,0,0,0,4.38,12.14,8.94,8.94,0,0,0,12-4.46l85-185.41a9.18,9.18,0,0,0-4.38-12.14A9,9,0,0,0,1588.16,1506.2Z" transform="translate(2 -2)"/><rect class="cls-77" x="2097.58" y="1890.69" width="21.31" height="233.28"/><path class="cls-78" d="M2199.56,2130.47H2012.91a14,14,0,0,1,13.87-14h158.91a14,14,0,0,1,13.87,14Z" transform="translate(2 -2)"/><path class="cls-79" d="M2227.26,1884.59a23.13,23.13,0,0,1-22.92,23.2H2015.5a23.13,23.13,0,0,1-22.92-23.2v-21a23.13,23.13,0,0,1,22.92-23.2h188.84a23.13,23.13,0,0,1,22.92,23.2Z" transform="translate(2 -2)"/><path class="cls-80" d="M1948.91,1737.14s-31.67,5-67.27,29.06a18.06,18.06,0,0,0-7.84,17.17c4.27,34.19,21.8,144.82,79.6,252.89a27.49,27.49,0,0,1,2.58,18.66l-10,47.31-18.63,17.67h48l31.94-87.49-13.66-4.37a26.1,26.1,0,0,1-18-24.48l-1.61-93.85c1.37-41.82-25.32-70.67-25.32-70.67l76.6-3.77Z" transform="translate(2 -2)"/><path class="cls-81" d="M1908.58,2128.44c-4.37,5.78,47,13.42,73,.76,0,0,36-63.38,36-96,0,0-2.86-6.66-24-5.15,0,0-12.08,75.05-24.84,83.46s-35.7.85-35.7.85S1915,2119.9,1908.58,2128.44Z" transform="translate(2 -2)"/><path class="cls-82" d="M2015.5,1840.42c-.41-.72-82.48-10-82.48-10s2.69,25.26-5.71,60-128.89,185.42-128.89,185.42l12.63,40.54c-39.06,13.78-77.49,16-115.3,7l78.3-47.57s73.28-252.78,118.17-297.88l82.27-28.81Z" transform="translate(2 -2)"/><path class="cls-21" d="M2199.56,1693.33s47.29,71.19,51.17,103.67-13,45.67-62.57,47.84-182.07,2.14-182.07,2.14l-113-97.79s82.38-29.75,103.8-38.17S2199.56,1693.33,2199.56,1693.33Z" transform="translate(2 -2)"/><path class="cls-83" d="M1806.28,2102.77s13.6,13.34,4.41,28.18c0,0-107.75,19.33-137,10.56,0,0,6.07-14,39-30l-2.43,1.89a4,4,0,0,0,2.6,7.14C1734.58,2119.28,1779.5,2115.25,1806.28,2102.77Z" transform="translate(2 -2)"/><path class="cls-84" d="M1994.73,1241.85c96.66-16.64,142.17,63.16,138.85,79.93a3,3,0,0,0,3.79,3.52c11.1-3,35.61-6.84,50.81,12.44,13.42,17,3.39,33.07-4.79,41.89a3.09,3.09,0,0,0,2.55,5.22c20.4-2.61,64.74-3.23,72,38.8,6.76,39.2-20.19,50.26-36.18,53.38a3.07,3.07,0,0,0-1,5.61c8,5.13,17.22,15.71,13.48,36.59-5.85,32.74-69.26,30.06-76.67,29.63a2.82,2.82,0,0,1-1.32-.4l-101.56-58.63a3,3,0,0,1-1.49-2.15l-20.5-119.86a3.11,3.11,0,0,1,.8-2.67l-66.2-94.57C1943.24,1267,1993.6,1242,1994.73,1241.85Z" transform="translate(2 -2)"/><path class="cls-21" d="M2071.68,1683.91s-55.06-53.08-82.17-88.23a75.29,75.29,0,0,1-12.47-67.12c12.37-42.2,34.36-85.91,36.37-92.72,3.07-10.42,64.81-10,64.81-10s121.5,79.82,169.23,215l-53.61,16.89s-31.72-53.87-63.06-88.12c0,0,54.23,72.52,56.14,102.21Z" transform="translate(2 -2)"/><path class="cls-85" d="M2005.94,1377.57c.65,2.17,16.76,56.24,18,57.36s35.34,3,51.38-8.12L2035.55,1348Z" transform="translate(2 -2)"/><path class="cls-86" d="M1941.34,1308.08s-7.79,31,13.76,72.65,45.94,41.62,59.27,28.28,29.78-36,25.87-76.25S1952.59,1268.68,1941.34,1308.08Z" transform="translate(2 -2)"/><path class="cls-87" d="M2010.44,1335s-35.75-55.32-69.28-11.78l-.6,15.83s-39.26-4.71-32.39-41.15,40.8-59.22,84.5-43.44,68.74,32,71.56,63.67-22.1,24.75-22.1,24.75-8.12-22.32-19.68-24.64-8.55,15.09-8.55,15.09Z" transform="translate(2 -2)"/><path class="cls-88" d="M2025.66,1346.88s-18.54-28.33.46-32.55,16.05,27.6,14,39.37Z" transform="translate(2 -2)"/><path class="cls-89" d="M1959.5,1687.85l40.46-39.47,56,23.93s55.7,8.74,87.59,0l31.88-8.74,72-22.7,11.32,32.37a19.62,19.62,0,0,1-7,22.39c-6.24,4.49-13.54,9.41-18.2,11.48-9.49,4.2-233.9-2.91-233.9-2.91Z" transform="translate(2 -2)"/><path class="cls-90" d="M2112.6,1706.46h-.54l-234.68-.26a10.64,10.64,0,0,1,0-21.27l234.68.26a10.64,10.64,0,0,1,.51,21.26Z" transform="translate(2 -2)"/><path class="cls-91" d="M1666.41,1490.77h195.45a37.22,37.22,0,0,1,33.69,21.63l90.35,193.93H1743a22.66,22.66,0,0,1-21.06-14.49l-70.06-179.46A15.78,15.78,0,0,1,1666.41,1490.77Z" transform="translate(2 -2)"/><path class="cls-45" d="M1804.11,1590.21c4.23,13.32,1.1,26.25-7,28.89s-18.09-6-22.33-19.34-1.11-26.25,7-28.89S1799.87,1576.89,1804.11,1590.21Z" transform="translate(2 -2)"/><path class="cls-92" d="M2380.16,2101.06a294.16,294.16,0,0,1,3.44,30.28,13,13,0,0,1-11.61,13.77c-24,2.35-78.7,6.71-113.62,1.61a6,6,0,0,1-3.22-10.21c14.4-13.57,49.17-40,106.39-45.75Z" transform="translate(2 -2)"/><path class="cls-93" d="M2392.1,2069.86,2380,2100a9.92,9.92,0,0,1-10.19,6.23,53.4,53.4,0,0,1-9.92-1.94,13.23,13.23,0,0,1-8.67-16.41l9.17-31Z" transform="translate(2 -2)"/><path class="cls-94" d="M2599.74,2125.06s-24.32,20.6-33.79,47a11.21,11.21,0,0,0,10.53,14.92h50.05a11.91,11.91,0,0,0,11.67-14C2635,2154.78,2625.82,2125.14,2599.74,2125.06Z" transform="translate(2 -2)"/><path class="cls-95" d="M2629.87,2098.26s-4.91,22-8.69,36.55a4.59,4.59,0,0,1-6,3.17c-7.57-2.74-13.74-3.95-18.22-3.35a3.54,3.54,0,0,1-3.9-3.57l-.47-36.56Z" transform="translate(2 -2)"/><path class="cls-96" d="M2500.52,1603l-147.92,456.8s28.37,18.81,41.89,18l175.7-367.11s30.75,226.2,15.85,388.6l50.33,3.88s81.83-415,19.85-557.15Z" transform="translate(2 -2)"/><path class="cls-97" d="M2569.24,1706.78h.18a1.44,1.44,0,0,0,1.24-1.62l-5.74-46.12a1.43,1.43,0,0,0-1.6-1.26,1.45,1.45,0,0,0-1.24,1.62l5.74,46.12A1.44,1.44,0,0,0,2569.24,1706.78Z" transform="translate(2 -2)"/><path class="cls-45" d="M2472.79,1201.05s119.85,10.77,102.9,97.21c0,0,66.25,126.2,97.22,274.86a8.73,8.73,0,0,1-7,10.39l-199.59,34.59a10.75,10.75,0,0,1-12.21-8l-47.69-186.56-18.58,86.73-59-15.57,49.71-254.87S2385.42,1202.65,2472.79,1201.05Z" transform="translate(2 -2)"/><path class="cls-61" d="M2405.4,1415.2a1.63,1.63,0,0,0,.31,0,1.51,1.51,0,0,0,1.14-1.79l-16.64-77.33a1.48,1.48,0,0,0-1.77-1.15,1.5,1.5,0,0,0-1.13,1.79l16.63,77.33A1.5,1.5,0,0,0,2405.4,1415.2Z" transform="translate(2 -2)"/><path class="cls-98" d="M2417.44,1645.3a28.21,28.21,0,0,1,20.61-2.71l13.89,3.5a5,5,0,0,0,6.21-4.38l14.37-129.46c18,8.63,43.9,7.6,52.44,7l-33.07,152.63H2376.15Z" transform="translate(2 -2)"/><path class="cls-99" d="M2109.92,1364.47l3.5-11.77a23.18,23.18,0,0,1,13.44-14.89l63.27-25.75s1-8.22-13.36-13.8-11-21.82-11-21.82,19.57,9,48.22,23.37c16.38,8.2,25.57,22.67,30.45,33.56l143.37,176.91L2371,1522a44.65,44.65,0,0,1-65.15-16.18l-77.67-150.76C2189.18,1366.91,2149.72,1369.18,2109.92,1364.47Z" transform="translate(2 -2)"/><path class="cls-100" d="M2434,1118.52,2470.83,1223s-32.64,25.83-56.46,17.1l-18.58-59.87S2410,1107,2434,1118.52Z" transform="translate(2 -2)"/><path class="cls-101" d="M2324,1081c0,1.61,35.51,101.74,35.51,101.74l56.05-21.73-19.72-100S2324,1054.08,2324,1081Z" transform="translate(2 -2)"/><path class="cls-102" d="M2386,1085.41l14.45,51.8a7.37,7.37,0,0,1,.28,2c0,4.22-1,18.76-15.66,16.78-13.27-1.79-25.41-3.23-33.13.45a7.54,7.54,0,0,0-3.83,9.34c3.23,9.1,10.88,29.47,20.19,46.13a7.36,7.36,0,0,0,9.53,3.09c10.53-4.85,32.45-15.7,48.06-28.62a7.57,7.57,0,0,0,2.63-7.22c-2.46-13.25-9.77-53.55-10.1-65.11-.3-10.84,11.72-19.11,17-22.22a7.42,7.42,0,0,0,3.44-4.68c1.66-7,3.07-22.77-16.83-26.25a7.53,7.53,0,0,1-6-9c1.69-8.34,1.15-20.62-14.51-25.15-15.91-4.6-25.93,5.1-31,12.54a7.39,7.39,0,0,1-9.21,2.49c-1.88-.85-4.15-.89-6.59,1.19a7.26,7.26,0,0,1-10.7-1.65c-4.65-6.91-13.08-13.81-27.35-9.14-25.32,8.29-24.11,37.85-14.83,53.92s36.24,5.49,49-5.15c9.7-8.1,24.47-3.26,31-.47A7.41,7.41,0,0,1,2386,1085.41Z" transform="translate(2 -2)"/><path class="cls-103" d="M2423.46,1133s-15-28.7-5.08-37.71,26.71-7.54,26.25,14.9C2444.07,1138.11,2423.46,1133,2423.46,1133Z" transform="translate(2 -2)"/><path class="cls-61" d="M2513.33,1521.16a142,142,0,0,0,14.65-.7l1.07-.12,43.64-205.95a1.51,1.51,0,0,0-1.14-1.79,1.48,1.48,0,0,0-1.77,1.16l-43.19,203.81c-6.49.58-41.17,2.91-59.48-10.22l37.8-178.93-7.89-15.05a1.47,1.47,0,0,0-2-.63,1.52,1.52,0,0,0-.61,2l7.38,14.08-38,179.76.76.58C2477.79,1519.26,2499.1,1521.16,2513.33,1521.16Z" transform="translate(2 -2)"/><path class="cls-61" d="M1205,2149.09a7,7,0,0,1-3-.68c-3.86-1.84-5.64-6.78-4-11l159.47-409.57c1.66-4.26,6.13-6.23,10-4.4s5.64,6.78,4,11L1212,2144A7.62,7.62,0,0,1,1205,2149.09Z" transform="translate(2 -2)"/><path class="cls-61" d="M1384.69,2149.09a7.62,7.62,0,0,1-7-5.08l-159.47-409.57c-1.66-4.26.12-9.21,4-11s8.33.14,10,4.4l159.47,409.57c1.66,4.26-.12,9.2-4,11A7,7,0,0,1,1384.69,2149.09Z" transform="translate(2 -2)"/><path class="cls-61" d="M2287.31,2149.09a7,7,0,0,1-3-.68c-3.85-1.84-5.64-6.78-4-11L2439.8,1727.8c1.66-4.26,6.13-6.23,10-4.4s5.64,6.78,4,11L2294.3,2144A7.61,7.61,0,0,1,2287.31,2149.09Z" transform="translate(2 -2)"/><path class="cls-61" d="M2467,2149.09a7.63,7.63,0,0,1-7-5.08L2300.5,1734.44c-1.65-4.26.13-9.21,4-11s8.33.14,10,4.4l159.47,409.57c1.66,4.26-.12,9.2-4,11A7,7,0,0,1,2467,2149.09Z" transform="translate(2 -2)"/><path class="cls-104" d="M2264.18,1698.87h231v-24.13h-231C2269.12,1674.74,2269.12,1698.87,2264.18,1698.87Z" transform="translate(2 -2)"/><path class="cls-105" d="M2493.34,1698.87a1.82,1.82,0,0,0,1.8-1.82v-20.48a1.82,1.82,0,0,0-1.8-1.83h-234.4a1.82,1.82,0,0,1-1.81-1.82v-1.81a1.82,1.82,0,0,1,1.81-1.82h249.43a10,10,0,0,1,10,10.1v15.42a9.47,9.47,0,0,1-9.4,9.52h-250a1.83,1.83,0,0,1-1.81-1.83v-1.8a1.82,1.82,0,0,1,1.81-1.83Z" transform="translate(2 -2)"/><path class="cls-61" d="M2528.62,1715.13c.78-2.69-.28-5.47-2.88-7.59a17,17,0,0,0-10.55-3.34H1131.25c-5.37,0-10.38,1.84-13.27,4.88s-3.28,6.86-1,10.13l15,21.79c3.43,5,10.87,8.19,19.06,8.19H2505.69c7.62,0,14.16-3.63,15.61-8.65Z" transform="translate(2 -2)"/><ellipse class="cls-106" cx="1149.5" cy="769.5" rx="140.5" ry="141.5"/><path class="cls-2" d="M1191.11,718a9.73,9.73,0,1,0,9.66,9.73A9.69,9.69,0,0,0,1191.11,718Z" transform="translate(2 -2)"/><path class="cls-2" d="M1148.18,730.44a40.86,40.86,0,1,0,40.57,40.86A40.76,40.76,0,0,0,1148.18,730.44Zm0,67a26.17,26.17,0,1,1,26-26.17A26.11,26.11,0,0,1,1148.18,797.47Z" transform="translate(2 -2)"/><path class="cls-2" d="M1180.38,854.26h-65.77a49.72,49.72,0,0,1-49.48-49.84V738.18a49.71,49.71,0,0,1,49.48-49.83h65.77a49.71,49.71,0,0,1,49.49,49.83v66.24A49.72,49.72,0,0,1,1180.38,854.26ZM1114.61,704a34.14,34.14,0,0,0-34,34.22v66.24a34.14,34.14,0,0,0,34,34.23h65.77a34.15,34.15,0,0,0,34-34.23V738.18a34.14,34.14,0,0,0-34-34.22Z" transform="translate(2 -2)"/><path class="cls-107" d="M2083.77,866.56a100.56,100.56,0,1,0-116.27,99.33V895.62H1942V866.56h25.53V844.4c0-25.2,15-39.12,38-39.12a154.8,154.8,0,0,1,22.51,2V832h-12.68c-12.49,0-16.38,7.75-16.38,15.7v18.87h27.88l-4.45,29.06h-23.43v70.27A100.57,100.57,0,0,0,2083.77,866.56Z" transform="translate(2 -2)"/><path class="cls-2" d="M2022.36,895.62l4.45-29.06h-27.88V847.69c0-8,3.89-15.7,16.38-15.7H2028V807.24a154.8,154.8,0,0,0-22.51-2c-23,0-38,13.92-38,39.12v22.16H1942v29.06h25.53v70.27a101.82,101.82,0,0,0,31.43,0V895.62Z" transform="translate(2 -2)"/><ellipse class="cls-108" cx="825.59" cy="450" rx="76.41" ry="75"/><path class="cls-2" d="M782.31,494.44l6.37-23.33a42.31,42.31,0,0,1-5.51-20.81c0-23.75,19.69-43.08,43.89-43.08S871,426.55,871,450.3s-19.69,43.08-43.89,43.08a44.43,44.43,0,0,1-20.86-5.22Zm25.08-15,1.5.88a36,36,0,0,0,18.17,4.94c19.63,0,35.6-15.68,35.6-34.94s-16-34.94-35.6-34.94S791.47,431,791.47,450.3a34.39,34.39,0,0,0,5.2,18.11l.93,1.49-3.56,13Z" transform="translate(2 -2)"/><path class="cls-109" d="M843.39,456.29c-1.81-1.06-4.16-2.24-6.29-1.39-1.63.66-2.67,3.16-3.73,4.45a1.6,1.6,0,0,1-2,.43,28.39,28.39,0,0,1-14.2-11.95,1.68,1.68,0,0,1,.22-2.33c1-1.19,2.3-2.53,2.58-4.12s-.48-3.45-1.15-4.87c-.86-1.81-1.82-4.39-3.67-5.41a5.1,5.1,0,0,0-5.45.79,10.77,10.77,0,0,0-3.83,8.6,11.87,11.87,0,0,0,.35,2.73,22.29,22.29,0,0,0,2.66,6,48.5,48.5,0,0,0,2.79,4.15,42.5,42.5,0,0,0,12.08,11,36.63,36.63,0,0,0,7.53,3.52c3,1,5.58,1.95,8.77,1.36s6.62-2.65,8-5.81a5,5,0,0,0,.37-3C847.88,458.49,845.07,457.28,843.39,456.29Z" transform="translate(2 -2)"/></g></svg>