<svg xmlns="http://www.w3.org/2000/svg" xmlns:xlink="http://www.w3.org/1999/xlink" viewBox="0 0 3452.58 2508.73"><defs><style>.cls-1{fill:none;}.cls-112,.cls-2{fill:#fff;}.cls-3{fill:#fbda19;}.cls-4{fill:#feb040;}.cls-5{fill:#91b3fa;}.cls-6{fill:#ffb577;}.cls-7{fill:#ff9845;}.cls-8{fill:#ffe245;}.cls-9{fill:url(#linear-gradient);}.cls-10{fill:url(#linear-gradient-2);}.cls-11{fill:url(#linear-gradient-3);}.cls-12{fill:url(#linear-gradient-4);}.cls-13{clip-path:url(#clip-path);}.cls-14{fill:url(#linear-gradient-5);}.cls-15{fill:url(#linear-gradient-6);}.cls-16{fill:url(#linear-gradient-7);}.cls-17{fill:url(#linear-gradient-8);}.cls-18{fill:url(#linear-gradient-9);}.cls-19{fill:url(#linear-gradient-10);}.cls-20{fill:url(#linear-gradient-11);}.cls-21{fill:url(#linear-gradient-12);}.cls-22{fill:url(#linear-gradient-13);}.cls-23{fill:url(#linear-gradient-14);}.cls-24{fill:url(#linear-gradient-15);}.cls-25,.cls-26{stroke:#fcee21;stroke-miterlimit:10;stroke-width:5px;}.cls-25{fill:url(#linear-gradient-16);}.cls-26{fill:url(#linear-gradient-17);}.cls-27{fill:url(#linear-gradient-18);}.cls-28{fill:url(#linear-gradient-19);}.cls-29{fill:url(#linear-gradient-20);}.cls-30{fill:url(#linear-gradient-21);}.cls-31{fill:url(#linear-gradient-22);}.cls-32{fill:url(#linear-gradient-23);}.cls-33{fill:url(#linear-gradient-24);}.cls-34{fill:url(#linear-gradient-25);}.cls-35{fill:url(#linear-gradient-26);}.cls-36{fill:url(#linear-gradient-27);}.cls-37{fill:url(#linear-gradient-28);}.cls-38{fill:url(#linear-gradient-29);}.cls-39{fill:url(#linear-gradient-30);}.cls-40{fill:url(#linear-gradient-31);}.cls-41{fill:url(#linear-gradient-32);}.cls-42{fill:url(#linear-gradient-33);}.cls-43{fill:url(#linear-gradient-34);}.cls-44{fill:url(#linear-gradient-35);}.cls-45{fill:url(#linear-gradient-36);}.cls-46{fill:url(#linear-gradient-37);}.cls-47{fill:url(#linear-gradient-38);}.cls-48{fill:url(#linear-gradient-39);}.cls-49{fill:url(#linear-gradient-40);}.cls-50{fill:url(#linear-gradient-41);}.cls-51{fill:url(#linear-gradient-42);}.cls-52{fill:url(#linear-gradient-43);}.cls-53{fill:url(#linear-gradient-44);}.cls-54{fill:url(#linear-gradient-45);}.cls-55{fill:url(#linear-gradient-46);}.cls-56{fill:url(#linear-gradient-47);}.cls-57{fill:url(#linear-gradient-48);}.cls-58{fill:url(#linear-gradient-49);}.cls-59{fill:url(#linear-gradient-50);}.cls-60{fill:url(#linear-gradient-51);}.cls-61{fill:url(#linear-gradient-52);}.cls-62{fill:url(#linear-gradient-53);}.cls-63{fill:url(#linear-gradient-54);}.cls-64{fill:#7d97f4;}.cls-65{fill:url(#linear-gradient-55);}.cls-66{fill:url(#linear-gradient-56);}.cls-67{fill:url(#linear-gradient-57);}.cls-68{fill:url(#linear-gradient-58);}.cls-69{fill:url(#linear-gradient-59);}.cls-70{fill:url(#linear-gradient-60);}.cls-71{fill:url(#linear-gradient-61);}.cls-72{fill:url(#linear-gradient-62);}.cls-73{fill:url(#linear-gradient-63);}.cls-74{fill:url(#linear-gradient-64);}.cls-75{fill:url(#linear-gradient-65);}.cls-76{fill:url(#linear-gradient-66);}.cls-77{fill:url(#linear-gradient-67);}.cls-78{fill:url(#linear-gradient-68);}.cls-79{fill:url(#linear-gradient-69);}.cls-80{fill:url(#linear-gradient-70);}.cls-81{fill:url(#linear-gradient-71);}.cls-82{fill:url(#linear-gradient-72);}.cls-83{fill:url(#linear-gradient-73);}.cls-84{fill:url(#linear-gradient-74);}.cls-85{fill:url(#linear-gradient-75);}.cls-86{fill:url(#linear-gradient-76);}.cls-87{fill:url(#linear-gradient-77);}.cls-88{fill:url(#linear-gradient-78);}.cls-89{fill:url(#linear-gradient-79);}.cls-90{fill:url(#linear-gradient-80);}.cls-91{fill:url(#linear-gradient-81);}.cls-92{fill:url(#linear-gradient-82);}.cls-93{fill:url(#linear-gradient-83);}.cls-94{fill:url(#linear-gradient-84);}.cls-95{fill:url(#linear-gradient-85);}.cls-96{fill:url(#linear-gradient-86);}.cls-97{fill:url(#linear-gradient-87);}.cls-98{fill:url(#linear-gradient-88);}.cls-99{fill:url(#linear-gradient-89);}.cls-100{fill:url(#linear-gradient-90);}.cls-101{fill:url(#linear-gradient-91);}.cls-102{fill:url(#linear-gradient-92);}.cls-103{fill:url(#linear-gradient-93);}.cls-104{fill:url(#linear-gradient-94);}.cls-105{fill:url(#linear-gradient-95);}.cls-106{fill:url(#linear-gradient-96);}.cls-107{fill:url(#linear-gradient-97);}.cls-108{fill:url(#linear-gradient-98);}.cls-109{fill:url(#linear-gradient-99);}.cls-110{fill:#0080ff;}.cls-111{fill:#00d954;}.cls-112{fill-rule:evenodd;}</style><linearGradient id="linear-gradient" x1="1419.01" y1="2671.95" x2="1899.23" y2="2027.74" gradientUnits="userSpaceOnUse"><stop offset="0" stop-color="#1d125d"/><stop offset="1" stop-color="#2c4a91"/></linearGradient><linearGradient id="linear-gradient-2" x1="1925.74" y1="910.94" x2="2794.52" y2="2458.26" gradientUnits="userSpaceOnUse"><stop offset="0" stop-color="#795ee2"/><stop offset="1" stop-color="#4f52ff"/></linearGradient><linearGradient id="linear-gradient-3" x1="3562.41" y1="1107.03" x2="2674.48" y2="1477" xlink:href="#linear-gradient"/><linearGradient id="linear-gradient-4" x1="2964.77" y1="1635.71" x2="3314.61" y2="1603.9" xlink:href="#linear-gradient-2"/><clipPath id="clip-path" transform="translate(-296 -207)"><path class="cls-1" d="M3121.78,2238.59c-12-12.33-38.07-59.91-60.45-182.93-21.62-118.9-33.53-273.11-33.53-434.23s11.91-315.33,33.53-434.22c22.38-123,48.47-170.6,60.45-182.94,12,12.34,38.08,59.91,60.46,182.94,21.62,118.89,192.25,273.1,192.25,434.22s-170.63,315.33-192.25,434.23C3159.86,2178.68,3133.76,2226.26,3121.78,2238.59Z"/></clipPath><linearGradient id="linear-gradient-5" x1="3405.39" y1="1599.82" x2="2464.4" y2="1653.81" gradientUnits="userSpaceOnUse"><stop offset="0" stop-color="#393812"/><stop offset="1" stop-color="#561526"/></linearGradient><linearGradient id="linear-gradient-6" x1="1623.14" y1="1937.93" x2="1588.01" y2="1053.99" xlink:href="#linear-gradient"/><linearGradient id="linear-gradient-7" x1="1951.81" y1="1249.38" x2="2984.74" y2="1249.38" gradientUnits="userSpaceOnUse"><stop offset="0" stop-color="#fef1b1"/><stop offset="1" stop-color="#fdc138"/></linearGradient><linearGradient id="linear-gradient-8" x1="1813.63" y1="1460.24" x2="1877.34" y2="1460.24" xlink:href="#linear-gradient-7"/><linearGradient id="linear-gradient-9" x1="3052.07" y1="1525.75" x2="3265.65" y2="1525.75" xlink:href="#linear-gradient-7"/><linearGradient id="linear-gradient-10" x1="2053.24" y1="1693.52" x2="2074.23" y2="1693.52" xlink:href="#linear-gradient"/><linearGradient id="linear-gradient-11" x1="1621.57" y1="1521.73" x2="2015.3" y2="1521.73" xlink:href="#linear-gradient"/><linearGradient id="linear-gradient-12" x1="1647.27" y1="1270.76" x2="1660.9" y2="1270.76" xlink:href="#linear-gradient"/><linearGradient id="linear-gradient-13" x1="1826.64" y1="1103.55" x2="1848.09" y2="1103.55" xlink:href="#linear-gradient"/><linearGradient id="linear-gradient-14" x1="1886.34" y1="1292.75" x2="2254.86" y2="1292.75" xlink:href="#linear-gradient"/><linearGradient id="linear-gradient-15" x1="2208.83" y1="1549.17" x2="2223.08" y2="1549.17" xlink:href="#linear-gradient"/><linearGradient id="linear-gradient-16" x1="1693.93" y1="1403.54" x2="2177.56" y2="1403.54" xlink:href="#linear-gradient"/><linearGradient id="linear-gradient-17" x1="1504.49" y1="1111.95" x2="1776" y2="1111.95" xlink:href="#linear-gradient"/><linearGradient id="linear-gradient-18" x1="1735.03" y1="1240.81" x2="1753.92" y2="1240.81" xlink:href="#linear-gradient"/><linearGradient id="linear-gradient-19" x1="1476.36" y1="1213.89" x2="1698.1" y2="1213.89" xlink:href="#linear-gradient"/><linearGradient id="linear-gradient-20" x1="1472.2" y1="1092.65" x2="1481.34" y2="1092.65" xlink:href="#linear-gradient"/><linearGradient id="linear-gradient-21" x1="1537.27" y1="974.61" x2="1556.91" y2="974.61" xlink:href="#linear-gradient"/><linearGradient id="linear-gradient-22" x1="1594.86" y1="1013.5" x2="1805.85" y2="1013.5" xlink:href="#linear-gradient"/><linearGradient id="linear-gradient-23" x1="1797.68" y1="1138.86" x2="1807.51" y2="1138.86" xlink:href="#linear-gradient"/><linearGradient id="linear-gradient-24" x1="2626.7" y1="1333.16" x2="2588.7" y2="1583.92" xlink:href="#linear-gradient-5"/><linearGradient id="linear-gradient-25" x1="2611.79" y1="1445.88" x2="2531.45" y2="1738.56" xlink:href="#linear-gradient-2"/><linearGradient id="linear-gradient-26" x1="2608.8" y1="1444.83" x2="2528.42" y2="1737.63" xlink:href="#linear-gradient-2"/><linearGradient id="linear-gradient-27" x1="2601.33" y1="1442.57" x2="2520.95" y2="1735.37" xlink:href="#linear-gradient-2"/><linearGradient id="linear-gradient-28" x1="2599.31" y1="1441.83" x2="2518.92" y2="1734.7" xlink:href="#linear-gradient-2"/><linearGradient id="linear-gradient-29" x1="2667.3" y1="1114.25" x2="2685.51" y2="1692.76" gradientUnits="userSpaceOnUse"><stop offset="0" stop-color="#e1473d"/><stop offset="1" stop-color="#e9605a"/></linearGradient><linearGradient id="linear-gradient-30" x1="2568.22" y1="1117.41" x2="2586.43" y2="1695.85" xlink:href="#linear-gradient-29"/><linearGradient id="linear-gradient-31" x1="2537.41" y1="415.88" x2="2621.47" y2="1008.99" gradientUnits="userSpaceOnUse"><stop offset="0" stop-color="#ff928e"/><stop offset="1" stop-color="#feb3b1"/></linearGradient><linearGradient id="linear-gradient-32" x1="2842.71" y1="684.19" x2="2811.59" y2="903.62" xlink:href="#linear-gradient-31"/><linearGradient id="linear-gradient-33" x1="2855.12" y1="685.66" x2="2823.98" y2="905.26" xlink:href="#linear-gradient-31"/><linearGradient id="linear-gradient-34" x1="7397.71" y1="2544.38" x2="7045.13" y2="2927.9" gradientTransform="translate(-4981.79 -60.43) rotate(0.54)" xlink:href="#linear-gradient"/><linearGradient id="linear-gradient-35" x1="7283.41" y1="2572.38" x2="7314.73" y2="2572.38" gradientTransform="translate(-4981.79 -60.43) rotate(0.54)" xlink:href="#linear-gradient-31"/><linearGradient id="linear-gradient-36" x1="7427.43" y1="2104.79" x2="7123.89" y2="2516.2" gradientTransform="translate(-4981.79 -60.43) rotate(0.54)" xlink:href="#linear-gradient"/><linearGradient id="linear-gradient-37" x1="7319.72" y1="2470.55" x2="6964.61" y2="2856.81" gradientTransform="translate(-4981.79 -60.43) rotate(0.54)" xlink:href="#linear-gradient"/><linearGradient id="linear-gradient-38" x1="7170.57" y1="2570.73" x2="7197.61" y2="2570.73" gradientTransform="translate(-4981.79 -60.43) rotate(0.54)" xlink:href="#linear-gradient-31"/><linearGradient id="linear-gradient-39" x1="7373.93" y1="2065.48" x2="7070.91" y2="2476.19" gradientTransform="translate(-4981.79 -60.43) rotate(0.54)" xlink:href="#linear-gradient"/><linearGradient id="linear-gradient-40" x1="2422.08" y1="1830.62" x2="2589.49" y2="1654.95" xlink:href="#linear-gradient-31"/><linearGradient id="linear-gradient-41" x1="2409.47" y1="1818.75" x2="2577" y2="1642.95" xlink:href="#linear-gradient-31"/><linearGradient id="linear-gradient-42" x1="7571.34" y1="1636.16" x2="7616.61" y2="1566.55" gradientTransform="translate(-4981.79 -60.43) rotate(0.54)" xlink:href="#linear-gradient-31"/><linearGradient id="linear-gradient-43" x1="7062.19" y1="1974.86" x2="7264.62" y2="1974.86" gradientTransform="translate(-4981.79 -60.43) rotate(0.54)" xlink:href="#linear-gradient-31"/><linearGradient id="linear-gradient-44" x1="2268.1" y1="1742.17" x2="2227.69" y2="1894.49" xlink:href="#linear-gradient-31"/><linearGradient id="linear-gradient-45" x1="2261.87" y1="1630.26" x2="2299.13" y2="1738.93" xlink:href="#linear-gradient-31"/><linearGradient id="linear-gradient-46" x1="-692.77" y1="3160.76" x2="-667.58" y2="3304.45" gradientTransform="matrix(0.75, -0.66, 0.66, 0.75, 623.7, -1233.33)" xlink:href="#linear-gradient-5"/><linearGradient id="linear-gradient-47" x1="2231.2" y1="1640.88" x2="2268.44" y2="1749.49" xlink:href="#linear-gradient-31"/><linearGradient id="linear-gradient-48" x1="6921.49" y1="1427.45" x2="7277.47" y2="2910.71" gradientTransform="translate(-4705.66)" xlink:href="#linear-gradient"/><linearGradient id="linear-gradient-49" x1="6947.47" y1="1975.95" x2="7010.76" y2="1975.95" gradientTransform="translate(-4705.66)" xlink:href="#linear-gradient-31"/><linearGradient id="linear-gradient-50" x1="4566.25" y1="1901.58" x2="4583.14" y2="1971.94" gradientTransform="matrix(-1, 0, 0, 1, 6929.66, 0)" xlink:href="#linear-gradient-2"/><linearGradient id="linear-gradient-51" x1="2284.24" y1="1900.28" x2="2420.03" y2="1900.28" xlink:href="#linear-gradient-7"/><linearGradient id="linear-gradient-52" x1="1787.22" y1="2364.16" x2="1610.58" y2="2763.93" xlink:href="#linear-gradient-2"/><linearGradient id="linear-gradient-53" x1="1931.15" y1="2428.46" x2="1754.27" y2="2828.77" xlink:href="#linear-gradient-2"/><linearGradient id="linear-gradient-54" x1="1806.44" y1="2424.93" x2="1806.44" y2="2268.4" xlink:href="#linear-gradient-2"/><linearGradient id="linear-gradient-55" x1="2099.33" y1="2393.09" x2="2065.32" y2="2628.1" xlink:href="#linear-gradient"/><linearGradient id="linear-gradient-56" x1="2010.13" y1="2594.9" x2="2043.51" y2="2594.9" xlink:href="#linear-gradient-31"/><linearGradient id="linear-gradient-57" x1="2266.26" y1="2417.18" x2="2232.19" y2="2652.53" xlink:href="#linear-gradient"/><linearGradient id="linear-gradient-58" x1="1923.55" y1="2598.56" x2="1897.85" y2="2778.48" xlink:href="#linear-gradient-29"/><linearGradient id="linear-gradient-59" x1="2168.24" y1="2597.75" x2="2208.1" y2="2597.75" xlink:href="#linear-gradient-31"/><linearGradient id="linear-gradient-60" x1="1910.03" y1="2654.12" x2="2013.04" y2="2302.95" xlink:href="#linear-gradient-29"/><linearGradient id="linear-gradient-61" x1="1969.82" y1="1983.61" x2="1909.32" y2="2075.9" xlink:href="#linear-gradient-31"/><linearGradient id="linear-gradient-62" x1="1864.6" y1="2143.06" x2="2082.73" y2="2501.17" xlink:href="#linear-gradient-2"/><linearGradient id="linear-gradient-63" x1="2183.82" y1="1946.07" x2="1928.07" y2="2144.98" xlink:href="#linear-gradient"/><linearGradient id="linear-gradient-64" x1="2114.73" y1="2224.34" x2="2206.79" y2="2224.34" xlink:href="#linear-gradient-31"/><linearGradient id="linear-gradient-65" x1="2023.39" y1="1914.13" x2="1959.8" y2="1973.07" xlink:href="#linear-gradient-31"/><linearGradient id="linear-gradient-66" x1="3730.32" y1="2495.82" x2="3820.47" y2="2611.9" gradientTransform="translate(-2094.01 -110.27) rotate(-7.5)" xlink:href="#linear-gradient-5"/><linearGradient id="linear-gradient-67" x1="2010.41" y1="1899.97" x2="1946.84" y2="1958.89" xlink:href="#linear-gradient-31"/><linearGradient id="linear-gradient-68" x1="9368.22" y1="-12943.38" x2="9121.84" y2="-12705.18" gradientTransform="matrix(-1.39, -0.07, -0.07, 1.39, -5510.85, -274.53)" xlink:href="#linear-gradient-5"/><linearGradient id="linear-gradient-69" x1="7268.77" y1="-14277.28" x2="7021.45" y2="-14038.16" gradientTransform="matrix(0.65, -1.23, -1.23, -0.65, 7650.57, -7223.9)" xlink:href="#linear-gradient-5"/><linearGradient id="linear-gradient-70" x1="2497.16" y1="2417.84" x2="2539.6" y2="2150.92" xlink:href="#linear-gradient-2"/><linearGradient id="linear-gradient-71" x1="2810.17" y1="2627.6" x2="2852.27" y2="2362.79" xlink:href="#linear-gradient-2"/><linearGradient id="linear-gradient-72" x1="2777.48" y1="2621.51" x2="2819.76" y2="2355.58" xlink:href="#linear-gradient-2"/><linearGradient id="linear-gradient-73" x1="2611.4" y1="2491.06" x2="2498.7" y2="2564.47" xlink:href="#linear-gradient-31"/><linearGradient id="linear-gradient-74" x1="2681.22" y1="2545.89" x2="2660.69" y2="2860.61" xlink:href="#linear-gradient-2"/><linearGradient id="linear-gradient-75" x1="2763.8" y1="2427.99" x2="2555.16" y2="2472.19" xlink:href="#linear-gradient-31"/><linearGradient id="linear-gradient-76" x1="2485.48" y1="2533.13" x2="2464.98" y2="2847.39" xlink:href="#linear-gradient-2"/><linearGradient id="linear-gradient-77" x1="2844.55" y1="1759.23" x2="2795.91" y2="2014.8" xlink:href="#linear-gradient-5"/><linearGradient id="linear-gradient-78" x1="2731.23" y1="1952.78" x2="2781.97" y2="2040.81" xlink:href="#linear-gradient-31"/><linearGradient id="linear-gradient-79" x1="2780.36" y1="1885.72" x2="2690.81" y2="1933.07" xlink:href="#linear-gradient-31"/><linearGradient id="linear-gradient-80" x1="-556.84" y1="6161.14" x2="-605.08" y2="6414.58" gradientTransform="translate(-1946.7 -2355.18) rotate(-52.83)" xlink:href="#linear-gradient-5"/><linearGradient id="linear-gradient-81" x1="2783.08" y1="1891.68" x2="2693.37" y2="1939.11" xlink:href="#linear-gradient-31"/><linearGradient id="linear-gradient-82" x1="2845.34" y1="2223.79" x2="3118.76" y2="2223.79" xlink:href="#linear-gradient-31"/><linearGradient id="linear-gradient-83" x1="2736.08" y1="2405.73" x2="2563.95" y2="2452.91" gradientTransform="translate(-1.1 -71.83) rotate(-2.83)" xlink:href="#linear-gradient"/><linearGradient id="linear-gradient-84" x1="2618.09" y1="2083.08" x2="2495.12" y2="2213.05" xlink:href="#linear-gradient"/><linearGradient id="linear-gradient-85" x1="-10359.1" y1="2840.11" x2="-10357.27" y2="3033.58" gradientTransform="matrix(-1, 0, 0, 1, -7359.28, 0)" xlink:href="#linear-gradient"/><linearGradient id="linear-gradient-86" x1="-10405.15" y1="2624.06" x2="-10415.19" y2="2545.54" gradientTransform="matrix(-1, 0, 0, 1, -7359.28, 0)" xlink:href="#linear-gradient-31"/><linearGradient id="linear-gradient-87" x1="-10617.37" y1="2842.6" x2="-10615.54" y2="3036.08" gradientTransform="matrix(-1, 0, 0, 1, -7359.28, 0)" xlink:href="#linear-gradient"/><linearGradient id="linear-gradient-88" x1="-10621.91" y1="2650.96" x2="-10631.69" y2="2574.51" gradientTransform="matrix(-1, 0, 0, 1, -7359.28, 0)" xlink:href="#linear-gradient-31"/><linearGradient id="linear-gradient-89" x1="-10689.53" y1="2360.32" x2="-10392.03" y2="2360.32" gradientTransform="matrix(-1, 0, 0, 1, -7359.28, 0)" xlink:href="#linear-gradient"/><linearGradient id="linear-gradient-90" x1="-10628.29" y1="2314.05" x2="-10617.34" y2="2292.16" gradientTransform="matrix(-1, 0, 0, 1, -7359.28, 0)" xlink:href="#linear-gradient-2"/><linearGradient id="linear-gradient-91" x1="-10548.93" y1="2148.6" x2="-10413.47" y2="2148.6" gradientTransform="matrix(-1, 0, 0, 1, -7359.28, 0)" xlink:href="#linear-gradient-31"/><linearGradient id="linear-gradient-92" x1="-10424.1" y1="1976.71" x2="-10171.13" y2="1976.71" gradientTransform="matrix(-1, 0, 0, 1, -7359.28, 0)" xlink:href="#linear-gradient-31"/><linearGradient id="linear-gradient-93" x1="-10515.56" y1="1832.76" x2="-10426.8" y2="1741.7" gradientTransform="matrix(-1, 0, 0, 1, -7359.28, 0)" xlink:href="#linear-gradient-31"/><linearGradient id="linear-gradient-94" x1="-10387.29" y1="1684.23" x2="-10497.84" y2="1830.48" gradientTransform="matrix(-1, 0, 0, 1, -7359.28, 0)" xlink:href="#linear-gradient-31"/><linearGradient id="linear-gradient-95" x1="-10471.32" y1="1719.51" x2="-10340.2" y2="1719.51" gradientTransform="matrix(-1, 0, 0, 1, -7359.28, 0)" xlink:href="#linear-gradient-29"/><linearGradient id="linear-gradient-96" x1="-10548.91" y1="1800.07" x2="-10460.19" y2="1709.05" gradientTransform="matrix(-1, 0, 0, 1, -7359.28, 0)" xlink:href="#linear-gradient-31"/><linearGradient id="linear-gradient-97" x1="-10388.85" y1="2216.82" x2="-10572.59" y2="2335.93" gradientTransform="matrix(-1, 0, 0, 1, -7359.28, 0)" xlink:href="#linear-gradient-31"/><linearGradient id="linear-gradient-98" x1="-6595.94" y1="2355.84" x2="-6596.85" y2="2301.19" gradientTransform="matrix(-1, 0, 0, 1, -3533.28, 0)" xlink:href="#linear-gradient-29"/><linearGradient id="linear-gradient-99" x1="1519.61" y1="1093.18" x2="1776.11" y2="1309.82" gradientUnits="userSpaceOnUse"><stop offset="0" stop-color="#ffe185"/><stop offset="0.21" stop-color="#ffbb36"/><stop offset="0.38" stop-color="#ff5176"/><stop offset="0.52" stop-color="#f63395"/><stop offset="0.74" stop-color="#a436d2"/><stop offset="1" stop-color="#5f4eed"/></linearGradient></defs><g id="Background"><rect class="cls-2" width="3187" height="2286"/></g><g id="Illustration"><path class="cls-3" d="M1299.38,1030.33c-1.4-8-12.85-7.83-14,.22-5.92,40.42-17.21,92-38.36,125.7-39.24,62.5-110.52,290.12,85.2,403.6s243.86,173.55,242.4,391.47c-1.33,199.17,10.52,624.2,12.56,695.86a10.61,10.61,0,0,0,10.56,10.36h0a10.62,10.62,0,0,0,10.57-10.65c.26-93.21,1.55-770.76-15.23-934.94C1566.45,1451.8,1349.72,1318.53,1299.38,1030.33Z" transform="translate(-296 -207)"/><path class="cls-4" d="M1302.72,1202.53a136.48,136.48,0,0,0-4.55,20.36c-.63,3.46-.94,7-1.28,10.48s-.47,7-.63,10.54c-.26,14,.42,28.15,3.27,41.89,5.36,27.52,17.32,53.37,33.36,76.22,2,2.84,3.89,5.81,6.07,8.55l6.78,8,6.77,8,7.28,7.72c9.85,10.18,20.29,19.87,31,29.37,21.38,19,43.82,37.28,65,57.37s41.07,41.89,57.76,66.19a388.19,388.19,0,0,1,22.6,38l4.84,9.93c1.65,3.3,3.19,6.64,4.59,10l4.37,10.14,3.92,10.31c2.75,6.83,4.81,13.89,7.19,20.84,2.18,7,4.13,14.1,6.1,21.17,1.68,7.13,3.53,14.24,5,21.42s3,14.35,4.06,21.59a684.62,684.62,0,0,1,8.67,87.15,3.84,3.84,0,0,1-7.67.42c-4.24-57.51-13.48-115-34.32-168.28l-4-9.94-4.37-9.74c-1.41-3.28-3-6.48-4.59-9.64l-4.82-9.51a374.68,374.68,0,0,0-22.32-36.21,417.2,417.2,0,0,0-26.52-33.22c-9.41-10.63-19.52-20.64-29.9-30.4-20.78-19.53-43.15-37.55-65-56.71-10.91-9.58-21.67-19.46-31.94-29.95l-7.61-8-7.15-8.55-7.13-8.56c-2.29-2.92-4.28-6.1-6.43-9.15-17-24.44-29.37-52.67-33.95-82.39l-1.5-11.15c-.41-3.72-.48-7.48-.73-11.21a105.19,105.19,0,0,1-.13-11.23,107.32,107.32,0,0,1,.61-11.2c.38-3.72.62-7.45,1.3-11.13s1.12-7.39,2-11a121.92,121.92,0,0,1,6.47-21.65,4.06,4.06,0,0,1,5.3-2.26,4.14,4.14,0,0,1,2.34,5Z" transform="translate(-296 -207)"/><path class="cls-5" d="M1228.1,1652a9.14,9.14,0,0,0-17.18,1.47c-20.15,75.85-61.75,302.26,122.12,409.42,222.81,129.84,228.19,71.11,256,299.72,23.91,196.76,32.07,316.42,33.88,345.94a7.61,7.61,0,0,0,7.57,7.19h0a7.62,7.62,0,0,0,7.59-7.93c-2.1-62-17.41-471.33-61.15-671.58C1499.11,1680.06,1316.93,1849.64,1228.1,1652Z" transform="translate(-296 -207)"/><path class="cls-4" d="M1232.53,1693.46a141.92,141.92,0,0,0,12.24,37.23,203.47,203.47,0,0,0,20.51,33.32c15.82,20.74,35.61,38.12,57.2,52.6,10.68,7.53,22.22,13.43,33.77,19.85l17.82,9.63c5.89,3.32,11.65,6.89,17.48,10.32,23,14.21,45.24,30,65.65,48.07a403.36,403.36,0,0,1,54.84,60.59l11.5,17c2,2.77,3.58,5.82,5.32,8.76l5.11,8.87,5.11,8.88,4.47,9.21c2.92,6.17,6,12.25,8.77,18.49,4.86,12.75,10.5,25.2,14.18,38.35,2,6.5,4.16,13,5.91,19.54L1577,2114l2.31,9.92L1581,2134l3.31,20.09c1.21,6.67,1.53,13.47,2.27,20.2l1.93,20.22a2.62,2.62,0,0,1-5.2.68l0-.18c-2.06-13.27-3.74-26.58-6.07-39.75l-4-19.66-2-9.82-2.65-9.66-5.28-19.29c-2-6.37-4.35-12.58-6.42-18.9-3.87-12.76-9.67-24.74-14.66-37-2.8-6-6-11.83-8.93-17.75l-4.53-8.83-5.15-8.47-5.14-8.47c-1.75-2.8-3.32-5.71-5.33-8.34l-11.48-16.1A406.32,406.32,0,0,0,1448,1915.2,488.85,488.85,0,0,0,1384.1,1869c-5.69-3.33-11.31-6.78-17.06-10l-17.44-9.35c-11.75-6.6-23.93-13.08-35.06-21.08-22.47-15.62-42.87-34.86-58.47-57.72a182.89,182.89,0,0,1-19.11-36.7,163,163,0,0,1-6-19.79,99.78,99.78,0,0,1-2.86-20.62,2.23,2.23,0,0,1,4.43-.46Z" transform="translate(-296 -207)"/><path class="cls-3" d="M1618,2564.61a7.72,7.72,0,0,0,7.57-9c-7.86-47.1-54-262.49-239.59-264.2-164.46-1.52-264.26,81.64-299,116.8a11.65,11.65,0,0,0,5,19.4c22.46,6.24,59.83,21.45,83.82,56.69,36.16,53.14,129.91,44.8,188.33-28.24,57.86-72.36,202-115.7,246.38,102.33a7.72,7.72,0,0,0,7.52,6.25Z" transform="translate(-296 -207)"/><path class="cls-4" d="M1163.5,2383.81c12.64-11,26.37-20.27,40.63-28.79,7.15-4.22,14.43-8.23,21.87-11.92s15-7.24,22.67-10.38a342.66,342.66,0,0,1,47.37-15.79,318.33,318.33,0,0,1,49.41-8.07,252.42,252.42,0,0,1,50.15.64,233.44,233.44,0,0,1,49,10.57l6,1.92,5.83,2.33c3.86,1.6,7.78,3,11.59,4.76,7.5,3.71,15.12,7.11,22.16,11.62,14.52,8.21,27.76,18.41,40.35,29.13a2.37,2.37,0,0,1,.28,3.3,2.3,2.3,0,0,1-3,.45l-.11-.08c-13.49-9.12-26.9-18.27-41.53-25.09-7.1-3.81-14.67-6.56-22-9.78-3.73-1.45-7.57-2.63-11.33-4l-5.67-1.93-5.8-1.54c-15.3-4.59-31.13-7-47-8.37-4-.23-7.92-.76-11.9-.76l-11.94-.19c-8,.28-15.91.49-23.84,1.32-31.78,2.83-63,11.17-93.1,22.27a526,526,0,0,0-87.28,42.07l-.1.06a2.3,2.3,0,0,1-3.17-.82A2.35,2.35,0,0,1,1163.5,2383.81Z" transform="translate(-296 -207)"/><path class="cls-3" d="M1969.08,545a9.08,9.08,0,0,0-17-4.07c-21.73,39-70.64,105.41-168.52,153.5-146.82,72.15-410.3,221.36-253.18,547.35,163.34,338.89,105.36,575.61,116.62,694.12,10.42,109.75,21.4,675.24,23,758.26a10.32,10.32,0,0,0,10.28,10.18h0a10.34,10.34,0,0,0,10.28-10.66c-2.28-91.58-18.44-744.49-18.73-849-.32-112.46-27.8-497.29,71.5-637.64C1839.33,1071.22,1984.37,897,1969.08,545Z" transform="translate(-296 -207)"/><path class="cls-4" d="M1912.9,644.89c-10.22,14.52-21.26,28.32-32.75,41.76s-23.44,26.46-35.7,39.21l-9.3,9.45-9.49,9.26c-6.3,6.21-12.77,12.24-19.29,18.21q-19.65,17.82-40.22,34.61c-6.88,5.55-14,10.86-20.93,16.3s-14.26,10.47-21.38,15.72c-14.25,10.13-28.06,20.23-41.11,31.48-26.15,22.25-49,48.2-66.16,77.77a259.17,259.17,0,0,0-21.29,46.6,321.82,321.82,0,0,0-12.42,50.06c-3,17-4.18,34.38-4.83,51.75l-.19,13c-.06,4.35.18,8.71.26,13.07.09,8.71.79,17.42,1.29,26.15,5.41,69.81,22.26,138.66,42.58,206.12a1.86,1.86,0,0,1-1.21,2.31,1.81,1.81,0,0,1-2.24-1.12q-18.35-49.76-31.84-101.31c-8.94-34.34-16-69.32-19.58-104.88s-4-71.67,1.13-107.46a320.08,320.08,0,0,1,12.27-52.84,276.31,276.31,0,0,1,22-49.77c17.77-31.77,42.2-59.23,69.29-82.59,13.51-11.72,27.94-22.47,42.29-32.61,7-5.09,14.18-10,21.14-15.23s13.9-10.43,20.72-15.83,13.73-10.68,20.43-16.23,13.52-11,20-16.74c13.26-11.31,26.45-22.73,39.19-34.65,13-11.72,25.51-23.87,38-36.16s24.73-24.82,36.51-37.75l0,0a1.8,1.8,0,0,1,2.57-.11A1.85,1.85,0,0,1,1912.9,644.89Z" transform="translate(-296 -207)"/><path class="cls-5" d="M2202.24,1733.08H1999.49a21.56,21.56,0,0,1-21.44-21.25l-18.27-900.58a21.56,21.56,0,0,1,23-22.1l221,16.15a21.59,21.59,0,0,1,19.9,21.64v884.44A21.57,21.57,0,0,1,2202.24,1733.08Z" transform="translate(-296 -207)"/><path class="cls-6" d="M2009.61,1156.24l4.39,106.67a18.82,18.82,0,0,0,18.43,18.14l141.62,2a18.82,18.82,0,0,0,19-18.94v-106.6a18.83,18.83,0,0,0-18.44-18.94l-146-2.06A18.82,18.82,0,0,0,2009.61,1156.24Z" transform="translate(-296 -207)"/><path class="cls-6" d="M2174.57,1299.28l-139.38-2a18.83,18.83,0,0,0-19,19.72l4.39,106.67a18.82,18.82,0,0,0,18.43,18.15l135,1.9a18.81,18.81,0,0,0,19-18.93V1318.21A18.82,18.82,0,0,0,2174.57,1299.28Z" transform="translate(-296 -207)"/><path class="cls-6" d="M2193,942.72V862.45a18.85,18.85,0,0,0-16.29-18.78l-158.94-20.91a18.79,18.79,0,0,0-21.1,19.56l4.08,99a18.8,18.8,0,0,0,18.42,18.14l154.87,2.2A18.82,18.82,0,0,0,2193,942.72Z" transform="translate(-296 -207)"/><path class="cls-6" d="M2003,995.44l4.39,106.67a18.81,18.81,0,0,0,18.43,18.15l148.24,2.1a18.82,18.82,0,0,0,19-18.94V996.82a18.83,18.83,0,0,0-18.44-18.94l-152.63-2.16A18.83,18.83,0,0,0,2003,995.44Z" transform="translate(-296 -207)"/><path class="cls-6" d="M2022.86,1477.82l3.2,77.62a18.81,18.81,0,0,0,18.69,18.15h129.56a18.82,18.82,0,0,0,18.7-18.94v-75.74a18.82,18.82,0,0,0-18.44-18.93l-132.76-1.88A18.83,18.83,0,0,0,2022.86,1477.82Z" transform="translate(-296 -207)"/><path class="cls-5" d="M2217.12,1721.21l-189.13,74a21.36,21.36,0,0,1-27.57-12l-337.68-833.4a21.76,21.76,0,0,1,13.57-29l211.92-65.57a21.38,21.38,0,0,1,26.27,12.93l314.89,825A21.78,21.78,0,0,1,2217.12,1721.21Z" transform="translate(-296 -207)"/><path class="cls-7" d="M1832.05,1253.4l42.08,97.9a18.62,18.62,0,0,0,23.65,10.2l132.81-49.79a19,19,0,0,0,11-24.58l-38-99.44a18.62,18.62,0,0,0-23.94-10.93l-136.93,51.33A19,19,0,0,0,1832.05,1253.4Z" transform="translate(-296 -207)"/><path class="cls-7" d="M2036.85,1326.66l-130.72,49a19,19,0,0,0-10.65,25.3l42.08,97.9a18.62,18.62,0,0,0,23.65,10.2l126.59-47.46a19,19,0,0,0,11-24.58l-38-99.44A18.64,18.64,0,0,0,2036.85,1326.66Z" transform="translate(-296 -207)"/><path class="cls-7" d="M1927.11,987.33l-28.58-74.88a18.66,18.66,0,0,0-21.89-11.57l-155.7,38.47a19,19,0,0,0-12.72,25.95l39,90.86a18.63,18.63,0,0,0,23.65,10.2l145.24-54.45A19,19,0,0,0,1927.11,987.33Z" transform="translate(-296 -207)"/><path class="cls-7" d="M1768.62,1105.83l42.08,97.9a18.63,18.63,0,0,0,23.65,10.2l139-52.12a19,19,0,0,0,11-24.58l-38-99.44a18.64,18.64,0,0,0-23.95-10.93l-143.14,53.66A19,19,0,0,0,1768.62,1105.83Z" transform="translate(-296 -207)"/><path class="cls-7" d="M1958.91,1548.55l30.61,71.23a18.63,18.63,0,0,0,23.9,10.11l120.85-47.27a19,19,0,0,0,10.71-24.48l-27-70.65a18.62,18.62,0,0,0-23.94-10.93l-124.51,46.68A19,19,0,0,0,1958.91,1548.55Z" transform="translate(-296 -207)"/><path class="cls-5" d="M2228.93,1699.93l-129.56,157.88a21.26,21.26,0,0,1-29.85,3.1l-696.06-561.22a21.88,21.88,0,0,1-2.1-32l153.49-161.78a21.26,21.26,0,0,1,29.17-1.67l672.12,565.14A21.88,21.88,0,0,1,2228.93,1699.93Z" transform="translate(-296 -207)"/><path class="cls-8" d="M1667.47,1481.33l83.88,64.74a18.55,18.55,0,0,0,25.56-2.76l92-109a19.08,19.08,0,0,0-2.27-26.86l-81-68.12a18.56,18.56,0,0,0-26.18,2.26L1664.6,1454A19.09,19.09,0,0,0,1667.47,1481.33Z" transform="translate(-296 -207)"/><path class="cls-8" d="M1881.58,1444.29,1791,1551.56a19.1,19.1,0,0,0,2.88,27.36l83.87,64.73a18.54,18.54,0,0,0,25.56-2.75L1991,1537a19.08,19.08,0,0,0-2.27-26.86l-81-68.12A18.56,18.56,0,0,0,1881.58,1444.29Z" transform="translate(-296 -207)"/><path class="cls-8" d="M1622.41,1202.1l-61-51.3a18.54,18.54,0,0,0-24.68.69l-117.45,110.39a19.09,19.09,0,0,0,1.38,28.93l77.84,60.09a18.56,18.56,0,0,0,25.57-2.76L1624.68,1229A19.1,19.1,0,0,0,1622.41,1202.1Z" transform="translate(-296 -207)"/><path class="cls-8" d="M1541.05,1383.74l83.87,64.74a18.54,18.54,0,0,0,25.56-2.75l96.32-114.08a19.1,19.1,0,0,0-2.27-26.87l-81-68.12a18.54,18.54,0,0,0-26.17,2.27l-99.17,117.46A19.08,19.08,0,0,0,1541.05,1383.74Z" transform="translate(-296 -207)"/><path class="cls-8" d="M1920.33,1676.5l61,47.11a18.55,18.55,0,0,0,25.73-3l82.79-100.88a19.09,19.09,0,0,0-2.44-26.66l-57.55-48.4a18.54,18.54,0,0,0-26.17,2.27l-86.26,102.17A19.08,19.08,0,0,0,1920.33,1676.5Z" transform="translate(-296 -207)"/><path class="cls-3" d="M3334.61,2667.63a9.78,9.78,0,0,1-8-8.68c-4.76-47-27.12-307.26,43.73-445.42,78.09-152.27,204.06-294,142.52-656.73-34.86-205.51-13-317.55-1.88-356.4a6.49,6.49,0,0,1,12.18-1c32,69.34,165.37,361.32,186.17,451.66,23.65,102.77,39.29,302.69-120.68,394-157.47,89.9-299.64,318.23-242.81,611a9.77,9.77,0,0,1-11.24,11.55Z" transform="translate(-296 -207)"/><path class="cls-3" d="M3063.56,454.94a6.13,6.13,0,0,0-11.81,1.39c-14,99.43-52.37,456,89.16,617.94,165.38,189.25,285.67,233,247,548.8-38.23,312.48-141.36,866.6-97,1031.87a8.25,8.25,0,0,0,6.49,6h0a8.21,8.21,0,0,0,9.59-8.61c-2.79-48.75-12.18-259.64,20.19-451.82,36.9-219,196.33-764.22,122.17-1189.63C3379.87,612.26,3123.33,603.32,3063.56,454.94Z" transform="translate(-296 -207)"/><path class="cls-4" d="M3129.69,626a515.78,515.78,0,0,1,39.86,35.14c12.79,12.27,25.08,25.07,37,38.21s23.34,26.75,34.6,40.51c5.6,6.9,10.89,14,16.36,21.06s10.54,14.33,15.82,21.49a946.35,946.35,0,0,1,56.77,90.51l6.48,11.7,6.14,11.88c4,8,8.34,15.78,12,23.92l11.42,24.22,10.56,24.62c13.43,33.1,25.46,66.82,35,101.29,2.53,8.58,4.4,17.34,6.62,26l3.22,13c1,4.36,1.79,8.76,2.7,13.14,1.74,8.77,3.58,17.52,5.23,26.31l4,26.51c1.49,8.82,2.3,17.73,3.2,26.62s2,17.76,2.51,26.68c.92,17.85,2.12,35.68,1.72,53.54.5,35.71-2.69,71.32-7,106.6a2.87,2.87,0,0,1-5.71-.57v-.08c5.31-70.44,3.05-141.3-8.84-210.56l-4.61-25.93-5.66-25.7c-1-4.28-1.84-8.58-2.91-12.83l-3.42-12.71c-2.36-8.45-4.36-17-7-25.35a929.48,929.48,0,0,0-35.52-98.91C3333,911.74,3298.4,850.49,3259.1,792.55c-5-7.2-9.86-14.48-14.93-21.62s-10.19-14.24-15.45-21.24q-15.58-21.16-32.08-41.66c-21.92-27.35-44.92-54-69.38-79.15l-.05,0a1.9,1.9,0,0,1,0-2.68A1.85,1.85,0,0,1,3129.69,626Z" transform="translate(-296 -207)"/><path class="cls-5" d="M3369.14,2673.8a11.7,11.7,0,0,1-9.38-9.14c-8.79-41.74-42.21-241.8,93.06-364.5,141.07-128,244.12-136.42,271.67-216.57a5,5,0,0,1,9.7.46c15.77,71.83,54.71,320.06-132.91,415.76-186.16,95-215.45,138.53-218.56,164a11.61,11.61,0,0,1-13.58,10Z" transform="translate(-296 -207)"/><path class="cls-4" d="M3714.74,2151.38c-6.33,26.4-17.77,51.19-32.15,74.19a261.9,261.9,0,0,1-24.23,32.76,257.42,257.42,0,0,1-62.33,52.6,277.28,277.28,0,0,1-36.76,18l-9.56,3.63-9.06,3.32c-3,1.05-6,2.29-8.89,3.54s-5.92,2.39-8.76,3.82a230.59,230.59,0,0,0-33.28,18.62c-42.66,28-74.25,71.26-91.93,120.08-18.2,48.83-24.52,102.09-24.71,155.11a2.37,2.37,0,0,1-4.74.19c-1-13.35-1.76-26.76-1.72-40.2s.61-26.9,1.72-40.35a366.56,366.56,0,0,1,5.67-40.17,318.82,318.82,0,0,1,10.27-39.44c8.58-25.82,20.49-50.88,36.73-73.09a231.78,231.78,0,0,1,58.76-57.23,248.54,248.54,0,0,1,35.66-20.22c3.05-1.54,6.22-2.78,9.35-4.14s6.26-2.68,9.47-3.82l18.47-6.8a259,259,0,0,0,66.25-37.72,291.75,291.75,0,0,0,28.57-25.83,320.89,320.89,0,0,0,25-29.66c15.34-20.93,28.71-43.86,38.44-68.26l.05-.13a1.92,1.92,0,0,1,2.51-1.08A2,2,0,0,1,3714.74,2151.38Z" transform="translate(-296 -207)"/><path class="cls-9" d="M1468,1876.36s217.07,579.46,285.64,700c79.61,139.92,312.1,50.76,300.53-66.35S1771,1908.89,1771,1908.89Z" transform="translate(-296 -207)"/><polygon class="cls-10" points="1465.33 1247.26 2814.45 773.78 2800.28 2055.09 1428.46 1745.26 1465.33 1247.26"/><ellipse class="cls-11" cx="2815.72" cy="1418.15" rx="132.55" ry="658.47"/><path class="cls-12" d="M3121.78,2238.59c-12-12.33-38.07-59.91-60.45-182.93-21.62-118.9-33.53-273.11-33.53-434.23s11.91-315.33,33.53-434.22c22.38-123,48.47-170.6,60.45-182.94,12,12.34,38.08,59.91,60.46,182.94,21.62,118.89,33.53,273.1,33.53,434.22s-11.91,315.33-33.53,434.23C3159.86,2178.68,3133.76,2226.26,3121.78,2238.59Z" transform="translate(-296 -207)"/><g class="cls-13"><path class="cls-14" d="M3291.67,1616.53c0,111.88-59.54,202.58-177.39,202.58s-213.38-90.7-213.38-202.58S2996.43,1414,3114.28,1414,3291.67,1504.65,3291.67,1616.53Z" transform="translate(-296 -207)"/></g><path class="cls-15" d="M1543.74,1426.71c63.47-7.46,154.47-10.14,252.87,12.67-32.42,171.42-27.52,350.08,10,535.09H1529c-44.24,0-82-32.54-88.88-76.78-13.83-88.68-30.74-237.73-12.71-357.44C1436.5,1480.18,1484.1,1433.72,1543.74,1426.71Z" transform="translate(-296 -207)"/><path class="cls-3" d="M1710.3,1558H1494.07a19.43,19.43,0,0,1-17.32-10.42,19.9,19.9,0,0,1,.77-20.39,5.51,5.51,0,0,1,7.68-1.66,5.66,5.66,0,0,1,1.65,7.78,8.67,8.67,0,0,0-.33,8.89,8.47,8.47,0,0,0,7.55,4.54H1710.3a8.65,8.65,0,0,0,8.6-8.7v-15.58a8.65,8.65,0,0,0-8.6-8.7H1492.47a5.63,5.63,0,0,1,0-11.26H1710.3a19.86,19.86,0,0,1,19.72,20V1538A19.86,19.86,0,0,1,1710.3,1558Z" transform="translate(-296 -207)"/><path class="cls-3" d="M1691,1654.93H1474.79a19.4,19.4,0,0,1-17.32-10.42,19.9,19.9,0,0,1,.76-20.38,5.54,5.54,0,0,1,7.69-1.67,5.68,5.68,0,0,1,1.65,7.79,8.68,8.68,0,0,0-.34,8.88,8.48,8.48,0,0,0,7.56,4.55H1691a8.65,8.65,0,0,0,8.6-8.7V1619.4a8.65,8.65,0,0,0-8.6-8.7H1473.19a5.63,5.63,0,0,1,0-11.26H1691a19.86,19.86,0,0,1,19.72,20V1635A19.85,19.85,0,0,1,1691,1654.93Z" transform="translate(-296 -207)"/><path class="cls-16" d="M1957.37,1419.58a5.58,5.58,0,0,1-5.3-3.92,5.66,5.66,0,0,1,3.61-7.08l1021.81-329.13a5.56,5.56,0,0,1,7,3.66,5.65,5.65,0,0,1-3.61,7.07L1959.06,1419.31A5.53,5.53,0,0,1,1957.37,1419.58Z" transform="translate(-296 -207)"/><path class="cls-17" d="M1819.19,1476.75a5.56,5.56,0,0,1-5.15-3.5,5.66,5.66,0,0,1,3-7.34l52.59-21.75a5.52,5.52,0,0,1,7.25,3.08,5.66,5.66,0,0,1-3,7.34l-52.59,21.75A5.36,5.36,0,0,1,1819.19,1476.75Z" transform="translate(-296 -207)"/><path class="cls-3" d="M1710.3,1768.46H1494.07a19.41,19.41,0,0,1-17.32-10.42,19.88,19.88,0,0,1,.77-20.38,5.51,5.51,0,0,1,7.68-1.67,5.66,5.66,0,0,1,1.65,7.78,8.68,8.68,0,0,0-.33,8.89,8.46,8.46,0,0,0,7.55,4.55H1710.3a8.66,8.66,0,0,0,8.6-8.71v-15.57a8.66,8.66,0,0,0-8.6-8.71H1492.47a5.63,5.63,0,0,1,0-11.25H1710.3a19.86,19.86,0,0,1,19.72,20v15.57A19.86,19.86,0,0,1,1710.3,1768.46Z" transform="translate(-296 -207)"/><path class="cls-3" d="M1730.55,1894.47H1514.32a19.4,19.4,0,0,1-17.32-10.42,19.88,19.88,0,0,1,.76-20.38,5.53,5.53,0,0,1,7.69-1.67,5.66,5.66,0,0,1,1.65,7.78,8.68,8.68,0,0,0-.34,8.89,8.48,8.48,0,0,0,7.56,4.55h216.23a8.67,8.67,0,0,0,8.6-8.71v-15.57a8.66,8.66,0,0,0-8.6-8.7H1512.71a5.63,5.63,0,0,1,0-11.26h217.84a19.86,19.86,0,0,1,19.72,20v15.57A19.86,19.86,0,0,1,1730.55,1894.47Z" transform="translate(-296 -207)"/><path class="cls-3" d="M1923.68,2579.6a139.38,139.38,0,0,1-30.09-3.31c-44-9.69-79.75-39-98.19-80.5l-172.76-388.5a5.66,5.66,0,0,1,2.79-7.44,5.53,5.53,0,0,1,7.35,2.83l172.76,388.49c17,38.18,49.94,65.2,90.42,74.12a124.43,124.43,0,0,0,110.47-28.59q2.44-2.16,4.91-4.44a5.52,5.52,0,0,1,7.86.35,5.69,5.69,0,0,1-.36,8c-1.7,1.57-3.4,3.11-5.09,4.6A135.13,135.13,0,0,1,1923.68,2579.6Z" transform="translate(-296 -207)"/><path class="cls-3" d="M1602.17,2053.17a5.55,5.55,0,0,1-5.07-3.32l-19.27-43.34a5.64,5.64,0,0,1,2.78-7.44,5.55,5.55,0,0,1,7.36,2.82l19.27,43.34a5.67,5.67,0,0,1-2.79,7.45A5.61,5.61,0,0,1,1602.17,2053.17Z" transform="translate(-296 -207)"/><path class="cls-18" d="M3260.08,1610.7a5.59,5.59,0,0,1-5.54-5.23c-3.84-54.82-22.61-95.69-55.79-121.48-57.38-44.59-139.25-29.26-140.07-29.1a5.56,5.56,0,0,1-6.51-4.46,5.62,5.62,0,0,1,4.41-6.59c3.55-.69,87.64-16.41,148.94,31.22,35.81,27.83,56,71.44,60.11,129.61a5.6,5.6,0,0,1-5.15,6Z" transform="translate(-296 -207)"/><path class="cls-19" d="M2057,1700.28a3.71,3.71,0,0,1-3.44-2.33,3.76,3.76,0,0,1,2-4.89c4.54-1.89,9.05-3.89,13.41-6a3.69,3.69,0,0,1,4.93,1.81,3.78,3.78,0,0,1-1.79,5c-4.47,2.11-9.09,4.16-13.74,6.09A3.68,3.68,0,0,1,2057,1700.28Z" transform="translate(-296 -207)"/><path class="cls-20" d="M1935.24,1723.87h0c-9.87-.08-19.83-.64-29.63-1.65a3.75,3.75,0,0,1,.76-7.47c9.56,1,19.3,1.54,28.93,1.62a3.75,3.75,0,0,1,0,7.5Zm47.53-3.22a3.76,3.76,0,0,1-.51-7.47c9.53-1.37,19.11-3.22,28.47-5.5a3.71,3.71,0,0,1,4.47,2.78,3.75,3.75,0,0,1-2.74,4.52c-9.59,2.33-19.4,4.22-29.16,5.63A3.08,3.08,0,0,1,1982.77,1720.65Zm-123.72-7a3.87,3.87,0,0,1-.94-.13c-9.52-2.52-19-5.53-28.33-9a3.77,3.77,0,0,1-2.21-4.81,3.69,3.69,0,0,1,4.75-2.24c9.06,3.35,18.37,6.29,27.67,8.75a3.77,3.77,0,0,1,2.65,4.58A3.73,3.73,0,0,1,1859.05,1713.66Zm-71.38-28.81a3.59,3.59,0,0,1-1.78-.47c-8.63-4.8-17.15-10.08-25.31-15.69a3.77,3.77,0,0,1-1-5.21,3.69,3.69,0,0,1,5.15-1c8,5.48,16.29,10.64,24.72,15.33a3.77,3.77,0,0,1,1.46,5.09A3.7,3.7,0,0,1,1787.67,1684.85Zm-62.29-45.53a3.69,3.69,0,0,1-2.53-1c-7.23-6.79-14.22-14-20.79-21.44a3.77,3.77,0,0,1,.29-5.29,3.67,3.67,0,0,1,5.23.29c6.42,7.26,13.25,14.3,20.32,20.93a3.78,3.78,0,0,1,.19,5.3A3.67,3.67,0,0,1,1725.38,1639.32Zm-49.52-59.44a3.72,3.72,0,0,1-3.11-1.71c-5.39-8.37-10.44-17.1-15-25.91a3.77,3.77,0,0,1,1.56-5.07,3.68,3.68,0,0,1,5,1.58c4.46,8.61,9.4,17.12,14.67,25.31a3.78,3.78,0,0,1-1.09,5.19A3.65,3.65,0,0,1,1675.86,1579.88Zm-33.68-69.9a3.72,3.72,0,0,1-3.51-2.53c-3.19-9.43-6-19.14-8.28-28.85a3.71,3.71,0,1,1,7.21-1.75c2.25,9.48,5,19,8.08,28.16a3.76,3.76,0,0,1-2.3,4.77A3.64,3.64,0,0,1,1642.18,1510Zm-15.77-76.11a3.73,3.73,0,0,1-3.69-3.42l-.07-.84c-.71-8.84-1.08-17.79-1.08-26.59v-2.61a3.74,3.74,0,0,1,3.71-3.72h0a3.74,3.74,0,0,1,3.68,3.79V1403c0,8.6.35,17.34,1,26l.07.79a3.74,3.74,0,0,1-3.37,4.07Zm2.9-77.73a3,3,0,0,1-.6-.05,3.75,3.75,0,0,1-3.07-4.3c1.59-9.87,3.65-19.76,6.14-29.41a3.71,3.71,0,0,1,4.52-2.68,3.76,3.76,0,0,1,2.65,4.58c-2.43,9.42-4.44,19.08-6,28.71A3.73,3.73,0,0,1,1629.31,1356.14Z" transform="translate(-296 -207)"/><path class="cls-21" d="M1651,1281.31a3.83,3.83,0,0,1-1.47-.3,3.78,3.78,0,0,1-1.93-4.94c2-4.58,4.08-9.21,6.29-13.78a3.7,3.7,0,0,1,5-1.71,3.78,3.78,0,0,1,1.69,5c-2.16,4.46-4.23,9-6.14,13.45A3.71,3.71,0,0,1,1651,1281.31Z" transform="translate(-296 -207)"/><path class="cls-22" d="M1830.35,1109.71a3.71,3.71,0,0,1-3.48-2.46,3.75,3.75,0,0,1,2.2-4.81c4.68-1.74,9.46-3.38,14.2-4.88a3.7,3.7,0,0,1,4.65,2.46,3.76,3.76,0,0,1-2.43,4.7c-4.63,1.47-9.3,3.07-13.87,4.77A3.77,3.77,0,0,1,1830.35,1109.71Z" transform="translate(-296 -207)"/><path class="cls-23" d="M2236.85,1502a3.57,3.57,0,0,1-1.11-.17,3.77,3.77,0,0,1-2.43-4.71c2.84-9.15,5.29-18.54,7.28-27.91a3.71,3.71,0,0,1,4.4-2.88,3.76,3.76,0,0,1,2.85,4.46c-2,9.6-4.55,19.22-7.46,28.58A3.7,3.7,0,0,1,2236.85,1502Zm13.72-75.26h-.22a3.74,3.74,0,0,1-3.48-4c.38-6.3.57-12.7.57-19,0-3.26-.05-6.54-.15-9.82a3.73,3.73,0,0,1,3.59-3.87,3.68,3.68,0,0,1,3.82,3.63c.1,3.37.16,6.72.16,10.06,0,6.5-.2,13.06-.59,19.5A3.73,3.73,0,0,1,2250.57,1426.75Zm-4.49-76.4a3.71,3.71,0,0,1-3.64-3.08c-1.69-9.46-3.83-18.93-6.37-28.14a3.77,3.77,0,0,1,2.58-4.62,3.71,3.71,0,0,1,4.57,2.61c2.59,9.44,4.78,19.13,6.51,28.81a3.74,3.74,0,0,1-3,4.36A3.79,3.79,0,0,1,2246.08,1350.35Zm-22.36-73.08a3.7,3.7,0,0,1-3.38-2.21c-3.88-8.74-8.21-17.4-12.89-25.75a3.79,3.79,0,0,1,1.4-5.12,3.69,3.69,0,0,1,5.05,1.42c4.79,8.56,9.23,17.43,13.2,26.37a3.73,3.73,0,0,1-3.38,5.29Zm-39.12-65.45a3.68,3.68,0,0,1-2.91-1.44c-5.85-7.54-12.12-14.9-18.62-21.87a3.78,3.78,0,0,1,.14-5.3,3.67,3.67,0,0,1,5.24.15c6.67,7.13,13.08,14.67,19.07,22.39a3.79,3.79,0,0,1-.63,5.27A3.73,3.73,0,0,1,2184.6,1211.82Zm-53.48-54.08a3.67,3.67,0,0,1-2.29-.8c-7.44-5.91-15.26-11.55-23.23-16.75a3.77,3.77,0,0,1-1.11-5.18,3.68,3.68,0,0,1,5.13-1.12c8.16,5.32,16.16,11.09,23.79,17.14a3.79,3.79,0,0,1,.63,5.27A3.7,3.7,0,0,1,2131.12,1157.74Zm-64.7-39.61a3.56,3.56,0,0,1-1.52-.33c-8.62-3.93-17.54-7.5-26.52-10.62a3.76,3.76,0,0,1-2.3-4.76,3.71,3.71,0,0,1,4.71-2.34c9.19,3.19,18.32,6.85,27.15,10.88a3.77,3.77,0,0,1,1.86,5A3.7,3.7,0,0,1,2066.42,1118.13Zm-72.21-22.71a3.68,3.68,0,0,1-.66-.06c-9.32-1.71-18.83-3-28.27-3.82a3.75,3.75,0,0,1-3.37-4.06,3.69,3.69,0,0,1,4-3.42c9.66.85,19.39,2.17,28.94,3.92a3.75,3.75,0,0,1-.66,7.44ZM1890,1094.15a3.76,3.76,0,0,1-.56-7.46c7.56-1.19,15.23-2.1,22.81-2.73q3.12-.27,6.22-.46a3.75,3.75,0,0,1,.46,7.49q-3,.19-6.07.45c-7.41.61-14.91,1.51-22.29,2.66A3.66,3.66,0,0,1,1890,1094.15Z" transform="translate(-296 -207)"/><path class="cls-24" d="M2212.53,1559.58a3.62,3.62,0,0,1-1.78-.47,3.77,3.77,0,0,1-1.46-5.09c2.35-4.32,4.62-8.75,6.75-13.15a3.67,3.67,0,0,1,5-1.71,3.77,3.77,0,0,1,1.7,5c-2.18,4.5-4.51,9-6.91,13.46A3.72,3.72,0,0,1,2212.53,1559.58Z" transform="translate(-296 -207)"/><path class="cls-25" d="M2132.67,1546.43a3.84,3.84,0,0,0,.5-4.38l-22.05-40.53a203.43,203.43,0,0,0,21.7-61.5l42.38-17.24a3.8,3.8,0,0,0,2.35-3.72l-2.74-55.43a3.79,3.79,0,0,0-2.71-3.46l-43.87-12.87a202.75,202.75,0,0,0-27.66-59l17.94-42.56a3.85,3.85,0,0,0-.94-4.31l-40.66-37.23a3.72,3.72,0,0,0-4.33-.51l-40,22.32a197.46,197.46,0,0,0-60.76-22l-17-42.9a3.75,3.75,0,0,0-3.67-2.38l-54.77,2.77a3.74,3.74,0,0,0-3.41,2.74l-12.72,44.42a198,198,0,0,0-58.28,28l-42-18.16a3.74,3.74,0,0,0-4.26,1l-36.78,41.16a3.83,3.83,0,0,0-.51,4.38l22,40.53a203.14,203.14,0,0,0-21.69,61.5l-42.39,17.24a3.82,3.82,0,0,0-2.35,3.72l2.74,55.43a3.79,3.79,0,0,0,2.71,3.46l43.88,12.87a202.37,202.37,0,0,0,27.66,59L1753,1561.33a3.84,3.84,0,0,0,.93,4.31l40.67,37.23a3.72,3.72,0,0,0,4.33.52l40-22.33a197.5,197.5,0,0,0,60.75,22l17,42.91a3.75,3.75,0,0,0,3.67,2.38l54.76-2.78a3.77,3.77,0,0,0,3.42-2.74l12.71-44.41a198,198,0,0,0,58.28-28l42.05,18.16a3.71,3.71,0,0,0,4.26-1Z" transform="translate(-296 -207)"/><path class="cls-8" d="M1935.77,1458.46a54.41,54.41,0,0,1-51.89-38.83c-8.77-29,7.37-59.72,36-68.59a53.33,53.33,0,0,1,41.33,4,54.43,54.43,0,0,1,26.43,32.41c8.76,29-7.38,59.72-36,68.59A53.32,53.32,0,0,1,1935.77,1458.46Zm0-98.59a42.59,42.59,0,0,0-12.69,1.94c-22.74,7-35.57,31.51-28.6,54.52a43.09,43.09,0,0,0,53.87,29c22.73-7,35.56-31.51,28.6-54.53a43.24,43.24,0,0,0-21-25.76A42.48,42.48,0,0,0,1935.8,1359.87Z" transform="translate(-296 -207)"/><path class="cls-8" d="M1934.65,1542.38a135.91,135.91,0,0,1-92.32-36.07,139.27,139.27,0,0,1-45.2-96.5c-.12-2.36-.18-4.72-.18-7.06,0-73.77,57.38-135.57,131-139.3,75.92-3.78,140.78,55.54,144.59,132.39h0a141.87,141.87,0,0,1-1.64,29.66l-11-1.81a131.11,131.11,0,0,0,1.66-20.79q0-3.26-.16-6.49c-3.5-70.65-63.17-125.34-132.93-121.71-67.65,3.43-120.4,60.24-120.4,128.06,0,2.15.06,4.31.16,6.49a128.14,128.14,0,0,0,41.56,88.72,125.62,125.62,0,0,0,155.46,11.53l6.19,9.36a136.65,136.65,0,0,1-69.72,23.34Q1938.18,1542.38,1934.65,1542.38Z" transform="translate(-296 -207)"/><path class="cls-26" d="M1756.59,1180.43l-14.09-21.64a114.18,114.18,0,0,0,9.42-35.33l22.92-11.53a2.15,2.15,0,0,0,1.15-2.18l-4-30.84a2.12,2.12,0,0,0-1.66-1.81l-25.07-5.22a113.18,113.18,0,0,0-18-31.7l8.15-24.58a2.13,2.13,0,0,0-.71-2.36l-24.34-19a2.07,2.07,0,0,0-2.44-.09l-21.39,14.27a110.22,110.22,0,0,0-34.9-9.54l-11.39-23.2a2.1,2.1,0,0,0-2.16-1.16l-30.46,4a2.13,2.13,0,0,0-1.79,1.69l-5.15,25.37a111.48,111.48,0,0,0-31.33,18.26l-24.28-8.25a2.08,2.08,0,0,0-2.33.72L1524,1041a2.15,2.15,0,0,0-.09,2.47l14.09,21.65a113.76,113.76,0,0,0-9.41,35.32L1505.66,1112a2.12,2.12,0,0,0-1.15,2.18l4,30.83a2.13,2.13,0,0,0,1.67,1.81l25.07,5.22a113.45,113.45,0,0,0,18,31.71l-8.15,24.57a2.15,2.15,0,0,0,.71,2.37l24.35,19a2.09,2.09,0,0,0,2.44.1l21.38-14.27a110.47,110.47,0,0,0,34.9,9.53l11.39,23.2a2.1,2.1,0,0,0,2.16,1.16l30.46-4a2.11,2.11,0,0,0,1.79-1.68l5.16-25.38a111.19,111.19,0,0,0,31.32-18.26l24.28,8.26a2.11,2.11,0,0,0,2.34-.72l18.73-24.65A2.13,2.13,0,0,0,1756.59,1180.43Z" transform="translate(-296 -207)"/><path class="cls-8" d="M1640.24,1145.2a32.48,32.48,0,0,1-13-2.75,32.86,32.86,0,0,1-17.49-18.28,33.43,33.43,0,0,1,.4-25.43,32.7,32.7,0,0,1,60.67,1,33.42,33.42,0,0,1-18.45,43.14A32.65,32.65,0,0,1,1640.24,1145.2Zm0-55.24a21.3,21.3,0,0,0-8,1.55,21.62,21.62,0,0,0-11.94,11.7,22.08,22.08,0,0,0-.27,16.82,21.71,21.71,0,0,0,11.56,12.09,21.33,21.33,0,0,0,16.63.27,22.1,22.1,0,0,0,12.2-28.53A21.77,21.77,0,0,0,1640.22,1090Z" transform="translate(-296 -207)"/><path class="cls-27" d="M1738.74,1249.32a3.68,3.68,0,0,1-3-1.51,3.77,3.77,0,0,1,.75-5.25c3.86-2.91,7.63-6,11.21-9.29a3.69,3.69,0,0,1,5.24.28,3.79,3.79,0,0,1-.28,5.3c-3.76,3.41-7.7,6.68-11.73,9.72A3.65,3.65,0,0,1,1738.74,1249.32Z" transform="translate(-296 -207)"/><path class="cls-28" d="M1664.34,1280.63a3.75,3.75,0,0,1-.55-7.46,160.13,160.13,0,0,0,29.38-7.35,3.69,3.69,0,0,1,4.72,2.3,3.76,3.76,0,0,1-2.27,4.78,167.54,167.54,0,0,1-30.73,7.69A3.48,3.48,0,0,1,1664.34,1280.63Zm-50.17-.31a4,4,0,0,1-.59,0,168.18,168.18,0,0,1-30.64-8,3.76,3.76,0,0,1-2.22-4.8,3.7,3.7,0,0,1,4.75-2.26,160.12,160.12,0,0,0,29.29,7.69,3.76,3.76,0,0,1-.59,7.46Zm-74-32.19a3.65,3.65,0,0,1-2.25-.77,170.14,170.14,0,0,1-23.23-21.74,3.8,3.8,0,0,1,.29-5.3,3.68,3.68,0,0,1,5.24.29,161.15,161.15,0,0,0,22.2,20.78,3.78,3.78,0,0,1,.7,5.26A3.69,3.69,0,0,1,1540.16,1248.13Zm-50.05-63.84a3.7,3.7,0,0,1-3.38-2.22q-1.63-3.66-3.1-7.44a170.41,170.41,0,0,1-7.16-22.86,3.74,3.74,0,0,1,2.73-4.52,3.69,3.69,0,0,1,4.47,2.76,165.73,165.73,0,0,0,6.85,21.87q1.41,3.61,3,7.11a3.78,3.78,0,0,1-1.86,5A3.72,3.72,0,0,1,1490.11,1184.29Z" transform="translate(-296 -207)"/><path class="cls-29" d="M1475.91,1103.86h-.27a3.74,3.74,0,0,1-3.43-4c.36-5.09,1-10.21,1.77-15.24a3.68,3.68,0,0,1,4.25-3.1,3.75,3.75,0,0,1,3.06,4.31c-.77,4.8-1.34,9.7-1.69,14.56A3.72,3.72,0,0,1,1475.91,1103.86Z" transform="translate(-296 -207)"/><path class="cls-30" d="M1541,982.6a3.68,3.68,0,0,1-3-1.49,3.79,3.79,0,0,1,.74-5.26c4-3.07,8.24-6,12.5-8.67a3.68,3.68,0,0,1,5.1,1.21,3.77,3.77,0,0,1-1.19,5.17c-4.08,2.56-8.1,5.35-12,8.29A3.68,3.68,0,0,1,1541,982.6Z" transform="translate(-296 -207)"/><path class="cls-31" d="M1802.14,1085.14a3.72,3.72,0,0,1-3.64-3.06,165.24,165.24,0,0,0-8.16-29,3.77,3.77,0,0,1,2.12-4.86,3.69,3.69,0,0,1,4.79,2.14,174,174,0,0,1,8.54,30.3,3.75,3.75,0,0,1-3,4.37A3.23,3.23,0,0,1,1802.14,1085.14Zm-32.81-73a3.68,3.68,0,0,1-2.9-1.42A161.48,161.48,0,0,0,1745.88,989a3.78,3.78,0,0,1-.36-5.29,3.67,3.67,0,0,1,5.23-.37,168.9,168.9,0,0,1,21.49,22.76,3.78,3.78,0,0,1-.61,5.27A3.63,3.63,0,0,1,1769.33,1012.14Zm-62.69-49a3.57,3.57,0,0,1-1.49-.32,161.42,161.42,0,0,0-28.22-9.56,3.75,3.75,0,0,1,1.7-7.31,168.72,168.72,0,0,1,29.51,10,3.76,3.76,0,0,1,1.89,4.94A3.69,3.69,0,0,1,1706.64,963.15Zm-108.08-8.76a3.75,3.75,0,0,1-.94-7.37,165,165,0,0,1,30.71-5.15,3.68,3.68,0,0,1,4,3.47,3.73,3.73,0,0,1-3.43,4,158.84,158.84,0,0,0-29.35,4.92A3.87,3.87,0,0,1,1598.56,954.39Z" transform="translate(-296 -207)"/><path class="cls-32" d="M1801.39,1150a3.42,3.42,0,0,1-.77-.08,3.74,3.74,0,0,1-2.86-4.44c1-4.77,1.79-9.64,2.36-14.47a3.71,3.71,0,1,1,7.36.89c-.59,5-1.42,10.14-2.46,15.13A3.71,3.71,0,0,1,1801.39,1150Z" transform="translate(-296 -207)"/><path class="cls-8" d="M1639.53,1192.26a78.52,78.52,0,0,1-48.44-16.75,80.31,80.31,0,0,1-30.41-53.52,81.78,81.78,0,0,1-.68-10.57,80.72,80.72,0,0,1,16.55-49,79,79,0,0,1,111.75-14.72,80.36,80.36,0,0,1,30.42,53.51,81.69,81.69,0,0,1,.49,15.93l-.09,1.23-11.08-.93c.15-1.9.23-3.81.23-5.73a70.39,70.39,0,0,0-.58-9h0a72,72,0,0,0-1.51-8.06s0,0,0,0h0a.19.19,0,0,1,0-.07h0a69,69,0,0,0-24.63-37.85,68,68,0,0,0-96.16,12.67,69.4,69.4,0,0,0-14.24,42.18,71.51,71.51,0,0,0,.58,9.1,69.15,69.15,0,0,0,26.18,46,67.95,67.95,0,0,0,84.32-.53l6.9,8.83a79.4,79.4,0,0,1-49.57,17.37Z" transform="translate(-296 -207)"/><path class="cls-33" d="M2713.31,1352.29c-.33-4.09-4.46-7.64-11.46-10.48,7.61-4.25,11.82-8.8,11.46-13.27-1.08-13.51-43.34-21.08-94.4-16.91s-91.59,18.49-90.51,32c.32,4.1,4.46,7.65,11.46,10.49-7.61,4.25-11.82,8.8-11.46,13.27.32,4.09,4.46,7.64,11.46,10.48-7.61,4.25-11.82,8.8-11.46,13.27.32,4.1,4.46,7.64,11.46,10.49-7.61,4.24-11.82,8.8-11.46,13.26.47,6,9,10.79,22.8,13.94a122.75,122.75,0,0,0,.35,14.59c2,24.9,29.66,44.42,66.25,44.42s68.26-26.62,68.62-51.59a126.55,126.55,0,0,0-.72-16.29c17.51-5.92,28.17-13.15,27.61-20.16-.33-4.1-4.46-7.65-11.46-10.49,7.61-4.25,11.82-8.8,11.46-13.26-.33-4.1-4.46-7.65-11.46-10.49C2709.46,1361.31,2713.67,1356.76,2713.31,1352.29Z" transform="translate(-296 -207)"/><path class="cls-34" d="M2595.28,1434.2c-15.17,0-29-1.13-40.51-3.35a1.24,1.24,0,0,1-1-1.45,1.22,1.22,0,0,1,1.43-1c17.94,3.48,41.9,4.25,67.47,2.16,20.93-1.71,40.49-5.13,56.59-9.88a1.22,1.22,0,0,1,1.52.84,1.24,1.24,0,0,1-.83,1.54c-16.26,4.8-36,8.25-57.08,10C2613.4,1433.82,2604.12,1434.2,2595.28,1434.2Z" transform="translate(-296 -207)"/><path class="cls-35" d="M2595.53,1410.43c-19.7,0-37.31-1.88-49.73-5.46a1.24,1.24,0,0,1,.67-2.39c17.7,5.11,46.2,6.69,76.23,4.24,29.71-2.43,57.42-8.53,74.12-16.33a1.23,1.23,0,0,1,1.63.61,1.24,1.24,0,0,1-.6,1.65c-16.95,7.91-45,14.09-74.95,16.54C2613.55,1410.05,2604.33,1410.43,2595.53,1410.43Z" transform="translate(-296 -207)"/><path class="cls-36" d="M2595.28,1386.69c-21.27,0-39.89-2.2-52.42-6.38a1.25,1.25,0,0,1-.78-1.57,1.23,1.23,0,0,1,1.55-.79c17.43,5.82,47,7.73,79.07,5.11,29.71-2.42,57.42-8.52,74.12-16.32a1.21,1.21,0,0,1,1.63.61,1.23,1.23,0,0,1-.6,1.64c-16.95,7.92-45,14.1-74.95,16.55C2613.4,1386.32,2604.11,1386.69,2595.28,1386.69Z" transform="translate(-296 -207)"/><path class="cls-37" d="M2595.44,1362.93c-16.87,0-32.22-1.38-44.15-4.06a1.24,1.24,0,0,1-.93-1.48,1.22,1.22,0,0,1,1.46-1c17.94,4,43.78,5.08,70.88,2.87,29.45-2.4,57-8.44,73.75-16.15a1.22,1.22,0,0,1,1.62.62,1.24,1.24,0,0,1-.61,1.64c-17,7.82-44.85,13.94-74.56,16.37C2613.51,1362.55,2604.27,1362.93,2595.44,1362.93Z" transform="translate(-296 -207)"/><path class="cls-8" d="M2494.13,1232.4a175.63,175.63,0,0,0-30.93-61.11c-30.4-38.78-80-117.65-86.09-225.29-8.88-156.56,128.3-234.94,253.48-224.3s248.69,105,235.17,250.63c-8.32,89.62-57.88,157.6-94.77,196.64a207.87,207.87,0,0,0-49.19,88.22c-11.08,40.46-37.43,90.89-100.06,94C2540.69,1355.14,2507,1278.67,2494.13,1232.4Z" transform="translate(-296 -207)"/><path class="cls-38" d="M2642.44,1319.94l43.8-288.36c.9-6,3.8-10,6.47-8.94s4.1,6.69,3.19,12.64c0,.16-.05.36-.08.51l-49.89,285.68c-.38,2.15-1.46,3.5-2.41,3S2642.13,1322,2642.44,1319.94Z" transform="translate(-296 -207)"/><path class="cls-39" d="M2597,1322.23l-43.8-288.36c-.91-6-3.8-10-6.47-8.94s-4.1,6.68-3.2,12.64c0,.16.06.36.09.51l49.89,285.68c.37,2.15,1.45,3.5,2.41,3S2597.29,1324.31,2597,1322.23Z" transform="translate(-296 -207)"/><path class="cls-40" d="M2685.93,1006.82a4.57,4.57,0,0,0-5.75-1.51l-24.39,11.54-8.47-24.42a5.22,5.22,0,0,0-3-3,6,6,0,0,0-7.5,2.34l0,.08-20.06,37-18.61-52.69,0-.09a6,6,0,0,0-2.82-3.21,7.24,7.24,0,0,0-9.21,1.83l-28,39.07a3.45,3.45,0,0,0,1,4.93,4.67,4.67,0,0,0,6-.65l24.68-27.88,22.23,50.13,0,0a4,4,0,0,0,2,1.94,4.6,4.6,0,0,0,5.81-1.52l21.45-34.84,8.08,17.62.07.16a3.35,3.35,0,0,0,.2.37,4.55,4.55,0,0,0,5.74,1.51l28.95-13.69A3.51,3.51,0,0,0,2685.93,1006.82Z" transform="translate(-296 -207)"/><path class="cls-41" d="M2771.94,1131.8a5.47,5.47,0,0,1-3.31-1.11,5.68,5.68,0,0,1-1.15-7.88,329.39,329.39,0,0,0,20.32-31.23,5.51,5.51,0,0,1,7.59-2.06,5.65,5.65,0,0,1,2,7.68,338.65,338.65,0,0,1-21,32.33A5.55,5.55,0,0,1,2771.94,1131.8Z" transform="translate(-296 -207)"/><path class="cls-42" d="M2808,1069.2a5.58,5.58,0,0,1-2.21-.46,5.66,5.66,0,0,1-2.89-7.41c46.29-107.89,6.37-198.44,6-199.34a5.67,5.67,0,0,1,2.74-7.47,5.54,5.54,0,0,1,7.37,2.77c1.75,3.87,42.37,96.07-5.87,208.53A5.55,5.55,0,0,1,2808,1069.2Z" transform="translate(-296 -207)"/><path class="cls-43" d="M2280.18,2581.24s-3.85,20.89-5.83,41.58a14.22,14.22,0,0,0,13.33,15.59c27.23,1.41,85.49,4.2,106.41,3.46a4.64,4.64,0,0,0,4.09-6.32h0a10.33,10.33,0,0,0-5.2-5.65l-95.83-45.71Z" transform="translate(-296 -207)"/><path class="cls-44" d="M2277.3,2568.92l2.7,25s16.79,8.11,28.39-.72l-6.72-27.95Z" transform="translate(-296 -207)"/><path class="cls-45" d="M2283.94,2098.53c-1.33,6.52-9.87,326,22.52,469.53a4.88,4.88,0,0,1-2.87,5.63,82.79,82.79,0,0,1-27.53,5.39,8.29,8.29,0,0,1-8.15-6.09c-9.33-33.32-54-200.22-58.51-359.3-5.07-177.75,0-6.05,0-6.05l5-109.79Z" transform="translate(-296 -207)"/><path class="cls-46" d="M2169.35,2591.09s-5.91,10.5-11.8,38.51a8.69,8.69,0,0,0,7.46,10.5c9,1,22.83,2.27,33.92,2.3a8.64,8.64,0,0,0,8.58-9.6c-1.13-10.26-4.8-27.1-16.5-40.31Z" transform="translate(-296 -207)"/><path class="cls-47" d="M2164.55,2558.86l6.49,37.9s6.73,5.17,20.17,1.6l-2.89-40.74Z" transform="translate(-296 -207)"/><path class="cls-48" d="M2150.29,2107.05c-29.19,168.32,2.06,416.74,12.93,465.41a7.51,7.51,0,0,0,6,5.81c5.05.9,13.37,1.67,21.6-.66a7,7,0,0,0,5-6.35c1.89-39.24,1.42-280.27,28-375.27a21.68,21.68,0,0,1,8.35-11.86l50.25-35.43,4.38-58Z" transform="translate(-296 -207)"/><path class="cls-5" d="M2329.16,1789.3c-82.7-2.18-174.17,20.3-174.17,20.3-26,145.37-7.27,313.51-7.27,313.51,63.87,17.62,136.35-9.07,136.35-9.07,11.22-60.76,62.49-231.56,62.49-231.56,40.46-4.69,73.86-16.17,101.42-31.51-20.68-24.73-30.25-56-34.35-74.54C2384.3,1785.34,2354.66,1790,2329.16,1789.3Z" transform="translate(-296 -207)"/><path class="cls-49" d="M2574.62,1668.35c-8-10-18.36-5.41-18.36-5.41-12.66,51.92-76.88,93.5-142.63,113.49,4.1,18.49,13.67,49.81,34.35,74.54C2557.37,1790.1,2574.62,1668.35,2574.62,1668.35Z" transform="translate(-296 -207)"/><path class="cls-50" d="M2572.62,1670.85c.82,2.75-9.06,6.82-14.75-4.43-.15-5.36-3.16-28.36.05-32.7,17.08-23.1,50-52,50-52,5.47,5.57.87,10.94.87,10.94l-16,16.57c3.25,6.1,7.25,11.26,9.08,18.62a22.75,22.75,0,0,1-2.37,16.53c-2.83,5-6.69,11.61-10.33,16.74C2582.31,1670.87,2572.62,1670.85,2572.62,1670.85Z" transform="translate(-296 -207)"/><path class="cls-51" d="M2585.78,1620.06l-14.57,12.26-4.65,12.3,12.74,14.59s4.57-24.45,7.84-29.72S2588.76,1621.64,2585.78,1620.06Z" transform="translate(-296 -207)"/><path class="cls-5" d="M2185.94,1891l-31-81.37s-77.76,52.38-91.1,119.63c14.59,1.23,41.11,5.32,67,18.86C2136.89,1916.34,2185.94,1891,2185.94,1891Z" transform="translate(-296 -207)"/><path class="cls-52" d="M2252.74,1967.9s-87.21,48.78-116.07,6.13c-6-8.86-7.37-17.62-5.79-25.94-25.88-13.54-52.4-17.63-67-18.86a94,94,0,0,0,9.39,63.83c50.37,95.42,190.73-3.4,190.73-3.4Z" transform="translate(-296 -207)"/><path class="cls-53" d="M2246,1720.52l-27,76.78a2.8,2.8,0,0,0,1.22,3.36c7.13,4.08,32.87,15.94,64.2-3.75a13.08,13.08,0,0,0,6-9.28l9.15-66.59Z" transform="translate(-296 -207)"/><path class="cls-54" d="M2304,1649.74s28.38,55.34,24.47,77.55-39.71,20.26-70.82,1.9l-21.29-59.67Z" transform="translate(-296 -207)"/><path class="cls-55" d="M2259.26,1700a2.28,2.28,0,0,0,1-3.31c-2.28-3.6-6.55-11-7.88-17.36,0,0-5.16-3.41,13.3-7.7s46-10.94,51.91-26.76c5.77-15.41-8.65-54.46-32.53-23.69a2.23,2.23,0,0,1-3.56,0c-3.82-5.13-13.88-15.81-28.06-9.53-13.27,5.87-14.85,15.66-14.72,20.6a2.23,2.23,0,0,1-2.66,2.28c-6.66-1.35-22.68-2.61-30.32,14-6.29,13.65-2.36,21.45,1.25,25.28a2.27,2.27,0,0,1-1,3.74c-4.4,1.32-10.11,5-9.64,15.45.65,14.4,16.56,13.29,21.09,12.67a2.24,2.24,0,0,1,2,.74c3.84,4.38,21.15,23,40.05,25.41a2.28,2.28,0,0,0,2.4-3l-8-24.17a2.29,2.29,0,0,1,1.24-2.82Z" transform="translate(-296 -207)"/><path class="cls-56" d="M2262.52,1703.45s-20.44-14.48-22.06-2.47,18.37,17.61,28.33,13.22Z" transform="translate(-296 -207)"/><path class="cls-57" d="M2234.91,2045l47.51-167.92a4.84,4.84,0,0,1,4.09-3.52c8.6-1,33.54-3.87,62.34-6.34,34.68-3,75-5.38,99-3.33,3.42.29,4.85,10.42,4,7.07-119.53-455.87-257.39-714.76-98.18,179.4.27,1.52-2.38,2-3.92,1.94l-110.22-1A4.9,4.9,0,0,1,2234.91,2045Z" transform="translate(-296 -207)"/><path class="cls-58" d="M2246.39,2004.42s-6.62-27.54-3.95-37.31,7.84-22.34,25.08-19.55,37.57,10.15,37.57,10.15-1,12.72-14.12,8.62l8.12,6.36s-1.16,10.19-12.23,4.75l7.56,8.44s-4.75,8.37-12.9,3S2269.48,2007.74,2246.39,2004.42Z" transform="translate(-296 -207)"/><path class="cls-59" d="M2345.68,1917.34a13.95,13.95,0,1,0,13.94-14.12A14,14,0,0,0,2345.68,1917.34Z" transform="translate(-296 -207)"/><path class="cls-60" d="M2287.79,1926.64l-3.55-1.06,9.67-33.21a15,15,0,0,1,11.25-10.6c30.66-6.48,111.4-7.8,114.82-7.85l.05,3.75c-.83,0-83.8,1.37-114.11,7.77a11.31,11.31,0,0,0-8.46,8Z" transform="translate(-296 -207)"/><path class="cls-61" d="M1725.61,2396.57c-5.07,7.58-25.19,179.31-28.34,242.73a7.45,7.45,0,0,0,7.42,7.86h0a7.45,7.45,0,0,0,7.33-6.35L1748.83,2402Z" transform="translate(-296 -207)"/><path class="cls-62" d="M1887.41,2396.57c5.07,7.58,25.19,179.31,28.34,242.73a7.46,7.46,0,0,1-7.42,7.86h0a7.44,7.44,0,0,1-7.33-6.35L1864.19,2402Z" transform="translate(-296 -207)"/><path class="cls-63" d="M1695.16,2383.17l0,1.87c-.12,13.47,11.35,24.52,25.71,24.77l170.14,2.93c14.15.24,26-10.11,26.63-23.37l.09-1.72c.72-13.83-10.89-25.48-25.64-25.75l-170.22-3.09C1707.28,2358.55,1695.28,2369.5,1695.16,2383.17Z" transform="translate(-296 -207)"/><path class="cls-64" d="M2053.58,2633.06c-30.25,0-43.63-2.63-49.61-5a11.5,11.5,0,0,0,11.17,9h107a5.26,5.26,0,0,0,5-6.66C2115,2631.38,2089.06,2633.06,2053.58,2633.06Z" transform="translate(-296 -207)"/><path class="cls-65" d="M2127.16,2630.38a5.25,5.25,0,0,0-.87-1.84c-8.16-10.53-24.53-27.08-46.8-26.76-32.63.47-44,4-69.36.2l-6,20.07a11.65,11.65,0,0,0-.18,6c6,2.39,19.36,5,49.61,5C2089.06,2633.06,2115,2631.38,2127.16,2630.38Z" transform="translate(-296 -207)"/><path class="cls-66" d="M2017.47,2580.36l-7.34,25.27s16.27,7.5,30.57,1.48l2.81-21.9Z" transform="translate(-296 -207)"/><path class="cls-64" d="M2239.24,2617.14c-23.57,19.18-35.62,25.63-41.76,27.56a11.35,11.35,0,0,0,14.25-.11l83.41-67.84a5.29,5.29,0,0,0-.18-8.34C2286.06,2576.92,2266.9,2594.65,2239.24,2617.14Z" transform="translate(-296 -207)"/><path class="cls-67" d="M2295,2568.41a5,5,0,0,0-1.82-.87c-12.84-3-35.8-5.46-53,8.91-25.15,21-31.81,31-53.95,44.13l7.7,19.36a11.45,11.45,0,0,0,3.55,4.76c6.14-1.93,18.19-8.38,41.76-27.56C2266.9,2594.65,2286.06,2576.92,2295,2568.41Z" transform="translate(-296 -207)"/><path class="cls-68" d="M1860.41,2292.37s181.08,15,218.23,32.67-30.32,265.79-30.32,265.79-10.11,4.92-32.61-2.16c0,0,23.07-183.08,5.9-222.78l-196.06-32.46Z" transform="translate(-296 -207)"/><path class="cls-69" d="M2168.24,2585.73c1.68,1.55,18,34.85,18,34.85s18.16-4,21.87-15.61l-16.34-30Z" transform="translate(-296 -207)"/><path class="cls-70" d="M1751.34,2290.84a93.82,93.82,0,0,0-5.66,33.47,50,50,0,0,0,47.38,49.17l214.07,9.88a10.3,10.3,0,0,1,9.48,7.81c5,19.7,29.62,80.18,149.81,200.86a9.6,9.6,0,0,0,12,1.33l17.11-10.94a4,4,0,0,0,1.3-5.39l-124.64-215.45a48.33,48.33,0,0,0-29.31-22l-182.45-47.21Z" transform="translate(-296 -207)"/><path class="cls-71" d="M1962.31,1954.29s-22.94,41-46.32,60.93l48.33,27.29s10.89-43.45,35.77-56.17Z" transform="translate(-296 -207)"/><path class="cls-72" d="M1747.45,2292.37s57.8,14.26,113,0c0,0,77.18-105,107-133.61,0,0,47.63,76.08,153.65,86.86l5.91-13.37s-84.4-39.39-110.39-99.9-36.42-86.33-60.06-102.11c-14.72-9.84-23.53-16.55-28.09-20.22a7.48,7.48,0,0,0-8.66-.56C1894.74,2024.94,1776.69,2106.77,1747.45,2292.37Z" transform="translate(-296 -207)"/><path class="cls-73" d="M1964.32,2157.28a3.69,3.69,0,0,1-2.94-1.47c-18.4-24.29-28.65-51.07-29.08-52.19a3.76,3.76,0,0,1,2.13-4.85,3.69,3.69,0,0,1,4.79,2.16c.1.27,10.31,26.91,28,50.31a3.78,3.78,0,0,1-.68,5.26A3.71,3.71,0,0,1,1964.32,2157.28Z" transform="translate(-296 -207)"/><path class="cls-74" d="M2114.73,2225.26l11.94-3.22,36.23-8.49a16.66,16.66,0,0,1,12.74,2.17l31.15,19.84-86-.14Z" transform="translate(-296 -207)"/><path class="cls-75" d="M1998.72,1892.75s22.28,37.5,26.15,58.23,10.07,33.68-13.23,41.07-45-2-58.55-21.31c0,0-21.23-29.78-19.11-43.41S1998.72,1892.75,1998.72,1892.75Z" transform="translate(-296 -207)"/><path class="cls-76" d="M1959.29,1954.7l3-.41s-15.79-24.13-5.46-30.12,52.41-20.68,59.71-37.45c7-16.18-3.49-34.45-16.2-38.26a1.61,1.61,0,0,0-1.94,1l-.74,2a1.62,1.62,0,0,1-3,.09h0a1.63,1.63,0,0,0-3-.06c-2.25,5-9,13.61-29.23,20.25-28.72,9.42-46.6,24.07-44.4,44.72a1.64,1.64,0,0,1-2.33,1.68c-2.35-1-5.91-1.21-10,3.36-7.19,8-1.56,25.36,18.07,37.67a1.66,1.66,0,0,1,.26,2.64c-2.93,2.54-7.06,8.22,6.21,13.27,13.59,5.18,21,3.43,23.74,2.32a1.67,1.67,0,0,0,1-1.86l-3.49-18.1a1.66,1.66,0,0,1,1.39-2Z" transform="translate(-296 -207)"/><path class="cls-77" d="M1960.53,1958.41s-9.84-24.54-20.16-15.91,9.54,27.69,18.72,27.44Z" transform="translate(-296 -207)"/><path class="cls-78" d="M2081.49,2252.65h.43l183.8-.18a8.31,8.31,0,0,0,0-16.62l-183.8.18a8.32,8.32,0,0,0-.41,16.62Z" transform="translate(-296 -207)"/><path class="cls-79" d="M2336.89,2070.45l-.18.38-77.34,168.78a8.37,8.37,0,0,0,4,11,8.14,8.14,0,0,0,10.91-4.06l77.34-168.78a8.37,8.37,0,0,0-4-11.05A8.18,8.18,0,0,0,2336.89,2070.45Z" transform="translate(-296 -207)"/><rect class="cls-80" x="2502.79" y="2215.26" width="19.4" height="212.35"/><path class="cls-81" d="M2893.44,2638.71h-169.9a12.7,12.7,0,0,1,12.62-12.78h144.65a12.7,12.7,0,0,1,12.63,12.78Z" transform="translate(-296 -207)"/><path class="cls-82" d="M2918.66,2414.89A21.05,21.05,0,0,1,2897.8,2436H2725.9a21.05,21.05,0,0,1-20.87-21.12V2395.8a21.05,21.05,0,0,1,20.87-21.12h171.9a21.05,21.05,0,0,1,20.86,21.12Z" transform="translate(-296 -207)"/><path class="cls-83" d="M2665.28,2280.67s-28.83,4.53-61.24,26.46a16.41,16.41,0,0,0-7.13,15.62c3.88,31.12,19.84,131.83,72.45,230.2a25,25,0,0,1,2.35,17l-9.14,43.06-17,16.09h43.66l29.08-79.64-12.43-4a23.77,23.77,0,0,1-16.43-22.29l-1.46-85.43c1.24-38.06-23.06-64.32-23.06-64.32l69.74-3.43Z" transform="translate(-296 -207)"/><path class="cls-84" d="M2628.57,2636.86c-4,5.27,42.8,12.22,66.43.7,0,0,32.76-57.7,32.76-87.4,0,0-2.6-6.06-21.83-4.69,0,0-11,68.32-22.62,76s-32.49.77-32.49.77S2634.44,2629.09,2628.57,2636.86Z" transform="translate(-296 -207)"/><path class="cls-85" d="M2725.9,2374.68c-.38-.65-75.08-9.09-75.08-9.09s2.44,23-5.2,54.64S2528.29,2589,2528.29,2589l11.5,36.91c-35.56,12.53-70.54,14.54-105,6.39l71.28-43.3s66.7-230.11,107.56-271.16l74.89-26.22Z" transform="translate(-296 -207)"/><path class="cls-8" d="M2893.44,2240.79s43,64.81,46.58,94.37-11.79,41.57-57,43.55-165.73,1.95-165.73,1.95l-102.9-89s75-27.09,94.49-34.75S2893.44,2240.79,2893.44,2240.79Z" transform="translate(-296 -207)"/><path class="cls-86" d="M2535.44,2613.5s12.39,12.14,4,25.64c0,0-98.09,17.6-124.72,9.62,0,0,5.53-12.78,35.52-27.32l-2.21,1.72a3.63,3.63,0,0,0,2.36,6.5C2470.17,2628.52,2511.07,2624.86,2535.44,2613.5Z" transform="translate(-296 -207)"/><path class="cls-87" d="M2707,1829.81c88-15.14,129.41,57.5,126.39,72.76a2.77,2.77,0,0,0,3.45,3.2c10.1-2.75,32.42-6.22,46.25,11.33,12.21,15.49,3.09,30.11-4.35,38.13A2.81,2.81,0,0,0,2881,1960c18.58-2.37,58.93-2.94,65.53,35.33,6.16,35.68-18.38,45.74-32.93,48.58a2.81,2.81,0,0,0-.92,5.12c7.26,4.66,15.67,14.29,12.27,33.3-5.32,29.8-63,27.36-69.79,27a2.7,2.7,0,0,1-1.2-.36l-92.45-53.37a2.82,2.82,0,0,1-1.36-2l-18.66-109.11a2.83,2.83,0,0,1,.74-2.43L2682,1856C2660.12,1852.71,2706,1830,2707,1829.81Z" transform="translate(-296 -207)"/><path class="cls-8" d="M2777,2232.21s-50.13-48.31-74.8-80.31a68.54,68.54,0,0,1-11.36-61.1c11.27-38.42,31.28-78.2,33.11-84.4,2.8-9.49,59-9.09,59-9.09S2893.59,2070,2937,2193l-48.8,15.38s-28.88-49-57.41-80.21c0,0,49.37,66,51.11,93Z" transform="translate(-296 -207)"/><path class="cls-88" d="M2717.19,1953.36c.59,2,15.26,51.19,16.41,52.22s32.17,2.71,46.77-7.4l-36.22-71.71Z" transform="translate(-296 -207)"/><path class="cls-89" d="M2658.39,1890.11s-7.09,28.2,12.52,66.12,41.82,37.89,54,25.75,27.1-32.74,23.55-69.41S2668.62,1854.23,2658.39,1890.11Z" transform="translate(-296 -207)"/><path class="cls-90" d="M2721.28,1914.56s-32.54-50.35-63.05-10.72l-.56,14.41s-35.73-4.29-29.48-37.46,37.14-53.91,76.92-39.54,62.57,29.1,65.14,58-20.11,22.53-20.11,22.53-7.4-20.32-17.92-22.43-7.78,13.73-7.78,13.73Z" transform="translate(-296 -207)"/><path class="cls-91" d="M2735.14,1925.42s-16.88-25.79.42-29.63,14.61,25.13,12.74,35.84Z" transform="translate(-296 -207)"/><path class="cls-92" d="M2674.92,2235.8l36.83-35.93,50.94,21.78s50.71,8,79.74,0l29-8L2937,2193l10.3,29.47a17.86,17.86,0,0,1-6.4,20.38c-5.68,4.09-12.33,8.57-16.57,10.45-8.64,3.82-212.92-2.65-212.92-2.65Z" transform="translate(-296 -207)"/><path class="cls-93" d="M2814.29,2252.74h-.49l-213.63-.24a9.68,9.68,0,0,1,0-19.35l213.63.23a9.68,9.68,0,0,1,.47,19.35Z" transform="translate(-296 -207)"/><path class="cls-94" d="M2408.13,2056.41H2586a33.88,33.88,0,0,1,30.67,19.68L2699,2252.62H2477.86a20.62,20.62,0,0,1-19.17-13.19l-63.78-163.36A14.36,14.36,0,0,1,2408.13,2056.41Z" transform="translate(-296 -207)"/><path class="cls-5" d="M2533.47,2146.92c3.85,12.13,1,23.9-6.37,26.3s-16.46-5.48-20.32-17.61-1-23.89,6.36-26.3S2529.61,2134.8,2533.47,2146.92Z" transform="translate(-296 -207)"/><path class="cls-95" d="M3057.84,2611.94a267,267,0,0,1,3.13,27.56A11.83,11.83,0,0,1,3050.4,2652c-21.87,2.15-71.64,6.11-103.42,1.47a5.42,5.42,0,0,1-2.93-9.29c13.1-12.36,44.75-36.39,96.84-41.65Z" transform="translate(-296 -207)"/><path class="cls-96" d="M3068.71,2583.54,3057.65,2611a9,9,0,0,1-9.27,5.68,49.8,49.8,0,0,1-9-1.77,12,12,0,0,1-7.89-14.94l8.35-28.25Z" transform="translate(-296 -207)"/><path class="cls-97" d="M3257.72,2633.79s-22.14,18.75-30.76,42.8a10.2,10.2,0,0,0,9.59,13.58h45.56a10.84,10.84,0,0,0,10.62-12.72C3289.82,2660.84,3281.46,2633.86,3257.72,2633.79Z" transform="translate(-296 -207)"/><path class="cls-98" d="M3285.14,2609.39s-4.47,20-7.91,33.27a4.17,4.17,0,0,1-5.46,2.89c-6.9-2.5-12.51-3.6-16.59-3.05a3.23,3.23,0,0,1-3.55-3.26l-.43-33.27Z" transform="translate(-296 -207)"/><path class="cls-99" d="M3167.4,2158.58l-134.65,415.81s25.83,17.13,38.13,16.41l159.94-334.18s28,205.91,14.43,353.74l45.81,3.54s74.49-377.77,18.07-507.16Z" transform="translate(-296 -207)"/><path class="cls-100" d="M3230,2253h.16a1.32,1.32,0,0,0,1.13-1.47l-5.22-42a1.31,1.31,0,1,0-2.59.33l5.22,42A1.32,1.32,0,0,0,3230,2253Z" transform="translate(-296 -207)"/><path class="cls-5" d="M3142.16,1792.68s109.1,9.8,93.66,88.49c0,0,60.31,114.87,88.5,250.19a7.94,7.94,0,0,1-6.38,9.46l-181.68,31.49a9.79,9.79,0,0,1-11.12-7.28l-43.41-169.82-16.91,79L3011.07,2060l45.25-232S3062.63,1794.13,3142.16,1792.68Z" transform="translate(-296 -207)"/><path class="cls-64" d="M3080.81,1987.61a1,1,0,0,0,.29,0,1.37,1.37,0,0,0,1-1.63L3067,1915.57a1.35,1.35,0,0,0-1.61-1,1.38,1.38,0,0,0-1,1.63l15.15,70.39A1.35,1.35,0,0,0,3080.81,1987.61Z" transform="translate(-296 -207)"/><path class="cls-101" d="M3091.78,2197.07a25.66,25.66,0,0,1,18.76-2.47l12.64,3.19a4.6,4.6,0,0,0,5.66-4L3141.92,2076c16.35,7.86,39.95,6.92,47.73,6.35l-30.11,138.94H3054.19Z" transform="translate(-296 -207)"/><path class="cls-102" d="M2811.85,1941.43l3.18-10.71a21.1,21.1,0,0,1,12.24-13.55l57.59-23.45s.87-7.47-12.17-12.55-10-19.87-10-19.87,17.82,8.23,43.89,21.27c14.92,7.47,23.28,20.64,27.72,30.55l130.51,161.05-15.32,10.65a40.64,40.64,0,0,1-59.31-14.73l-70.7-137.23C2884,1943.65,2848.07,1945.72,2811.85,1941.43Z" transform="translate(-296 -207)"/><path class="cls-103" d="M3106.82,1717.55l33.55,95.06s-29.71,23.51-51.39,15.56l-16.91-54.49S3085,1707.08,3106.82,1717.55Z" transform="translate(-296 -207)"/><path class="cls-104" d="M3006.67,1683.41c0,1.47,32.32,92.62,32.32,92.62l51-19.79-17.95-91S3006.67,1658.89,3006.67,1683.41Z" transform="translate(-296 -207)"/><path class="cls-105" d="M3063.12,1687.41l13.15,47.16a6.7,6.7,0,0,1,.26,1.84c0,3.84-.94,17.08-14.25,15.28-12.09-1.63-23.14-2.94-30.17.41a6.88,6.88,0,0,0-3.49,8.5c2.94,8.28,9.91,26.82,18.38,42a6.7,6.7,0,0,0,8.68,2.81c9.58-4.41,29.54-14.29,43.75-26.05a6.87,6.87,0,0,0,2.39-6.57c-2.23-12.06-8.89-48.75-9.19-59.27-.27-9.87,10.67-17.4,15.48-20.23a6.7,6.7,0,0,0,3.13-4.26c1.51-6.35,2.8-20.73-15.32-23.9a6.84,6.84,0,0,1-5.49-8.15c1.53-7.59,1-18.77-13.21-22.89-14.49-4.19-23.6,4.64-28.24,11.41a6.72,6.72,0,0,1-8.39,2.26,5.31,5.31,0,0,0-6,1.09,6.62,6.62,0,0,1-9.75-1.5c-4.22-6.29-11.89-12.58-24.89-8.32-23.05,7.55-21.95,34.45-13.5,49.08s33,5,44.6-4.69c8.83-7.37,22.28-3,28.22-.42A6.76,6.76,0,0,1,3063.12,1687.41Z" transform="translate(-296 -207)"/><path class="cls-106" d="M3097.25,1730.73s-13.64-26.13-4.62-34.33,24.31-6.86,23.9,13.57C3116,1735.38,3097.25,1730.73,3097.25,1730.73Z" transform="translate(-296 -207)"/><path class="cls-64" d="M3179.06,2084.07a127,127,0,0,0,13.34-.64l1-.11,39.72-187.48a1.37,1.37,0,0,0-1-1.62,1.33,1.33,0,0,0-1.6,1l-39.32,185.53c-5.91.53-37.48,2.65-54.14-9.3l34.41-162.88-7.18-13.7a1.34,1.34,0,0,0-1.83-.57,1.37,1.37,0,0,0-.56,1.85l6.72,12.82L3134,2072.65l.69.53C3146.71,2082.33,3166.11,2084.07,3179.06,2084.07Z" transform="translate(-296 -207)"/><path class="cls-64" d="M1988.15,2655.66a6.43,6.43,0,0,1-2.74-.62,8,8,0,0,1-3.62-10.05L2127,2272.17c1.51-3.88,5.58-5.67,9.1-4a8,8,0,0,1,3.62,10.05L1994.51,2651A6.93,6.93,0,0,1,1988.15,2655.66Z" transform="translate(-296 -207)"/><path class="cls-64" d="M2151.68,2655.66a6.93,6.93,0,0,1-6.36-4.63l-145.17-372.82a8,8,0,0,1,3.63-10.05c3.51-1.67,7.58.12,9.09,4L2158,2645a8,8,0,0,1-3.62,10.05A6.39,6.39,0,0,1,2151.68,2655.66Z" transform="translate(-296 -207)"/><path class="cls-64" d="M2973.32,2655.66a6.39,6.39,0,0,1-2.73-.62A8,8,0,0,1,2967,2645l145.16-372.82c1.51-3.88,5.58-5.67,9.09-4a8,8,0,0,1,3.63,10.05L2979.68,2651A6.92,6.92,0,0,1,2973.32,2655.66Z" transform="translate(-296 -207)"/><path class="cls-64" d="M3136.85,2655.66a6.93,6.93,0,0,1-6.36-4.63l-145.16-372.82a8,8,0,0,1,3.62-10.05c3.51-1.67,7.58.12,9.1,4L3143.21,2645a8,8,0,0,1-3.63,10.05A6.35,6.35,0,0,1,3136.85,2655.66Z" transform="translate(-296 -207)"/><path class="cls-107" d="M2952.26,2245.83h210.25v-22H2952.26C2956.76,2223.87,2956.76,2245.83,2952.26,2245.83Z" transform="translate(-296 -207)"/><path class="cls-108" d="M3160.87,2245.83a1.65,1.65,0,0,0,1.64-1.66v-18.64a1.66,1.66,0,0,0-1.64-1.66H2947.49a1.66,1.66,0,0,1-1.64-1.66v-1.64a1.66,1.66,0,0,1,1.64-1.67h227.05a9.14,9.14,0,0,1,9.08,9.2v14a8.61,8.61,0,0,1-8.56,8.67H2947.49a1.66,1.66,0,0,1-1.64-1.66v-1.65a1.66,1.66,0,0,1,1.64-1.66Z" transform="translate(-296 -207)"/><path class="cls-64" d="M3193,2260.64c.71-2.45-.25-5-2.62-6.92a15.51,15.51,0,0,0-9.61-3H1921c-4.89,0-9.44,1.68-12.08,4.44s-3,6.25-.93,9.23l13.65,19.84c3.13,4.54,9.9,7.45,17.35,7.45H3172.11c6.93,0,12.89-3.3,14.21-7.87Z" transform="translate(-296 -207)"/><ellipse class="cls-109" cx="1639.77" cy="1194.66" rx="127.89" ry="128.81"/><path class="cls-2" d="M1975.47,1352.93a8.86,8.86,0,1,0,8.79,8.86A8.82,8.82,0,0,0,1975.47,1352.93Z" transform="translate(-296 -207)"/><path class="cls-2" d="M1936.38,1364.29a37.19,37.19,0,1,0,36.93,37.19A37.1,37.1,0,0,0,1936.38,1364.29Zm0,61a23.83,23.83,0,1,1,23.66-23.83A23.77,23.77,0,0,1,1936.38,1425.31Z" transform="translate(-296 -207)"/><path class="cls-2" d="M1965.7,1477h-59.87a45.26,45.26,0,0,1-45-45.36v-60.3a45.26,45.26,0,0,1,45-45.36h59.87a45.26,45.26,0,0,1,45,45.36v60.3A45.26,45.26,0,0,1,1965.7,1477Zm-59.87-136.81a31.07,31.07,0,0,0-30.93,31.15v60.3a31.08,31.08,0,0,0,30.93,31.16h59.87a31.09,31.09,0,0,0,30.94-31.16v-60.3a31.08,31.08,0,0,0-30.94-31.15Z" transform="translate(-296 -207)"/><path class="cls-110" d="M2788,1488.19a91.54,91.54,0,1,0-105.84,90.42v-64H2659v-26.46h23.24V1468c0-22.94,13.67-35.61,34.58-35.61a140.68,140.68,0,0,1,20.49,1.79v22.53h-11.55c-11.37,0-14.91,7-14.91,14.29v17.17h25.38l-4.05,26.46h-21.33v64A91.54,91.54,0,0,0,2788,1488.19Z" transform="translate(-296 -207)"/><path class="cls-2" d="M2732.14,1514.65l4.05-26.46h-25.38V1471c0-7.24,3.54-14.29,14.91-14.29h11.55V1434.2a140.68,140.68,0,0,0-20.49-1.79c-20.91,0-34.58,12.67-34.58,35.61v20.17H2659v26.46h23.24v64a91.91,91.91,0,0,0,28.61,0v-64Z" transform="translate(-296 -207)"/><ellipse class="cls-111" cx="1344.92" cy="903.83" rx="69.56" ry="68.27"/><path class="cls-2" d="M1603.34,1149.46l5.8-21.24a38.43,38.43,0,0,1-5-18.94c0-21.62,17.92-39.22,39.95-39.22s40,17.6,40,39.22-17.92,39.21-40,39.21a40.44,40.44,0,0,1-19-4.75Zm22.83-13.68,1.37.8a32.72,32.72,0,0,0,16.54,4.5c17.86,0,32.4-14.27,32.4-31.8s-14.54-31.8-32.4-31.8-32.4,14.26-32.4,31.8a31.29,31.29,0,0,0,4.74,16.49l.84,1.35L1614,1139Z" transform="translate(-296 -207)"/><path class="cls-112" d="M1658.94,1114.73c-1.65-1-3.78-2-5.72-1.26-1.49.59-2.44,2.88-3.4,4a1.45,1.45,0,0,1-1.84.4A25.85,25.85,0,0,1,1635,1107a1.53,1.53,0,0,1,.21-2.12c.93-1.08,2.09-2.3,2.34-3.75a8,8,0,0,0-1-4.43c-.78-1.65-1.65-4-3.33-4.93a4.63,4.63,0,0,0-5,.72,9.81,9.81,0,0,0-3.49,7.83,11.54,11.54,0,0,0,.31,2.49,20.55,20.55,0,0,0,2.43,5.49,43.76,43.76,0,0,0,2.54,3.78,38.86,38.86,0,0,0,11,10,33.74,33.74,0,0,0,6.86,3.2c2.69.87,5.08,1.77,8,1.23s6-2.41,7.24-5.28a4.49,4.49,0,0,0,.33-2.7C1663,1116.73,1660.47,1115.63,1658.94,1114.73Z" transform="translate(-296 -207)"/></g></svg>