<svg xmlns="http://www.w3.org/2000/svg" xmlns:xlink="http://www.w3.org/1999/xlink" viewBox="0 0 3187 2286"><defs><style>.cls-1{fill:none;}.cls-2{fill:#ffea7d;}.cls-3{fill:url(#linear-gradient);}.cls-4{fill:#fbda19;}.cls-5{fill:#feb040;}.cls-6{fill:#91b3fa;}.cls-7{fill:#ffb577;}.cls-8{fill:#ff9845;}.cls-9{fill:#ffe245;}.cls-10{fill:url(#linear-gradient-2);}.cls-11{fill:url(#linear-gradient-3);}.cls-12{fill:url(#linear-gradient-4);}.cls-13{fill:url(#linear-gradient-5);}.cls-14{clip-path:url(#clip-path);}.cls-15{fill:url(#linear-gradient-6);}.cls-16{fill:url(#linear-gradient-7);}.cls-17{fill:url(#linear-gradient-8);}.cls-18{fill:url(#linear-gradient-9);}.cls-19{fill:url(#linear-gradient-10);}.cls-20{fill:#7d97f4;}.cls-21{fill:url(#linear-gradient-11);}.cls-22{fill:url(#linear-gradient-12);}.cls-23{fill:url(#linear-gradient-13);}.cls-24{fill:url(#linear-gradient-14);}.cls-25{fill:url(#linear-gradient-15);}.cls-26{fill:url(#linear-gradient-16);}.cls-27{fill:url(#linear-gradient-17);}.cls-28{fill:url(#linear-gradient-18);}.cls-29{fill:url(#linear-gradient-19);}.cls-30{fill:url(#linear-gradient-20);}.cls-31{fill:url(#linear-gradient-21);}.cls-32{fill:url(#linear-gradient-22);}.cls-33{fill:url(#linear-gradient-23);}.cls-34{fill:url(#linear-gradient-24);}.cls-35{fill:url(#linear-gradient-25);}.cls-36{fill:url(#linear-gradient-26);}.cls-37{fill:url(#linear-gradient-27);}.cls-38{fill:url(#linear-gradient-28);}.cls-39{fill:url(#linear-gradient-29);}.cls-40{fill:url(#linear-gradient-30);}.cls-41{fill:url(#linear-gradient-31);}.cls-42{fill:url(#linear-gradient-32);}.cls-43{fill:url(#linear-gradient-33);}.cls-44{fill:url(#linear-gradient-34);}.cls-45{fill:url(#linear-gradient-35);}.cls-46{fill:url(#linear-gradient-36);}.cls-47{fill:url(#linear-gradient-37);}.cls-48{fill:url(#linear-gradient-38);}.cls-49{fill:url(#linear-gradient-39);}.cls-50{fill:url(#linear-gradient-40);}.cls-51{fill:url(#linear-gradient-41);}.cls-52{fill:url(#linear-gradient-42);}.cls-53{fill:url(#linear-gradient-43);}.cls-54{fill:url(#linear-gradient-44);}.cls-55{fill:url(#linear-gradient-45);}.cls-56{fill:url(#linear-gradient-46);}.cls-57{fill:url(#linear-gradient-47);}.cls-58{fill:url(#linear-gradient-48);}.cls-59{fill:url(#linear-gradient-49);}.cls-60{fill:url(#linear-gradient-50);}.cls-61{fill:url(#linear-gradient-51);}.cls-62{fill:url(#linear-gradient-52);}.cls-63{fill:url(#linear-gradient-53);}.cls-64{fill:url(#linear-gradient-54);}.cls-65{fill:url(#linear-gradient-55);}.cls-66{fill:url(#linear-gradient-56);}.cls-67{fill:url(#linear-gradient-57);}.cls-68{fill:url(#linear-gradient-58);}.cls-69{fill:url(#linear-gradient-59);}.cls-70{fill:url(#linear-gradient-60);}.cls-71{fill:url(#linear-gradient-61);}.cls-72{fill:url(#linear-gradient-62);}.cls-73{fill:url(#linear-gradient-63);}.cls-74{fill:url(#linear-gradient-64);}.cls-75{fill:url(#linear-gradient-65);}.cls-76{fill:url(#linear-gradient-66);}.cls-77{fill:url(#linear-gradient-67);}.cls-78{fill:url(#linear-gradient-68);}.cls-79{fill:url(#linear-gradient-69);}.cls-80{fill:url(#linear-gradient-70);}.cls-81{fill:url(#linear-gradient-71);}.cls-82{fill:url(#linear-gradient-72);}.cls-83{fill:url(#linear-gradient-73);}.cls-84{fill:url(#linear-gradient-74);}.cls-85{fill:url(#linear-gradient-75);}.cls-86{fill:url(#linear-gradient-76);}.cls-87{fill:url(#linear-gradient-77);}.cls-88{fill:url(#linear-gradient-78);}.cls-89{fill:url(#linear-gradient-79);}.cls-90{fill:url(#linear-gradient-80);}.cls-91{fill:url(#linear-gradient-81);}.cls-92{fill:url(#linear-gradient-82);}.cls-93{fill:url(#linear-gradient-83);}.cls-94{fill:url(#linear-gradient-84);}.cls-95{fill:url(#linear-gradient-85);}.cls-96{fill:url(#linear-gradient-86);}.cls-97{fill:url(#linear-gradient-87);}.cls-98{fill:url(#linear-gradient-88);}.cls-99{fill:url(#linear-gradient-89);}.cls-100{fill:url(#linear-gradient-90);}.cls-101{fill:url(#linear-gradient-91);}.cls-102{fill:url(#linear-gradient-92);}.cls-103{fill:url(#linear-gradient-93);}.cls-104{fill:url(#linear-gradient-94);}.cls-105{fill:url(#linear-gradient-95);}.cls-106{fill:url(#linear-gradient-96);}.cls-107{fill:url(#linear-gradient-97);}.cls-108{fill:url(#linear-gradient-98);}.cls-109,.cls-110{fill:#fff;}.cls-109{opacity:0.78;}.cls-110{opacity:0.61;}.cls-111{fill:url(#linear-gradient-99);}.cls-112{fill:url(#linear-gradient-100);}.cls-113{fill:url(#linear-gradient-101);}.cls-114{fill:url(#linear-gradient-102);}.cls-115{fill:url(#linear-gradient-103);}.cls-116{fill:url(#linear-gradient-104);}.cls-117{fill:url(#linear-gradient-105);}.cls-118{opacity:0.28;fill:url(#linear-gradient-106);}</style><linearGradient id="linear-gradient" x1="1179.71" y1="2297.81" x2="2263.64" y2="216.46" gradientUnits="userSpaceOnUse"><stop offset="0" stop-color="#fef1b1"/><stop offset="1" stop-color="#fdc138"/></linearGradient><linearGradient id="linear-gradient-2" x1="825.95" y1="2166.35" x2="1238.42" y2="1613.04" gradientUnits="userSpaceOnUse"><stop offset="0" stop-color="#1d125d"/><stop offset="1" stop-color="#2c4a91"/></linearGradient><linearGradient id="linear-gradient-3" x1="1517.42" y1="829.62" x2="2263.61" y2="2158.61" gradientUnits="userSpaceOnUse"><stop offset="0" stop-color="#795ee2"/><stop offset="1" stop-color="#4f52ff"/></linearGradient><linearGradient id="linear-gradient-4" x1="2923.15" y1="998.04" x2="2160.51" y2="1315.81" xlink:href="#linear-gradient-2"/><linearGradient id="linear-gradient-5" x1="2153.6" y1="1276.33" x2="2454.08" y2="1249.01" xlink:href="#linear-gradient-3"/><clipPath id="clip-path" transform="translate(2 -2)"><path class="cls-1" d="M2288.46,1794.14c-10.29-10.59-32.7-51.45-51.92-157.12-18.57-102.12-28.8-234.57-28.8-373s10.23-270.84,28.8-373c19.22-105.66,41.63-146.53,51.92-157.12,10.29,10.59,32.71,51.46,51.92,157.12,18.58,102.12,165.13,234.57,165.13,373S2359,1534.9,2340.38,1637C2321.17,1742.69,2298.75,1783.55,2288.46,1794.14Z"/></clipPath><linearGradient id="linear-gradient-6" x1="2532.05" y1="1245.51" x2="1723.84" y2="1291.88" gradientUnits="userSpaceOnUse"><stop offset="0" stop-color="#393812"/><stop offset="1" stop-color="#561526"/></linearGradient><linearGradient id="linear-gradient-7" x1="1001.28" y1="1535.9" x2="971.12" y2="776.69" xlink:href="#linear-gradient-2"/><linearGradient id="linear-gradient-8" x1="1283.58" y1="944.51" x2="2170.76" y2="944.51" xlink:href="#linear-gradient"/><linearGradient id="linear-gradient-9" x1="1164.89" y1="1125.62" x2="1219.62" y2="1125.62" xlink:href="#linear-gradient"/><linearGradient id="linear-gradient-10" x1="2228.58" y1="1181.89" x2="2412.03" y2="1181.89" xlink:href="#linear-gradient"/><linearGradient id="linear-gradient-11" x1="1863.23" y1="1016.47" x2="1830.6" y2="1231.84" xlink:href="#linear-gradient-6"/><linearGradient id="linear-gradient-12" x1="1850.43" y1="1113.29" x2="1781.43" y2="1364.67" xlink:href="#linear-gradient-3"/><linearGradient id="linear-gradient-13" x1="1847.86" y1="1112.38" x2="1778.83" y2="1363.87" xlink:href="#linear-gradient-3"/><linearGradient id="linear-gradient-14" x1="1841.45" y1="1110.44" x2="1772.41" y2="1361.93" xlink:href="#linear-gradient-3"/><linearGradient id="linear-gradient-15" x1="1839.72" y1="1109.81" x2="1770.66" y2="1361.35" xlink:href="#linear-gradient-3"/><linearGradient id="linear-gradient-16" x1="1898.11" y1="828.45" x2="1913.75" y2="1325.33" gradientUnits="userSpaceOnUse"><stop offset="0" stop-color="#e1473d"/><stop offset="1" stop-color="#e9605a"/></linearGradient><linearGradient id="linear-gradient-17" x1="1813.01" y1="831.17" x2="1828.65" y2="1327.98" xlink:href="#linear-gradient-16"/><linearGradient id="linear-gradient-18" x1="1786.55" y1="228.62" x2="1858.75" y2="738.04" gradientUnits="userSpaceOnUse"><stop offset="0" stop-color="#ff928e"/><stop offset="1" stop-color="#feb3b1"/></linearGradient><linearGradient id="linear-gradient-19" x1="2048.77" y1="459.08" x2="2022.04" y2="647.54" xlink:href="#linear-gradient-18"/><linearGradient id="linear-gradient-20" x1="2059.43" y1="460.34" x2="2032.68" y2="648.95" xlink:href="#linear-gradient-18"/><linearGradient id="linear-gradient-21" x1="2555.09" y1="667.41" x2="2559.1" y2="1032.64" xlink:href="#linear-gradient-18"/><linearGradient id="linear-gradient-22" x1="2591.5" y1="667.01" x2="2595.51" y2="1032.24" xlink:href="#linear-gradient-18"/><linearGradient id="linear-gradient-23" x1="2629.04" y1="666.58" x2="2633.06" y2="1031.81" xlink:href="#linear-gradient-18"/><linearGradient id="linear-gradient-24" x1="2664.69" y1="666.2" x2="2668.7" y2="1031.43" xlink:href="#linear-gradient-18"/><linearGradient id="linear-gradient-25" x1="2702.32" y1="665.76" x2="2706.34" y2="1031" xlink:href="#linear-gradient-18"/><linearGradient id="linear-gradient-26" x1="2738.84" y1="665.36" x2="2742.86" y2="1030.59" xlink:href="#linear-gradient-18"/><linearGradient id="linear-gradient-27" x1="2775.35" y1="664.96" x2="2779.36" y2="1030.19" xlink:href="#linear-gradient-18"/><linearGradient id="linear-gradient-28" x1="2813.02" y1="664.53" x2="2817.03" y2="1029.77" xlink:href="#linear-gradient-18"/><linearGradient id="linear-gradient-29" x1="2849.57" y1="664.13" x2="2853.58" y2="1029.36" xlink:href="#linear-gradient-18"/><linearGradient id="linear-gradient-30" x1="2886.03" y1="663.72" x2="2890.04" y2="1028.96" xlink:href="#linear-gradient-18"/><linearGradient id="linear-gradient-31" x1="2921.81" y1="663.35" x2="2925.82" y2="1028.57" xlink:href="#linear-gradient-18"/><linearGradient id="linear-gradient-32" x1="6664.75" y1="2059.53" x2="6361.91" y2="2388.93" gradientTransform="translate(-4983.74 -57.6) rotate(0.54)" xlink:href="#linear-gradient-2"/><linearGradient id="linear-gradient-33" x1="6566.57" y1="2083.57" x2="6593.47" y2="2083.57" gradientTransform="translate(-4983.74 -57.6) rotate(0.54)" xlink:href="#linear-gradient-18"/><linearGradient id="linear-gradient-34" x1="6690.27" y1="1681.97" x2="6429.56" y2="2035.32" gradientTransform="translate(-4983.74 -57.6) rotate(0.54)" xlink:href="#linear-gradient-2"/><linearGradient id="linear-gradient-35" x1="6597.76" y1="1996.12" x2="6292.76" y2="2327.87" gradientTransform="translate(-4983.74 -57.6) rotate(0.54)" xlink:href="#linear-gradient-2"/><linearGradient id="linear-gradient-36" x1="6469.65" y1="2082.16" x2="6492.87" y2="2082.16" gradientTransform="translate(-4983.74 -57.6) rotate(0.54)" xlink:href="#linear-gradient-18"/><linearGradient id="linear-gradient-37" x1="6644.32" y1="1648.2" x2="6384.05" y2="2000.96" gradientTransform="translate(-4983.74 -57.6) rotate(0.54)" xlink:href="#linear-gradient-2"/><linearGradient id="linear-gradient-38" x1="1687.49" y1="1443.74" x2="1831.28" y2="1292.85" xlink:href="#linear-gradient-18"/><linearGradient id="linear-gradient-39" x1="1676.66" y1="1433.54" x2="1820.55" y2="1282.55" xlink:href="#linear-gradient-18"/><linearGradient id="linear-gradient-40" x1="6813.87" y1="1279.46" x2="6852.76" y2="1219.67" gradientTransform="translate(-4983.74 -57.6) rotate(0.54)" xlink:href="#linear-gradient-18"/><linearGradient id="linear-gradient-41" x1="6376.56" y1="1570.37" x2="6550.43" y2="1570.37" gradientTransform="translate(-4983.74 -57.6) rotate(0.54)" xlink:href="#linear-gradient-18"/><linearGradient id="linear-gradient-42" x1="1555.24" y1="1367.77" x2="1520.53" y2="1498.59" xlink:href="#linear-gradient-18"/><linearGradient id="linear-gradient-43" x1="1549.89" y1="1271.65" x2="1581.89" y2="1364.98" xlink:href="#linear-gradient-18"/><linearGradient id="linear-gradient-44" x1="-1195.57" y1="2577.73" x2="-1173.93" y2="2701.15" gradientTransform="matrix(0.75, -0.66, 0.66, 0.75, 684.94, -1480.43)" xlink:href="#linear-gradient-6"/><linearGradient id="linear-gradient-45" x1="1523.55" y1="1280.77" x2="1555.53" y2="1374.05" xlink:href="#linear-gradient-18"/><linearGradient id="linear-gradient-46" x1="6303.83" y1="1461.66" x2="6400.84" y2="1865.89" gradientTransform="translate(-4705.66)" xlink:href="#linear-gradient-2"/><linearGradient id="linear-gradient-47" x1="6238.32" y1="1568.56" x2="6292.67" y2="1568.56" gradientTransform="translate(-4705.66)" xlink:href="#linear-gradient-18"/><linearGradient id="linear-gradient-48" x1="4696.56" y1="1504.68" x2="4711.07" y2="1565.11" gradientTransform="matrix(-1, 0, 0, 1, 6333.66, 0)" xlink:href="#linear-gradient-3"/><linearGradient id="linear-gradient-49" x1="1569.1" y1="1503.57" x2="1685.73" y2="1503.57" xlink:href="#linear-gradient"/><linearGradient id="linear-gradient-50" x1="1142.21" y1="1901.99" x2="990.49" y2="2245.35" xlink:href="#linear-gradient-3"/><linearGradient id="linear-gradient-51" x1="1265.83" y1="1957.22" x2="1113.91" y2="2301.05" xlink:href="#linear-gradient-3"/><linearGradient id="linear-gradient-52" x1="1158.72" y1="1954.18" x2="1158.72" y2="1819.75" xlink:href="#linear-gradient-3"/><linearGradient id="linear-gradient-53" x1="1410.29" y1="1926.84" x2="1381.07" y2="2128.69" xlink:href="#linear-gradient-2"/><linearGradient id="linear-gradient-54" x1="1333.67" y1="2100.18" x2="1362.34" y2="2100.18" xlink:href="#linear-gradient-18"/><linearGradient id="linear-gradient-55" x1="1553.66" y1="1947.53" x2="1524.4" y2="2149.67" xlink:href="#linear-gradient-2"/><linearGradient id="linear-gradient-56" x1="1259.3" y1="2103.32" x2="1237.23" y2="2257.85" xlink:href="#linear-gradient-16"/><linearGradient id="linear-gradient-57" x1="1469.47" y1="2102.62" x2="1503.7" y2="2102.62" xlink:href="#linear-gradient-18"/><linearGradient id="linear-gradient-58" x1="1247.69" y1="2151.04" x2="1336.16" y2="1849.42" xlink:href="#linear-gradient-16"/><linearGradient id="linear-gradient-59" x1="1299.05" y1="1575.14" x2="1247.09" y2="1654.41" xlink:href="#linear-gradient-18"/><linearGradient id="linear-gradient-60" x1="1208.67" y1="1712.09" x2="1396.03" y2="2019.67" xlink:href="#linear-gradient-3"/><linearGradient id="linear-gradient-61" x1="1482.85" y1="1542.9" x2="1263.19" y2="1713.74" xlink:href="#linear-gradient-2"/><linearGradient id="linear-gradient-62" x1="1423.51" y1="1781.9" x2="1502.58" y2="1781.9" xlink:href="#linear-gradient-18"/><linearGradient id="linear-gradient-63" x1="1345.06" y1="1515.46" x2="1290.44" y2="1566.09" xlink:href="#linear-gradient-18"/><linearGradient id="linear-gradient-64" x1="3092.88" y1="2056.06" x2="3170.31" y2="2155.76" gradientTransform="translate(-2069.8 -150.95) rotate(-7.5)" xlink:href="#linear-gradient-6"/><linearGradient id="linear-gradient-65" x1="1333.91" y1="1503.3" x2="1279.31" y2="1553.91" xlink:href="#linear-gradient-18"/><linearGradient id="linear-gradient-66" x1="7253.5" y1="-11263.39" x2="7041.89" y2="-11058.8" gradientTransform="matrix(-1.39, -0.07, -0.07, 1.39, -6236.51, -215.95)" xlink:href="#linear-gradient-6"/><linearGradient id="linear-gradient-67" x1="4853.77" y1="-12086.63" x2="4641.34" y2="-11881.26" gradientTransform="matrix(0.65, -1.23, -1.23, -0.65, 7293.9, -7927.84)" xlink:href="#linear-gradient-6"/><linearGradient id="linear-gradient-68" x1="2008.21" y1="2123.89" x2="2044.66" y2="1894.64" xlink:href="#linear-gradient-3"/><linearGradient id="linear-gradient-69" x1="2020.82" y1="2128.26" x2="2056.98" y2="1900.82" xlink:href="#linear-gradient-3"/><linearGradient id="linear-gradient-70" x1="1992.74" y1="2123.03" x2="2029.05" y2="1894.62" xlink:href="#linear-gradient-3"/><linearGradient id="linear-gradient-71" x1="1850.1" y1="2010.99" x2="1753.3" y2="2074.04" xlink:href="#linear-gradient-18"/><linearGradient id="linear-gradient-72" x1="1910.06" y1="2058.08" x2="1892.43" y2="2328.39" xlink:href="#linear-gradient-3"/><linearGradient id="linear-gradient-73" x1="1980.99" y1="1956.82" x2="1801.8" y2="1994.78" xlink:href="#linear-gradient-18"/><linearGradient id="linear-gradient-74" x1="1741.94" y1="2047.12" x2="1724.34" y2="2317.04" xlink:href="#linear-gradient-3"/><linearGradient id="linear-gradient-75" x1="2050.35" y1="1382.42" x2="2008.57" y2="1601.93" xlink:href="#linear-gradient-6"/><linearGradient id="linear-gradient-76" x1="1953.02" y1="1548.66" x2="1996.6" y2="1624.26" xlink:href="#linear-gradient-18"/><linearGradient id="linear-gradient-77" x1="1995.21" y1="1491.06" x2="1918.3" y2="1531.73" xlink:href="#linear-gradient-18"/><linearGradient id="linear-gradient-78" x1="-993.3" y1="5477.08" x2="-1034.73" y2="5694.76" gradientTransform="translate(-1901.31 -2673.77) rotate(-52.83)" xlink:href="#linear-gradient-6"/><linearGradient id="linear-gradient-79" x1="1997.55" y1="1496.18" x2="1920.5" y2="1536.92" xlink:href="#linear-gradient-18"/><linearGradient id="linear-gradient-80" x1="2051.02" y1="1781.43" x2="2285.86" y2="1781.43" xlink:href="#linear-gradient-18"/><linearGradient id="linear-gradient-81" x1="1953.18" y1="1943.05" x2="1805.33" y2="1983.57" gradientTransform="translate(8.67 -86.8) rotate(-2.83)" xlink:href="#linear-gradient-2"/><linearGradient id="linear-gradient-82" x1="1855.84" y1="1660.57" x2="1750.22" y2="1772.21" xlink:href="#linear-gradient-2"/><linearGradient id="linear-gradient-83" x1="-10138.99" y1="2310.79" x2="-10137.42" y2="2476.95" gradientTransform="matrix(-1, 0, 0, 1, -7955.28, 0)" xlink:href="#linear-gradient-2"/><linearGradient id="linear-gradient-84" x1="-10178.54" y1="2125.22" x2="-10187.17" y2="2057.78" gradientTransform="matrix(-1, 0, 0, 1, -7955.28, 0)" xlink:href="#linear-gradient-18"/><linearGradient id="linear-gradient-85" x1="-10360.81" y1="2312.92" x2="-10359.25" y2="2479.1" gradientTransform="matrix(-1, 0, 0, 1, -7955.28, 0)" xlink:href="#linear-gradient-2"/><linearGradient id="linear-gradient-86" x1="-10364.72" y1="2148.33" x2="-10373.12" y2="2082.66" gradientTransform="matrix(-1, 0, 0, 1, -7955.28, 0)" xlink:href="#linear-gradient-18"/><linearGradient id="linear-gradient-87" x1="-10422.79" y1="1898.69" x2="-10167.27" y2="1898.69" gradientTransform="matrix(-1, 0, 0, 1, -7955.28, 0)" xlink:href="#linear-gradient-2"/><linearGradient id="linear-gradient-88" x1="-10370.19" y1="1858.95" x2="-10360.79" y2="1840.15" gradientTransform="matrix(-1, 0, 0, 1, -7955.28, 0)" xlink:href="#linear-gradient-3"/><linearGradient id="linear-gradient-89" x1="-10302.03" y1="1716.84" x2="-10185.68" y2="1716.84" gradientTransform="matrix(-1, 0, 0, 1, -7955.28, 0)" xlink:href="#linear-gradient-18"/><linearGradient id="linear-gradient-90" x1="-10194.81" y1="1569.21" x2="-9977.54" y2="1569.21" gradientTransform="matrix(-1, 0, 0, 1, -7955.28, 0)" xlink:href="#linear-gradient-18"/><linearGradient id="linear-gradient-91" x1="-10273.37" y1="1445.57" x2="-10197.14" y2="1367.36" gradientTransform="matrix(-1, 0, 0, 1, -7955.28, 0)" xlink:href="#linear-gradient-18"/><linearGradient id="linear-gradient-92" x1="-10163.2" y1="1318.01" x2="-10258.15" y2="1443.61" gradientTransform="matrix(-1, 0, 0, 1, -7955.28, 0)" xlink:href="#linear-gradient-18"/><linearGradient id="linear-gradient-93" x1="-10235.37" y1="1348.3" x2="-10122.76" y2="1348.3" gradientTransform="matrix(-1, 0, 0, 1, -7955.28, 0)" xlink:href="#linear-gradient-16"/><linearGradient id="linear-gradient-94" x1="-10302.01" y1="1417.5" x2="-10225.82" y2="1339.32" gradientTransform="matrix(-1, 0, 0, 1, -7955.28, 0)" xlink:href="#linear-gradient-18"/><linearGradient id="linear-gradient-95" x1="-10164.54" y1="1775.44" x2="-10322.35" y2="1877.75" gradientTransform="matrix(-1, 0, 0, 1, -7955.28, 0)" xlink:href="#linear-gradient-18"/><linearGradient id="linear-gradient-96" x1="-6366.96" y1="1894.85" x2="-6367.75" y2="1847.91" gradientTransform="matrix(-1, 0, 0, 1, -4129.28, 0)" xlink:href="#linear-gradient-16"/><linearGradient id="linear-gradient-97" x1="268.45" y1="1723.06" x2="374.35" y2="1600.14" xlink:href="#linear-gradient-16"/><linearGradient id="linear-gradient-98" x1="434.28" y1="1510.36" x2="120.66" y2="1984.15" xlink:href="#linear-gradient-18"/><linearGradient id="linear-gradient-99" x1="411.58" y1="1721.85" x2="595.94" y2="1507.87" xlink:href="#linear-gradient-16"/><linearGradient id="linear-gradient-100" x1="700.27" y1="1351.57" x2="154.31" y2="2176.35" xlink:href="#linear-gradient-18"/><linearGradient id="linear-gradient-101" x1="500.26" y1="2036.76" x2="689.96" y2="1816.57" xlink:href="#linear-gradient-16"/><linearGradient id="linear-gradient-102" x1="797.31" y1="1655.74" x2="235.53" y2="2504.43" xlink:href="#linear-gradient-18"/><linearGradient id="linear-gradient-103" x1="732.16" y1="1783.06" x2="871.16" y2="1621.73" xlink:href="#linear-gradient-16"/><linearGradient id="linear-gradient-104" x1="949.81" y1="1503.89" x2="538.19" y2="2125.72" xlink:href="#linear-gradient-18"/><linearGradient id="linear-gradient-105" x1="1339.74" y1="423.93" x2="2185.38" y2="423.93" xlink:href="#linear-gradient-3"/><linearGradient id="linear-gradient-106" x1="2748.27" y1="1604.95" x2="2843.33" y2="1604.95" gradientTransform="translate(-1781.98 151.69) rotate(-25.51)" xlink:href="#linear-gradient"/></defs><g id="Background"><rect class="cls-2" width="3187" height="2286"/></g><g id="Illustration"><path class="cls-3" d="M3068.72,1491c-47.08-54.75-117-86.94-168.07-138.34-82.4-83-105.35-205.78-102.06-320.44s28.83-228.27,27-343-36.75-236.85-129.64-308.92c-99.94-77.54-245.44-78.94-366.73-38.3s-225.31,117-331.32,186.66c-55.49,36.48-121.56,73-186.25,55.38-63.79-17.37-99.8-79.86-135.19-133.73C1635.11,387.45,1581,327.52,1507.59,304c-144.92-46.33-163.1,6.72-170,48.82-10.37,63.07-25.9,108.69-78.49,128.84s-112.75,11.26-165.74-7.88-101.67-47.91-154-68.71c-83.62-33.23-204.21-109.73-290.8-84.46S471.71,453.52,450.29,538C414.46,679.26,569.87,854.9,516,990.78c-37.15,93.72-141.37,143.65-211.33,218.09-134.85,143.46-126.08,377.64-13.79,538s306.76,253.61,504.17,291,400.79,25.57,601.77,16.45c315.83-14.32,632.17-21.61,948.2-12.45,130.69,3.79,262.79,10.29,391.07-14s254.82-83.43,330-186.22S3152,1587.85,3068.72,1491Z" transform="translate(2 -2)"/><path class="cls-4" d="M697.77,607.66c-1.22-7-11.22-6.84-12.25.19-5.17,35.31-15,80.37-33.51,109.79-34.27,54.59-96.54,253.4,74.42,352.52s213,151.58,211.71,341.91c-1.16,174,9.19,545.2,11,607.79a9.26,9.26,0,0,0,9.22,9.05h0a9.29,9.29,0,0,0,9.23-9.31c.22-81.41,1.36-673.2-13.31-816.6C931,975.78,741.74,859.38,697.77,607.66Z" transform="translate(2 -2)"/><path class="cls-5" d="M700.69,758.06a119,119,0,0,0-4,17.79c-.54,3-.82,6.09-1.12,9.15s-.41,6.14-.55,9.2c-.22,12.28.37,24.59,2.86,36.59,4.68,24,15.13,46.62,29.14,66.58,1.78,2.48,3.4,5.07,5.3,7.46l5.92,7,5.92,7,6.35,6.74c8.61,8.89,17.72,17.36,27.06,25.66,18.67,16.59,38.27,32.56,56.75,50.11s35.86,36.58,50.45,57.8a342,342,0,0,1,19.74,33.16l4.22,8.68c1.44,2.87,2.79,5.79,4,8.77l3.82,8.85,3.42,9c2.4,6,4.21,12.14,6.28,18.21,1.91,6.12,3.61,12.31,5.33,18.48,1.47,6.24,3.09,12.44,4.34,18.71s2.63,12.53,3.55,18.86a597.69,597.69,0,0,1,7.57,76.12,3.35,3.35,0,0,1-6.7.36c-3.71-50.22-11.77-100.47-30-147l-3.45-8.68-3.82-8.52c-1.23-2.85-2.58-5.65-4-8.41l-4.21-8.31a328.23,328.23,0,0,0-19.5-31.63,364.68,364.68,0,0,0-23.16-29c-8.21-9.28-17-18-26.11-26.55-18.15-17.06-37.69-32.8-56.75-49.53-9.52-8.37-18.92-17-27.89-26.16l-6.64-7-6.25-7.47-6.23-7.48c-2-2.55-3.74-5.33-5.62-8-14.81-21.35-25.65-46-29.64-72L685.79,823c-.35-3.26-.41-6.54-.63-9.8a145.49,145.49,0,0,1,.42-19.59c.32-3.25.54-6.51,1.13-9.73s1-6.44,1.74-9.62a105.62,105.62,0,0,1,5.65-18.92,3.55,3.55,0,0,1,4.63-2,3.62,3.62,0,0,1,2,4.41Z" transform="translate(2 -2)"/><path class="cls-6" d="M635.51,1150.63a8,8,0,0,0-15,1.29c-17.6,66.25-53.93,264,106.67,357.59,194.61,113.41,199.31,62.11,223.57,261.79,20.89,171.86,28,276.36,29.6,302.15a6.64,6.64,0,0,0,6.61,6.28h0a6.66,6.66,0,0,0,6.63-6.92c-1.83-54.11-15.2-411.68-53.41-586.58C872.22,1175.15,713.09,1323.27,635.51,1150.63Z" transform="translate(2 -2)"/><path class="cls-5" d="M639.38,1186.85a124.22,124.22,0,0,0,10.69,32.52A176.94,176.94,0,0,0,668,1248.48c13.81,18.11,31.1,33.29,50,45.93,9.34,6.58,19.41,11.74,29.5,17.35l15.57,8.4c5.14,2.91,10.17,6,15.26,9a414.4,414.4,0,0,1,57.34,42,352.79,352.79,0,0,1,47.9,52.92l10,14.82c1.75,2.41,3.12,5.08,4.64,7.65l4.47,7.75,4.46,7.75,3.9,8c2.55,5.39,5.27,10.7,7.66,16.15,4.25,11.13,9.17,22,12.39,33.49,1.76,5.68,3.63,11.33,5.16,17.07l4,17.36,2,8.67,1.47,8.77,2.89,17.55c1.06,5.83,1.34,11.77,2,17.65l1.68,17.66a2.29,2.29,0,0,1-4.54.59l0-.16c-1.8-11.59-3.26-23.21-5.3-34.72L936.94,1573l-1.77-8.57-2.31-8.44-4.62-16.85c-1.7-5.56-3.79-11-5.6-16.51-3.38-11.14-8.44-21.61-12.81-32.34-2.44-5.24-5.21-10.33-7.8-15.49l-3.95-7.72-4.5-7.4-4.49-7.39c-1.53-2.45-2.9-5-4.65-7.28l-10-14.07a355.24,355.24,0,0,0-46.85-50.43,427,427,0,0,0-55.8-40.39c-5-2.91-9.87-5.92-14.89-8.74l-15.24-8.17c-10.26-5.77-20.9-11.43-30.62-18.41-19.63-13.65-37.44-30.45-51.07-50.42a160.06,160.06,0,0,1-16.69-32.05,139.49,139.49,0,0,1-5.27-17.29,85.91,85.91,0,0,1-2.5-18,1.95,1.95,0,0,1,3.87-.41Z" transform="translate(2 -2)"/><path class="cls-4" d="M961.83,2079.73a6.75,6.75,0,0,0,6.62-7.89c-6.87-41.13-47.13-229.26-209.27-230.76-143.64-1.32-230.81,71.31-261.19,102a10.18,10.18,0,0,0,4.38,16.94c19.61,5.46,52.26,18.74,73.2,49.52,31.59,46.41,113.48,39.13,164.5-24.67,50.54-63.2,176.45-101.06,215.2,89.38a6.73,6.73,0,0,0,6.56,5.46Z" transform="translate(2 -2)"/><path class="cls-5" d="M564.89,1921.81a247.21,247.21,0,0,1,35.49-25.14c6.24-3.69,12.6-7.19,19.1-10.41s13.08-6.32,19.8-9.07a299.26,299.26,0,0,1,41.38-13.79,277,277,0,0,1,43.16-7.05,220.24,220.24,0,0,1,43.79.56,204.13,204.13,0,0,1,42.82,9.23l5.22,1.68,5.09,2c3.37,1.39,6.8,2.66,10.12,4.16,6.55,3.23,13.21,6.2,19.36,10.15,12.68,7.16,24.24,16.07,35.24,25.44a2.06,2.06,0,0,1,.24,2.88,2,2,0,0,1-2.66.39l-.09-.07c-11.79-8-23.5-16-36.28-21.91-6.2-3.33-12.82-5.73-19.22-8.55-3.26-1.26-6.6-2.29-9.9-3.45l-4.95-1.69-5.06-1.35c-13.36-4-27.19-6.08-41-7.31-3.47-.2-6.92-.66-10.4-.66l-10.43-.17c-7,.25-13.9.43-20.82,1.16-27.76,2.47-55,9.75-81.32,19.45a459.09,459.09,0,0,0-76.23,36.74l-.09,0a2,2,0,0,1-2.77-.71A2.07,2.07,0,0,1,564.89,1921.81Z" transform="translate(2 -2)"/><path class="cls-4" d="M1282.7,183.73a7.93,7.93,0,0,0-14.87-3.56c-19,34-61.7,92.07-147.19,134.08-128.24,63-358.37,193.34-221.14,478.06,142.67,296,92,502.76,101.86,606.27,9.1,95.86,18.69,589.77,20.06,662.29a9,9,0,0,0,9,8.89h0a9,9,0,0,0,9-9.32c-2-80-16.1-650.25-16.36-741.55-.28-98.23-24.28-434.35,62.45-556.93C1169.37,643.37,1296.05,491.22,1282.7,183.73Z" transform="translate(2 -2)"/><path class="cls-5" d="M1233.64,271c-8.93,12.68-18.57,24.73-28.61,36.47s-20.48,23.11-31.19,34.24l-8.12,8.26-8.29,8.09c-5.49,5.43-11.15,10.69-16.84,15.9q-17.16,15.57-35.13,30.23c-6,4.85-12.19,9.49-18.28,14.24s-12.46,9.15-18.68,13.73c-12.45,8.85-24.51,17.67-35.91,27.49-22.84,19.44-42.81,42.11-57.78,67.93a226.87,226.87,0,0,0-18.6,40.71A281.29,281.29,0,0,0,945.37,612c-2.64,14.86-3.66,30-4.22,45.19l-.17,11.4c-.05,3.8.16,7.61.23,11.42.08,7.61.69,15.22,1.13,22.84,4.72,61,19.44,121.11,37.18,180a1.61,1.61,0,0,1-1,2,1.59,1.59,0,0,1-2-1q-16-43.46-27.81-88.49c-7.8-30-13.94-60.54-17.1-91.6s-3.5-62.6,1-93.86a279.76,279.76,0,0,1,10.72-46.15,240.93,240.93,0,0,1,19.17-43.47c15.52-27.75,36.86-51.74,60.52-72.14,11.8-10.23,24.4-19.63,36.93-28.48,6.15-4.44,12.39-8.75,18.46-13.3s12.15-9.12,18.1-13.83,12-9.33,17.85-14.18,11.81-9.59,17.52-14.62c11.57-9.87,23.09-19.85,34.22-30.26,11.31-10.24,22.28-20.85,33.16-31.58s21.61-21.68,31.9-33l0,0a1.58,1.58,0,0,1,2.25-.1A1.66,1.66,0,0,1,1233.64,271Z" transform="translate(2 -2)"/><path class="cls-6" d="M1486.35,1221.46H1309.26a18.84,18.84,0,0,1-18.73-18.57l-16-786.58a18.83,18.83,0,0,1,20.07-19.3l193,14.1A18.87,18.87,0,0,1,1505.08,430V1202.5A18.84,18.84,0,0,1,1486.35,1221.46Z" transform="translate(2 -2)"/><path class="cls-7" d="M1318.1,717.63l3.84,93.17a16.44,16.44,0,0,0,16.1,15.85l123.68,1.75a16.44,16.44,0,0,0,16.57-16.54V718.75a16.45,16.45,0,0,0-16.11-16.54l-127.53-1.81A16.45,16.45,0,0,0,1318.1,717.63Z" transform="translate(2 -2)"/><path class="cls-7" d="M1462.18,842.57l-121.74-1.72a16.43,16.43,0,0,0-16.55,17.22l3.84,93.17a16.43,16.43,0,0,0,16.09,15.85l117.9,1.66a16.43,16.43,0,0,0,16.57-16.53V859.1A16.44,16.44,0,0,0,1462.18,842.57Z" transform="translate(2 -2)"/><path class="cls-7" d="M1478.29,531.14V461a16.48,16.48,0,0,0-14.23-16.4l-138.82-18.26a16.42,16.42,0,0,0-18.43,17.09l3.56,86.46a16.43,16.43,0,0,0,16.09,15.85l135.26,1.92A16.44,16.44,0,0,0,1478.29,531.14Z" transform="translate(2 -2)"/><path class="cls-7" d="M1312.32,577.19l3.83,93.17a16.44,16.44,0,0,0,16.1,15.84L1461.72,688a16.44,16.44,0,0,0,16.57-16.54V578.39a16.45,16.45,0,0,0-16.11-16.54L1328.87,560A16.44,16.44,0,0,0,1312.32,577.19Z" transform="translate(2 -2)"/><path class="cls-7" d="M1329.67,998.51l2.8,67.79a16.42,16.42,0,0,0,16.32,15.85H1462a16.44,16.44,0,0,0,16.34-16.53V999.46a16.44,16.44,0,0,0-16.11-16.53l-116-1.64A16.45,16.45,0,0,0,1329.67,998.51Z" transform="translate(2 -2)"/><path class="cls-6" d="M1499.35,1211.09l-165.2,64.61a18.65,18.65,0,0,1-24.07-10.49L1015.13,537.3A19,19,0,0,1,1027,512l185.1-57.28a18.69,18.69,0,0,1,23,11.3l275,720.58A19,19,0,0,1,1499.35,1211.09Z" transform="translate(2 -2)"/><path class="cls-8" d="M1163,802.5l36.75,85.5a16.26,16.26,0,0,0,20.65,8.91l116-43.48A16.61,16.61,0,0,0,1346,832l-33.15-86.86a16.28,16.28,0,0,0-20.92-9.55l-119.6,44.84A16.6,16.6,0,0,0,1163,802.5Z" transform="translate(2 -2)"/><path class="cls-8" d="M1341.9,866.48l-114.18,42.8a16.6,16.6,0,0,0-9.3,22.11l36.75,85.51a16.28,16.28,0,0,0,20.65,8.91l110.58-41.46a16.59,16.59,0,0,0,9.56-21.47L1362.81,876A16.28,16.28,0,0,0,1341.9,866.48Z" transform="translate(2 -2)"/><path class="cls-8" d="M1246,570.1l-25-65.4A16.31,16.31,0,0,0,1202,494.59L1066,528.2a16.57,16.57,0,0,0-11.11,22.66L1089,630.22a16.27,16.27,0,0,0,20.65,8.91l126.86-47.56A16.59,16.59,0,0,0,1246,570.1Z" transform="translate(2 -2)"/><path class="cls-8" d="M1107.62,673.6l36.75,85.51A16.26,16.26,0,0,0,1165,768l121.43-45.52A16.61,16.61,0,0,0,1296,701l-33.16-86.86a16.27,16.27,0,0,0-20.91-9.54l-125,46.87A16.59,16.59,0,0,0,1107.62,673.6Z" transform="translate(2 -2)"/><path class="cls-8" d="M1273.82,1060.28l26.74,62.22a16.27,16.27,0,0,0,20.87,8.83L1427,1090.05a16.61,16.61,0,0,0,9.35-21.39L1412.78,1007a16.27,16.27,0,0,0-20.91-9.54l-108.75,40.77A16.59,16.59,0,0,0,1273.82,1060.28Z" transform="translate(2 -2)"/><path class="cls-6" d="M1509.66,1192.51,1396.5,1330.4a18.57,18.57,0,0,1-26.07,2.71l-608-490.18a19.12,19.12,0,0,1-1.84-28L894.7,673.66a18.57,18.57,0,0,1,25.48-1.45l587,493.6A19.12,19.12,0,0,1,1509.66,1192.51Z" transform="translate(2 -2)"/><path class="cls-9" d="M1019.27,1001.57l73.26,56.55a16.2,16.2,0,0,0,22.32-2.41l80.37-95.19a16.67,16.67,0,0,0-2-23.46l-70.76-59.5a16.19,16.19,0,0,0-22.86,2l-82.86,98.14A16.66,16.66,0,0,0,1019.27,1001.57Z" transform="translate(2 -2)"/><path class="cls-9" d="M1206.28,969.22l-79.1,93.69a16.68,16.68,0,0,0,2.52,23.9l73.25,56.54a16.21,16.21,0,0,0,22.33-2.4l76.6-90.74a16.68,16.68,0,0,0-2-23.47l-70.76-59.49A16.2,16.2,0,0,0,1206.28,969.22Z" transform="translate(2 -2)"/><path class="cls-9" d="M979.91,757.69l-53.29-44.81a16.19,16.19,0,0,0-21.55.6L802.48,809.9a16.67,16.67,0,0,0,1.21,25.27l68,52.48A16.2,16.2,0,0,0,894,885.24l87.88-104.09A16.67,16.67,0,0,0,979.91,757.69Z" transform="translate(2 -2)"/><path class="cls-9" d="M908.85,916.34l73.25,56.54a16.2,16.2,0,0,0,22.33-2.4l84.12-99.64a16.68,16.68,0,0,0-2-23.47l-70.76-59.5a16.21,16.21,0,0,0-22.86,2l-86.62,102.6A16.67,16.67,0,0,0,908.85,916.34Z" transform="translate(2 -2)"/><path class="cls-9" d="M1240.12,1172l53.3,41.15a16.22,16.22,0,0,0,22.48-2.59l72.3-88.11a16.68,16.68,0,0,0-2.12-23.29l-50.28-42.27a16.21,16.21,0,0,0-22.86,2l-75.34,89.24A16.67,16.67,0,0,0,1240.12,1172Z" transform="translate(2 -2)"/><path class="cls-4" d="M2475.39,2037.71a8.53,8.53,0,0,1-7-7.57c-4.15-41.09-23.69-268.37,38.2-389.05,68.21-133,178.23-256.74,124.48-573.59-30.45-179.51-11.34-277.36-1.65-311.3a5.67,5.67,0,0,1,10.64-.87c27.93,60.56,144.44,315.58,162.6,394.49,20.67,89.76,34.33,264.38-105.4,344.16-137.53,78.52-261.71,278-212.07,533.65a8.53,8.53,0,0,1-9.82,10.08Z" transform="translate(2 -2)"/><path class="cls-4" d="M2238.65,105.1a5.36,5.36,0,0,0-10.32,1.21c-12.23,86.85-45.74,398.27,77.88,539.73,144.44,165.3,249.51,203.5,215.77,479.33-33.4,272.93-123.47,756.91-84.75,901.26a7.2,7.2,0,0,0,5.67,5.27h0a7.16,7.16,0,0,0,8.37-7.52c-2.43-42.58-10.64-226.78,17.64-394.63,32.23-191.26,171.48-667.49,106.71-1039C2514.92,242.5,2290.85,234.7,2238.65,105.1Z" transform="translate(2 -2)"/><path class="cls-5" d="M2296.41,254.51a451.14,451.14,0,0,1,34.81,30.7c11.17,10.71,21.9,21.89,32.32,33.37S2383.93,342,2393.76,354c4.89,6,9.51,12.27,14.29,18.4s9.2,12.51,13.81,18.77a825.45,825.45,0,0,1,49.59,79.05l5.66,10.22,5.37,10.38c3.5,7,7.28,13.78,10.5,20.89l10,21.15,9.22,21.51a815.07,815.07,0,0,1,30.59,88.47c2.2,7.49,3.84,15.14,5.78,22.7l2.81,11.37c.87,3.81,1.57,7.65,2.36,11.48,1.52,7.66,3.13,15.3,4.56,23l3.53,23.16c1.3,7.7,2,15.49,2.79,23.25s1.77,15.51,2.2,23.31c.8,15.59,1.85,31.16,1.5,46.76.43,31.18-2.35,62.29-6.15,93.1a2.5,2.5,0,0,1-5-.5v-.06c4.64-61.53,2.66-123.42-7.73-183.91l-4-22.65-4.94-22.45c-.86-3.74-1.61-7.49-2.55-11.21L2535,669c-2.06-7.38-3.81-14.85-6.13-22.15a812,812,0,0,0-31-86.38c-23.8-56.42-54-109.92-88.37-160.52-4.35-6.29-8.61-12.65-13-18.88s-8.9-12.45-13.5-18.56q-13.61-18.5-28-36.39c-19.14-23.88-39.23-47.15-60.6-69.12l0,0a1.67,1.67,0,0,1,0-2.34A1.62,1.62,0,0,1,2296.41,254.51Z" transform="translate(2 -2)"/><path class="cls-6" d="M2505.55,2043.11a10.24,10.24,0,0,1-8.2-8c-7.67-36.46-36.86-211.19,81.29-318.36,123.21-111.77,213.22-119.15,237.28-189.15a4.39,4.39,0,0,1,8.48.4c13.77,62.73,47.78,279.55-116.09,363.13-162.6,82.93-188.18,121-190.9,143.24a10.15,10.15,0,0,1-11.86,8.73Z" transform="translate(2 -2)"/><path class="cls-5" d="M2807.4,1586.81c-5.53,23.07-15.52,44.71-28.08,64.8a228.21,228.21,0,0,1-21.16,28.61,224.29,224.29,0,0,1-54.44,46,243.89,243.89,0,0,1-32.1,15.73l-8.36,3.16-7.91,2.91c-2.64.91-5.2,2-7.76,3.09s-5.17,2.08-7.66,3.34a200.73,200.73,0,0,0-29.07,16.26c-37.26,24.42-64.85,62.24-80.29,104.88-15.89,42.65-21.42,89.17-21.58,135.47a2.08,2.08,0,0,1-2.07,2.11,2.11,2.11,0,0,1-2.07-1.94c-.91-11.66-1.54-23.37-1.5-35.11s.53-23.5,1.5-35.24a320.39,320.39,0,0,1,5-35.08,279,279,0,0,1,9-34.45c7.49-22.56,17.9-44.45,32.08-63.85a202.69,202.69,0,0,1,51.33-50,216.55,216.55,0,0,1,31.14-17.66c2.67-1.35,5.44-2.43,8.17-3.61s5.47-2.35,8.27-3.34l16.13-5.94a226,226,0,0,0,57.87-33,254.52,254.52,0,0,0,24.95-22.56,278.8,278.8,0,0,0,21.87-25.91,271.69,271.69,0,0,0,33.57-59.61l0-.12a1.68,1.68,0,0,1,2.2-.94A1.7,1.7,0,0,1,2807.4,1586.81Z" transform="translate(2 -2)"/><path class="cls-10" d="M868.07,1483s186.44,497.69,245.34,601.23c68.37,120.18,268,43.6,258.12-57S1128.29,1511,1128.29,1511Z" transform="translate(2 -2)"/><polygon class="cls-11" points="1121.98 1118.48 2280.73 711.81 2268.56 1812.32 1090.31 1546.21 1121.98 1118.48"/><ellipse class="cls-12" cx="2281.82" cy="1265.26" rx="113.84" ry="565.56"/><path class="cls-13" d="M2288.46,1794.14c-10.29-10.59-32.7-51.45-51.92-157.12-18.57-102.12-28.8-234.57-28.8-373s10.23-270.84,28.8-373c19.22-105.66,41.63-146.53,51.92-157.12,10.29,10.59,32.71,51.46,51.92,157.12,18.58,102.12,28.8,234.57,28.8,373s-10.22,270.83-28.8,373C2321.17,1742.69,2298.75,1783.55,2288.46,1794.14Z" transform="translate(2 -2)"/><g class="cls-14"><path class="cls-15" d="M2434.38,1259.86c0,96.09-51.14,174-152.36,174s-183.28-77.9-183.28-174,82.06-174,183.28-174S2434.38,1163.76,2434.38,1259.86Z" transform="translate(2 -2)"/></g><path class="cls-16" d="M933.09,1096.82c54.51-6.4,132.68-8.71,217.19,10.88-27.85,147.23-23.64,300.69,8.56,459.59H920.47c-38,0-70.42-28-76.34-65.94-11.88-76.17-26.41-204.19-10.92-307C841,1142.74,881.87,1102.85,933.09,1096.82Z" transform="translate(2 -2)"/><path class="cls-4" d="M1076.15,1209.58H890.43a16.66,16.66,0,0,1-14.88-8.95,17.07,17.07,0,0,1,.66-17.5,4.75,4.75,0,0,1,6.6-1.44,4.88,4.88,0,0,1,1.42,6.69,7.44,7.44,0,0,0-.29,7.63,7.27,7.27,0,0,0,6.49,3.91h185.72a7.45,7.45,0,0,0,7.39-7.48v-13.38a7.44,7.44,0,0,0-7.39-7.47H889.05a4.84,4.84,0,0,1,0-9.67h187.1a17.06,17.06,0,0,1,16.94,17.14v13.38A17.06,17.06,0,0,1,1076.15,1209.58Z" transform="translate(2 -2)"/><path class="cls-4" d="M1059.59,1292.84H873.87a16.66,16.66,0,0,1-14.88-8.95,17.09,17.09,0,0,1,.66-17.51,4.76,4.76,0,0,1,6.6-1.43,4.88,4.88,0,0,1,1.42,6.69,7.44,7.44,0,0,0-.29,7.63,7.28,7.28,0,0,0,6.49,3.9h185.72a7.43,7.43,0,0,0,7.38-7.47v-13.38a7.43,7.43,0,0,0-7.38-7.47H872.49a4.84,4.84,0,0,1,0-9.67h187.1a17.06,17.06,0,0,1,16.94,17.14v13.38A17.06,17.06,0,0,1,1059.59,1292.84Z" transform="translate(2 -2)"/><path class="cls-17" d="M1288.35,1090.69a4.79,4.79,0,0,1-4.55-3.36,4.85,4.85,0,0,1,3.11-6.08l877.62-282.69a4.77,4.77,0,0,1,6,3.14,4.85,4.85,0,0,1-3.1,6.08L1289.8,1090.47A4.86,4.86,0,0,1,1288.35,1090.69Z" transform="translate(2 -2)"/><path class="cls-18" d="M1169.67,1139.8a4.78,4.78,0,0,1-4.42-3,4.86,4.86,0,0,1,2.62-6.31l45.16-18.68a4.75,4.75,0,0,1,6.23,2.64,4.86,4.86,0,0,1-2.61,6.31l-45.17,18.68A4.64,4.64,0,0,1,1169.67,1139.8Z" transform="translate(2 -2)"/><path class="cls-4" d="M1076.15,1390.35H890.43a16.68,16.68,0,0,1-14.88-8.95,17.09,17.09,0,0,1,.66-17.51,4.75,4.75,0,0,1,6.6-1.43,4.86,4.86,0,0,1,1.42,6.68,7.46,7.46,0,0,0-.29,7.64,7.28,7.28,0,0,0,6.49,3.9h185.72a7.44,7.44,0,0,0,7.39-7.48v-13.37a7.45,7.45,0,0,0-7.39-7.48H889.05a4.83,4.83,0,0,1,0-9.66h187.1a17.06,17.06,0,0,1,16.94,17.14v13.37A17.06,17.06,0,0,1,1076.15,1390.35Z" transform="translate(2 -2)"/><path class="cls-4" d="M1093.54,1498.58H907.82a16.66,16.66,0,0,1-14.88-8.95,17.09,17.09,0,0,1,.66-17.51,4.75,4.75,0,0,1,6.6-1.43,4.86,4.86,0,0,1,1.42,6.68,7.46,7.46,0,0,0-.29,7.64,7.28,7.28,0,0,0,6.49,3.9h185.72a7.44,7.44,0,0,0,7.39-7.47v-13.38a7.44,7.44,0,0,0-7.39-7.47H906.44a4.84,4.84,0,0,1,0-9.67h187.1a17.06,17.06,0,0,1,16.94,17.14v13.38A17.06,17.06,0,0,1,1093.54,1498.58Z" transform="translate(2 -2)"/><path class="cls-4" d="M1259.41,2087a120.08,120.08,0,0,1-25.83-2.84c-37.76-8.33-68.5-33.53-84.34-69.15l-148.38-333.67a4.85,4.85,0,0,1,2.39-6.39,4.75,4.75,0,0,1,6.32,2.43L1158,2011.08a110.32,110.32,0,0,0,77.66,63.66,106.87,106.87,0,0,0,94.88-24.55c1.4-1.24,2.81-2.52,4.22-3.82a4.73,4.73,0,0,1,6.75.31,4.87,4.87,0,0,1-.31,6.83q-2.19,2-4.37,4A116.09,116.09,0,0,1,1259.41,2087Z" transform="translate(2 -2)"/><path class="cls-4" d="M983.28,1634.88a4.77,4.77,0,0,1-4.36-2.84l-16.56-37.23a4.86,4.86,0,0,1,2.4-6.39,4.75,4.75,0,0,1,6.31,2.42l16.56,37.22a4.87,4.87,0,0,1-2.4,6.4A4.66,4.66,0,0,1,983.28,1634.88Z" transform="translate(2 -2)"/><path class="cls-19" d="M2407.25,1254.85a4.8,4.8,0,0,1-4.76-4.49c-3.3-47.09-19.43-82.19-47.92-104.34-49.28-38.3-119.6-25.14-120.31-25a4.77,4.77,0,0,1-5.59-3.83,4.84,4.84,0,0,1,3.79-5.67c3-.59,75.27-14.09,127.93,26.82,30.75,23.9,48.12,61.36,51.62,111.32a4.81,4.81,0,0,1-4.42,5.16Z" transform="translate(2 -2)"/><path class="cls-20" d="M2797.88,950.79a3.2,3.2,0,0,1-3-2,3.24,3.24,0,0,1,1.74-4.21c3.9-1.62,7.78-3.34,11.52-5.1a3.16,3.16,0,0,1,4.23,1.55,3.25,3.25,0,0,1-1.54,4.29c-3.83,1.81-7.8,3.57-11.8,5.22A3,3,0,0,1,2797.88,950.79Z" transform="translate(2 -2)"/><path class="cls-20" d="M2693.35,971.05h0c-8.47-.07-17-.55-25.45-1.42a3.22,3.22,0,0,1,.65-6.41c8.22.85,16.58,1.32,24.85,1.39a3.22,3.22,0,0,1,0,6.44Zm40.82-2.77a3.18,3.18,0,0,1-3.14-2.76,3.22,3.22,0,0,1,2.7-3.65c8.18-1.18,16.41-2.77,24.46-4.72a3.19,3.19,0,0,1,3.84,2.38,3.24,3.24,0,0,1-2.36,3.89c-8.24,2-16.66,3.62-25,4.83A2.42,2.42,0,0,1,2734.17,968.28Zm-106.26-6a3.22,3.22,0,0,1-.81-.11c-8.18-2.16-16.36-4.75-24.33-7.69a3.25,3.25,0,0,1-1.9-4.14,3.17,3.17,0,0,1,4.08-1.92c7.78,2.88,15.78,5.4,23.76,7.52a3.23,3.23,0,0,1-.8,6.34Zm-61.31-24.75a3.12,3.12,0,0,1-1.53-.4c-7.41-4.12-14.73-8.65-21.74-13.47a3.24,3.24,0,0,1-.85-4.48,3.16,3.16,0,0,1,4.42-.85c6.85,4.7,14,9.13,21.24,13.16a3.23,3.23,0,0,1,1.25,4.37A3.17,3.17,0,0,1,2566.6,937.53Zm-53.51-39.1a3.17,3.17,0,0,1-2.16-.86c-6.21-5.83-12.22-12-17.86-18.41a3.24,3.24,0,0,1,.25-4.55,3.15,3.15,0,0,1,4.49.25c5.52,6.24,11.38,12.29,17.45,18a3.26,3.26,0,0,1,.17,4.56A3.18,3.18,0,0,1,2513.09,898.43Zm-42.52-51.06a3.16,3.16,0,0,1-2.67-1.46c-4.63-7.19-9-14.68-12.9-22.26a3.24,3.24,0,0,1,1.34-4.35,3.17,3.17,0,0,1,4.3,1.36c3.83,7.39,8.07,14.7,12.59,21.73a3.24,3.24,0,0,1-.93,4.46A3.15,3.15,0,0,1,2470.57,847.37Zm-28.94-60a3.19,3.19,0,0,1-3-2.18c-2.74-8.09-5.13-16.43-7.11-24.77a3.18,3.18,0,1,1,6.19-1.5c1.94,8.14,4.27,16.28,7,24.18a3.24,3.24,0,0,1-2,4.1A3.11,3.11,0,0,1,2441.63,787.34ZM2428.09,722a3.19,3.19,0,0,1-3.16-2.94l-.06-.72c-.62-7.59-.93-15.28-.93-22.83v-2.25a3.19,3.19,0,0,1,3.18-3.19h0a3.19,3.19,0,0,1,3.15,3.25v2.19c0,7.38.3,14.88.9,22.3l.06.69a3.21,3.21,0,0,1-2.89,3.49Zm2.49-66.76a2.92,2.92,0,0,1-.51,0,3.23,3.23,0,0,1-2.64-3.7c1.36-8.48,3.14-17,5.28-25.26a3.18,3.18,0,0,1,3.88-2.3,3.22,3.22,0,0,1,2.27,3.93c-2.08,8.09-3.81,16.39-5.14,24.66A3.19,3.19,0,0,1,2430.58,655.21Z" transform="translate(2 -2)"/><path class="cls-20" d="M2449.19,590.94a3.13,3.13,0,0,1-1.26-.26,3.24,3.24,0,0,1-1.66-4.24c1.68-3.93,3.5-7.91,5.4-11.84a3.19,3.19,0,0,1,4.27-1.47,3.25,3.25,0,0,1,1.45,4.31c-1.86,3.84-3.63,7.72-5.28,11.56A3.19,3.19,0,0,1,2449.19,590.94Z" transform="translate(2 -2)"/><path class="cls-20" d="M2603.25,443.55a3.18,3.18,0,0,1-3-2.11,3.24,3.24,0,0,1,1.89-4.14c4-1.49,8.12-2.9,12.2-4.19a3.18,3.18,0,0,1,4,2.12,3.22,3.22,0,0,1-2.09,4c-4,1.27-8,2.64-11.91,4.1A3.22,3.22,0,0,1,2603.25,443.55Z" transform="translate(2 -2)"/><path class="cls-20" d="M2952.4,780.5a3.2,3.2,0,0,1-3-4.19c2.44-7.86,4.54-15.93,6.25-24a3.18,3.18,0,1,1,6.22,1.36c-1.74,8.24-3.9,16.5-6.4,24.55A3.18,3.18,0,0,1,2952.4,780.5Zm11.79-64.65h-.2a3.22,3.22,0,0,1-3-3.42c.33-5.4.49-10.9.49-16.35q0-4.22-.13-8.44a3.21,3.21,0,0,1,3.09-3.32,3.17,3.17,0,0,1,3.28,3.12q.14,4.32.13,8.64c0,5.57-.17,11.21-.5,16.74A3.2,3.2,0,0,1,2964.19,715.85Zm-3.86-65.61a3.21,3.21,0,0,1-3.13-2.65c-1.45-8.12-3.29-16.26-5.47-24.17a3.23,3.23,0,0,1,2.22-4,3.2,3.2,0,0,1,3.92,2.25c2.22,8.1,4.11,16.42,5.59,24.74a3.22,3.22,0,0,1-2.56,3.75A3.66,3.66,0,0,1,2960.33,650.24Zm-19.21-62.77a3.19,3.19,0,0,1-2.91-1.9c-3.32-7.5-7.05-14.94-11.06-22.12a3.24,3.24,0,0,1,1.2-4.39,3.18,3.18,0,0,1,4.34,1.21c4.11,7.35,7.92,15,11.33,22.65a3.23,3.23,0,0,1-1.6,4.26A3,3,0,0,1,2941.12,587.47Zm-33.6-56.22A3.14,3.14,0,0,1,2905,530c-5-6.48-10.41-12.8-16-18.79a3.24,3.24,0,0,1,.12-4.55,3.15,3.15,0,0,1,4.5.13c5.73,6.13,11.23,12.6,16.38,19.23a3.25,3.25,0,0,1-.54,4.52A3.14,3.14,0,0,1,2907.52,531.25Zm-45.94-46.45a3.13,3.13,0,0,1-2-.69c-6.39-5.07-13.11-9.91-19.95-14.38a3.23,3.23,0,0,1-1-4.45,3.16,3.16,0,0,1,4.4-1c7,4.57,13.88,9.52,20.43,14.72a3.25,3.25,0,0,1,.54,4.53A3.16,3.16,0,0,1,2861.58,484.8Zm-55.56-34a3.23,3.23,0,0,1-1.31-.29c-7.41-3.38-15.07-6.45-22.77-9.12a3.23,3.23,0,0,1-2-4.09,3.17,3.17,0,0,1,4-2c7.89,2.74,15.74,5.88,23.33,9.34a3.25,3.25,0,0,1,1.59,4.27A3.18,3.18,0,0,1,2806,450.79Zm-62-19.51a3.9,3.9,0,0,1-.58,0c-8-1.47-16.17-2.58-24.27-3.29a3.19,3.19,0,0,1-2.89-3.48,3.15,3.15,0,0,1,3.44-2.94c8.3.73,16.66,1.86,24.86,3.36a3.22,3.22,0,0,1,2.56,3.75A3.18,3.18,0,0,1,2744,431.28Zm-89.48-1.1a3.22,3.22,0,0,1-.48-6.4c6.49-1,13.09-1.81,19.6-2.35q2.67-.23,5.34-.39a3.22,3.22,0,0,1,.39,6.43c-1.73.11-3.47.24-5.21.39-6.36.52-12.8,1.3-19.15,2.29A4,4,0,0,1,2654.52,430.18Z" transform="translate(2 -2)"/><path class="cls-20" d="M2931.51,829.94a3.15,3.15,0,0,1-1.53-.4,3.24,3.24,0,0,1-1.25-4.38c2-3.71,4-7.51,5.8-11.29a3.16,3.16,0,0,1,4.26-1.47,3.23,3.23,0,0,1,1.45,4.31c-1.87,3.87-3.87,7.76-5.94,11.56A3.16,3.16,0,0,1,2931.51,829.94Z" transform="translate(2 -2)"/><path class="cls-6" d="M2862.91,818.65a3.28,3.28,0,0,0,.44-3.76l-18.94-34.81A174.66,174.66,0,0,0,2863,727.26l36.41-14.81a3.27,3.27,0,0,0,2-3.2l-2.36-47.61a3.26,3.26,0,0,0-2.32-3l-37.69-11A174,174,0,0,0,2835.34,597l15.41-36.55a3.29,3.29,0,0,0-.8-3.7l-34.93-32a3.19,3.19,0,0,0-3.72-.44l-34.39,19.17a169.66,169.66,0,0,0-52.18-18.86l-14.63-36.85a3.21,3.21,0,0,0-3.15-2.05l-47,2.39a3.22,3.22,0,0,0-2.93,2.35l-10.92,38.15a170.09,170.09,0,0,0-50.06,24L2559.89,537a3.2,3.2,0,0,0-3.66.81l-31.59,35.35a3.3,3.3,0,0,0-.43,3.77l18.94,34.81a174.41,174.41,0,0,0-18.64,52.82l-36.4,14.81a3.26,3.26,0,0,0-2,3.19l2.35,47.61a3.26,3.26,0,0,0,2.33,3l37.68,11.05a174.34,174.34,0,0,0,23.76,50.68l-15.41,36.55a3.29,3.29,0,0,0,.81,3.7l34.92,32a3.21,3.21,0,0,0,3.72.44l34.39-19.17a169.76,169.76,0,0,0,52.18,18.86l14.63,36.85a3.22,3.22,0,0,0,3.16,2l47-2.38a3.24,3.24,0,0,0,2.94-2.36l10.92-38.14a170.06,170.06,0,0,0,50.05-24l36.12,15.6a3.19,3.19,0,0,0,3.65-.82Z" transform="translate(2 -2)"/><path class="cls-4" d="M2693.8,743.09a46.74,46.74,0,0,1-44.57-33.35c-7.53-24.86,6.33-51.29,30.9-58.91a45.76,45.76,0,0,1,35.49,3.44,46.68,46.68,0,0,1,22.7,27.83c7.53,24.87-6.33,51.3-30.89,58.92A46.12,46.12,0,0,1,2693.8,743.09Zm0-84.68a36.47,36.47,0,0,0-10.9,1.67c-19.53,6-30.55,27.06-24.57,46.83a37,37,0,0,0,46.27,24.86,37.61,37.61,0,0,0,24.56-46.83,37.1,37.1,0,0,0-18-22.13A36.48,36.48,0,0,0,2693.83,658.41Z" transform="translate(2 -2)"/><path class="cls-4" d="M2692.84,815.17a116.76,116.76,0,0,1-79.29-31,119.61,119.61,0,0,1-38.83-82.88c-.1-2-.15-4.06-.15-6.07,0-63.36,49.28-116.43,112.49-119.64,65.21-3.25,120.91,47.7,124.18,113.71h0a121.62,121.62,0,0,1-1.4,25.47l-9.43-1.56a111.83,111.83,0,0,0,1.43-17.85c0-1.86,0-3.72-.14-5.58-3-60.68-54.25-107.65-114.17-104.53-58.1,2.94-103.41,51.74-103.41,110,0,1.85.05,3.7.14,5.57A109.94,109.94,0,0,0,2620,777a107.85,107.85,0,0,0,133.52,9.91l5.31,8a117.2,117.2,0,0,1-59.88,20Q2695.87,815.18,2692.84,815.17Z" transform="translate(2 -2)"/><path class="cls-6" d="M2539.91,504.29,2527.8,485.7a97.68,97.68,0,0,0,8.09-30.34l19.68-9.9a1.83,1.83,0,0,0,1-1.88l-3.4-26.48a1.83,1.83,0,0,0-1.43-1.56l-21.53-4.48a97.43,97.43,0,0,0-15.5-27.23l7-21.11a1.85,1.85,0,0,0-.61-2l-20.91-16.29a1.79,1.79,0,0,0-2.1-.08l-18.37,12.26a94.6,94.6,0,0,0-30-8.19L2440,328.46a1.79,1.79,0,0,0-1.85-1L2412,330.91a1.81,1.81,0,0,0-1.54,1.44l-4.43,21.8a95.93,95.93,0,0,0-26.9,15.68l-20.85-7.09a1.81,1.81,0,0,0-2,.62l-16.09,21.17a1.82,1.82,0,0,0-.08,2.12l12.1,18.59a98.24,98.24,0,0,0-8.09,30.34l-19.68,9.91a1.84,1.84,0,0,0-1,1.87l3.41,26.49a1.81,1.81,0,0,0,1.43,1.55l21.53,4.48a97.12,97.12,0,0,0,15.49,27.23l-7,21.11a1.83,1.83,0,0,0,.61,2l20.91,16.3a1.8,1.8,0,0,0,2.1.07l18.36-12.25a95,95,0,0,0,30,8.19l9.79,19.92a1.81,1.81,0,0,0,1.85,1L2468,560a1.84,1.84,0,0,0,1.54-1.45l4.42-21.8a95.17,95.17,0,0,0,26.9-15.68l20.86,7.09a1.79,1.79,0,0,0,2-.62l16.09-21.16A1.87,1.87,0,0,0,2539.91,504.29Z" transform="translate(2 -2)"/><path class="cls-4" d="M2440,474a27.78,27.78,0,0,1-11.2-2.37,28.18,28.18,0,0,1-15-15.69,28.66,28.66,0,0,1,.35-21.85,28.08,28.08,0,0,1,52.1.84,28.69,28.69,0,0,1-15.85,37A27.79,27.79,0,0,1,2440,474Zm0-47.45a18.33,18.33,0,0,0-6.84,1.33A18.59,18.59,0,0,0,2422.86,438a19,19,0,0,0-.23,14.45,18.63,18.63,0,0,0,9.93,10.38,18.34,18.34,0,0,0,14.28.23,19,19,0,0,0,10.48-24.5A18.68,18.68,0,0,0,2440,426.59Z" transform="translate(2 -2)"/><path class="cls-20" d="M2524.58,563.46a3.17,3.17,0,0,1-2.56-1.3,3.25,3.25,0,0,1,.65-4.51c3.31-2.49,6.55-5.18,9.63-8a3.14,3.14,0,0,1,4.49.24,3.24,3.24,0,0,1-.24,4.55c-3.22,2.93-6.61,5.74-10.07,8.35A3.17,3.17,0,0,1,2524.58,563.46Z" transform="translate(2 -2)"/><path class="cls-20" d="M2460.67,590.36a3.23,3.23,0,0,1-.47-6.42,137,137,0,0,0,25.23-6.31,3.18,3.18,0,0,1,4.06,2,3.24,3.24,0,0,1-2,4.11,143.77,143.77,0,0,1-26.39,6.6A3.89,3.89,0,0,1,2460.67,590.36Zm-43.09-.28a2.92,2.92,0,0,1-.51,0,144,144,0,0,1-26.31-6.9,3.24,3.24,0,0,1-1.91-4.13,3.16,3.16,0,0,1,4.08-1.93,138.08,138.08,0,0,0,25.16,6.6,3.22,3.22,0,0,1,2.63,3.7A3.19,3.19,0,0,1,2417.58,590.08ZM2354,562.44a3.2,3.2,0,0,1-1.93-.66,145.17,145.17,0,0,1-19.95-18.68,3.25,3.25,0,0,1,.25-4.55,3.16,3.16,0,0,1,4.5.26A138.25,138.25,0,0,0,2356,556.65a3.27,3.27,0,0,1,.6,4.52A3.19,3.19,0,0,1,2354,562.44Zm-43-54.84a3.17,3.17,0,0,1-2.91-1.9q-1.39-3.13-2.66-6.39a148.71,148.71,0,0,1-6.15-19.63,3.23,3.23,0,0,1,2.35-3.89,3.18,3.18,0,0,1,3.84,2.38,142.59,142.59,0,0,0,5.88,18.77c.81,2.08,1.66,4.11,2.55,6.12a3.24,3.24,0,0,1-1.6,4.26A3.14,3.14,0,0,1,2311,507.6Z" transform="translate(2 -2)"/><path class="cls-20" d="M2298.83,438.52h-.23a3.19,3.19,0,0,1-2.95-3.44c.31-4.37.82-8.77,1.52-13.08a3.18,3.18,0,0,1,3.66-2.67,3.22,3.22,0,0,1,2.62,3.7c-.66,4.13-1.15,8.34-1.45,12.51A3.2,3.2,0,0,1,2298.83,438.52Z" transform="translate(2 -2)"/><path class="cls-20" d="M2354.72,334.38a3.18,3.18,0,0,1-2.55-1.29,3.24,3.24,0,0,1,.63-4.51c3.46-2.64,7.08-5.14,10.74-7.44a3.16,3.16,0,0,1,4.38,1,3.25,3.25,0,0,1-1,4.44c-3.5,2.2-7,4.6-10.27,7.12A3.13,3.13,0,0,1,2354.72,334.38Z" transform="translate(2 -2)"/><path class="cls-20" d="M2579,422.45a3.2,3.2,0,0,1-3.13-2.63,141.88,141.88,0,0,0-7-24.88,3.24,3.24,0,0,1,1.82-4.17,3.18,3.18,0,0,1,4.12,1.84,148.56,148.56,0,0,1,7.33,26,3.23,3.23,0,0,1-2.54,3.76A3,3,0,0,1,2579,422.45Zm-28.18-62.7a3.18,3.18,0,0,1-2.5-1.22,138.65,138.65,0,0,0-17.64-18.69,3.24,3.24,0,0,1-.32-4.54,3.15,3.15,0,0,1,4.49-.32,145.38,145.38,0,0,1,18.47,19.55,3.26,3.26,0,0,1-.53,4.53A3.17,3.17,0,0,1,2550.85,359.75ZM2497,317.67a3.07,3.07,0,0,1-1.28-.27,137.84,137.84,0,0,0-24.24-8.21,3.24,3.24,0,0,1-2.37-3.88,3.19,3.19,0,0,1,3.83-2.4,144.16,144.16,0,0,1,25.35,8.59,3.25,3.25,0,0,1,1.63,4.25A3.19,3.19,0,0,1,2497,317.67Zm-92.82-7.52a3.19,3.19,0,0,1-3.08-2.4,3.23,3.23,0,0,1,2.27-3.94,143,143,0,0,1,26.37-4.42,3.18,3.18,0,0,1,3.41,3,3.22,3.22,0,0,1-3,3.44A136.45,136.45,0,0,0,2405,310,2.87,2.87,0,0,1,2404.18,310.15Z" transform="translate(2 -2)"/><path class="cls-20" d="M2578.39,478.17a3,3,0,0,1-.66-.07,3.21,3.21,0,0,1-2.46-3.82c.85-4.1,1.53-8.28,2-12.43a3.18,3.18,0,1,1,6.32.77c-.51,4.33-1.22,8.71-2.11,13A3.2,3.2,0,0,1,2578.39,478.17Z" transform="translate(2 -2)"/><path class="cls-4" d="M2439.36,514.46a67.4,67.4,0,0,1-41.6-14.4,69.82,69.82,0,0,1-12.49-97.15,67.89,67.89,0,0,1,96-12.64,69,69,0,0,1,26.13,46,71.15,71.15,0,0,1,.42,13.68c0,.35-.05.7-.08,1l-9.52-.79c.14-1.64.2-3.28.2-4.93a61.41,61.41,0,0,0-.49-7.77h0a63.49,63.49,0,0,0-1.3-6.92.09.09,0,0,1,0-.05h0a.19.19,0,0,1,0-.07h0a59.17,59.17,0,0,0-21.15-32.5,58.41,58.41,0,0,0-82.59,10.88A59.58,59.58,0,0,0,2380.6,445a60.75,60.75,0,0,0,.51,7.82,59.37,59.37,0,0,0,22.47,39.54A58.34,58.34,0,0,0,2476,492l5.93,7.58a68.34,68.34,0,0,1-42.58,14.93Z" transform="translate(2 -2)"/><path class="cls-21" d="M1937.63,1032.91c-.28-3.52-3.83-6.57-9.85-9,6.54-3.65,10.15-7.56,9.85-11.39-.93-11.61-37.23-18.11-81.09-14.53s-78.66,15.88-77.73,27.49c.28,3.52,3.83,6.56,9.84,9-6.53,3.64-10.15,7.55-9.84,11.39.28,3.52,3.83,6.56,9.84,9-6.53,3.64-10.15,7.55-9.84,11.39.28,3.52,3.83,6.56,9.84,9-6.53,3.64-10.15,7.55-9.84,11.39.41,5.13,7.74,9.26,19.58,12a106.72,106.72,0,0,0,.3,12.54c1.72,21.38,25.48,38.14,56.91,38.14s58.62-22.86,58.93-44.31a110.52,110.52,0,0,0-.62-14c15-5.08,24.2-11.29,23.72-17.31-.28-3.52-3.83-6.57-9.85-9,6.54-3.65,10.15-7.56,9.85-11.39-.28-3.52-3.83-6.57-9.85-9C1934.32,1040.65,1937.93,1036.74,1937.63,1032.91Z" transform="translate(2 -2)"/><path class="cls-22" d="M1836.25,1103.26a187.18,187.18,0,0,1-34.79-2.88,1.07,1.07,0,0,1-.84-1.25,1.06,1.06,0,0,1,1.24-.85c15.4,3,36,3.65,58,1.85,18-1.46,34.77-4.4,48.6-8.48a1,1,0,0,1,1.3.72,1.07,1.07,0,0,1-.71,1.33c-14,4.12-30.91,7.08-49,8.56C1851.82,1102.93,1843.85,1103.26,1836.25,1103.26Z" transform="translate(2 -2)"/><path class="cls-23" d="M1836.47,1082.84c-16.92,0-32-1.61-42.72-4.69a1.06,1.06,0,0,1-.72-1.32,1.05,1.05,0,0,1,1.3-.73c15.2,4.38,39.68,5.74,65.48,3.63,25.51-2.08,49.31-7.32,63.66-14a1.06,1.06,0,0,1,1.4.52,1.08,1.08,0,0,1-.52,1.42c-14.56,6.8-38.62,12.11-64.37,14.21C1851.94,1082.52,1844,1082.84,1836.47,1082.84Z" transform="translate(2 -2)"/><path class="cls-24" d="M1836.25,1062.45c-18.27,0-34.26-1.89-45-5.48a1.06,1.06,0,0,1-.67-1.35,1.05,1.05,0,0,1,1.33-.68c15,5,40.36,6.64,67.92,4.39,25.51-2.08,49.31-7.32,63.66-14a1.06,1.06,0,0,1,1.4.52,1.08,1.08,0,0,1-.52,1.42c-14.56,6.8-38.63,12.11-64.37,14.21C1851.81,1062.13,1843.84,1062.45,1836.25,1062.45Z" transform="translate(2 -2)"/><path class="cls-25" d="M1836.39,1042c-14.49,0-27.67-1.18-37.92-3.49a1.06,1.06,0,0,1-.8-1.27,1,1,0,0,1,1.25-.81c15.41,3.47,37.61,4.36,60.89,2.46,25.28-2.06,49-7.25,63.33-13.87a1.06,1.06,0,0,1,.87,1.94c-14.58,6.72-38.52,12-64,14.06C1851.91,1041.72,1844,1042,1836.39,1042Z" transform="translate(2 -2)"/><path class="cls-9" d="M1749.37,929.93a150.71,150.71,0,0,0-26.56-52.49c-26.11-33.31-68.7-101.05-73.94-193.5-7.63-134.47,110.19-201.79,217.7-192.65s213.61,90.17,202,215.27c-7.14,77-49.71,135.36-81.4,168.89a178.84,178.84,0,0,0-42.25,75.77c-9.51,34.76-32.14,78.07-85.93,80.71C1789.37,1035.35,1760.45,969.67,1749.37,929.93Z" transform="translate(2 -2)"/><path class="cls-26" d="M1876.76,1005.11l37.62-247.66c.77-5.12,3.26-8.56,5.55-7.68s3.52,5.74,2.74,10.86c0,.13,0,.3-.07.43l-42.85,245.37c-.32,1.85-1.25,3-2.07,2.6S1876.49,1006.9,1876.76,1005.11Z" transform="translate(2 -2)"/><path class="cls-27" d="M1837.71,1007.08l-37.62-247.67c-.78-5.11-3.27-8.55-5.56-7.67s-3.52,5.74-2.74,10.85c0,.14,0,.31.07.44l42.85,245.37c.33,1.84,1.25,3,2.07,2.6S1838,1008.87,1837.71,1007.08Z" transform="translate(2 -2)"/><path class="cls-28" d="M1914.11,736.18a3.94,3.94,0,0,0-4.94-1.3l-21,9.91-7.27-21a4.47,4.47,0,0,0-2.55-2.59,5.13,5.13,0,0,0-6.43,2l0,.07-17.23,31.79-16-45.25,0-.08a5.16,5.16,0,0,0-2.42-2.76,6.22,6.22,0,0,0-7.91,1.58l-24.08,33.55a3,3,0,0,0,.85,4.24,4,4,0,0,0,5.12-.56l21.2-23.95,19.09,43.06,0,0a3.41,3.41,0,0,0,1.68,1.67,4,4,0,0,0,5-1.31l18.42-29.92,6.94,15.13.06.14a3.37,3.37,0,0,0,.17.32,3.91,3.91,0,0,0,4.93,1.29l24.87-11.76A3,3,0,0,0,1914.11,736.18Z" transform="translate(2 -2)"/><path class="cls-29" d="M1988,843.52a4.71,4.71,0,0,1-2.84-.95,4.87,4.87,0,0,1-1-6.76A281.47,281.47,0,0,0,2001.6,809a4.74,4.74,0,0,1,6.52-1.77,4.86,4.86,0,0,1,1.75,6.6,290.05,290.05,0,0,1-18,27.76A4.75,4.75,0,0,1,1988,843.52Z" transform="translate(2 -2)"/><path class="cls-30" d="M2018.93,789.76a4.73,4.73,0,0,1-1.9-.4,4.86,4.86,0,0,1-2.48-6.36c39.75-92.67,5.47-170.44,5.12-171.22a4.86,4.86,0,0,1,2.35-6.41,4.75,4.75,0,0,1,6.33,2.38c1.51,3.33,36.4,82.52-5,179.1A4.78,4.78,0,0,1,2018.93,789.76Z" transform="translate(2 -2)"/><path class="cls-9" d="M2378.57,1371.81c-7.17-2.49-6.14-13.11,1.38-14.1,34.29-4.5,84.55-18.09,101-58.81,25.83-63.9-27.67-310.27,218.08-354.36,226.69-40.66,352.95,32,350.08,244C3046.34,1394.05,2720,1490.41,2378.57,1371.81Z" transform="translate(2 -2)"/><rect class="cls-31" x="2550.27" y="1142.2" width="21.99" height="174.16"/><rect class="cls-32" x="2587.01" y="1202.05" width="21.99" height="114.3"/><rect class="cls-33" x="2623.75" y="1054.12" width="21.99" height="262.23"/><rect class="cls-34" x="2660.49" y="1253.36" width="21.99" height="63"/><rect class="cls-35" x="2697.23" y="1089.18" width="21.99" height="227.17"/><rect class="cls-36" x="2733.97" y="1128.51" width="21.99" height="187.84"/><rect class="cls-37" x="2770.71" y="1171.27" width="21.99" height="145.09"/><rect class="cls-38" x="2807.45" y="1001.11" width="21.99" height="315.25"/><rect class="cls-39" x="2844.19" y="1034.46" width="21.99" height="281.9"/><rect class="cls-40" x="2880.93" y="1084.91" width="21.99" height="231.45"/><rect class="cls-41" x="2917.67" y="1259.2" width="21.99" height="57.15"/><path class="cls-20" d="M3010,475.65l.65,13.85a2.08,2.08,0,1,1-4.15.2v0l-.65-13.79v0a2.08,2.08,0,1,1,4.16-.2Z" transform="translate(2 -2)"/><path class="cls-20" d="M3011.13,503.35l.31,13.85a2.08,2.08,0,1,1-4.15.1v0l-.32-13.81v0a2.08,2.08,0,1,1,4.16-.1Z" transform="translate(2 -2)"/><path class="cls-20" d="M3011.59,531.06l0,13.87a2.08,2.08,0,1,1-4.15,0v0l0-13.81v0a2.08,2.08,0,1,1,4.15,0Z" transform="translate(2 -2)"/><path class="cls-20" d="M3011.38,558.79l-.36,13.85a2.07,2.07,0,1,1-4.14-.11v0l.36-13.8v0a2.07,2.07,0,1,1,4.14.11Z" transform="translate(2 -2)"/><path class="cls-20" d="M3010.48,586.49l-.71,13.84a2.07,2.07,0,1,1-4.13-.21v0l.71-13.79v0a2.07,2.07,0,1,1,4.14.22Z" transform="translate(2 -2)"/><path class="cls-20" d="M3008.88,614.17,3007.81,628a2.07,2.07,0,1,1-4.12-.32v0l1.06-13.77v0a2.07,2.07,0,1,1,4.12.33Z" transform="translate(2 -2)"/><path class="cls-20" d="M3006.56,641.8l-1.44,13.79a2.07,2.07,0,1,1-4.11-.44v0l1.43-13.73v0a2.07,2.07,0,1,1,4.11.44Z" transform="translate(2 -2)"/><path class="cls-20" d="M3003.49,669.35l-1.83,13.74a2.06,2.06,0,1,1-4.09-.56v0l1.81-13.68v0a2.07,2.07,0,0,1,2.32-1.8,2.1,2.1,0,0,1,1.77,2.35Z" transform="translate(2 -2)"/><path class="cls-20" d="M2999.64,696.8l-2.23,13.68a2.06,2.06,0,0,1-2.36,1.72,2.09,2.09,0,0,1-1.7-2.4v0l2.21-13.62v0a2.06,2.06,0,1,1,4.07.68Z" transform="translate(2 -2)"/><path class="cls-20" d="M2995,724.13l-2.64,13.6a2.05,2.05,0,0,1-2.42,1.64,2.08,2.08,0,0,1-1.62-2.44v0l2.62-13.54v0a2.06,2.06,0,0,1,2.41-1.64,2.09,2.09,0,0,1,1.63,2.44Z" transform="translate(2 -2)"/><path class="cls-20" d="M2989.5,751.3l-3.07,13.51a2.05,2.05,0,1,1-4-.93v0l3.05-13.45v0a2.06,2.06,0,0,1,2.46-1.57,2.09,2.09,0,0,1,1.55,2.5Z" transform="translate(2 -2)"/><path class="cls-20" d="M2983.14,778.28l-3.51,13.41a2.06,2.06,0,1,1-4-1.07v0l3.49-13.34v0a2,2,0,0,1,2.51-1.47,2.08,2.08,0,0,1,1.46,2.54Z" transform="translate(2 -2)"/><path class="cls-20" d="M2975.88,805l-4,13.28a2,2,0,0,1-2.55,1.38,2.08,2.08,0,0,1-1.37-2.59v0l4-13.21v0a2,2,0,0,1,2.55-1.39,2.08,2.08,0,0,1,1.37,2.59Z" transform="translate(2 -2)"/><path class="cls-20" d="M2967.69,831.51l-4.46,13.12a2,2,0,0,1-2.6,1.29,2.08,2.08,0,0,1-1.27-2.64v0l4.43-13,0,0a2,2,0,0,1,2.6-1.28,2.07,2.07,0,0,1,1.27,2.63Z" transform="translate(2 -2)"/><path class="cls-20" d="M2958.53,857.67l-5,12.94a2,2,0,0,1-2.65,1.18,2.08,2.08,0,0,1-1.16-2.68v0l4.92-12.86,0,0a2,2,0,0,1,2.64-1.18,2.07,2.07,0,0,1,1.17,2.67Z" transform="translate(2 -2)"/><path class="cls-20" d="M2948.37,883.44l-5.46,12.74a2,2,0,0,1-2.68,1.07,2.07,2.07,0,0,1-1.06-2.72l0,0,5.42-12.65,0,0a2,2,0,0,1,2.68-1.08,2.09,2.09,0,0,1,1.07,2.72Z" transform="translate(2 -2)"/><path class="cls-20" d="M2937.19,908.79l-6,12.49a2,2,0,0,1-2.72,1,2.08,2.08,0,0,1-.95-2.76l0,0L2933.5,907l0,0a2,2,0,0,1,2.73-1,2.08,2.08,0,0,1,.95,2.76Z" transform="translate(2 -2)"/><path class="cls-20" d="M2925,933.64l-6.51,12.21a2,2,0,0,1-2.76.84,2.08,2.08,0,0,1-.83-2.79l0,0,6.47-12.14,0,0a2,2,0,0,1,2.76-.84,2.09,2.09,0,0,1,.83,2.8Z" transform="translate(2 -2)"/><path class="cls-20" d="M2911.68,957.92l-7,11.91a2,2,0,0,1-2.79.71,2.06,2.06,0,0,1-.7-2.82l0,0,7-11.83,0,0a2,2,0,0,1,2.79-.71,2.07,2.07,0,0,1,.71,2.82Z" transform="translate(2 -2)"/><path class="cls-20" d="M2897.31,981.57l-7.59,11.57a2,2,0,0,1-2.82.58,2.07,2.07,0,0,1-.56-2.85l0,0,7.53-11.49,0,0a2,2,0,0,1,2.82-.58,2.08,2.08,0,0,1,.57,2.85Z" transform="translate(2 -2)"/><path class="cls-20" d="M2881.86,1004.52l-8.12,11.19a2,2,0,0,1-2.84.44,2.07,2.07,0,0,1-.43-2.87l0,0,8.06-11.11,0,0a2,2,0,0,1,2.84-.44,2.07,2.07,0,0,1,.43,2.87Z" transform="translate(2 -2)"/><path class="cls-20" d="M2865.35,1026.7l-8.65,10.78a2,2,0,0,1-2.85.29,2.07,2.07,0,0,1-.3-2.88l0,0,8.59-10.7,0,0a2,2,0,0,1,2.86-.3,2.08,2.08,0,0,1,.29,2.89Z" transform="translate(2 -2)"/><path class="cls-20" d="M2847.79,1048l-9.17,10.34a2,2,0,0,1-2.86.15,2.06,2.06,0,0,1-.15-2.89l0,0,9.1-10.26,0,0a2,2,0,0,1,2.86-.15,2.07,2.07,0,0,1,.16,2.89Z" transform="translate(2 -2)"/><path class="cls-20" d="M2829.2,1068.46l-9.67,9.86a2,2,0,0,1-2.86,0,2.07,2.07,0,0,1,0-2.89l0,0,9.59-9.79,0,0a2,2,0,0,1,2.86,0,2.07,2.07,0,0,1,0,2.89Z" transform="translate(2 -2)"/><path class="cls-20" d="M2809.63,1087.93l-10.15,9.35a2,2,0,0,1-2.85-.13,2.07,2.07,0,0,1,.13-2.89l0,0,10.07-9.29,0,0a2,2,0,0,1,2.86.13,2.07,2.07,0,0,1-.13,2.89Z" transform="translate(2 -2)"/><path class="cls-20" d="M2789.12,1106.38l-10.59,8.83a2,2,0,0,1-2.84-.27,2.06,2.06,0,0,1,.27-2.88l0,0,10.51-8.77,0,0a2,2,0,0,1,2.84.27,2.06,2.06,0,0,1-.27,2.88Z" transform="translate(2 -2)"/><path class="cls-20" d="M2767.73,1123.78l-11,8.29a2,2,0,0,1-2.81-.41,2.06,2.06,0,0,1,.41-2.86l0,0,10.92-8.23,0,0a2,2,0,0,1,2.82.41,2.06,2.06,0,0,1-.41,2.86Z" transform="translate(2 -2)"/><path class="cls-20" d="M2745.52,1140.1l-11.38,7.74a2,2,0,0,1-2.8-.55,2.06,2.06,0,0,1,.55-2.83l0,0,11.31-7.69,0,0a2,2,0,0,1,2.79.56,2.05,2.05,0,0,1-.55,2.83Z" transform="translate(2 -2)"/><path class="cls-20" d="M2722.57,1155.31l-11.74,7.19a2,2,0,0,1-2.76-.68,2.06,2.06,0,0,1,.68-2.8l0,0,11.66-7.15,0,0a2,2,0,0,1,2.76.69,2,2,0,0,1-.68,2.79Z" transform="translate(2 -2)"/><path class="cls-20" d="M2698.94,1169.42l-12,6.63a2,2,0,0,1-2.72-.81,2.05,2.05,0,0,1,.8-2.76l0,0,12-6.59,0,0a2,2,0,0,1,2.72.81,2.05,2.05,0,0,1-.8,2.76Z" transform="translate(2 -2)"/><path class="cls-20" d="M2674.71,1182.41l-12.31,6.09a2,2,0,0,1-2.68-.93,2,2,0,0,1,.92-2.72l0,0,12.24-6,0,0a2,2,0,0,1,2.69.94,2,2,0,0,1-.92,2.71Z" transform="translate(2 -2)"/><path class="cls-20" d="M2650,1194.32l-12.56,5.55a2,2,0,0,1-2.64-1,2,2,0,0,1,1-2.67h0l12.49-5.52,0,0a2,2,0,0,1,2.63,1.05,2,2,0,0,1-1,2.67Z" transform="translate(2 -2)"/><path class="cls-20" d="M2624.71,1205.15l-12.78,5a2,2,0,0,1-2.59-1.15,2,2,0,0,1,1.14-2.62l0,0,12.7-5h0a2,2,0,0,1,2.59,1.15,2,2,0,0,1-1.14,2.62Z" transform="translate(2 -2)"/><path class="cls-20" d="M2599.06,1215l-13,4.51a2,2,0,0,1-2.54-1.25,2,2,0,0,1,1.24-2.57h0l12.89-4.49,0,0a2,2,0,0,1,2.54,1.26,2,2,0,0,1-1.24,2.57Z" transform="translate(2 -2)"/><path class="cls-20" d="M2573.05,1223.73l-13.12,4a2,2,0,0,1-2.48-1.35,2,2,0,0,1,1.33-2.52h0l13.05-4h0a2,2,0,0,1,2.49,1.34,2,2,0,0,1-1.33,2.52Z" transform="translate(2 -2)"/><path class="cls-20" d="M2546.75,1231.55l-13.25,3.55a2,2,0,0,1-2.44-1.43,2,2,0,0,1,1.42-2.47h0l13.18-3.54h0a2,2,0,0,1,2.43,1.43,2,2,0,0,1-1.41,2.47Z" transform="translate(2 -2)"/><path class="cls-20" d="M2520.19,1238.42l-13.36,3.1a2,2,0,0,1-2.39-1.51,2,2,0,0,1,1.5-2.41h0l13.3-3.09h0a2,2,0,0,1,2.38,1.51,2,2,0,0,1-1.49,2.41Z" transform="translate(2 -2)"/><path class="cls-20" d="M2493.43,1244.4l-13.44,2.67a2,2,0,0,1-2.33-1.59,2,2,0,0,1,1.57-2.36h0l13.38-2.66h0a2,2,0,0,1,.76,4Z" transform="translate(2 -2)"/><path class="cls-20" d="M2466.51,1249.53l-13.51,2.26a2,2,0,0,1-2.29-1.66,2,2,0,0,1,1.64-2.31h0l13.46-2.25h0a2,2,0,0,1,.65,4Z" transform="translate(2 -2)"/><path class="cls-20" d="M2439.45,1253.85l-13.58,1.86a2,2,0,0,1-2.23-1.71,2,2,0,0,1,1.7-2.26h0l13.52-1.86h0a2,2,0,0,1,2.24,1.72,2,2,0,0,1-1.7,2.26Z" transform="translate(2 -2)"/><path class="cls-20" d="M2412.27,1257.39l-13.61,1.5a2,2,0,0,1-.43-4h0l13.57-1.49h0a2,2,0,0,1,.43,4Z" transform="translate(2 -2)"/><path class="cls-20" d="M2385,1260.2l-13.65,1.15a2,2,0,0,1-.33-4h0l13.61-1.14h0a2,2,0,0,1,.33,4Z" transform="translate(2 -2)"/><path class="cls-20" d="M2357.7,1262.32l-13.67.81a2,2,0,0,1-.23-4h0l13.62-.81h0a2,2,0,0,1,.23,4Z" transform="translate(2 -2)"/><path class="cls-20" d="M2330.36,1263.78l-13.69.49a2,2,0,0,1-.14-4h0l13.64-.49h0a2,2,0,0,1,.14,4Z" transform="translate(2 -2)"/><path class="cls-20" d="M2303,1264.61l-13.7.19a2,2,0,0,1-.05-4h0l13.65-.19h0a2,2,0,0,1,.06,4Z" transform="translate(2 -2)"/><path class="cls-20" d="M2275.6,1264.87l-13.67,0a2,2,0,0,1,0-4l13.65,0a2,2,0,0,1,0,4Z" transform="translate(2 -2)"/><path class="cls-20" d="M2248.24,1264.73l-13.69-.21a2,2,0,0,1,.07-4l13.66.2a2,2,0,0,1,0,4Z" transform="translate(2 -2)"/><path class="cls-20" d="M2220.87,1264.24l-13.68-.37a2,2,0,0,1,.11-4l13.66.37a2,2,0,0,1-.08,4Z" transform="translate(2 -2)"/><path class="cls-20" d="M2193.51,1263.41l-13.68-.54a2,2,0,0,1,.16-4l13.66.53a2,2,0,0,1-.13,4Z" transform="translate(2 -2)"/><path class="cls-20" d="M2166.16,1262.25l-13.67-.69a2,2,0,0,1,.21-4l13.64.69a2,2,0,0,1-.17,4Z" transform="translate(2 -2)"/><path class="cls-20" d="M2138.82,1260.78l-13.66-.86a2,2,0,0,1,.26-4l13.63.85a2,2,0,0,1-.22,4Z" transform="translate(2 -2)"/><path class="cls-20" d="M2111.51,1259l-13.65-1a2,2,0,0,1,.29-3.94l13.63,1a2,2,0,0,1-.26,4Z" transform="translate(2 -2)"/><path class="cls-20" d="M2084.21,1256.9l-13.63-1.16a2,2,0,0,1,.33-3.93l13.62,1.15a2,2,0,0,1-.31,3.94Z" transform="translate(2 -2)"/><path class="cls-20" d="M2057,1254.51l-13.63-1.29a2,2,0,0,1,.37-3.93l13.61,1.3a2,2,0,0,1-.34,3.93Z" transform="translate(2 -2)"/><path class="cls-20" d="M2029.71,1251.85l-13.6-1.44a2,2,0,0,1,.42-3.91l13.58,1.43a2,2,0,0,1-.39,3.92Z" transform="translate(2 -2)"/><path class="cls-20" d="M2002.52,1248.91l-13.59-1.57a2,2,0,0,1,.45-3.9L2003,1245a2,2,0,0,1-.42,3.91Z" transform="translate(2 -2)"/><path class="cls-20" d="M1975.34,1245.71l-13.57-1.7a2,2,0,0,1,.48-3.9l13.56,1.7a2,2,0,0,1-.46,3.9Z" transform="translate(2 -2)"/><path class="cls-20" d="M1948.19,1242.25l-13.56-1.82a2,2,0,0,1,.52-3.89l13.55,1.82a2,2,0,0,1-.5,3.89Z" transform="translate(2 -2)"/><path class="cls-20" d="M1921.07,1238.54l-13.56-1.94a2,2,0,0,1,.55-3.88l13.54,1.94a2,2,0,0,1,1.66,2.21,1.94,1.94,0,0,1-2.18,1.67Z" transform="translate(2 -2)"/><path class="cls-20" d="M1894,1234.6l-13.55-2.06a2,2,0,0,1,.59-3.87l13.52,2.06a2,2,0,0,1-.56,3.87Z" transform="translate(2 -2)"/><path class="cls-20" d="M1866.89,1230.43l-13.52-2.17a2,2,0,0,1,.62-3.86l13.5,2.16a2,2,0,0,1,1.61,2.23,1.94,1.94,0,0,1-2.2,1.64Z" transform="translate(2 -2)"/><path class="cls-20" d="M1839.87,1226l-13.5-2.28a2,2,0,0,1,.64-3.85l13.48,2.27a2,2,0,0,1,1.6,2.24,1.93,1.93,0,0,1-2.21,1.62Z" transform="translate(2 -2)"/><path class="cls-20" d="M1812.88,1221.44l-13.48-2.38a1.94,1.94,0,0,1,.67-3.83l13.47,2.37a1.95,1.95,0,0,1-.65,3.84Z" transform="translate(2 -2)"/><path class="cls-20" d="M1785.93,1216.64l-13.46-2.47a1.95,1.95,0,0,1,.69-3.83l13.45,2.47a1.94,1.94,0,0,1-.67,3.83Z" transform="translate(2 -2)"/><path class="cls-20" d="M1759,1211.65l-13.45-2.56a1.94,1.94,0,0,1,.72-3.82l13.43,2.56a1.94,1.94,0,0,1,1.54,2.26,1.91,1.91,0,0,1-2.24,1.56Z" transform="translate(2 -2)"/><path class="cls-20" d="M1732.13,1206.48l-13.42-2.65a2,2,0,0,1-1.52-2.28,1.92,1.92,0,0,1,2.26-1.53l13.41,2.64a2,2,0,0,1,1.53,2.28,1.93,1.93,0,0,1-2.25,1.54Z" transform="translate(2 -2)"/><path class="cls-20" d="M1705.29,1201.13l-13.41-2.74a1.94,1.94,0,0,1,.76-3.8l13.4,2.74a1.94,1.94,0,0,1-.75,3.8Z" transform="translate(2 -2)"/><path class="cls-20" d="M1678.47,1195.62l-13.39-2.82a1.93,1.93,0,0,1,.78-3.79l13.38,2.81a2,2,0,0,1,1.5,2.29,1.93,1.93,0,0,1-2.26,1.51Z" transform="translate(2 -2)"/><path class="cls-20" d="M1651.69,1190l-13.38-2.89a1.94,1.94,0,0,1-1.47-2.3,1.91,1.91,0,0,1,2.27-1.48l13.37,2.88a1.94,1.94,0,0,1,1.48,2.3,1.91,1.91,0,0,1-2.26,1.49Z" transform="translate(2 -2)"/><path class="cls-20" d="M1624.94,1184.13l-13.36-3a1.93,1.93,0,0,1,.82-3.77l13.35,2.95a1.93,1.93,0,0,1,1.46,2.3,1.91,1.91,0,0,1-2.27,1.48Z" transform="translate(2 -2)"/><path class="cls-20" d="M1598.22,1178.17l-13.35-3a1.93,1.93,0,0,1-1.44-2.31,1.91,1.91,0,0,1,2.28-1.46l13.34,3a1.93,1.93,0,0,1,1.45,2.3,1.9,1.9,0,0,1-2.28,1.46Z" transform="translate(2 -2)"/><path class="cls-20" d="M1571.53,1172.08,1558.2,1169a1.92,1.92,0,0,1,.85-3.75l13.33,3.09a1.93,1.93,0,0,1-.85,3.76Z" transform="translate(2 -2)"/><path class="cls-20" d="M1544.87,1165.87l-13.32-3.15a1.92,1.92,0,0,1-1.42-2.31,1.9,1.9,0,0,1,2.29-1.43l13.31,3.14a1.93,1.93,0,0,1,1.42,2.31,1.89,1.89,0,0,1-2.28,1.44Z" transform="translate(2 -2)"/><path class="cls-20" d="M1518.23,1159.54l-13.3-3.2a1.93,1.93,0,0,1-1.41-2.31,1.9,1.9,0,0,1,2.29-1.43l13.3,3.2a1.93,1.93,0,0,1,1.41,2.32,1.9,1.9,0,0,1-2.28,1.43Z" transform="translate(2 -2)"/><path class="cls-20" d="M1491.62,1153.11l-13.29-3.25a1.93,1.93,0,0,1-1.4-2.32,1.89,1.89,0,0,1,2.29-1.41l13.29,3.25a1.91,1.91,0,0,1,1.4,2.31,1.89,1.89,0,0,1-2.28,1.42Z" transform="translate(2 -2)"/><path class="cls-20" d="M1465,1146.58l-13.29-3.3a1.92,1.92,0,0,1-1.38-2.32,1.89,1.89,0,0,1,2.29-1.41l13.28,3.3a1.92,1.92,0,0,1,1.39,2.32,1.89,1.89,0,0,1-2.29,1.41Z" transform="translate(2 -2)"/><path class="cls-20" d="M1438.48,1140l-13.28-3.34a1.92,1.92,0,0,1-1.38-2.32,1.9,1.9,0,0,1,2.3-1.39l13.27,3.34a1.91,1.91,0,0,1,1.38,2.31,1.88,1.88,0,0,1-2.29,1.4Z" transform="translate(2 -2)"/><path class="cls-20" d="M1411.93,1133.25l-13.27-3.39a1.91,1.91,0,0,1-1.37-2.32,1.88,1.88,0,0,1,2.29-1.38l13.27,3.38a1.91,1.91,0,0,1-.91,3.71Z" transform="translate(2 -2)"/><path class="cls-20" d="M1385.39,1126.46l-13.25-3.41a1.92,1.92,0,0,1-1.37-2.32,1.89,1.89,0,0,1,2.3-1.38l13.25,3.41a1.92,1.92,0,0,1,1.37,2.32,1.88,1.88,0,0,1-2.29,1.38Z" transform="translate(2 -2)"/><path class="cls-20" d="M1358.89,1119.61l-13.24-3.47a1.91,1.91,0,0,1,.95-3.69l13.23,3.47a1.91,1.91,0,0,1,1.36,2.32,1.89,1.89,0,0,1-2.29,1.38Z" transform="translate(2 -2)"/><path class="cls-20" d="M1332.43,1112.63l-13.22-3.55a1.9,1.9,0,0,1,1-3.68l13.21,3.55a1.9,1.9,0,0,1,1.34,2.32,1.87,1.87,0,0,1-2.3,1.36Z" transform="translate(2 -2)"/><path class="cls-20" d="M1306,1105.5l-13.21-3.61a1.9,1.9,0,0,1,1-3.67l13.19,3.6a1.9,1.9,0,0,1,1.33,2.33,1.88,1.88,0,0,1-2.3,1.35Z" transform="translate(2 -2)"/><path class="cls-20" d="M1279.59,1098.26l-13.19-3.64a1.91,1.91,0,0,1-1.32-2.34,1.89,1.89,0,0,1,2.31-1.33l13.19,3.64a1.91,1.91,0,0,1,1.32,2.34,1.87,1.87,0,0,1-2.3,1.33Z" transform="translate(2 -2)"/><path class="cls-20" d="M1253.21,1091l-13.2-3.67a1.91,1.91,0,0,1-1.31-2.33,1.89,1.89,0,0,1,2.31-1.33l13.19,3.67a1.9,1.9,0,0,1-1,3.66Z" transform="translate(2 -2)"/><path class="cls-20" d="M1226.82,1083.62l-13.19-3.66a1.9,1.9,0,0,1-1.31-2.33,1.86,1.86,0,0,1,2.3-1.32l13.19,3.66a1.89,1.89,0,0,1,1.31,2.33,1.86,1.86,0,0,1-2.3,1.32Z" transform="translate(2 -2)"/><path class="cls-20" d="M1200.44,1076.3l-13.2-3.64a1.89,1.89,0,0,1-1.31-2.32,1.87,1.87,0,0,1,2.29-1.33l13.2,3.64a1.89,1.89,0,0,1,1.31,2.33,1.86,1.86,0,0,1-2.29,1.32Z" transform="translate(2 -2)"/><path class="cls-20" d="M1174,1069l-13.2-3.6a1.89,1.89,0,0,1-1.32-2.31,1.86,1.86,0,0,1,2.28-1.34l13.22,3.6a1.9,1.9,0,0,1,1.31,2.32A1.86,1.86,0,0,1,1174,1069Z" transform="translate(2 -2)"/><path class="cls-20" d="M1147.62,1061.85l-13.21-3.54a1.88,1.88,0,0,1-1.33-2.3,1.86,1.86,0,0,1,2.27-1.35l13.23,3.54a1.89,1.89,0,0,1,1.33,2.31,1.86,1.86,0,0,1-2.28,1.34Z" transform="translate(2 -2)"/><path class="cls-20" d="M1121.18,1054.8l-13.24-3.46a1.9,1.9,0,0,1-1.34-2.29,1.86,1.86,0,0,1,2.27-1.36l13.25,3.46a1.89,1.89,0,0,1,1.33,2.3,1.85,1.85,0,0,1-2.26,1.35Z" transform="translate(2 -2)"/><path class="cls-20" d="M1094.7,1047.92l-13.26-3.37a1.88,1.88,0,0,1,.9-3.65l13.27,3.37a1.88,1.88,0,0,1,1.35,2.28,1.86,1.86,0,0,1-2.26,1.37Z" transform="translate(2 -2)"/><path class="cls-20" d="M1068.17,1041.25l-13.28-3.25a1.88,1.88,0,0,1-1.38-2.26,1.85,1.85,0,0,1,2.24-1.39l13.3,3.24a1.88,1.88,0,0,1,1.37,2.27,1.86,1.86,0,0,1-2.24,1.39Z" transform="translate(2 -2)"/><path class="cls-20" d="M1041.59,1034.82l-13.31-3.11a1.88,1.88,0,0,1,.82-3.66l13.33,3.11a1.88,1.88,0,0,1,1.39,2.25,1.84,1.84,0,0,1-2.22,1.41Z" transform="translate(2 -2)"/><path class="cls-20" d="M1015,1028.68l-13.35-3a1.87,1.87,0,0,1,.78-3.66l13.37,2.95a1.87,1.87,0,0,1,1.41,2.23,1.84,1.84,0,0,1-2.2,1.43Z" transform="translate(2 -2)"/><path class="cls-20" d="M988.24,1022.87l-13.38-2.77a1.87,1.87,0,0,1,.73-3.67l13.4,2.78a1.87,1.87,0,0,1-.74,3.66Z" transform="translate(2 -2)"/><path class="cls-20" d="M961.46,1017.43,948,1014.85h0a1.87,1.87,0,0,1,.69-3.67l13.45,2.57a1.88,1.88,0,0,1,1.47,2.19,1.86,1.86,0,0,1-2.16,1.49h0Z" transform="translate(2 -2)"/><path class="cls-20" d="M934.6,1012.39,921.13,1010a1.88,1.88,0,0,1-1.49-2.17,1.85,1.85,0,0,1,2.14-1.51l13.46,2.44a1.88,1.88,0,0,1,1.5,2.16,1.85,1.85,0,0,1-2.14,1.52Z" transform="translate(2 -2)"/><path class="cls-20" d="M907.68,1007.5l-13.46-2.43a1.86,1.86,0,0,1,.64-3.67l13.47,2.43a1.86,1.86,0,0,1-.65,3.67Z" transform="translate(2 -2)"/><path class="cls-20" d="M880.76,1002.7l-13.47-2.3a1.86,1.86,0,0,1,.59-3.67l13.5,2.3a1.86,1.86,0,0,1-.61,3.67Z" transform="translate(2 -2)"/><path class="cls-20" d="M853.8,998.22l-13.5-2.05h0a1.85,1.85,0,0,1,.54-3.67l13.54,2a1.86,1.86,0,0,1-.54,3.68h0Z" transform="translate(2 -2)"/><path class="cls-20" d="M826.77,994.28l-13.54-1.7h0a1.85,1.85,0,0,1-1.59-2.07,1.83,1.83,0,0,1,2-1.61l13.6,1.7a1.85,1.85,0,0,1-.45,3.68h0Z" transform="translate(2 -2)"/><path class="cls-20" d="M799.66,991.11l-13.58-1.23h0a1.85,1.85,0,0,1,.33-3.69L800,987.42a1.85,1.85,0,0,1-.32,3.69h0Z" transform="translate(2 -2)"/><path class="cls-20" d="M772.47,988.93l-13.62-.63h0a1.85,1.85,0,0,1,.17-3.7l13.7.64a1.85,1.85,0,0,1-.16,3.7h0Z" transform="translate(2 -2)"/><path class="cls-20" d="M745.23,988l-13.62.1h-.06a1.85,1.85,0,0,1,0-3.7l13.73-.1a1.85,1.85,0,0,1,0,3.7h0Z" transform="translate(2 -2)"/><path class="cls-20" d="M718,988.63l-13.58,1h-.06a1.84,1.84,0,0,1-.26-3.68l13.7-1a1.85,1.85,0,0,1,.26,3.69H718Z" transform="translate(2 -2)"/><path class="cls-20" d="M690.89,991.08l-13.45,2h-.08a1.82,1.82,0,0,1-2.06-1.56,1.84,1.84,0,0,1,1.53-2.09l13.61-2A1.81,1.81,0,0,1,692.5,989a1.84,1.84,0,0,1-1.53,2.1h-.08Z" transform="translate(2 -2)"/><path class="cls-20" d="M664.08,995.65l-13.22,3.17-.08,0a1.81,1.81,0,0,1-2.19-1.37,1.85,1.85,0,0,1,1.35-2.21L663.33,992a1.83,1.83,0,0,1,2.19,1.37,1.86,1.86,0,0,1-1.35,2.22h0Z" transform="translate(2 -2)"/><path class="cls-20" d="M637.81,1002.63,625,1007.09l-.09,0a1.8,1.8,0,0,1-2.3-1.14,1.85,1.85,0,0,1,1.12-2.34l13-4.52a1.81,1.81,0,0,1,2.31,1.14,1.85,1.85,0,0,1-1.13,2.34Z" transform="translate(2 -2)"/><path class="cls-20" d="M612.38,1012.22,600.09,1018l-.09,0a1.81,1.81,0,0,1-2.41-.88,1.84,1.84,0,0,1,.87-2.44l12.48-5.91a1.81,1.81,0,0,1,2.41.89,1.85,1.85,0,0,1-.88,2.44h0Z" transform="translate(2 -2)"/><path class="cls-20" d="M588.13,1024.54l-11.58,7.16-.09,0a1.8,1.8,0,0,1-2.49-.6,1.85,1.85,0,0,1,.6-2.52l11.76-7.28a1.8,1.8,0,0,1,2.49.61,1.85,1.85,0,0,1-.6,2.52h0Z" transform="translate(2 -2)"/><path class="cls-20" d="M565.39,1039.51l-10.6,8.53-.1.09a1.79,1.79,0,0,1-2.54-.3,1.83,1.83,0,0,1,.29-2.57l10.8-8.7a1.79,1.79,0,0,1,2.54.29,1.84,1.84,0,0,1-.28,2.57Z" transform="translate(2 -2)"/><path class="cls-20" d="M544.82,1057.32l-9.33,10-.08.09a1.81,1.81,0,0,1-2.56.07,1.85,1.85,0,0,1-.06-2.59l9.5-10.12a1.79,1.79,0,0,1,2.55-.07,1.86,1.86,0,0,1,.07,2.59h0Z" transform="translate(2 -2)"/><path class="cls-20" d="M526.8,1077.81l-8,11.07-.07.09a1.79,1.79,0,0,1-2.52.39,1.85,1.85,0,0,1-.39-2.55l8.16-11.25a1.79,1.79,0,0,1,2.52-.39,1.83,1.83,0,0,1,.39,2.55h0Z" transform="translate(2 -2)"/><path class="cls-20" d="M511.42,1100.42l-6.62,12-.05.1a1.8,1.8,0,0,1-2.46.7,1.84,1.84,0,0,1-.69-2.48l6.73-12.18a1.8,1.8,0,0,1,2.46-.7,1.83,1.83,0,0,1,.69,2.48Z" transform="translate(2 -2)"/><path class="cls-20" d="M498.94,1124.78l-5.06,12.73,0,.12a1.8,1.8,0,0,1-2.34,1,1.84,1.84,0,0,1-1-2.37l5.14-13a1.79,1.79,0,0,1,2.34-1,1.83,1.83,0,0,1,1,2.37Z" transform="translate(2 -2)"/><path class="cls-20" d="M489.71,1150.56l-3.23,13.31,0,.14a1.8,1.8,0,0,1-2.17,1.33,1.82,1.82,0,0,1-1.32-2.2l3.29-13.58a1.79,1.79,0,0,1,2.17-1.33,1.83,1.83,0,0,1,1.32,2.2Z" transform="translate(2 -2)"/><path class="cls-20" d="M484.29,1177.39,483.24,1191v.16a1.79,1.79,0,1,1-3.57-.28l1.07-14a1.8,1.8,0,1,1,3.58.28h0Z" transform="translate(2 -2)"/><path class="cls-20" d="M483.42,1204.7c.21,2.27.3,4.54.62,6.81l.81,6.8v.09a1.79,1.79,0,1,1-3.55.43l-.83-6.93c-.33-2.31-.43-4.65-.63-7a1.79,1.79,0,1,1,3.57-.33Z" transform="translate(2 -2)"/><path class="cls-20" d="M487.32,1231.79,490.9,1245l0,.16a1.81,1.81,0,0,1-1.25,2.22,1.79,1.79,0,0,1-2.2-1.26l-3.66-13.51a1.79,1.79,0,0,1,1.25-2.22,1.77,1.77,0,0,1,2.19,1.26Z" transform="translate(2 -2)"/><path class="cls-20" d="M495.72,1257.73a112.86,112.86,0,0,0,6.2,12.09,1.82,1.82,0,0,1-.62,2.48,1.77,1.77,0,0,1-2.45-.62,118.32,118.32,0,0,1-6.4-12.48,1.83,1.83,0,0,1,.91-2.39A1.78,1.78,0,0,1,495.72,1257.73Z" transform="translate(2 -2)"/><path class="cls-20" d="M509.6,1280.9a84.55,84.55,0,0,0,9.44,9.58,1.82,1.82,0,0,1,.19,2.55,1.76,1.76,0,0,1-2.51.19,87.7,87.7,0,0,1-9.85-10,1.83,1.83,0,0,1,.21-2.55,1.78,1.78,0,0,1,2.52.22Z" transform="translate(2 -2)"/><path class="cls-20" d="M529.79,1298.67l11.61,7,.15.08a1.82,1.82,0,0,1,.62,2.47,1.76,1.76,0,0,1-2.44.63l-11.91-7.14a1.82,1.82,0,0,1-.63-2.47,1.78,1.78,0,0,1,2.44-.64h0Z" transform="translate(2 -2)"/><path class="cls-20" d="M553.61,1311.54l12.62,5,.12,0a1.81,1.81,0,0,1,1,2.33,1.77,1.77,0,0,1-2.3,1l-12.86-5.05a1.8,1.8,0,0,1-1-2.33,1.77,1.77,0,0,1,2.3-1Z" transform="translate(2 -2)"/><path class="cls-20" d="M579.18,1320.61l13.18,3.29.1,0a1.81,1.81,0,0,1,1.3,2.18,1.78,1.78,0,0,1-2.15,1.31l-13.39-3.34a1.8,1.8,0,0,1-1.3-2.18,1.79,1.79,0,0,1,2.15-1.32h0Z" transform="translate(2 -2)"/><path class="cls-20" d="M605.7,1326.38l13.46,1.63h.12a1.8,1.8,0,0,1-.42,3.57l-13.69-1.65a1.8,1.8,0,0,1,.42-3.57h.11Z" transform="translate(2 -2)"/><path class="cls-20" d="M632.69,1328.67l13.5-.51h.18a1.79,1.79,0,0,1,.13,3.57l-13.84.53a1.79,1.79,0,0,1-.14-3.58h.17Z" transform="translate(2 -2)"/><polygon class="cls-20" points="3032.15 393.17 3004.5 439.91 2985.11 400.85 3032.15 393.17"/><path class="cls-6" d="M2838.38,242.47l59.2,186.31a13.76,13.76,0,0,0,7,8.16,13.47,13.47,0,0,0,10.65.57l182.56-67.2a5.56,5.56,0,0,0,.37-10.24Z" transform="translate(2 -2)"/><polygon class="cls-20" points="3032.13 393.16 2840.38 240.47 3002.7 404.1 2995.58 417.39 3032.13 393.16"/><polygon class="cls-20" points="2985.21 410.45 3004.5 439.91 3002.7 404.1 2985.21 410.45"/><path class="cls-42" d="M1565.61,2088.45s-3.3,17.93-5,35.7a12.21,12.21,0,0,0,11.46,13.39c23.39,1.21,73.42,3.62,91.39,3a4,4,0,0,0,3.52-5.43h0a8.86,8.86,0,0,0-4.47-4.85L1580.19,2091Z" transform="translate(2 -2)"/><path class="cls-43" d="M1563.14,2077.86l2.32,21.52s14.42,7,24.38-.63l-5.77-24Z" transform="translate(2 -2)"/><path class="cls-44" d="M1568.84,1673.85c-1.14,5.6-8.48,280,19.35,403.27a4.2,4.2,0,0,1-2.47,4.84,71.1,71.1,0,0,1-23.65,4.62,7.12,7.12,0,0,1-7-5.22c-8-28.62-46.36-172-50.25-308.6-4.35-152.67,0-5.2,0-5.2l4.28-94.3Z" transform="translate(2 -2)"/><path class="cls-45" d="M1470.42,2096.9s-5.08,9-10.14,33.08a7.47,7.47,0,0,0,6.42,9c7.72.85,19.6,2,29.13,2a7.43,7.43,0,0,0,7.37-8.25c-1-8.81-4.12-23.27-14.18-34.62Z" transform="translate(2 -2)"/><path class="cls-46" d="M1466.3,2069.22l5.58,32.55s5.77,4.44,17.32,1.38l-2.48-35Z" transform="translate(2 -2)"/><path class="cls-47" d="M1454.05,1681.16c-25.07,144.57,1.77,357.94,11.11,399.74a6.44,6.44,0,0,0,5.14,5,42.53,42.53,0,0,0,18.54-.57,5.94,5.94,0,0,0,4.29-5.45c1.62-33.7,1.22-240.72,24.08-322.32a18.55,18.55,0,0,1,7.18-10.18l43.16-30.44,3.76-49.83Z" transform="translate(2 -2)"/><path class="cls-6" d="M1607.68,1408.25c-71-1.88-149.6,17.43-149.6,17.43-22.35,124.86-6.24,269.28-6.24,269.28,54.86,15.13,117.12-7.8,117.12-7.8,9.63-52.18,53.66-198.88,53.66-198.88,34.75-4,63.44-13.89,87.11-27.06-17.76-21.25-26-48.14-29.5-64C1655,1404.85,1629.58,1408.82,1607.68,1408.25Z" transform="translate(2 -2)"/><path class="cls-48" d="M1818.5,1304.36c-6.89-8.6-15.76-4.65-15.76-4.65-10.88,44.6-66,80.31-122.51,97.48,3.53,15.89,11.74,42.78,29.5,64C1803.69,1408.93,1818.5,1304.36,1818.5,1304.36Z" transform="translate(2 -2)"/><path class="cls-49" d="M1816.79,1306.51c.71,2.36-7.78,5.86-12.67-3.8-.13-4.61-2.71-24.36,0-28.09,14.67-19.84,43-44.62,43-44.62a6.82,6.82,0,0,1,.75,9.4l-13.76,14.23c2.8,5.24,6.24,9.67,7.81,16a19.58,19.58,0,0,1-2,14.2c-2.43,4.33-5.75,10-8.87,14.37C1825.11,1306.53,1816.79,1306.51,1816.79,1306.51Z" transform="translate(2 -2)"/><path class="cls-50" d="M1828.09,1262.89l-12.51,10.53-4,10.57,11,12.53s3.92-21,6.73-25.53S1830.65,1264.25,1828.09,1262.89Z" transform="translate(2 -2)"/><path class="cls-6" d="M1484.67,1495.57l-26.59-69.89s-66.78,45-78.23,102.75c12.52,1.06,35.31,4.58,57.53,16.21C1442.54,1517.36,1484.67,1495.57,1484.67,1495.57Z" transform="translate(2 -2)"/><path class="cls-51" d="M1542,1561.65s-74.9,41.89-99.69,5.26c-5.15-7.61-6.32-15.13-5-22.27-22.22-11.63-45-15.15-57.53-16.21a80.75,80.75,0,0,0,8.05,54.83c43.27,82,163.82-2.93,163.82-2.93Z" transform="translate(2 -2)"/><path class="cls-52" d="M1536.28,1349.18l-23.23,65.94a2.39,2.39,0,0,0,1,2.88c6.12,3.51,28.23,13.69,55.14-3.22a11.23,11.23,0,0,0,5.18-8l7.86-57.2Z" transform="translate(2 -2)"/><path class="cls-53" d="M1586,1288.38s24.38,47.53,21,66.61-34.1,17.4-60.82,1.63l-18.29-51.25Z" transform="translate(2 -2)"/><path class="cls-54" d="M1547.64,1331.55a2,2,0,0,0,.87-2.85c-2-3.09-5.63-9.4-6.76-14.9,0,0-4.44-2.94,11.42-6.62s39.5-9.4,44.58-23c5-13.24-7.42-46.78-27.94-20.35a1.91,1.91,0,0,1-3,0c-3.28-4.41-11.93-13.57-24.11-8.18-11.39,5-12.75,13.44-12.63,17.69a1.92,1.92,0,0,1-2.29,2c-5.73-1.16-19.48-2.25-26,12-5.4,11.72-2,18.42,1.08,21.71a2,2,0,0,1-.85,3.22c-3.78,1.13-8.68,4.32-8.28,13.26.56,12.37,14.22,11.42,18.11,10.89a1.91,1.91,0,0,1,1.71.63c3.3,3.76,18.16,19.76,34.4,21.83a2,2,0,0,0,2.06-2.58l-6.84-20.76a2,2,0,0,1,1.07-2.42Z" transform="translate(2 -2)"/><path class="cls-55" d="M1550.44,1334.51s-17.55-12.44-18.94-2.12,15.77,15.13,24.33,11.36Z" transform="translate(2 -2)"/><path class="cls-56" d="M1526.73,1627.86l40.8-144.23a4.18,4.18,0,0,1,3.52-3c7.39-.88,28.81-3.33,53.54-5.45,29.79-2.55,64.39-4.61,85.06-2.85a4.22,4.22,0,0,1,3.41,6.07c-11.76,24.07-60.11,122-84.33,154.08a4.17,4.17,0,0,1-3.36,1.67l-94.67-.89A4.22,4.22,0,0,1,1526.73,1627.86Z" transform="translate(2 -2)"/><path class="cls-57" d="M1536.59,1593s-5.68-23.65-3.39-32,6.74-19.19,21.54-16.79,32.27,8.71,32.27,8.71-.88,10.93-12.13,7.41l7,5.46s-1,8.75-10.51,4.08l6.49,7.25s-4.08,7.18-11.07,2.57S1556.42,1595.86,1536.59,1593Z" transform="translate(2 -2)"/><path class="cls-58" d="M1621.87,1518.22a12,12,0,1,0,12-12.13A12.05,12.05,0,0,0,1621.87,1518.22Z" transform="translate(2 -2)"/><path class="cls-59" d="M1572.15,1526.21l-3.05-.91,8.3-28.53a12.91,12.91,0,0,1,9.67-9.1c26.33-5.56,95.68-6.7,98.61-6.74l0,3.22c-.71,0-72,1.17-98,6.67a9.7,9.7,0,0,0-7.26,6.87Z" transform="translate(2 -2)"/><path class="cls-60" d="M1089.29,1929.83c-4.35,6.51-21.63,154-24.34,208.48a6.41,6.41,0,0,0,6.37,6.75h0a6.41,6.41,0,0,0,6.31-5.46l31.61-205.08Z" transform="translate(2 -2)"/><path class="cls-61" d="M1228.27,1929.83c4.35,6.51,21.63,154,24.34,208.48a6.41,6.41,0,0,1-6.38,6.75h0a6.41,6.41,0,0,1-6.3-5.46l-31.61-205.08Z" transform="translate(2 -2)"/><path class="cls-62" d="M1063.14,1918.32v1.6c-.11,11.58,9.74,21.07,22.07,21.28l146.14,2.52c12.15.2,22.29-8.69,22.87-20.08l.08-1.47c.62-11.88-9.35-21.89-22-22.12l-146.19-2.65C1073.55,1897.17,1063.25,1906.57,1063.14,1918.32Z" transform="translate(2 -2)"/><path class="cls-20" d="M1371,2133c-26,0-37.48-2.26-42.61-4.31a9.87,9.87,0,0,0,9.6,7.72h91.9a4.51,4.51,0,0,0,4.31-5.71C1423.71,2131.5,1401.46,2133,1371,2133Z" transform="translate(2 -2)"/><path class="cls-63" d="M1434.19,2130.65a4.27,4.27,0,0,0-.76-1.58c-7-9.05-21.06-23.26-40.19-23-28,.4-37.79,3.48-59.57.18l-5.14,17.23a10,10,0,0,0-.15,5.15c5.13,2.05,16.63,4.31,42.61,4.31C1401.46,2133,1423.71,2131.5,1434.19,2130.65Z" transform="translate(2 -2)"/><path class="cls-64" d="M1340,2087.68l-6.31,21.71s14,6.44,26.26,1.27l2.41-18.81Z" transform="translate(2 -2)"/><path class="cls-20" d="M1530.45,2119.28c-20.25,16.47-30.6,22-35.87,23.67a9.76,9.76,0,0,0,12.24-.09l71.64-58.27a4.54,4.54,0,0,0-.16-7.17C1570.66,2084.73,1554.21,2100,1530.45,2119.28Z" transform="translate(2 -2)"/><path class="cls-65" d="M1578.3,2077.42a4.19,4.19,0,0,0-1.56-.75c-11-2.58-30.74-4.68-45.48,7.65-21.6,18.08-27.33,26.66-46.34,37.91l6.61,16.63a9.89,9.89,0,0,0,3,4.09c5.27-1.67,15.62-7.2,35.87-23.67C1554.21,2100,1570.66,2084.73,1578.3,2077.42Z" transform="translate(2 -2)"/><path class="cls-66" d="M1205.07,1840.33s155.53,12.86,187.44,28.06-26,228.29-26,228.29-8.68,4.23-28-1.85c0,0,19.82-157.25,5.07-191.35l-168.4-27.88Z" transform="translate(2 -2)"/><path class="cls-67" d="M1469.47,2092.3c1.44,1.33,15.45,29.93,15.45,29.93s15.6-3.42,18.78-13.41l-14-25.81Z" transform="translate(2 -2)"/><path class="cls-68" d="M1111.4,1839a80.49,80.49,0,0,0-4.86,28.75,42.93,42.93,0,0,0,40.69,42.23l183.86,8.48a8.85,8.85,0,0,1,8.14,6.71c4.32,16.92,25.44,68.86,128.67,172.52a8.25,8.25,0,0,0,10.3,1.14l14.69-9.4a3.45,3.45,0,0,0,1.12-4.63l-107.06-185a41.48,41.48,0,0,0-25.17-18.9l-156.71-40.55Z" transform="translate(2 -2)"/><path class="cls-69" d="M1292.59,1550s-19.69,35.25-39.78,52.33l41.51,23.44s9.36-37.32,30.72-48.25Z" transform="translate(2 -2)"/><path class="cls-70" d="M1108.06,1840.33s49.63,12.25,97,0c0,0,66.3-90.21,92-114.76,0,0,40.91,65.35,132,74.61l5.08-11.49s-72.5-33.82-94.82-85.8-31.28-74.14-51.58-87.7c-12.65-8.45-20.22-14.22-24.13-17.37a6.45,6.45,0,0,0-7.44-.48C1234.56,1610.63,1133.17,1680.92,1108.06,1840.33Z" transform="translate(2 -2)"/><path class="cls-71" d="M1294.32,1724.3a3.14,3.14,0,0,1-2.52-1.26c-15.81-20.86-24.61-43.86-25-44.83a3.23,3.23,0,0,1,1.83-4.16,3.16,3.16,0,0,1,4.11,1.85c.09.23,8.86,23.12,24.09,43.22a3.25,3.25,0,0,1-.59,4.52A3.2,3.2,0,0,1,1294.32,1724.3Z" transform="translate(2 -2)"/><path class="cls-72" d="M1423.51,1782.69l10.25-2.76,31.12-7.3a14.28,14.28,0,0,1,10.94,1.87l26.76,17-73.9-.13Z" transform="translate(2 -2)"/><path class="cls-73" d="M1323.87,1497.1s19.14,32.21,22.46,50S1355,1576,1335,1582.39s-38.62-1.69-50.3-18.31c0,0-18.23-25.57-16.41-37.28S1323.87,1497.1,1323.87,1497.1Z" transform="translate(2 -2)"/><path class="cls-74" d="M1290,1550.31l2.59-.35s-13.55-20.73-4.68-25.87,45-17.76,51.28-32.17c6-13.89-3-29.58-13.91-32.86a1.4,1.4,0,0,0-1.67.89l-.64,1.75a1.4,1.4,0,0,1-2.6.08h0a1.39,1.39,0,0,0-2.54-.06c-1.94,4.32-7.74,11.69-25.12,17.4-24.66,8.09-40,20.67-38.13,38.41a1.4,1.4,0,0,1-2,1.44c-2-.9-5.08-1-8.62,2.89-6.18,6.83-1.34,21.77,15.51,32.35a1.41,1.41,0,0,1,.23,2.26c-2.52,2.19-6.07,7.06,5.34,11.41,11.66,4.44,18,2.94,20.38,2a1.42,1.42,0,0,0,.86-1.59l-3-15.55a1.42,1.42,0,0,1,1.19-1.68Z" transform="translate(2 -2)"/><path class="cls-75" d="M1291.07,1553.5s-8.45-21.08-17.32-13.67,8.2,23.79,16.08,23.57Z" transform="translate(2 -2)"/><path class="cls-76" d="M1395,1806.21h.37l157.86-.16a7.14,7.14,0,0,0,0-14.28l-157.86.16a7.14,7.14,0,0,0-.35,14.27Z" transform="translate(2 -2)"/><path class="cls-77" d="M1614.33,1649.73c-.06.1-.11.21-.17.32l-66.42,145a7.19,7.19,0,0,0,3.43,9.5,7,7,0,0,0,9.37-3.49l66.42-145a7.18,7.18,0,0,0-3.42-9.49A7,7,0,0,0,1614.33,1649.73Z" transform="translate(2 -2)"/><rect class="cls-78" x="2013.04" y="1949.9" width="16.66" height="182.39"/><path class="cls-79" d="M2092.34,2137.8H1946.41a10.92,10.92,0,0,1,10.85-11H2081.5a10.92,10.92,0,0,1,10.84,11Z" transform="translate(2 -2)"/><path class="cls-80" d="M2114,1945.57a18.08,18.08,0,0,1-17.92,18.13H1948.44a18.08,18.08,0,0,1-17.92-18.13v-16.4a18.08,18.08,0,0,1,17.92-18.14h147.64a18.08,18.08,0,0,1,17.92,18.14Z" transform="translate(2 -2)"/><path class="cls-81" d="M1896.37,1830.28s-24.76,3.89-52.59,22.73a14.11,14.11,0,0,0-6.13,13.42c3.34,26.72,17,113.23,62.23,197.71a21.48,21.48,0,0,1,2,14.6l-7.85,37-14.56,13.82H1917l25-68.4-10.68-3.42a20.42,20.42,0,0,1-14.1-19.14l-1.26-73.38c1.07-32.69-19.8-55.25-19.8-55.25l59.89-3Z" transform="translate(2 -2)"/><path class="cls-82" d="M1864.84,2136.21c-3.41,4.53,36.76,10.5,57.06.6,0,0,28.14-49.55,28.14-75.07,0,0-2.23-5.2-18.76-4,0,0-9.44,58.68-19.42,65.25s-27.91.66-27.91.66S1869.88,2129.54,1864.84,2136.21Z" transform="translate(2 -2)"/><path class="cls-83" d="M1948.44,1911c-.32-.56-64.49-7.81-64.49-7.81s2.1,19.75-4.46,46.93-100.78,145-100.78,145l9.88,31.7c-30.54,10.77-60.59,12.49-90.15,5.49l61.22-37.19s57.3-197.63,92.39-232.89l64.32-22.53Z" transform="translate(2 -2)"/><path class="cls-9" d="M2092.34,1796s37,55.66,40,81-10.12,35.71-48.91,37.41-142.35,1.67-142.35,1.67l-88.38-76.46s64.41-23.26,81.15-29.84S2092.34,1796,2092.34,1796Z" transform="translate(2 -2)"/><path class="cls-84" d="M1784.86,2116.15s10.63,10.42,3.45,22c0,0-84.25,15.12-107.12,8.26,0,0,4.75-11,30.5-23.46l-1.9,1.48a3.12,3.12,0,0,0,2,5.58C1728.8,2129.05,1763.92,2125.91,1784.86,2116.15Z" transform="translate(2 -2)"/><path class="cls-85" d="M1932.2,1443c75.57-13,111.15,49.39,108.55,62.5a2.39,2.39,0,0,0,3,2.75c8.67-2.37,27.84-5.35,39.72,9.72,10.49,13.31,2.65,25.86-3.74,32.76a2.42,2.42,0,0,0,2,4.08c15.95-2,50.61-2.53,56.29,30.34,5.28,30.65-15.79,39.29-28.29,41.72a2.42,2.42,0,0,0-.79,4.4c6.23,4,13.46,12.28,10.54,28.61-4.58,25.59-54.15,23.49-59.94,23.16a2.29,2.29,0,0,1-1-.31l-79.41-45.84a2.45,2.45,0,0,1-1.17-1.69l-16-93.71a2.42,2.42,0,0,1,.64-2.08l-51.77-74C1891.94,1462.71,1931.31,1443.2,1932.2,1443Z" transform="translate(2 -2)"/><path class="cls-9" d="M1992.36,1788.66s-43-41.49-64.24-69a58.85,58.85,0,0,1-9.76-52.48c9.68-33,26.87-67.16,28.44-72.48,2.4-8.16,50.67-7.82,50.67-7.82s95,62.41,132.32,168.11l-41.92,13.21s-24.8-42.12-49.31-68.9c0,0,42.41,56.71,43.9,79.92Z" transform="translate(2 -2)"/><path class="cls-86" d="M1941,1549.16c.51,1.69,13.11,44,14.09,44.85s27.63,2.32,40.17-6.35l-31.11-61.6Z" transform="translate(2 -2)"/><path class="cls-87" d="M1890.45,1494.83s-6.09,24.22,10.76,56.8,35.92,32.54,46.34,22.11,23.28-28.12,20.23-59.62S1899.25,1464,1890.45,1494.83Z" transform="translate(2 -2)"/><path class="cls-88" d="M1944.48,1515.84s-28-43.25-54.16-9.21l-.48,12.38s-30.69-3.69-25.32-32.18,31.9-46.3,66.06-34,53.75,25,56,49.78-17.27,19.35-17.27,19.35-6.36-17.45-15.39-19.27-6.69,11.8-6.69,11.8Z" transform="translate(2 -2)"/><path class="cls-89" d="M1956.38,1525.16s-14.5-22.15.35-25.45,12.55,21.58,11,30.79Z" transform="translate(2 -2)"/><path class="cls-90" d="M1904.65,1791.74l31.63-30.86,43.76,18.71s43.56,6.84,68.48,0l24.93-6.83,56.34-17.75,8.84,25.31a15.34,15.34,0,0,1-5.5,17.51c-4.87,3.5-10.58,7.36-14.22,9-7.42,3.29-182.88-2.27-182.88-2.27Z" transform="translate(2 -2)"/><path class="cls-91" d="M2024.36,1806.29h-.43l-183.48-.2a8.32,8.32,0,0,1,0-16.63l183.48.21a8.31,8.31,0,0,1,.41,16.61Z" transform="translate(2 -2)"/><path class="cls-92" d="M1675.51,1637.66h152.8a29.11,29.11,0,0,1,26.34,16.91l70.65,151.62H1735.4a17.69,17.69,0,0,1-16.46-11.33l-54.78-140.3A12.34,12.34,0,0,1,1675.51,1637.66Z" transform="translate(2 -2)"/><path class="cls-6" d="M1783.16,1715.41c3.31,10.41.86,20.52-5.46,22.59s-14.15-4.71-17.46-15.13-.87-20.52,5.46-22.59S1779.85,1705,1783.16,1715.41Z" transform="translate(2 -2)"/><path class="cls-93" d="M2233.54,2114.81a227.51,227.51,0,0,1,2.69,23.67,10.17,10.17,0,0,1-9.08,10.77c-18.78,1.84-61.53,5.24-88.83,1.26a4.65,4.65,0,0,1-2.51-8c11.25-10.62,38.43-31.26,83.17-35.78Z" transform="translate(2 -2)"/><path class="cls-94" d="M2242.88,2090.41l-9.5,23.56a7.73,7.73,0,0,1-8,4.87,40.75,40.75,0,0,1-7.76-1.52,10.32,10.32,0,0,1-6.77-12.82l7.16-24.27Z" transform="translate(2 -2)"/><path class="cls-95" d="M2405.22,2133.57s-19,16.11-26.43,36.76A8.77,8.77,0,0,0,2387,2182h39.13a9.3,9.3,0,0,0,9.12-10.92C2432.79,2156.81,2425.6,2133.63,2405.22,2133.57Z" transform="translate(2 -2)"/><path class="cls-96" d="M2428.77,2112.62s-3.84,17.2-6.79,28.58a3.58,3.58,0,0,1-4.7,2.47c-5.92-2.14-10.74-3.09-14.24-2.61a2.8,2.8,0,0,1-3.06-2.8l-.36-28.58Z" transform="translate(2 -2)"/><path class="cls-97" d="M2327.65,1725.42,2212,2082.56s22.19,14.71,32.75,14.09l137.37-287s24,176.85,12.4,303.82l39.34,3s64-324.47,15.52-435.6Z" transform="translate(2 -2)"/><path class="cls-98" d="M2381.37,1806.55h.14a1.13,1.13,0,0,0,1-1.27l-4.48-36.06a1.12,1.12,0,1,0-2.23.28l4.49,36.06A1.12,1.12,0,0,0,2381.37,1806.55Z" transform="translate(2 -2)"/><path class="cls-6" d="M2306,1411.15s93.71,8.42,80.45,76c0,0,51.8,98.67,76,214.89a6.83,6.83,0,0,1-5.48,8.13l-156,27a8.39,8.39,0,0,1-9.55-6.25l-37.29-145.86-14.52,67.82-46.17-12.18,38.86-199.27S2237.65,1412.4,2306,1411.15Z" transform="translate(2 -2)"/><path class="cls-20" d="M2253.27,1578.58l.25,0a1.18,1.18,0,0,0,.89-1.4l-13-60.45a1.16,1.16,0,0,0-1.38-.9,1.17,1.17,0,0,0-.89,1.4l13,60.45A1.17,1.17,0,0,0,2253.27,1578.58Z" transform="translate(2 -2)"/><path class="cls-99" d="M2262.69,1758.48a22.07,22.07,0,0,1,16.11-2.12l10.86,2.73a3.93,3.93,0,0,0,4.86-3.41l11.23-101.23c14.05,6.75,34.32,6,41,5.45l-25.86,119.34H2230.4Z" transform="translate(2 -2)"/><path class="cls-100" d="M2022.26,1538.92l2.73-9.21a18.16,18.16,0,0,1,10.51-11.64l49.47-20.13s.75-6.42-10.45-10.79-8.58-17.06-8.58-17.06,15.3,7.07,37.7,18.27c12.81,6.41,20,17.72,23.8,26.24l112.1,138.32-13.17,9.15a34.91,34.91,0,0,1-50.94-12.65l-60.72-117.87C2084.22,1540.82,2053.37,1542.59,2022.26,1538.92Z" transform="translate(2 -2)"/><path class="cls-101" d="M2275.61,1346.62l28.82,81.65s-25.52,20.19-44.15,13.36l-14.52-46.8S2256.85,1337.63,2275.61,1346.62Z" transform="translate(2 -2)"/><path class="cls-102" d="M2189.59,1317.3c0,1.26,27.76,79.55,27.76,79.55l43.83-17-15.42-78.16S2189.59,1296.24,2189.59,1317.3Z" transform="translate(2 -2)"/><path class="cls-103" d="M2238.07,1320.73l11.3,40.51a5.63,5.63,0,0,1,.22,1.58c0,3.3-.8,14.67-12.24,13.12-10.38-1.4-19.87-2.52-25.91.35a5.91,5.91,0,0,0-3,7.31c2.52,7.11,8.5,23,15.79,36.06a5.76,5.76,0,0,0,7.45,2.42c8.23-3.79,25.37-12.28,37.57-22.38a5.91,5.91,0,0,0,2.06-5.64c-1.92-10.36-7.64-41.88-7.9-50.91-.23-8.47,9.16-14.94,13.3-17.38a5.75,5.75,0,0,0,2.69-3.65c1.3-5.46,2.4-17.8-13.16-20.53a5.87,5.87,0,0,1-4.72-7c1.32-6.52.9-16.12-11.34-19.66-12.45-3.6-20.28,4-24.26,9.8a5.76,5.76,0,0,1-7.2,1.94,4.56,4.56,0,0,0-5.15.94,5.68,5.68,0,0,1-8.37-1.29c-3.63-5.41-10.22-10.8-21.38-7.15-19.8,6.49-18.85,29.6-11.59,42.16s28.33,4.29,38.3-4c7.59-6.33,19.14-2.54,24.24-.36A5.8,5.8,0,0,1,2238.07,1320.73Z" transform="translate(2 -2)"/><path class="cls-104" d="M2267.39,1357.94s-11.71-22.44-4-29.48,20.88-5.9,20.53,11.65C2283.51,1361.94,2267.39,1357.94,2267.39,1357.94Z" transform="translate(2 -2)"/><path class="cls-20" d="M2337.66,1661.42a113.58,113.58,0,0,0,11.45-.54l.84-.1,34.11-161a1.16,1.16,0,1,0-2.27-.5L2348,1658.62c-5.08.45-32.2,2.27-46.51-8l29.56-139.9-6.17-11.77a1.16,1.16,0,0,0-1.57-.49,1.19,1.19,0,0,0-.49,1.59l5.78,11-29.69,140.54.59.45C2309.87,1659.93,2326.53,1661.42,2337.66,1661.42Z" transform="translate(2 -2)"/><path class="cls-20" d="M1314.79,2152.36a5.51,5.51,0,0,1-2.35-.53,6.84,6.84,0,0,1-3.11-8.63L1434,1823a5.75,5.75,0,0,1,7.81-3.44,6.85,6.85,0,0,1,3.11,8.63l-124.68,320.22A6,6,0,0,1,1314.79,2152.36Z" transform="translate(2 -2)"/><path class="cls-20" d="M1455.24,2152.36a6,6,0,0,1-5.46-4L1325.1,1828.17a6.85,6.85,0,0,1,3.11-8.63A5.75,5.75,0,0,1,1336,1823L1460.7,2143.2a6.84,6.84,0,0,1-3.11,8.63A5.51,5.51,0,0,1,1455.24,2152.36Z" transform="translate(2 -2)"/><path class="cls-20" d="M2161,2152.36a5.54,5.54,0,0,1-2.35-.53,6.85,6.85,0,0,1-3.11-8.63L2280.17,1823a5.75,5.75,0,0,1,7.81-3.44,6.84,6.84,0,0,1,3.11,8.63l-124.68,320.22A6,6,0,0,1,2161,2152.36Z" transform="translate(2 -2)"/><path class="cls-20" d="M2301.41,2152.36a6,6,0,0,1-5.47-4l-124.68-320.22a6.86,6.86,0,0,1,3.11-8.63,5.75,5.75,0,0,1,7.81,3.44l124.68,320.22a6.84,6.84,0,0,1-3.11,8.63A5.46,5.46,0,0,1,2301.41,2152.36Z" transform="translate(2 -2)"/><path class="cls-105" d="M2142.86,1800.36h180.58V1781.5H2142.86C2146.72,1781.5,2146.72,1800.36,2142.86,1800.36Z" transform="translate(2 -2)"/><path class="cls-106" d="M2322,1800.36a1.43,1.43,0,0,0,1.41-1.43v-16a1.43,1.43,0,0,0-1.41-1.43H2138.76a1.43,1.43,0,0,1-1.41-1.43v-1.41a1.43,1.43,0,0,1,1.41-1.43h195a7.85,7.85,0,0,1,7.8,7.9v12a7.4,7.4,0,0,1-7.36,7.45H2138.76a1.43,1.43,0,0,1-1.41-1.43v-1.41a1.43,1.43,0,0,1,1.41-1.43Z" transform="translate(2 -2)"/><path class="cls-20" d="M2349.61,1813.08c.61-2.11-.21-4.29-2.25-5.94a13.3,13.3,0,0,0-8.25-2.61h-1082c-4.2,0-8.11,1.44-10.37,3.81a6,6,0,0,0-.81,7.92l11.73,17c2.68,3.91,8.5,6.4,14.9,6.4H2331.68c6,0,11.08-2.83,12.21-6.76Z" transform="translate(2 -2)"/><ellipse class="cls-107" cx="376.49" cy="1597.66" rx="78.4" ry="79.36"/><ellipse class="cls-108" cx="376.49" cy="1597.66" rx="75.8" ry="76.72"/><path class="cls-109" d="M312,1571a3.09,3.09,0,0,1-1.44-.35,3.22,3.22,0,0,1-1.4-4.32,72.74,72.74,0,0,1,78.53-39.52,3.2,3.2,0,0,1,2.56,3.74,3.16,3.16,0,0,1-3.7,2.59,67.26,67.26,0,0,0-12.05-1.09,66.44,66.44,0,0,0-59.66,37.18A3.18,3.18,0,0,1,312,1571Z" transform="translate(2 -2)"/><ellipse class="cls-110" cx="378.14" cy="1599.33" rx="64.15" ry="64.94"/><path class="cls-9" d="M369.85,1649.6v-7.06a56.34,56.34,0,0,1-19.59-4.3,4.11,4.11,0,0,1-2.23-4.83l1.77-6.58a4.07,4.07,0,0,1,5.53-2.69,46.79,46.79,0,0,0,18.08,3.85c7,0,12.23-2.4,12.23-7.33,0-4.45-4-7.1-13.77-9.74-13.9-3.85-23.88-10-23.88-22.36,0-11.19,8.08-19.72,22.09-22v-7.06a4.1,4.1,0,0,1,4.07-4.12h4.1a4.1,4.1,0,0,1,4.07,4.12v6.34a51.36,51.36,0,0,1,15.52,2.82,4.12,4.12,0,0,1,2.53,4.95l-1.63,6.08a4,4,0,0,1-5.35,2.78,42,42,0,0,0-15.23-2.8c-8.31,0-10.69,3.49-10.69,6.61,0,3.85,5,6.49,15.8,9.86,15.44,4.69,21.85,11.18,21.85,22.84,0,10.7-7.84,20.32-23,22.73v7.9a4.09,4.09,0,0,1-4.07,4.12h-4.1A4.09,4.09,0,0,1,369.85,1649.6Z" transform="translate(2 -2)"/><ellipse class="cls-111" cx="599.67" cy="1503.54" rx="136.49" ry="138.15"/><ellipse class="cls-112" cx="599.67" cy="1503.54" rx="131.95" ry="133.56"/><path class="cls-109" d="M488.86,1453.29a3.21,3.21,0,0,1-1.43-.35,3.24,3.24,0,0,1-1.41-4.33c21.4-42.92,64.18-69.58,111.65-69.58a123.86,123.86,0,0,1,22.54,2.06,3.2,3.2,0,0,1,2.56,3.74,3.15,3.15,0,0,1-3.7,2.59,118.54,118.54,0,0,0-21.4-1.94c-45,0-85.65,25.3-106,66A3.18,3.18,0,0,1,488.86,1453.29Z" transform="translate(2 -2)"/><ellipse class="cls-110" cx="602.54" cy="1506.45" rx="111.68" ry="113.04"/><path class="cls-9" d="M589.58,1592.49v-12.3c-12.66-.51-25.19-3.54-34.09-7.48a7.13,7.13,0,0,1-3.88-8.4l3.08-11.46a7.07,7.07,0,0,1,9.62-4.69,81.33,81.33,0,0,0,31.48,6.71c12.2,0,21.29-4.19,21.29-12.77,0-7.74-7-12.35-24-16.95-24.19-6.7-41.56-17.37-41.56-38.93,0-19.47,14.06-34.33,38.46-38.3v-12.3a7.13,7.13,0,0,1,7.08-7.17h7.13a7.13,7.13,0,0,1,7.08,7.17v11a89.23,89.23,0,0,1,27,4.91,7.16,7.16,0,0,1,4.4,8.61l-2.84,10.59a7,7,0,0,1-9.32,4.83,72.84,72.84,0,0,0-26.5-4.87c-14.48,0-18.61,6.07-18.61,11.51,0,6.7,8.68,11.3,27.5,17.16,26.88,8.17,38,19.47,38,39.77,0,18.63-13.64,35.37-40.11,39.56v13.76a7.13,7.13,0,0,1-7.08,7.17h-7.14A7.13,7.13,0,0,1,589.58,1592.49Z" transform="translate(2 -2)"/><ellipse class="cls-113" cx="693.8" cy="1812.12" rx="140.44" ry="142.16"/><ellipse class="cls-114" cx="693.8" cy="1812.12" rx="135.77" ry="137.43"/><path class="cls-109" d="M579.84,1760.25a3.2,3.2,0,0,1-2.84-4.67c22-44.13,66-71.55,114.8-71.55a128.46,128.46,0,0,1,23.18,2.11,3.23,3.23,0,0,1,2.56,3.75,3.17,3.17,0,0,1-3.7,2.59,122.17,122.17,0,0,0-22-2c-46.39,0-88.2,26-109.12,68A3.18,3.18,0,0,1,579.84,1760.25Z" transform="translate(2 -2)"/><ellipse class="cls-110" cx="696.75" cy="1815.11" rx="114.91" ry="116.32"/><path class="cls-9" d="M683.48,1903.59v-12.66c-13-.53-25.93-3.64-35.08-7.7a7.34,7.34,0,0,1-4-8.64l3.18-11.79a7.26,7.26,0,0,1,9.89-4.83,83.86,83.86,0,0,0,32.39,6.9c12.55,0,21.92-4.3,21.92-13.14,0-8-7.24-12.7-24.69-17.44-24.89-6.89-42.76-17.87-42.76-40.06,0-20,14.47-35.32,39.57-39.41v-12.66a7.33,7.33,0,0,1,7.29-7.37h7.34a7.33,7.33,0,0,1,7.29,7.37v11.37a91.87,91.87,0,0,1,27.8,5,7.36,7.36,0,0,1,4.53,8.86l-2.92,10.9a7.24,7.24,0,0,1-9.59,5,74.91,74.91,0,0,0-27.27-5c-14.89,0-19.15,6.24-19.15,11.84,0,6.89,8.94,11.63,28.3,17.66,27.66,8.4,39.15,20,39.15,40.92,0,19.17-14,36.4-41.28,40.71v14.16a7.33,7.33,0,0,1-7.28,7.37h-7.35A7.33,7.33,0,0,1,683.48,1903.59Z" transform="translate(2 -2)"/><ellipse class="cls-115" cx="873.96" cy="1618.47" rx="102.9" ry="104.16"/><ellipse class="cls-116" cx="873.96" cy="1618.47" rx="99.48" ry="100.7"/><path class="cls-109" d="M789.93,1581.87a3.08,3.08,0,0,1-1.43-.35,3.24,3.24,0,0,1-1.41-4.33c16.27-32.63,48.79-52.9,84.87-52.9a94.46,94.46,0,0,1,17.14,1.57,3.21,3.21,0,0,1,2.56,3.75,3.17,3.17,0,0,1-3.7,2.59,88.26,88.26,0,0,0-16-1.46c-33.66,0-64,18.91-79.18,49.35A3.18,3.18,0,0,1,789.93,1581.87Z" transform="translate(2 -2)"/><ellipse class="cls-110" cx="876.13" cy="1620.67" rx="84.2" ry="85.23"/><path class="cls-9" d="M865.87,1686v-9.27a74.05,74.05,0,0,1-25.7-5.64,5.38,5.38,0,0,1-2.93-6.34l2.33-8.63a5.32,5.32,0,0,1,7.25-3.54,61.43,61.43,0,0,0,23.73,5.06c9.19,0,16.05-3.16,16.05-9.63,0-5.84-5.3-9.31-18.08-12.78-18.24-5-31.33-13.1-31.33-29.35,0-14.68,10.6-25.88,29-28.88v-9.27a5.37,5.37,0,0,1,5.34-5.4h5.38a5.37,5.37,0,0,1,5.34,5.4v8.33a67,67,0,0,1,20.37,3.7,5.38,5.38,0,0,1,3.32,6.49l-2.14,8a5.32,5.32,0,0,1-7,3.64,54.92,54.92,0,0,0-20-3.68c-10.91,0-14,4.58-14,8.68,0,5,6.55,8.52,20.74,12.94,20.26,6.16,28.68,14.68,28.68,30,0,14-10.29,26.67-30.24,29.83V1686a5.37,5.37,0,0,1-5.34,5.41h-5.38A5.37,5.37,0,0,1,865.87,1686Z" transform="translate(2 -2)"/><path class="cls-117" d="M1360.12,389.84c115.52-1.72,686.92-11.85,804.2-13.93a20.82,20.82,0,0,1,21.06,20.95V451a20.83,20.83,0,0,1-20.7,20.95H1360.44a20.82,20.82,0,0,1-20.7-20.95V410.79A20.82,20.82,0,0,1,1360.12,389.84Z" transform="translate(2 -2)"/><path class="cls-4" d="M1505.76,431.54h0A21,21,0,0,0,1527,452.63l466-8.19a21,21,0,0,0,19.87-26.1l-2.12-8.75a20.88,20.88,0,0,0-21-16l-463.87,16.93A21,21,0,0,0,1505.76,431.54Z" transform="translate(2 -2)"/><path class="cls-9" d="M1401.69,434.48,1330,508.3a7.52,7.52,0,0,0,.52,10.92l.54.46a6.78,6.78,0,0,0,9.66-.88l65.6-80.09Z" transform="translate(2 -2)"/><path class="cls-118" d="M1475.28,375.33c11.08,23.5.9,51.8-22.74,63.22a46.75,46.75,0,0,1-62.86-21.86c-11.08-23.5-.9-51.8,22.74-63.22A46.75,46.75,0,0,1,1475.28,375.33Z" transform="translate(2 -2)"/><path class="cls-9" d="M1410.16,348.67c-26.3,12.71-37.63,44.2-25.3,70.35s43.64,37,69.94,24.33,37.63-44.2,25.31-70.35S1436.46,336,1410.16,348.67Zm41.36,87.72a44.38,44.38,0,0,1-59.67-20.75c-10.51-22.31-.85-49.17,21.59-60a44.38,44.38,0,0,1,59.67,20.75C1483.63,398.69,1474,425.56,1451.52,436.39Z" transform="translate(2 -2)"/></g></svg>