<svg xmlns="http://www.w3.org/2000/svg" xmlns:xlink="http://www.w3.org/1999/xlink" viewBox="0 0 3647.54 2739.73"><defs><style>.cls-1{fill:none;}.cls-112,.cls-2{fill:#fff;}.cls-3{fill:#fbda19;}.cls-4{fill:#feb040;}.cls-5{fill:#91b3fa;}.cls-6{fill:#ffb577;}.cls-7{fill:#ff9845;}.cls-8{fill:#ffe245;}.cls-9{fill:url(#linear-gradient);}.cls-10{fill:url(#linear-gradient-2);}.cls-11{fill:url(#linear-gradient-3);}.cls-12{fill:url(#linear-gradient-4);}.cls-13{clip-path:url(#clip-path);}.cls-14{fill:url(#linear-gradient-5);}.cls-15{fill:url(#linear-gradient-6);}.cls-16{fill:url(#linear-gradient-7);}.cls-17{fill:url(#linear-gradient-8);}.cls-18{fill:url(#linear-gradient-9);}.cls-19{fill:url(#linear-gradient-10);}.cls-20{fill:url(#linear-gradient-11);}.cls-21{fill:url(#linear-gradient-12);}.cls-22{fill:url(#linear-gradient-13);}.cls-23{fill:url(#linear-gradient-14);}.cls-24{fill:url(#linear-gradient-15);}.cls-25,.cls-26{stroke:#fcee21;stroke-miterlimit:10;stroke-width:5px;}.cls-25{fill:url(#linear-gradient-16);}.cls-26{fill:url(#linear-gradient-17);}.cls-27{fill:url(#linear-gradient-18);}.cls-28{fill:url(#linear-gradient-19);}.cls-29{fill:url(#linear-gradient-20);}.cls-30{fill:url(#linear-gradient-21);}.cls-31{fill:url(#linear-gradient-22);}.cls-32{fill:url(#linear-gradient-23);}.cls-33{fill:url(#linear-gradient-24);}.cls-34{fill:url(#linear-gradient-25);}.cls-35{fill:url(#linear-gradient-26);}.cls-36{fill:url(#linear-gradient-27);}.cls-37{fill:url(#linear-gradient-28);}.cls-38{fill:url(#linear-gradient-29);}.cls-39{fill:url(#linear-gradient-30);}.cls-40{fill:url(#linear-gradient-31);}.cls-41{fill:url(#linear-gradient-32);}.cls-42{fill:url(#linear-gradient-33);}.cls-43{fill:url(#linear-gradient-34);}.cls-44{fill:url(#linear-gradient-35);}.cls-45{fill:url(#linear-gradient-36);}.cls-46{fill:url(#linear-gradient-37);}.cls-47{fill:url(#linear-gradient-38);}.cls-48{fill:url(#linear-gradient-39);}.cls-49{fill:url(#linear-gradient-40);}.cls-50{fill:url(#linear-gradient-41);}.cls-51{fill:url(#linear-gradient-42);}.cls-52{fill:url(#linear-gradient-43);}.cls-53{fill:url(#linear-gradient-44);}.cls-54{fill:url(#linear-gradient-45);}.cls-55{fill:url(#linear-gradient-46);}.cls-56{fill:url(#linear-gradient-47);}.cls-57{fill:url(#linear-gradient-48);}.cls-58{fill:url(#linear-gradient-49);}.cls-59{fill:url(#linear-gradient-50);}.cls-60{fill:url(#linear-gradient-51);}.cls-61{fill:url(#linear-gradient-52);}.cls-62{fill:url(#linear-gradient-53);}.cls-63{fill:url(#linear-gradient-54);}.cls-64{fill:#7d97f4;}.cls-65{fill:url(#linear-gradient-55);}.cls-66{fill:url(#linear-gradient-56);}.cls-67{fill:url(#linear-gradient-57);}.cls-68{fill:url(#linear-gradient-58);}.cls-69{fill:url(#linear-gradient-59);}.cls-70{fill:url(#linear-gradient-60);}.cls-71{fill:url(#linear-gradient-61);}.cls-72{fill:url(#linear-gradient-62);}.cls-73{fill:url(#linear-gradient-63);}.cls-74{fill:url(#linear-gradient-64);}.cls-75{fill:url(#linear-gradient-65);}.cls-76{fill:url(#linear-gradient-66);}.cls-77{fill:url(#linear-gradient-67);}.cls-78{fill:url(#linear-gradient-68);}.cls-79{fill:url(#linear-gradient-69);}.cls-80{fill:url(#linear-gradient-70);}.cls-81{fill:url(#linear-gradient-71);}.cls-82{fill:url(#linear-gradient-72);}.cls-83{fill:url(#linear-gradient-73);}.cls-84{fill:url(#linear-gradient-74);}.cls-85{fill:url(#linear-gradient-75);}.cls-86{fill:url(#linear-gradient-76);}.cls-87{fill:url(#linear-gradient-77);}.cls-88{fill:url(#linear-gradient-78);}.cls-89{fill:url(#linear-gradient-79);}.cls-90{fill:url(#linear-gradient-80);}.cls-91{fill:url(#linear-gradient-81);}.cls-92{fill:url(#linear-gradient-82);}.cls-93{fill:url(#linear-gradient-83);}.cls-94{fill:url(#linear-gradient-84);}.cls-95{fill:url(#linear-gradient-85);}.cls-96{fill:url(#linear-gradient-86);}.cls-97{fill:url(#linear-gradient-87);}.cls-98{fill:url(#linear-gradient-88);}.cls-99{fill:url(#linear-gradient-89);}.cls-100{fill:url(#linear-gradient-90);}.cls-101{fill:url(#linear-gradient-91);}.cls-102{fill:url(#linear-gradient-92);}.cls-103{fill:url(#linear-gradient-93);}.cls-104{fill:url(#linear-gradient-94);}.cls-105{fill:url(#linear-gradient-95);}.cls-106{fill:url(#linear-gradient-96);}.cls-107{fill:url(#linear-gradient-97);}.cls-108{fill:url(#linear-gradient-98);}.cls-109{fill:url(#linear-gradient-99);}.cls-110{fill:#0080ff;}.cls-111{fill:#00d954;}.cls-112{fill-rule:evenodd;}</style><linearGradient id="linear-gradient" x1="1125.37" y1="2886.76" x2="1706.32" y2="2107.44" gradientUnits="userSpaceOnUse"><stop offset="0" stop-color="#1d125d"/><stop offset="1" stop-color="#2c4a91"/></linearGradient><linearGradient id="linear-gradient-2" x1="1800.47" y1="806.82" x2="2851.47" y2="2678.67" gradientUnits="userSpaceOnUse"><stop offset="0" stop-color="#795ee2"/><stop offset="1" stop-color="#4f52ff"/></linearGradient><linearGradient id="linear-gradient-3" x1="3780.41" y1="1044.04" x2="2706.25" y2="1491.61" xlink:href="#linear-gradient"/><linearGradient id="linear-gradient-4" x1="2995.34" y1="1633.18" x2="3418.56" y2="1594.71" xlink:href="#linear-gradient-2"/><clipPath id="clip-path" transform="translate(-296 -200)"><path class="cls-1" d="M3185.29,2362.52c-14.5-14.92-46.07-72.48-73.13-221.31-26.16-143.82-40.57-330.38-40.57-525.29s14.41-381.47,40.57-525.3c27.06-148.83,58.63-206.39,73.13-221.31,14.49,14.92,46.06,72.48,73.13,221.31C3284.58,1234.45,3491,1421,3491,1615.92s-206.42,381.47-232.58,525.29C3231.35,2290,3199.78,2347.6,3185.29,2362.52Z"/></clipPath><linearGradient id="linear-gradient-5" x1="3528.38" y1="1589.77" x2="2390.02" y2="1655.09" gradientUnits="userSpaceOnUse"><stop offset="0" stop-color="#393812"/><stop offset="1" stop-color="#561526"/></linearGradient><linearGradient id="linear-gradient-6" x1="1372.32" y1="1998.79" x2="1329.83" y2="929.46" xlink:href="#linear-gradient"/><linearGradient id="linear-gradient-7" x1="1769.92" y1="1165.83" x2="3019.5" y2="1165.83" gradientUnits="userSpaceOnUse"><stop offset="0" stop-color="#fef1b1"/><stop offset="1" stop-color="#fdc138"/></linearGradient><linearGradient id="linear-gradient-8" x1="1602.76" y1="1420.92" x2="1679.84" y2="1420.92" xlink:href="#linear-gradient-7"/><linearGradient id="linear-gradient-9" x1="3100.95" y1="1500.17" x2="3359.32" y2="1500.17" xlink:href="#linear-gradient-7"/><linearGradient id="linear-gradient-10" x1="1892.62" y1="1703.12" x2="1918.01" y2="1703.12" xlink:href="#linear-gradient"/><linearGradient id="linear-gradient-11" x1="1370.42" y1="1495.3" x2="1846.74" y2="1495.3" xlink:href="#linear-gradient"/><linearGradient id="linear-gradient-12" x1="1401.51" y1="1191.69" x2="1418" y2="1191.69" xlink:href="#linear-gradient"/><linearGradient id="linear-gradient-13" x1="1618.5" y1="989.41" x2="1644.45" y2="989.41" xlink:href="#linear-gradient"/><linearGradient id="linear-gradient-14" x1="1690.72" y1="1218.3" x2="2136.53" y2="1218.3" xlink:href="#linear-gradient"/><linearGradient id="linear-gradient-15" x1="2080.85" y1="1528.5" x2="2098.09" y2="1528.5" xlink:href="#linear-gradient"/><linearGradient id="linear-gradient-16" x1="1457.95" y1="1352.33" x2="2043.02" y2="1352.33" xlink:href="#linear-gradient"/><linearGradient id="linear-gradient-17" x1="1228.78" y1="999.57" x2="1557.24" y2="999.57" xlink:href="#linear-gradient"/><linearGradient id="linear-gradient-18" x1="1507.68" y1="1155.47" x2="1530.52" y2="1155.47" xlink:href="#linear-gradient"/><linearGradient id="linear-gradient-19" x1="1194.76" y1="1122.89" x2="1463" y2="1122.89" xlink:href="#linear-gradient"/><linearGradient id="linear-gradient-20" x1="1189.72" y1="976.23" x2="1200.78" y2="976.23" xlink:href="#linear-gradient"/><linearGradient id="linear-gradient-21" x1="1268.44" y1="833.43" x2="1292.2" y2="833.43" xlink:href="#linear-gradient"/><linearGradient id="linear-gradient-22" x1="1338.11" y1="880.47" x2="1593.35" y2="880.47" xlink:href="#linear-gradient"/><linearGradient id="linear-gradient-23" x1="1583.47" y1="1032.13" x2="1595.35" y2="1032.13" xlink:href="#linear-gradient"/><linearGradient id="linear-gradient-24" x1="2586.36" y1="1267.18" x2="2540.4" y2="1570.53" xlink:href="#linear-gradient-5"/><linearGradient id="linear-gradient-25" x1="2568.33" y1="1403.55" x2="2471.14" y2="1757.61" xlink:href="#linear-gradient-2"/><linearGradient id="linear-gradient-26" x1="2564.71" y1="1402.27" x2="2467.47" y2="1756.49" xlink:href="#linear-gradient-2"/><linearGradient id="linear-gradient-27" x1="2555.67" y1="1399.53" x2="2458.44" y2="1753.75" xlink:href="#linear-gradient-2"/><linearGradient id="linear-gradient-28" x1="2553.23" y1="1398.64" x2="2455.97" y2="1752.94" xlink:href="#linear-gradient-2"/><linearGradient id="linear-gradient-29" x1="2635.48" y1="1002.36" x2="2657.51" y2="1702.2" gradientUnits="userSpaceOnUse"><stop offset="0" stop-color="#e1473d"/><stop offset="1" stop-color="#e9605a"/></linearGradient><linearGradient id="linear-gradient-30" x1="2515.62" y1="1006.19" x2="2537.65" y2="1705.94" xlink:href="#linear-gradient-29"/><linearGradient id="linear-gradient-31" x1="2478.34" y1="157.51" x2="2580.04" y2="875.02" gradientUnits="userSpaceOnUse"><stop offset="0" stop-color="#ff928e"/><stop offset="1" stop-color="#feb3b1"/></linearGradient><linearGradient id="linear-gradient-32" x1="2847.68" y1="482.1" x2="2810.03" y2="747.55" xlink:href="#linear-gradient-31"/><linearGradient id="linear-gradient-33" x1="2862.7" y1="483.88" x2="2825.01" y2="749.53" xlink:href="#linear-gradient-31"/><linearGradient id="linear-gradient-34" x1="7309.91" y1="2735.34" x2="6883.38" y2="3199.3" gradientTransform="translate(-4981.79 -60.43) rotate(0.54)" xlink:href="#linear-gradient"/><linearGradient id="linear-gradient-35" x1="7171.64" y1="2769.21" x2="7209.52" y2="2769.21" gradientTransform="translate(-4981.79 -60.43) rotate(0.54)" xlink:href="#linear-gradient-31"/><linearGradient id="linear-gradient-36" x1="7345.86" y1="2203.56" x2="6978.66" y2="2701.25" gradientTransform="translate(-4981.79 -60.43) rotate(0.54)" xlink:href="#linear-gradient"/><linearGradient id="linear-gradient-37" x1="7215.57" y1="2646.03" x2="6785.97" y2="3113.3" gradientTransform="translate(-4981.79 -60.43) rotate(0.54)" xlink:href="#linear-gradient"/><linearGradient id="linear-gradient-38" x1="7035.13" y1="2767.22" x2="7067.84" y2="2767.22" gradientTransform="translate(-4981.79 -60.43) rotate(0.54)" xlink:href="#linear-gradient-31"/><linearGradient id="linear-gradient-39" x1="7281.14" y1="2156" x2="6914.56" y2="2652.85" gradientTransform="translate(-4981.79 -60.43) rotate(0.54)" xlink:href="#linear-gradient"/><linearGradient id="linear-gradient-40" x1="2338.83" y1="1868.98" x2="2541.35" y2="1656.46" xlink:href="#linear-gradient-31"/><linearGradient id="linear-gradient-41" x1="2323.57" y1="1854.62" x2="2526.23" y2="1641.94" xlink:href="#linear-gradient-31"/><linearGradient id="linear-gradient-42" x1="7519.96" y1="1636.63" x2="7574.73" y2="1552.42" gradientTransform="translate(-4981.79 -60.43) rotate(0.54)" xlink:href="#linear-gradient-31"/><linearGradient id="linear-gradient-43" x1="6904.01" y1="2046.37" x2="7148.9" y2="2046.37" gradientTransform="translate(-4981.79 -60.43) rotate(0.54)" xlink:href="#linear-gradient-31"/><linearGradient id="linear-gradient-44" x1="2152.55" y1="1761.98" x2="2103.66" y2="1946.24" xlink:href="#linear-gradient-31"/><linearGradient id="linear-gradient-45" x1="2145.02" y1="1626.6" x2="2190.08" y2="1758.05" xlink:href="#linear-gradient-31"/><linearGradient id="linear-gradient-46" x1="-786.37" y1="3065.74" x2="-755.89" y2="3239.57" gradientTransform="matrix(0.75, -0.66, 0.66, 0.75, 623.7, -1233.33)" xlink:href="#linear-gradient-5"/><linearGradient id="linear-gradient-47" x1="2107.92" y1="1639.44" x2="2152.96" y2="1770.83" xlink:href="#linear-gradient-31"/><linearGradient id="linear-gradient-48" x1="6794.97" y1="1381.24" x2="7225.62" y2="3175.61" gradientTransform="translate(-4705.66)" xlink:href="#linear-gradient"/><linearGradient id="linear-gradient-49" x1="6826.41" y1="2044.79" x2="6902.97" y2="2044.79" gradientTransform="translate(-4705.66)" xlink:href="#linear-gradient-31"/><linearGradient id="linear-gradient-50" x1="4661.81" y1="1954.82" x2="4682.24" y2="2039.93" gradientTransform="matrix(-1, 0, 0, 1, 6929.66, 0)" xlink:href="#linear-gradient-2"/><linearGradient id="linear-gradient-51" x1="2172.07" y1="1953.25" x2="2336.35" y2="1953.25" xlink:href="#linear-gradient-7"/><linearGradient id="linear-gradient-52" x1="1570.81" y1="2514.42" x2="1357.12" y2="2998.04" xlink:href="#linear-gradient-2"/><linearGradient id="linear-gradient-53" x1="1744.93" y1="2592.2" x2="1530.95" y2="3076.48" xlink:href="#linear-gradient-2"/><linearGradient id="linear-gradient-54" x1="1594.07" y1="2587.93" x2="1594.07" y2="2398.58" xlink:href="#linear-gradient-2"/><linearGradient id="linear-gradient-55" x1="1948.39" y1="2549.42" x2="1907.24" y2="2833.72" xlink:href="#linear-gradient"/><linearGradient id="linear-gradient-56" x1="1840.48" y1="2793.56" x2="1880.86" y2="2793.56" xlink:href="#linear-gradient-31"/><linearGradient id="linear-gradient-57" x1="2150.32" y1="2578.57" x2="2109.12" y2="2863.28" xlink:href="#linear-gradient"/><linearGradient id="linear-gradient-58" x1="1735.73" y1="2797.99" x2="1704.64" y2="3015.64" xlink:href="#linear-gradient-29"/><linearGradient id="linear-gradient-59" x1="2031.75" y1="2797" x2="2079.96" y2="2797" xlink:href="#linear-gradient-31"/><linearGradient id="linear-gradient-60" x1="1719.38" y1="2865.2" x2="1843.99" y2="2440.38" xlink:href="#linear-gradient-29"/><linearGradient id="linear-gradient-61" x1="1791.71" y1="2054.05" x2="1718.53" y2="2165.71" xlink:href="#linear-gradient-31"/><linearGradient id="linear-gradient-62" x1="1664.42" y1="2246.95" x2="1928.31" y2="2680.16" xlink:href="#linear-gradient-2"/><linearGradient id="linear-gradient-63" x1="2050.59" y1="2008.64" x2="1741.21" y2="2249.27" xlink:href="#linear-gradient"/><linearGradient id="linear-gradient-64" x1="1967.02" y1="2345.27" x2="2078.38" y2="2345.27" xlink:href="#linear-gradient-31"/><linearGradient id="linear-gradient-65" x1="1856.52" y1="1970" x2="1779.59" y2="2041.31" xlink:href="#linear-gradient-31"/><linearGradient id="linear-gradient-66" x1="3539.21" y1="2519.13" x2="3648.27" y2="2659.56" gradientTransform="translate(-2094.01 -110.27) rotate(-7.5)" xlink:href="#linear-gradient-5"/><linearGradient id="linear-gradient-67" x1="1840.81" y1="1952.87" x2="1763.91" y2="2024.15" xlink:href="#linear-gradient-31"/><linearGradient id="linear-gradient-68" x1="12603.05" y1="-15886.21" x2="12305" y2="-15598.05" gradientTransform="matrix(-1.39, -0.07, -0.07, 1.39, -5510.85, -274.53)" xlink:href="#linear-gradient-5"/><linearGradient id="linear-gradient-69" x1="10317.72" y1="-17293.19" x2="10018.53" y2="-17003.93" gradientTransform="matrix(0.65, -1.23, -1.23, -0.65, 7650.57, -7223.9)" xlink:href="#linear-gradient-5"/><linearGradient id="linear-gradient-70" x1="2491.74" y1="2629.78" x2="2543.07" y2="2306.88" xlink:href="#linear-gradient-2"/><linearGradient id="linear-gradient-71" x1="2808.32" y1="2833.12" x2="2859.24" y2="2512.77" xlink:href="#linear-gradient-2"/><linearGradient id="linear-gradient-72" x1="2768.77" y1="2825.75" x2="2819.91" y2="2504.04" xlink:href="#linear-gradient-2"/><linearGradient id="linear-gradient-73" x1="2567.85" y1="2667.94" x2="2431.51" y2="2756.75" xlink:href="#linear-gradient-31"/><linearGradient id="linear-gradient-74" x1="2652.32" y1="2734.26" x2="2627.49" y2="3115" xlink:href="#linear-gradient-2"/><linearGradient id="linear-gradient-75" x1="2752.22" y1="2591.64" x2="2499.82" y2="2645.11" xlink:href="#linear-gradient-31"/><linearGradient id="linear-gradient-76" x1="2415.52" y1="2718.83" x2="2390.73" y2="3099.01" xlink:href="#linear-gradient-2"/><linearGradient id="linear-gradient-77" x1="2849.91" y1="1782.62" x2="2791.06" y2="2091.78" xlink:href="#linear-gradient-5"/><linearGradient id="linear-gradient-78" x1="2712.81" y1="2016.76" x2="2774.2" y2="2123.25" xlink:href="#linear-gradient-31"/><linearGradient id="linear-gradient-79" x1="2772.25" y1="1935.64" x2="2663.91" y2="1992.92" xlink:href="#linear-gradient-31"/><linearGradient id="linear-gradient-80" x1="-608.59" y1="6149.59" x2="-666.95" y2="6456.18" gradientTransform="translate(-1946.7 -2355.18) rotate(-52.83)" xlink:href="#linear-gradient-5"/><linearGradient id="linear-gradient-81" x1="2775.54" y1="1942.84" x2="2667.01" y2="2000.23" xlink:href="#linear-gradient-31"/><linearGradient id="linear-gradient-82" x1="2850.86" y1="2344.61" x2="3181.63" y2="2344.61" xlink:href="#linear-gradient-31"/><linearGradient id="linear-gradient-83" x1="2737.01" y1="2520.88" x2="2528.77" y2="2577.95" gradientTransform="translate(-1.1 -71.83) rotate(-2.83)" xlink:href="#linear-gradient"/><linearGradient id="linear-gradient-84" x1="2575.95" y1="2174.39" x2="2427.19" y2="2331.62" xlink:href="#linear-gradient"/><linearGradient id="linear-gradient-85" x1="-10397.02" y1="3090.2" x2="-10394.81" y2="3324.25" gradientTransform="matrix(-1, 0, 0, 1, -7359.28, 0)" xlink:href="#linear-gradient"/><linearGradient id="linear-gradient-86" x1="-10452.73" y1="2828.83" x2="-10464.88" y2="2733.85" gradientTransform="matrix(-1, 0, 0, 1, -7359.28, 0)" xlink:href="#linear-gradient-31"/><linearGradient id="linear-gradient-87" x1="-10709.46" y1="3093.2" x2="-10707.25" y2="3327.27" gradientTransform="matrix(-1, 0, 0, 1, -7359.28, 0)" xlink:href="#linear-gradient"/><linearGradient id="linear-gradient-88" x1="-10714.96" y1="2861.38" x2="-10726.79" y2="2768.9" gradientTransform="matrix(-1, 0, 0, 1, -7359.28, 0)" xlink:href="#linear-gradient-31"/><linearGradient id="linear-gradient-89" x1="-10796.75" y1="2509.77" x2="-10436.86" y2="2509.77" gradientTransform="matrix(-1, 0, 0, 1, -7359.28, 0)" xlink:href="#linear-gradient"/><linearGradient id="linear-gradient-90" x1="-10722.67" y1="2453.8" x2="-10709.43" y2="2427.32" gradientTransform="matrix(-1, 0, 0, 1, -7359.28, 0)" xlink:href="#linear-gradient-2"/><linearGradient id="linear-gradient-91" x1="-10626.67" y1="2253.65" x2="-10462.79" y2="2253.65" gradientTransform="matrix(-1, 0, 0, 1, -7359.28, 0)" xlink:href="#linear-gradient-31"/><linearGradient id="linear-gradient-92" x1="-10475.65" y1="2045.71" x2="-10169.62" y2="2045.71" gradientTransform="matrix(-1, 0, 0, 1, -7359.28, 0)" xlink:href="#linear-gradient-31"/><linearGradient id="linear-gradient-93" x1="-10586.29" y1="1871.56" x2="-10478.92" y2="1761.4" gradientTransform="matrix(-1, 0, 0, 1, -7359.28, 0)" xlink:href="#linear-gradient-31"/><linearGradient id="linear-gradient-94" x1="-10431.13" y1="1691.89" x2="-10564.86" y2="1868.81" gradientTransform="matrix(-1, 0, 0, 1, -7359.28, 0)" xlink:href="#linear-gradient-31"/><linearGradient id="linear-gradient-95" x1="-10532.78" y1="1734.56" x2="-10374.16" y2="1734.56" gradientTransform="matrix(-1, 0, 0, 1, -7359.28, 0)" xlink:href="#linear-gradient-29"/><linearGradient id="linear-gradient-96" x1="-10626.64" y1="1832.02" x2="-10519.32" y2="1721.91" gradientTransform="matrix(-1, 0, 0, 1, -7359.28, 0)" xlink:href="#linear-gradient-31"/><linearGradient id="linear-gradient-97" x1="-10433" y1="2336.18" x2="-10655.29" y2="2480.27" gradientTransform="matrix(-1, 0, 0, 1, -7359.28, 0)" xlink:href="#linear-gradient-31"/><linearGradient id="linear-gradient-98" x1="-6647.04" y1="2504.36" x2="-6648.15" y2="2438.25" gradientTransform="matrix(-1, 0, 0, 1, -3533.28, 0)" xlink:href="#linear-gradient-29"/><linearGradient id="linear-gradient-99" x1="1309.16" y1="1027.28" x2="1619.45" y2="1289.36" gradientUnits="userSpaceOnUse"><stop offset="0" stop-color="#ffe185"/><stop offset="0.21" stop-color="#ffbb36"/><stop offset="0.38" stop-color="#ff5176"/><stop offset="0.52" stop-color="#f63395"/><stop offset="0.74" stop-color="#a436d2"/><stop offset="1" stop-color="#5f4eed"/></linearGradient></defs><g id="Background"><rect class="cls-2" y="7" width="3187" height="2286"/></g><g id="Illustration"><path class="cls-3" d="M980.66,900.83c-1.7-9.69-15.55-9.47-17,.27-7.17,48.91-20.83,111.32-46.41,152.06-47.47,75.62-133.71,351,103.07,488.26s295,209.95,293.24,473.57c-1.61,241,12.72,755.12,15.2,841.81a12.83,12.83,0,0,0,12.77,12.54h0a12.85,12.85,0,0,0,12.78-12.89c.31-112.76,1.88-932.42-18.43-1131C1303.73,1410.7,1041.55,1249.48,980.66,900.83Z" transform="translate(-296 -200)"/><path class="cls-4" d="M984.7,1109.15a164.24,164.24,0,0,0-5.51,24.64c-.76,4.18-1.14,8.44-1.55,12.68s-.57,8.49-.76,12.74c-.31,17,.5,34,4,50.67,6.47,33.31,20.95,64.57,40.35,92.22,2.47,3.43,4.71,7,7.35,10.34l8.2,9.72,8.19,9.72,8.8,9.34c11.92,12.31,24.54,24,37.48,35.53,25.87,23,53,45.1,78.6,69.4s49.68,50.68,69.87,80.07a468.2,468.2,0,0,1,27.34,45.93l5.86,12c2,4,3.85,8,5.55,12.15l5.28,12.27,4.75,12.48c3.33,8.26,5.82,16.8,8.7,25.21,2.63,8.48,5,17,7.37,25.6,2,8.64,4.28,17.23,6,25.92s3.64,17.35,4.91,26.12a825,825,0,0,1,10.48,105.42,4.64,4.64,0,0,1-9.27.51c-5.13-69.57-16.31-139.16-41.52-203.57l-4.79-12-5.29-11.79c-1.7-4-3.56-7.84-5.55-11.66l-5.83-11.51a452.39,452.39,0,0,0-27-43.8,505.73,505.73,0,0,0-32.09-40.19c-11.37-12.85-23.6-25-36.16-36.78-25.14-23.62-52.2-45.42-78.59-68.59-13.19-11.59-26.21-23.55-38.64-36.24L1032,1344l-8.65-10.35-8.63-10.35c-2.77-3.54-5.18-7.39-7.78-11.07-20.51-29.56-35.53-63.72-41.06-99.67l-1.82-13.49c-.49-4.5-.58-9-.88-13.57A125.54,125.54,0,0,1,963,1172a127.73,127.73,0,0,1,.74-13.55c.45-4.5.75-9,1.57-13.47s1.35-8.93,2.4-13.33a148.46,148.46,0,0,1,7.83-26.2,4.91,4.91,0,0,1,6.41-2.73,5,5,0,0,1,2.84,6.11Z" transform="translate(-296 -200)"/><path class="cls-5" d="M894.43,1652.88c-4.29-9.54-18.1-8.33-20.79,1.78-24.38,91.76-74.7,365.66,147.74,495.29,269.54,157.07,276.05,86,309.66,362.59,28.93,238,38.8,382.78,41,418.49a9.23,9.23,0,0,0,9.17,8.7h0a9.22,9.22,0,0,0,9.18-9.59c-2.54-74.94-21.06-570.19-74-812.44C1222.27,1686.84,1001.88,1892,894.43,1652.88Z" transform="translate(-296 -200)"/><path class="cls-4" d="M899.79,1703.05a171.73,171.73,0,0,0,14.8,45,244.47,244.47,0,0,0,24.82,40.31c19.13,25.09,43.07,46.11,69.19,63.63,12.92,9.11,26.87,16.25,40.85,24l21.56,11.64c7.12,4,14.09,8.33,21.14,12.49,27.87,17.19,54.74,36.3,79.43,58.15a487.38,487.38,0,0,1,66.33,73.3l13.92,20.52c2.43,3.34,4.33,7,6.43,10.59l6.19,10.74,6.18,10.73,5.4,11.15c3.53,7.47,7.3,14.82,10.62,22.37,5.88,15.42,12.7,30.48,17.15,46.39,2.44,7.86,5,15.69,7.15,23.64l5.6,24,2.79,12,2,12.16,4,24.29c1.46,8.08,1.84,16.3,2.74,24.45l2.34,24.46a3.18,3.18,0,0,1-6.3.82l0-.22c-2.5-16.06-4.52-32.16-7.35-48.09l-4.87-23.78-2.45-11.88-3.21-11.68-6.39-23.34c-2.36-7.7-5.26-15.22-7.76-22.87-4.68-15.43-11.69-29.93-17.73-44.79-3.39-7.26-7.23-14.3-10.81-21.46l-5.48-10.68-6.23-10.25-6.22-10.24c-2.11-3.39-4-6.92-6.44-10.09l-13.89-19.49a491.11,491.11,0,0,0-64.89-69.83,591.37,591.37,0,0,0-77.28-56c-6.88-4-13.67-8.2-20.63-12.1l-21.1-11.31c-14.22-8-29-15.83-42.41-25.51-27.19-18.89-51.86-42.16-70.73-69.82a221.72,221.72,0,0,1-23.13-44.39,195,195,0,0,1-7.3-24,119.08,119.08,0,0,1-3.46-24.94,2.7,2.7,0,0,1,5.36-.56Z" transform="translate(-296 -200)"/><path class="cls-3" d="M1366.06,2756.92a9.34,9.34,0,0,0,9.15-10.93c-9.51-57-65.27-317.54-289.84-319.61-198.95-1.84-319.68,98.76-361.76,141.29-7.52,7.6-4.18,20.62,6.06,23.47,27.17,7.56,72.38,26,101.4,68.59,43.75,64.28,157.16,54.19,227.83-34.17,70-87.54,244.39-140,298.06,123.79a9.34,9.34,0,0,0,9.1,7.57Z" transform="translate(-296 -200)"/><path class="cls-4" d="M816.28,2538.19c15.29-13.28,31.89-24.52,49.15-34.83,8.64-5.11,17.45-10,26.45-14.41s18.11-8.76,27.43-12.56a412.84,412.84,0,0,1,57.31-19.1,383,383,0,0,1,59.77-9.76,304.41,304.41,0,0,1,60.66.77,282.22,282.22,0,0,1,59.31,12.78l7.22,2.32,7.05,2.83c4.68,1.93,9.42,3.69,14,5.76,9.07,4.48,18.3,8.6,26.81,14.06,17.56,9.92,33.58,22.27,48.81,35.24a2.86,2.86,0,0,1,.34,4,2.77,2.77,0,0,1-3.68.53l-.14-.09c-16.32-11-32.54-22.1-50.24-30.35-8.59-4.61-17.75-7.93-26.62-11.83-4.51-1.76-9.15-3.18-13.71-4.79l-6.86-2.34-7-1.86c-18.51-5.55-37.67-8.42-56.82-10.13-4.8-.28-9.58-.91-14.4-.91l-14.43-.24c-9.63.35-19.26.6-28.85,1.61-38.44,3.42-76.16,13.51-112.63,26.93a636,636,0,0,0-105.58,50.9l-.12.07a2.79,2.79,0,0,1-3.84-1A2.85,2.85,0,0,1,816.28,2538.19Z" transform="translate(-296 -200)"/><path class="cls-3" d="M1790.82,313.67a11,11,0,0,0-20.61-4.92c-26.29,47.13-85.46,127.52-203.86,185.71C1388.74,581.74,1070,762.24,1260.06,1156.6c197.61,410,127.47,696.34,141.08,839.7,12.61,132.77,25.89,816.86,27.78,917.3a12.49,12.49,0,0,0,12.44,12.32h0a12.51,12.51,0,0,0,12.43-12.9c-2.75-110.79-22.3-900.64-22.66-1027.09-.38-136-33.63-601.6,86.5-771.38C1633.85,950.31,1809.31,739.57,1790.82,313.67Z" transform="translate(-296 -200)"/><path class="cls-4" d="M1722.86,434.56c-12.37,17.57-25.72,34.25-39.63,50.51s-28.36,32-43.19,47.44l-11.25,11.43-11.48,11.2c-7.61,7.52-15.44,14.81-23.33,22q-23.76,21.55-48.65,41.87c-8.33,6.71-16.89,13.14-25.32,19.72s-17.26,12.67-25.88,19c-17.23,12.25-33.94,24.47-49.73,38.08-31.63,26.92-59.29,58.31-80,94.08a314.21,314.21,0,0,0-25.76,56.38,389.79,389.79,0,0,0-15,60.56c-3.66,20.59-5.06,41.59-5.84,62.59l-.24,15.79c-.07,5.27.23,10.54.32,15.81.12,10.55,1,21.08,1.56,31.64,6.55,84.46,26.93,167.74,51.51,249.36a2.24,2.24,0,0,1-1.46,2.79,2.2,2.2,0,0,1-2.71-1.36q-22.2-60.2-38.52-122.56c-10.81-41.54-19.31-83.86-23.69-126.88s-4.85-86.7,1.37-130a387.29,387.29,0,0,1,14.85-63.92,333.81,333.81,0,0,1,26.55-60.21c21.5-38.43,51-71.66,83.83-99.92,16.33-14.17,33.79-27.18,51.15-39.45,8.51-6.15,17.16-12.12,25.57-18.42s16.82-12.62,25.07-19.15,16.61-12.92,24.72-19.64,16.35-13.28,24.26-20.25c16-13.67,32-27.49,47.41-41.92,15.66-14.17,30.85-28.87,45.92-43.73s29.92-30,44.18-45.67l0,0a2.18,2.18,0,0,1,3.12-.13A2.27,2.27,0,0,1,1722.86,434.56Z" transform="translate(-296 -200)"/><path class="cls-5" d="M2072.88,1751H1827.6a26.09,26.09,0,0,1-25.93-25.72L1779.56,635.81a26.08,26.08,0,0,1,27.81-26.73l267.38,19.52a26.14,26.14,0,0,1,24.07,26.19V1724.73A26.1,26.1,0,0,1,2072.88,1751Z" transform="translate(-296 -200)"/><path class="cls-6" d="M1839.85,1053.15l5.31,129a22.77,22.77,0,0,0,22.3,22l171.31,2.42a22.77,22.77,0,0,0,22.95-22.9v-129a22.77,22.77,0,0,0-22.32-22.9l-176.63-2.51A22.78,22.78,0,0,0,1839.85,1053.15Z" transform="translate(-296 -200)"/><path class="cls-6" d="M2039.4,1226.2l-168.61-2.39a22.79,22.79,0,0,0-22.93,23.86l5.32,129a22.75,22.75,0,0,0,22.29,22l163.3,2.31a22.76,22.76,0,0,0,22.95-22.9v-129A22.77,22.77,0,0,0,2039.4,1226.2Z" transform="translate(-296 -200)"/><path class="cls-6" d="M2061.72,794.86V697.74A22.81,22.81,0,0,0,2042,675l-192.27-25.3a22.74,22.74,0,0,0-25.53,23.67l4.94,119.76a22.76,22.76,0,0,0,22.29,22l187.34,2.65A22.77,22.77,0,0,0,2061.72,794.86Z" transform="translate(-296 -200)"/><path class="cls-6" d="M1831.83,858.63l5.32,129a22.75,22.75,0,0,0,22.29,21.94l179.33,2.54a22.76,22.76,0,0,0,22.95-22.9v-129a22.78,22.78,0,0,0-22.32-22.9l-184.64-2.61A22.77,22.77,0,0,0,1831.83,858.63Z" transform="translate(-296 -200)"/><path class="cls-6" d="M1855.87,1442.19l3.87,93.89a22.77,22.77,0,0,0,22.61,22h156.74a22.78,22.78,0,0,0,22.63-22.91v-91.62a22.78,22.78,0,0,0-22.32-22.91l-160.6-2.27A22.79,22.79,0,0,0,1855.87,1442.19Z" transform="translate(-296 -200)"/><path class="cls-5" d="M2090.88,1736.62l-228.8,89.48a25.83,25.83,0,0,1-33.35-14.53L1420.22,803.39a26.34,26.34,0,0,1,16.42-35.08L1693,689a25.85,25.85,0,0,1,31.78,15.64l381,998A26.36,26.36,0,0,1,2090.88,1736.62Z" transform="translate(-296 -200)"/><path class="cls-7" d="M1625,1170.7,1676,1289.13a22.53,22.53,0,0,0,28.61,12.34l160.66-60.23a23,23,0,0,0,13.25-29.74l-45.92-120.3a22.54,22.54,0,0,0-29-13.22l-165.65,62.1A23,23,0,0,0,1625,1170.7Z" transform="translate(-296 -200)"/><path class="cls-7" d="M1872.8,1259.32l-158.13,59.28a23,23,0,0,0-12.89,30.62l50.9,118.43a22.53,22.53,0,0,0,28.61,12.34l153.15-57.41a23,23,0,0,0,13.25-29.74l-45.92-120.3A22.55,22.55,0,0,0,1872.8,1259.32Z" transform="translate(-296 -200)"/><path class="cls-7" d="M1740,848.82l-34.58-90.59a22.57,22.57,0,0,0-26.47-14l-188.36,46.55a23,23,0,0,0-15.39,31.39l47.24,109.91a22.54,22.54,0,0,0,28.61,12.34l175.7-65.86A23,23,0,0,0,1740,848.82Z" transform="translate(-296 -200)"/><path class="cls-7" d="M1548.31,992.17l50.91,118.43a22.54,22.54,0,0,0,28.61,12.35l168.18-63a23,23,0,0,0,13.25-29.74l-45.92-120.3a22.55,22.55,0,0,0-29-13.22L1561.2,961.55A23,23,0,0,0,1548.31,992.17Z" transform="translate(-296 -200)"/><path class="cls-7" d="M1778.51,1527.74l37,86.18a22.53,22.53,0,0,0,28.9,12.23L1990.66,1569a23,23,0,0,0,12.95-29.62L1971,1453.88a22.55,22.55,0,0,0-29-13.22l-150.62,56.47A23,23,0,0,0,1778.51,1527.74Z" transform="translate(-296 -200)"/><path class="cls-5" d="M2105.17,1710.88l-156.73,191a25.74,25.74,0,0,1-36.12,3.76l-842-678.94a26.47,26.47,0,0,1-2.54-38.72l185.69-195.72a25.72,25.72,0,0,1,35.28-2l813.09,683.67A26.48,26.48,0,0,1,2105.17,1710.88Z" transform="translate(-296 -200)"/><path class="cls-8" d="M1426,1446.43l101.46,78.32a22.45,22.45,0,0,0,30.93-3.34l111.31-131.84a23.1,23.1,0,0,0-2.75-32.5l-98-82.4a22.44,22.44,0,0,0-31.67,2.73l-114.76,135.93A23.1,23.1,0,0,0,1426,1446.43Z" transform="translate(-296 -200)"/><path class="cls-8" d="M1685,1401.62l-109.56,129.77a23.09,23.09,0,0,0,3.48,33.09l101.47,78.32a22.43,22.43,0,0,0,30.92-3.33l106.1-125.68a23.1,23.1,0,0,0-2.74-32.5l-98-82.41A22.44,22.44,0,0,0,1685,1401.62Z" transform="translate(-296 -200)"/><path class="cls-8" d="M1371.43,1108.63l-73.8-62.05a22.42,22.42,0,0,0-29.86.83L1125.69,1181a23.08,23.08,0,0,0,1.67,35l94.17,72.68a22.43,22.43,0,0,0,30.92-3.33l121.73-144.18A23.1,23.1,0,0,0,1371.43,1108.63Z" transform="translate(-296 -200)"/><path class="cls-8" d="M1273,1328.38l101.46,78.31a22.43,22.43,0,0,0,30.92-3.33l116.52-138a23.1,23.1,0,0,0-2.74-32.5l-98-82.4a22.43,22.43,0,0,0-31.66,2.73l-120,142.1A23.1,23.1,0,0,0,1273,1328.38Z" transform="translate(-296 -200)"/><path class="cls-8" d="M1731.84,1682.54l73.82,57a22.43,22.43,0,0,0,31.13-3.58l100.15-122a23.09,23.09,0,0,0-3-32.26l-69.62-58.54a22.44,22.44,0,0,0-31.67,2.73l-104.35,123.6A23.09,23.09,0,0,0,1731.84,1682.54Z" transform="translate(-296 -200)"/><path class="cls-3" d="M3442.75,2881.54a11.84,11.84,0,0,1-9.67-10.5c-5.75-56.91-32.81-371.71,52.91-538.84,94.47-184.21,246.86-355.61,172.41-794.47-42.18-248.62-15.71-384.15-2.28-431.15a7.86,7.86,0,0,1,14.74-1.21c38.68,83.88,200,437.1,225.21,546.38,28.62,124.33,47.54,366.18-146,476.68-190.49,108.76-362.48,385-293.73,739.14a11.83,11.83,0,0,1-13.6,14Z" transform="translate(-296 -200)"/><path class="cls-3" d="M3114.85,204.77a7.42,7.42,0,0,0-14.28,1.67c-17,120.3-63.36,551.62,107.85,747.56,200.06,228.94,345.59,281.85,298.85,663.89-46.25,378-171,1048.36-117.37,1248.3a10,10,0,0,0,7.85,7.3h0a9.92,9.92,0,0,0,11.59-10.42c-3.36-59-14.73-314.1,24.44-546.58,44.63-264.9,237.5-924.51,147.79-1439.14C3497.5,395.08,3187.15,384.27,3114.85,204.77Z" transform="translate(-296 -200)"/><path class="cls-4" d="M3194.85,411.71a628.25,628.25,0,0,1,48.22,42.51c15.47,14.84,30.34,30.33,44.76,46.23s28.24,32.36,41.86,49c6.77,8.35,13.18,17,19.78,25.48s12.75,17.34,19.14,26a1144.36,1144.36,0,0,1,68.68,109.49l7.84,14.16,7.44,14.38c4.84,9.64,10.08,19.08,14.54,28.92l13.82,29.3L3493.71,827c16.24,40,30.79,80.83,42.36,122.54,3.06,10.37,5.32,21,8,31.44L3548,996.7c1.21,5.27,2.17,10.6,3.27,15.89,2.1,10.62,4.33,21.2,6.32,31.83l4.88,32.08c1.81,10.66,2.78,21.44,3.87,32.2s2.45,21.48,3,32.28c1.11,21.59,2.57,43.15,2.08,64.76.6,43.2-3.25,86.28-8.51,129a3.47,3.47,0,0,1-6.9-.69v-.1c6.43-85.21,3.69-170.94-10.7-254.72l-5.57-31.37-6.85-31.09c-1.18-5.18-2.23-10.38-3.52-15.53l-4.14-15.37c-2.85-10.21-5.27-20.55-8.48-30.66a1126.33,1126.33,0,0,0-43-119.65c-33-78.14-74.86-152.24-122.41-222.33-6-8.71-11.92-17.52-18.06-26.15s-12.33-17.24-18.7-25.71q-18.84-25.61-38.8-50.39c-26.52-33.09-54.34-65.31-83.93-95.75l-.06-.06a2.31,2.31,0,0,1,0-3.24A2.26,2.26,0,0,1,3194.85,411.71Z" transform="translate(-296 -200)"/><path class="cls-5" d="M3484.52,2889a14.16,14.16,0,0,1-11.35-11.06c-10.63-50.5-51.06-292.51,112.58-440.95,170.66-154.81,295.33-165,328.65-262a6.08,6.08,0,0,1,11.74.55c19.07,86.9,66.19,387.19-160.79,503-225.21,114.87-260.63,167.59-264.4,198.4a14.06,14.06,0,0,1-16.43,12.09Z" transform="translate(-296 -200)"/><path class="cls-4" d="M3902.61,2257c-7.67,31.94-21.5,61.92-38.9,89.74a318.44,318.44,0,0,1-29.3,39.63A311,311,0,0,1,3759,2450a337.66,337.66,0,0,1-44.47,21.79L3703,2476.2l-10.95,4c-3.66,1.26-7.21,2.76-10.76,4.27s-7.16,2.89-10.6,4.63a278.26,278.26,0,0,0-40.26,22.52c-51.61,33.83-89.82,86.21-111.22,145.26-22,59.08-29.66,123.51-29.88,187.65a2.87,2.87,0,0,1-5.74.23c-1.25-16.15-2.13-32.38-2.08-48.64s.74-32.54,2.08-48.81a444.43,444.43,0,0,1,6.86-48.59,386.69,386.69,0,0,1,12.42-47.71c10.38-31.24,24.8-61.56,44.44-88.43a280.53,280.53,0,0,1,71.08-69.22,299.78,299.78,0,0,1,43.15-24.46c3.69-1.87,7.52-3.37,11.31-5s7.57-3.25,11.45-4.62l22.34-8.23a313.13,313.13,0,0,0,80.15-45.63,352,352,0,0,0,34.56-31.25,387.64,387.64,0,0,0,30.29-35.89c18.56-25.31,34.74-53.05,46.5-82.56l.07-.17a2.32,2.32,0,0,1,3-1.31A2.38,2.38,0,0,1,3902.61,2257Z" transform="translate(-296 -200)"/><path class="cls-9" d="M1184.69,1924.32s262.59,701,345.55,846.82c96.3,169.27,377.55,61.41,363.56-80.26s-342.6-727.22-342.6-727.22Z" transform="translate(-296 -200)"/><polygon class="cls-10" points="1243.5 1213.68 2875.58 640.89 2858.44 2190.94 1198.89 1816.13 1243.5 1213.68"/><ellipse class="cls-11" cx="2877.12" cy="1420.41" rx="160.35" ry="796.58"/><path class="cls-12" d="M3185.29,2362.52c-14.5-14.92-46.07-72.48-73.13-221.31-26.16-143.82-40.57-330.38-40.57-525.29s14.41-381.47,40.57-525.3c27.06-148.83,58.63-206.39,73.13-221.31,14.49,14.92,46.06,72.48,73.13,221.31,26.16,143.83,40.56,330.38,40.56,525.3s-14.4,381.47-40.56,525.29C3231.35,2290,3199.78,2347.6,3185.29,2362.52Z" transform="translate(-296 -200)"/><g class="cls-13"><path class="cls-14" d="M3390.8,1610c0,135.35-72,245.07-214.59,245.07S2918.07,1745.33,2918.07,1610s115.57-245.06,258.14-245.06S3390.8,1474.64,3390.8,1610Z" transform="translate(-296 -200)"/></g><path class="cls-15" d="M1276.27,1380.36c76.77-9,186.87-12.27,305.91,15.32-39.22,207.37-33.3,423.51,12,647.32H1258.49c-53.53,0-99.18-39.36-107.52-92.88-16.74-107.28-37.19-287.59-15.38-432.41C1146.53,1445,1204.12,1388.84,1276.27,1380.36Z" transform="translate(-296 -200)"/><path class="cls-3" d="M1477.77,1539.18H1216.18a23.5,23.5,0,0,1-21-12.61,24.09,24.09,0,0,1,.93-24.66,6.69,6.69,0,0,1,9.3-2,6.85,6.85,0,0,1,2,9.41,10.5,10.5,0,0,0-.4,10.75,10.26,10.26,0,0,0,9.14,5.5h261.59a10.48,10.48,0,0,0,10.4-10.53v-18.84a10.48,10.48,0,0,0-10.4-10.53H1214.24a6.81,6.81,0,0,1,0-13.62h263.53a24,24,0,0,1,23.85,24.15V1515A24,24,0,0,1,1477.77,1539.18Z" transform="translate(-296 -200)"/><path class="cls-3" d="M1454.44,1656.44H1192.85a23.48,23.48,0,0,1-20.95-12.6,24.07,24.07,0,0,1,.93-24.66,6.7,6.7,0,0,1,9.3-2,6.87,6.87,0,0,1,2,9.42,10.52,10.52,0,0,0-.41,10.75,10.26,10.26,0,0,0,9.14,5.5h261.59a10.47,10.47,0,0,0,10.4-10.53v-18.84a10.47,10.47,0,0,0-10.4-10.53H1190.91a6.81,6.81,0,0,1,0-13.62h263.53a24,24,0,0,1,23.85,24.15v18.84A24,24,0,0,1,1454.44,1656.44Z" transform="translate(-296 -200)"/><path class="cls-16" d="M1776.65,1371.72a6.74,6.74,0,0,1-6.41-4.74,6.82,6.82,0,0,1,4.37-8.55L3010.73,960.26a6.71,6.71,0,0,1,8.45,4.43,6.82,6.82,0,0,1-4.37,8.55L1778.69,1371.4A6.58,6.58,0,0,1,1776.65,1371.72Z" transform="translate(-296 -200)"/><path class="cls-17" d="M1609.49,1440.89a6.73,6.73,0,0,1-6.23-4.23,6.84,6.84,0,0,1,3.68-8.88l63.62-26.32a6.69,6.69,0,0,1,8.77,3.73,6.82,6.82,0,0,1-3.68,8.87L1612,1440.39A6.68,6.68,0,0,1,1609.49,1440.89Z" transform="translate(-296 -200)"/><path class="cls-3" d="M1477.77,1793.78H1216.18a23.51,23.51,0,0,1-21-12.6,24.09,24.09,0,0,1,.93-24.66,6.69,6.69,0,0,1,9.3-2,6.85,6.85,0,0,1,2,9.41,10.52,10.52,0,0,0-.4,10.76,10.26,10.26,0,0,0,9.14,5.5h261.59a10.49,10.49,0,0,0,10.4-10.54V1750.8a10.48,10.48,0,0,0-10.4-10.53H1214.24a6.81,6.81,0,0,1,0-13.62h263.53a24,24,0,0,1,23.85,24.15v18.83A24,24,0,0,1,1477.77,1793.78Z" transform="translate(-296 -200)"/><path class="cls-3" d="M1502.26,1946.22H1240.67a23.48,23.48,0,0,1-21-12.6,24.06,24.06,0,0,1,.92-24.66,6.7,6.7,0,0,1,9.31-2,6.86,6.86,0,0,1,2,9.41,10.5,10.5,0,0,0-.41,10.76,10.27,10.27,0,0,0,9.14,5.5h261.59a10.48,10.48,0,0,0,10.4-10.53v-18.84a10.48,10.48,0,0,0-10.4-10.53H1238.73a6.81,6.81,0,0,1,0-13.62h263.53a24,24,0,0,1,23.85,24.15v18.84A24,24,0,0,1,1502.26,1946.22Z" transform="translate(-296 -200)"/><path class="cls-3" d="M1735.89,2775a168.79,168.79,0,0,1-36.39-4c-53.19-11.73-96.48-47.23-118.79-97.4l-209-470a6.83,6.83,0,0,1,3.37-9,6.68,6.68,0,0,1,8.89,3.42l209,470c20.54,46.18,60.41,78.87,109.38,89.67,48.13,10.62,96.84-2,133.64-34.59,2-1.74,4-3.54,5.94-5.38a6.68,6.68,0,0,1,9.51.44,6.88,6.88,0,0,1-.43,9.62c-2.07,1.91-4.12,3.76-6.17,5.57A163.46,163.46,0,0,1,1735.89,2775Z" transform="translate(-296 -200)"/><path class="cls-3" d="M1347,2138.21a6.75,6.75,0,0,1-6.14-4l-23.31-52.43a6.84,6.84,0,0,1,3.37-9,6.71,6.71,0,0,1,8.9,3.41l23.31,52.43a6.78,6.78,0,0,1-6.13,9.61Z" transform="translate(-296 -200)"/><path class="cls-18" d="M3352.59,1602.93a6.76,6.76,0,0,1-6.7-6.33c-4.65-66.31-27.36-115.76-67.5-146.95-69.41-53.94-168.45-35.4-169.44-35.2a6.73,6.73,0,0,1-7.88-5.4,6.81,6.81,0,0,1,5.33-8c4.29-.84,106-19.86,180.19,37.77,43.32,33.66,67.78,86.42,72.71,156.79a6.77,6.77,0,0,1-6.23,7.27Z" transform="translate(-296 -200)"/><path class="cls-19" d="M1897.11,1711.3a4.47,4.47,0,0,1-4.15-2.82,4.56,4.56,0,0,1,2.45-5.92c5.49-2.28,10.95-4.7,16.22-7.19a4.46,4.46,0,0,1,6,2.19,4.56,4.56,0,0,1-2.16,6c-5.4,2.56-11,5-16.62,7.37A4.45,4.45,0,0,1,1897.11,1711.3Z" transform="translate(-296 -200)"/><path class="cls-20" d="M1749.88,1739.84h0c-11.93-.1-24-.77-35.84-2a4.54,4.54,0,0,1,.91-9c11.57,1.2,23.35,1.86,35,2a4.54,4.54,0,0,1,0,9.07Zm57.5-3.9a4.54,4.54,0,0,1-.62-9c11.52-1.66,23.11-3.9,34.44-6.65a4.48,4.48,0,0,1,5.41,3.35,4.55,4.55,0,0,1-3.31,5.48c-11.61,2.81-23.47,5.1-35.28,6.81A4.58,4.58,0,0,1,1807.38,1735.94Zm-149.67-8.46a5.07,5.07,0,0,1-1.14-.14c-11.52-3-23-6.7-34.27-10.85a4.55,4.55,0,0,1-2.67-5.82,4.47,4.47,0,0,1,5.75-2.71c11,4.06,22.21,7.62,33.46,10.59a4.55,4.55,0,0,1,3.21,5.54A4.5,4.5,0,0,1,1657.71,1727.48Zm-86.35-34.85a4.43,4.43,0,0,1-2.16-.56c-10.44-5.81-20.74-12.2-30.62-19a4.58,4.58,0,0,1-1.19-6.31,4.45,4.45,0,0,1,6.23-1.2c9.65,6.63,19.71,12.86,29.9,18.54a4.56,4.56,0,0,1,1.77,6.16A4.48,4.48,0,0,1,1571.36,1692.63ZM1496,1637.55a4.42,4.42,0,0,1-3-1.21c-8.75-8.21-17.21-16.93-25.16-25.93a4.59,4.59,0,0,1,.35-6.41,4.44,4.44,0,0,1,6.33.36c7.77,8.78,16,17.3,24.58,25.32a4.59,4.59,0,0,1,.24,6.42A4.48,4.48,0,0,1,1496,1637.55Zm-59.9-71.91a4.46,4.46,0,0,1-3.76-2.06c-6.53-10.13-12.64-20.68-18.17-31.35a4.57,4.57,0,0,1,1.89-6.13,4.48,4.48,0,0,1,6.06,1.91c5.39,10.42,11.36,20.72,17.73,30.62a4.57,4.57,0,0,1-1.31,6.28A4.46,4.46,0,0,1,1436.1,1565.64Zm-40.75-84.55a4.49,4.49,0,0,1-4.25-3.07c-3.85-11.4-7.22-23.14-10-34.89a4.49,4.49,0,1,1,8.72-2.12c2.72,11.47,6,22.94,9.78,34.07a4.5,4.5,0,0,1-4.24,6ZM1376.28,1389a4.52,4.52,0,0,1-4.47-4.14l-.08-1c-.87-10.7-1.31-21.52-1.31-32.16v-3.16a4.52,4.52,0,0,1,4.49-4.5h0a4.51,4.51,0,0,1,4.44,4.58v3.08c0,10.4.43,21,1.28,31.42l.08,1a4.53,4.53,0,0,1-4.08,4.92Zm3.5-94a4.59,4.59,0,0,1-.73-.06,4.52,4.52,0,0,1-3.7-5.2c1.91-11.94,4.41-23.9,7.42-35.58a4.48,4.48,0,0,1,5.47-3.24,4.55,4.55,0,0,1,3.21,5.54c-2.94,11.39-5.38,23.08-7.25,34.73A4.5,4.5,0,0,1,1379.78,1295Z" transform="translate(-296 -200)"/><path class="cls-21" d="M1406,1204.46a4.47,4.47,0,0,1-1.78-.37,4.56,4.56,0,0,1-2.33-6c2.37-5.54,4.93-11.15,7.61-16.67a4.46,4.46,0,0,1,6-2.07,4.56,4.56,0,0,1,2,6.07c-2.62,5.4-5.12,10.87-7.43,16.28A4.5,4.5,0,0,1,1406,1204.46Z" transform="translate(-296 -200)"/><path class="cls-22" d="M1623,996.87a4.48,4.48,0,0,1-4.21-3,4.55,4.55,0,0,1,2.66-5.82c5.66-2.1,11.45-4.09,17.18-5.9a4.46,4.46,0,0,1,5.62,3,4.55,4.55,0,0,1-2.94,5.69c-5.6,1.78-11.25,3.71-16.77,5.76A4.4,4.4,0,0,1,1623,996.87Z" transform="translate(-296 -200)"/><path class="cls-23" d="M2114.75,1471.45a4.51,4.51,0,0,1-4.28-5.9c3.43-11.07,6.39-22.43,8.8-33.77a4.49,4.49,0,1,1,8.77,1.91c-2.46,11.61-5.5,23.25-9,34.58A4.49,4.49,0,0,1,2114.75,1471.45Zm16.6-91h-.28a4.52,4.52,0,0,1-4.2-4.81c.46-7.61.69-15.36.69-23q0-5.92-.18-11.89a4.51,4.51,0,0,1,4.34-4.68,4.46,4.46,0,0,1,4.62,4.39q.19,6.11.19,12.18c0,7.85-.24,15.78-.71,23.58A4.51,4.51,0,0,1,2131.35,1380.4Zm-5.43-92.42a4.5,4.5,0,0,1-4.41-3.73c-2.05-11.44-4.64-22.89-7.7-34a4.55,4.55,0,0,1,3.12-5.59,4.49,4.49,0,0,1,5.52,3.16c3.14,11.41,5.79,23.14,7.88,34.85a4.53,4.53,0,0,1-3.61,5.28A4.4,4.4,0,0,1,2125.92,1288Zm-27.06-88.41a4.49,4.49,0,0,1-4.09-2.68c-4.69-10.56-9.93-21-15.58-31.15a4.57,4.57,0,0,1,1.69-6.19,4.47,4.47,0,0,1,6.11,1.72c5.79,10.35,11.16,21.08,16,31.9a4.56,4.56,0,0,1-2.25,6A4.46,4.46,0,0,1,2098.86,1199.57Zm-47.32-79.18a4.47,4.47,0,0,1-3.53-1.74c-7.07-9.12-14.65-18-22.52-26.46a4.57,4.57,0,0,1,.18-6.41,4.45,4.45,0,0,1,6.34.18c8.06,8.63,15.82,17.75,23.06,27.09a4.57,4.57,0,0,1-.76,6.37A4.45,4.45,0,0,1,2051.54,1120.39Zm-64.7-65.43a4.41,4.41,0,0,1-2.76-1c-9-7.15-18.47-14-28.11-20.25a4.59,4.59,0,0,1-1.34-6.28,4.46,4.46,0,0,1,6.2-1.36c9.87,6.45,19.55,13.42,28.78,20.74a4.58,4.58,0,0,1,.76,6.38A4.44,4.44,0,0,1,1986.84,1055Zm-78.27-47.9a4.49,4.49,0,0,1-1.84-.4c-10.43-4.76-21.22-9.09-32.07-12.85a4.54,4.54,0,0,1-2.79-5.77,4.47,4.47,0,0,1,5.69-2.82c11.12,3.86,22.17,8.28,32.86,13.16a4.55,4.55,0,0,1,2.24,6A4.48,4.48,0,0,1,1908.57,1007.06Zm-87.35-27.48a4.43,4.43,0,0,1-.81-.07c-11.27-2.07-22.77-3.63-34.19-4.63a4.51,4.51,0,0,1-4.07-4.91,4.44,4.44,0,0,1,4.85-4.13c11.69,1,23.47,2.62,35,4.73a4.55,4.55,0,0,1-.79,9Zm-126-1.54a4.55,4.55,0,0,1-.68-9c9.14-1.43,18.43-2.54,27.6-3.3q3.77-.32,7.52-.55a4.54,4.54,0,0,1,.56,9.06c-2.45.16-4.89.34-7.34.54-9,.74-18,1.83-27,3.23A5.47,5.47,0,0,1,1695.2,978Z" transform="translate(-296 -200)"/><path class="cls-24" d="M2085.33,1541.09a4.46,4.46,0,0,1-2.16-.56,4.57,4.57,0,0,1-1.76-6.17c2.84-5.22,5.59-10.58,8.17-15.9a4.45,4.45,0,0,1,6-2.08,4.57,4.57,0,0,1,2.05,6.08c-2.64,5.45-5.45,10.93-8.37,16.28A4.47,4.47,0,0,1,2085.33,1541.09Z" transform="translate(-296 -200)"/><path class="cls-25" d="M1988.71,1525.19a4.63,4.63,0,0,0,.61-5.3l-26.67-49a245.84,245.84,0,0,0,26.24-74.4l51.28-20.86a4.59,4.59,0,0,0,2.84-4.5l-3.32-67a4.59,4.59,0,0,0-3.27-4.19l-53.08-15.57a245,245,0,0,0-33.46-71.36l21.7-51.49a4.63,4.63,0,0,0-1.13-5.21l-49.19-45a4.49,4.49,0,0,0-5.24-.62l-48.44,27a238.83,238.83,0,0,0-73.49-26.56l-20.61-51.91a4.55,4.55,0,0,0-4.44-2.88l-66.25,3.36a4.56,4.56,0,0,0-4.14,3.32l-15.38,53.73a239.44,239.44,0,0,0-70.5,33.86l-50.86-22a4.52,4.52,0,0,0-5.16,1.14l-44.49,49.79a4.65,4.65,0,0,0-.61,5.31l26.67,49a245.78,245.78,0,0,0-26.24,74.39l-51.28,20.86a4.59,4.59,0,0,0-2.84,4.5l3.32,67.06a4.56,4.56,0,0,0,3.27,4.18l53.08,15.57a245.19,245.19,0,0,0,33.46,71.37l-21.7,51.48a4.64,4.64,0,0,0,1.13,5.22l49.19,45a4.5,4.5,0,0,0,5.24.61l48.44-27a238.91,238.91,0,0,0,73.5,26.57l20.6,51.9a4.54,4.54,0,0,0,4.45,2.88l66.24-3.36a4.56,4.56,0,0,0,4.14-3.31L1817.7,1588a239.71,239.71,0,0,0,70.5-33.87l50.86,22a4.51,4.51,0,0,0,5.16-1.14Z" transform="translate(-296 -200)"/><path class="cls-8" d="M1750.52,1418.76a65.84,65.84,0,0,1-62.78-47c-10.6-35,8.92-72.24,43.52-83a64.44,64.44,0,0,1,50,4.84,65.83,65.83,0,0,1,32,39.2c10.6,35-8.92,72.25-43.52,83A64.67,64.67,0,0,1,1750.52,1418.76Zm0-119.27a51.7,51.7,0,0,0-15.36,2.35c-27.5,8.53-43,38.12-34.6,66s37.67,43.55,65.17,35,43-38.12,34.6-66a52.38,52.38,0,0,0-25.42-31.17A51.47,51.47,0,0,0,1750.56,1299.49Z" transform="translate(-296 -200)"/><path class="cls-8" d="M1749.17,1520.28a164.47,164.47,0,0,1-111.69-43.63,168.56,168.56,0,0,1-54.68-116.74q-.22-4.29-.22-8.54c0-89.25,69.42-164,158.44-168.51,91.85-4.58,170.31,67.18,174.91,160.15h0a171.88,171.88,0,0,1-2,35.88l-13.28-2.2a157.23,157.23,0,0,0,2-25.15q0-3.91-.19-7.85c-4.23-85.46-76.42-151.62-160.81-147.23-81.84,4.15-145.66,72.87-145.65,154.92q0,3.9.19,7.85a154.92,154.92,0,0,0,50.28,107.32,151.95,151.95,0,0,0,188.07,14l7.48,11.32a165.21,165.21,0,0,1-84.35,28.23Q1753.44,1520.29,1749.17,1520.28Z" transform="translate(-296 -200)"/><path class="cls-26" d="M1533.76,1082.42l-17-26.18a138,138,0,0,0,11.4-42.73l27.72-14a2.59,2.59,0,0,0,1.39-2.64l-4.79-37.3a2.56,2.56,0,0,0-2-2.19l-30.33-6.31a136.69,136.69,0,0,0-21.82-38.36l9.87-29.73a2.6,2.6,0,0,0-.86-2.86l-29.45-22.95a2.54,2.54,0,0,0-3-.11L1449,874.36a133.53,133.53,0,0,0-42.21-11.53L1393,834.76a2.54,2.54,0,0,0-2.61-1.4l-36.85,4.85a2.54,2.54,0,0,0-2.16,2l-6.24,30.7A134.56,134.56,0,0,0,1307.24,893l-29.37-10a2.53,2.53,0,0,0-2.83.87l-22.67,29.81a2.62,2.62,0,0,0-.11,3l17.06,26.19a138,138,0,0,0-11.4,42.73l-27.72,14a2.58,2.58,0,0,0-1.4,2.64l4.8,37.31a2.56,2.56,0,0,0,2,2.19l30.33,6.31a137,137,0,0,0,21.82,38.35l-9.86,29.73a2.6,2.6,0,0,0,.86,2.87l29.45,22.94a2.51,2.51,0,0,0,3,.11l25.87-17.26a133.87,133.87,0,0,0,42.22,11.54l13.79,28.06a2.54,2.54,0,0,0,2.6,1.41l36.86-4.86a2.56,2.56,0,0,0,2.16-2l6.23-30.7a134.88,134.88,0,0,0,37.9-22.09l29.37,10a2.54,2.54,0,0,0,2.83-.87l22.66-29.81A2.59,2.59,0,0,0,1533.76,1082.42Z" transform="translate(-296 -200)"/><path class="cls-8" d="M1393,1039.8a39.18,39.18,0,0,1-15.77-3.33,39.77,39.77,0,0,1-21.16-22.1,40.42,40.42,0,0,1,.49-30.78,39.55,39.55,0,0,1,73.39,1.19c8.06,20.62-2,44-22.32,52.18A39.21,39.21,0,0,1,1393,1039.8Zm0-66.82a26,26,0,0,0-9.63,1.86A26.26,26.26,0,0,0,1368.9,989a26.79,26.79,0,0,0-.32,20.36,26.28,26.28,0,0,0,14,14.62,25.85,25.85,0,0,0,20.11.32,26.72,26.72,0,0,0,14.76-34.51A26.31,26.31,0,0,0,1393,973Z" transform="translate(-296 -200)"/><path class="cls-27" d="M1512.17,1165.76a4.45,4.45,0,0,1-3.6-1.83,4.58,4.58,0,0,1,.91-6.35c4.66-3.52,9.22-7.3,13.56-11.24a4.45,4.45,0,0,1,6.34.35,4.59,4.59,0,0,1-.34,6.41c-4.55,4.12-9.32,8.08-14.2,11.76A4.45,4.45,0,0,1,1512.17,1165.76Z" transform="translate(-296 -200)"/><path class="cls-28" d="M1422.15,1203.64a4.54,4.54,0,0,1-.65-9,194.19,194.19,0,0,0,35.54-8.89,4.46,4.46,0,0,1,5.71,2.78,4.56,4.56,0,0,1-2.75,5.79,202.53,202.53,0,0,1-37.18,9.3A4.91,4.91,0,0,1,1422.15,1203.64Zm-60.68-.38a4.37,4.37,0,0,1-.72-.06,203.08,203.08,0,0,1-37.06-9.73,4.55,4.55,0,0,1-2.69-5.81,4.45,4.45,0,0,1,5.74-2.72,195.5,195.5,0,0,0,35.44,9.3,4.54,4.54,0,0,1-.71,9Zm-89.54-39a4.43,4.43,0,0,1-2.72-.93,203.93,203.93,0,0,1-28.1-26.3,4.57,4.57,0,0,1,.35-6.4,4.45,4.45,0,0,1,6.34.35,194.91,194.91,0,0,0,26.86,25.14,4.57,4.57,0,0,1,.84,6.36A4.45,4.45,0,0,1,1271.93,1164.31Zm-60.54-77.23a4.48,4.48,0,0,1-4.09-2.67q-2-4.44-3.76-9a210.84,210.84,0,0,1-8.66-27.66,4.53,4.53,0,0,1,3.31-5.47,4.48,4.48,0,0,1,5.41,3.34,200.91,200.91,0,0,0,8.28,26.45c1.14,2.92,2.34,5.78,3.6,8.61a4.55,4.55,0,0,1-2.25,6A4.3,4.3,0,0,1,1211.39,1087.08Z" transform="translate(-296 -200)"/><path class="cls-29" d="M1194.21,989.79l-.33,0a4.51,4.51,0,0,1-4.15-4.85c.44-6.15,1.16-12.35,2.14-18.43a4.46,4.46,0,0,1,5.15-3.75,4.54,4.54,0,0,1,3.7,5.21c-.94,5.82-1.63,11.74-2,17.62A4.51,4.51,0,0,1,1194.21,989.79Z" transform="translate(-296 -200)"/><path class="cls-30" d="M1272.93,843.1a4.47,4.47,0,0,1-3.59-1.81,4.59,4.59,0,0,1,.88-6.36c4.88-3.72,10-7.24,15.13-10.48a4.45,4.45,0,0,1,6.18,1.46,4.58,4.58,0,0,1-1.45,6.25c-4.93,3.1-9.8,6.47-14.46,10A4.48,4.48,0,0,1,1272.93,843.1Z" transform="translate(-296 -200)"/><path class="cls-31" d="M1588.86,967.14a4.49,4.49,0,0,1-4.4-3.7,200.5,200.5,0,0,0-9.87-35,4.55,4.55,0,0,1,2.56-5.87,4.46,4.46,0,0,1,5.8,2.59,209.43,209.43,0,0,1,10.32,36.65,4.52,4.52,0,0,1-3.58,5.29A4,4,0,0,1,1588.86,967.14Zm-39.68-88.3a4.44,4.44,0,0,1-3.52-1.72,196.54,196.54,0,0,0-24.85-26.33,4.58,4.58,0,0,1-.45-6.4,4.45,4.45,0,0,1,6.33-.45,204.69,204.69,0,0,1,26,27.54,4.58,4.58,0,0,1-.73,6.38A4.45,4.45,0,0,1,1549.18,878.84Zm-75.85-59.27a4.34,4.34,0,0,1-1.81-.39,195.43,195.43,0,0,0-34.13-11.57,4.53,4.53,0,0,1,2-8.83,202.3,202.3,0,0,1,35.7,12.1,4.56,4.56,0,0,1,2.3,6A4.49,4.49,0,0,1,1473.33,819.57ZM1342.59,809a4.5,4.5,0,0,1-4.34-3.39,4.55,4.55,0,0,1,3.2-5.54,200.93,200.93,0,0,1,37.15-6.23,4.47,4.47,0,0,1,4.79,4.2,4.52,4.52,0,0,1-4.15,4.85,193.55,193.55,0,0,0-35.51,6A4.08,4.08,0,0,1,1342.59,809Z" transform="translate(-296 -200)"/><path class="cls-32" d="M1588,1045.62a4.88,4.88,0,0,1-.93-.09,4.53,4.53,0,0,1-3.46-5.38c1.2-5.78,2.16-11.66,2.85-17.5a4.48,4.48,0,1,1,8.9,1.07c-.72,6.11-1.72,12.27-3,18.31A4.49,4.49,0,0,1,1588,1045.62Z" transform="translate(-296 -200)"/><path class="cls-8" d="M1392.15,1096.73a94.91,94.91,0,0,1-58.6-20.27,97.18,97.18,0,0,1-36.8-64.73,100.36,100.36,0,0,1-.82-12.8,97.59,97.59,0,0,1,20-59.31,95.64,95.64,0,0,1,135.19-17.81,97.21,97.21,0,0,1,36.79,64.74,98.66,98.66,0,0,1,.6,19.27c0,.5-.07,1-.11,1.49l-13.41-1.13q.29-3.45.29-6.93a87.12,87.12,0,0,0-.71-10.94h0a85.25,85.25,0,0,0-1.82-9.76.14.14,0,0,1,0-.06h0a.29.29,0,0,1,0-.09h0a83.44,83.44,0,0,0-29.8-45.79,82.28,82.28,0,0,0-116.32,15.33,84,84,0,0,0-17.23,51,86.93,86.93,0,0,0,.7,11,83.67,83.67,0,0,0,31.66,55.7,82.2,82.2,0,0,0,102-.63l8.35,10.67a95.92,95.92,0,0,1-60,21Z" transform="translate(-296 -200)"/><path class="cls-33" d="M2691.14,1290.33c-.4-5-5.4-9.25-13.87-12.69,9.21-5.14,14.3-10.64,13.87-16-1.3-16.35-52.43-25.51-114.21-20.47s-110.79,22.38-109.49,38.72c.4,5,5.4,9.25,13.87,12.69-9.2,5.14-14.3,10.65-13.87,16,.4,5,5.4,9.24,13.87,12.68-9.2,5.14-14.3,10.65-13.87,16,.4,5,5.4,9.25,13.87,12.69-9.2,5.14-14.3,10.64-13.87,16,.58,7.23,10.91,13,27.59,16.86a147.85,147.85,0,0,0,.43,17.66c2.41,30.12,35.88,53.73,80.14,53.73s82.57-32.19,83-62.41a155.87,155.87,0,0,0-.87-19.71c21.18-7.16,34.07-15.9,33.4-24.38-.4-5-5.4-9.25-13.87-12.69,9.21-5.14,14.3-10.65,13.87-16-.4-5-5.4-9.24-13.87-12.68C2686.48,1301.24,2691.57,1295.73,2691.14,1290.33Z" transform="translate(-296 -200)"/><path class="cls-34" d="M2548.35,1389.42c-18.34,0-35.13-1.37-49-4.06a1.5,1.5,0,0,1,.56-2.95c21.7,4.21,50.69,5.14,81.62,2.61,25.31-2.07,49-6.2,68.45-12a1.48,1.48,0,0,1,1.84,1,1.5,1.5,0,0,1-1,1.86c-19.66,5.81-43.53,10-69,12.06C2570.28,1389,2559.05,1389.42,2548.35,1389.42Z" transform="translate(-296 -200)"/><path class="cls-35" d="M2548.66,1360.66c-23.84,0-45.14-2.27-60.16-6.6a1.5,1.5,0,0,1-1-1.86,1.47,1.47,0,0,1,1.83-1c21.41,6.17,55.88,8.08,92.22,5.12,35.94-2.94,69.46-10.32,89.67-19.75a1.47,1.47,0,0,1,2,.73,1.51,1.51,0,0,1-.72,2c-20.51,9.57-54.4,17-90.67,20C2570.45,1360.2,2559.3,1360.66,2548.66,1360.66Z" transform="translate(-296 -200)"/><path class="cls-36" d="M2548.35,1331.94c-25.73,0-48.25-2.66-63.41-7.72a1.52,1.52,0,0,1-1-1.9,1.49,1.49,0,0,1,1.88-1c21.09,7,56.85,9.35,95.66,6.18,35.94-2.93,69.46-10.31,89.67-19.75a1.48,1.48,0,0,1,2,.74,1.5,1.5,0,0,1-.72,2c-20.51,9.58-54.4,17.06-90.67,20C2570.27,1331.49,2559,1331.94,2548.35,1331.94Z" transform="translate(-296 -200)"/><path class="cls-37" d="M2548.55,1303.2c-20.41,0-39-1.67-53.42-4.92a1.5,1.5,0,0,1,.65-2.93c21.7,4.88,53,6.15,85.75,3.47,35.62-2.91,69-10.21,89.21-19.54a1.47,1.47,0,0,1,2,.75,1.52,1.52,0,0,1-.73,2c-20.54,9.46-54.26,16.86-90.2,19.79C2570.41,1302.74,2559.23,1303.2,2548.55,1303.2Z" transform="translate(-296 -200)"/><path class="cls-8" d="M2426,1145.29a212.17,212.17,0,0,0-37.41-73.93c-36.77-46.91-96.76-142.32-104.15-272.54-10.74-189.4,155.21-284.22,306.64-271.35s300.86,127,284.5,303.21c-10.06,108.41-70,190.65-114.65,237.88a251.78,251.78,0,0,0-59.51,106.71c-13.39,49-45.27,110-121,113.69C2482.32,1293.77,2441.6,1201.26,2426,1145.29Z" transform="translate(-296 -200)"/><path class="cls-38" d="M2605.41,1251.19l53-348.84c1.1-7.21,4.6-12.05,7.83-10.81s5,8.08,3.86,15.29l-.1.62L2609.62,1253c-.45,2.6-1.75,4.24-2.91,3.67S2605,1253.7,2605.41,1251.19Z" transform="translate(-296 -200)"/><path class="cls-39" d="M2550.4,1254l-53-348.84c-1.1-7.21-4.6-12-7.83-10.81s-5,8.08-3.86,15.29l.1.62,60.36,345.59c.45,2.6,1.75,4.24,2.91,3.67S2550.78,1256.47,2550.4,1254Z" transform="translate(-296 -200)"/><path class="cls-40" d="M2658,872.4a5.51,5.51,0,0,0-7-1.83l-29.51,14L2611.31,855a6.32,6.32,0,0,0-3.59-3.66c-3.39-1.41-7.45-.15-9.06,2.83l0,.1L2574.34,899l-22.51-63.75,0-.1a7.2,7.2,0,0,0-3.41-3.89,8.75,8.75,0,0,0-11.14,2.22l-33.92,47.26a4.18,4.18,0,0,0,1.2,6,5.64,5.64,0,0,0,7.21-.79l29.87-33.73,26.89,60.64,0,0a4.77,4.77,0,0,0,2.36,2.35,5.58,5.58,0,0,0,7-1.84l26-42.15,9.77,21.32.08.19a5.05,5.05,0,0,0,.25.45,5.51,5.51,0,0,0,6.95,1.83l35-16.57A4.24,4.24,0,0,0,2658,872.4Z" transform="translate(-296 -200)"/><path class="cls-41" d="M2762.06,1023.59a6.61,6.61,0,0,1-4-1.35,6.85,6.85,0,0,1-1.39-9.52,397.26,397.26,0,0,0,24.58-37.79,6.68,6.68,0,0,1,9.18-2.49,6.86,6.86,0,0,1,2.47,9.3,411.21,411.21,0,0,1-25.43,39.1A6.69,6.69,0,0,1,2762.06,1023.59Z" transform="translate(-296 -200)"/><path class="cls-42" d="M2805.65,947.86a6.67,6.67,0,0,1-2.67-.56,6.84,6.84,0,0,1-3.49-9c56-130.52,7.7-240.07,7.21-241.16a6.83,6.83,0,0,1,3.31-9,6.68,6.68,0,0,1,8.91,3.35c2.12,4.68,51.26,116.22-7.09,252.26A6.73,6.73,0,0,1,2805.65,947.86Z" transform="translate(-296 -200)"/><path class="cls-43" d="M2167.16,2777s-4.65,25.26-7,50.29a17.19,17.19,0,0,0,16.13,18.86c32.94,1.71,103.42,5.09,128.72,4.19a5.62,5.62,0,0,0,5-7.65h0a12.54,12.54,0,0,0-6.29-6.83l-115.94-55.3Z" transform="translate(-296 -200)"/><path class="cls-44" d="M2163.68,2762.13l3.27,30.31s20.31,9.81,34.34-.88l-8.13-33.82Z" transform="translate(-296 -200)"/><path class="cls-45" d="M2171.71,2193.08c-1.6,7.89-11.94,394.39,27.25,568a5.9,5.9,0,0,1-3.47,6.81,100.15,100.15,0,0,1-33.31,6.52,10,10,0,0,1-9.86-7.37c-11.29-40.3-65.3-242.22-70.79-434.65-6.12-215,.07-7.32.07-7.32l6-132.83Z" transform="translate(-296 -200)"/><path class="cls-46" d="M2033.09,2789s-7.15,12.7-14.28,46.59a10.51,10.51,0,0,0,9,12.69c10.88,1.19,27.62,2.75,41,2.78a10.46,10.46,0,0,0,10.38-11.61c-1.37-12.4-5.81-32.78-20-48.76Z" transform="translate(-296 -200)"/><path class="cls-47" d="M2027.28,2750l7.86,45.86s8.14,6.25,24.39,1.93l-3.49-49.29Z" transform="translate(-296 -200)"/><path class="cls-48" d="M2010,2203.38c-35.31,203.63,2.49,504.16,15.64,563a9.11,9.11,0,0,0,7.24,7c6.11,1.09,16.17,2,26.13-.8a8.36,8.36,0,0,0,6-7.68c2.29-47.47,1.73-339.06,33.92-454a26.15,26.15,0,0,1,10.11-14.34l60.79-42.87,5.29-70.19Z" transform="translate(-296 -200)"/><path class="cls-5" d="M2226.41,1819c-100-2.64-210.7,24.56-210.7,24.56-31.48,175.86-8.79,379.27-8.79,379.27,77.27,21.31,165-11,165-11,13.56-73.5,75.58-280.13,75.58-280.13,48.95-5.67,89.35-19.55,122.69-38.11-25-29.92-36.58-67.81-41.55-90.18C2293.12,1814.21,2257.27,1819.8,2226.41,1819Z" transform="translate(-296 -200)"/><path class="cls-49" d="M2523.36,1672.67c-9.72-12.11-22.21-6.55-22.21-6.55-15.32,62.82-93,113.12-172.55,137.3,5,22.37,16.54,60.26,41.55,90.18C2502.49,1820,2523.36,1672.67,2523.36,1672.67Z" transform="translate(-296 -200)"/><path class="cls-50" d="M2520.94,1675.7c1,3.32-11,8.25-17.84-5.36-.19-6.49-3.82-34.31.06-39.56,20.66-28,60.53-62.85,60.53-62.85,6.62,6.74,1,13.24,1,13.24l-19.37,20c3.94,7.37,8.78,13.62,11,22.52a27.51,27.51,0,0,1-2.87,20c-3.42,6.11-8.09,14-12.49,20.25C2532.66,1675.73,2520.94,1675.7,2520.94,1675.7Z" transform="translate(-296 -200)"/><path class="cls-51" d="M2536.86,1614.26l-17.62,14.83-5.63,14.88,15.42,17.65s5.52-29.58,9.47-35.95S2540.47,1616.17,2536.86,1614.26Z" transform="translate(-296 -200)"/><path class="cls-5" d="M2053.16,1942l-37.45-98.43s-94.06,63.37-110.2,144.72c17.65,1.48,49.74,6.44,81,22.82C1993.82,1972.68,2053.16,1942,2053.16,1942Z" transform="translate(-296 -200)"/><path class="cls-52" d="M2134,2035.05s-105.49,59-140.41,7.41c-7.25-10.71-8.91-21.3-7-31.37-31.3-16.38-63.39-21.34-81-22.82-4.86,24.52-2.66,50.67,11.36,77.22,60.93,115.43,230.73-4.12,230.73-4.12Z" transform="translate(-296 -200)"/><path class="cls-53" d="M2125.84,1735.79l-32.71,92.88a3.38,3.38,0,0,0,1.47,4.06c8.63,4.94,39.77,19.28,77.67-4.53a15.83,15.83,0,0,0,7.3-11.23l11.07-80.55Z" transform="translate(-296 -200)"/><path class="cls-54" d="M2195.92,1650.16s34.34,66.95,29.6,93.81-48,24.52-85.67,2.3l-25.76-72.18Z" transform="translate(-296 -200)"/><path class="cls-55" d="M2141.86,1711a2.75,2.75,0,0,0,1.22-4c-2.76-4.36-7.93-13.25-9.53-21,0,0-6.25-4.13,16.08-9.32s55.64-13.24,62.8-32.36c7-18.66-10.46-65.89-39.35-28.67a2.69,2.69,0,0,1-4.3,0c-4.62-6.21-16.8-19.12-34-11.53-16,7.1-18,18.94-17.8,24.92a2.7,2.7,0,0,1-3.22,2.76c-8.07-1.64-27.45-3.16-36.69,16.88-7.61,16.52-2.85,25.95,1.52,30.59a2.75,2.75,0,0,1-1.2,4.53c-5.33,1.59-12.23,6.09-11.66,18.69.78,17.42,20,16.07,25.51,15.33a2.71,2.71,0,0,1,2.4.88c4.65,5.31,25.59,27.84,48.46,30.75a2.76,2.76,0,0,0,2.9-3.63l-9.63-29.25a2.76,2.76,0,0,1,1.5-3.4Z" transform="translate(-296 -200)"/><path class="cls-56" d="M2145.8,1715.14s-24.73-17.53-26.68-3,22.21,21.31,34.27,16Z" transform="translate(-296 -200)"/><path class="cls-57" d="M2112.4,2128.31l57.47-203.14a5.87,5.87,0,0,1,5-4.26c10.41-1.23,40.58-4.69,75.41-7.67,42-3.59,90.69-6.5,119.81-4,4.14.35,5.86,12.61,4.8,8.55-144.6-551.48-311.37-864.67-118.78,217,.33,1.85-2.87,2.37-4.73,2.35L2118,2135.89A5.94,5.94,0,0,1,2112.4,2128.31Z" transform="translate(-296 -200)"/><path class="cls-58" d="M2126.29,2079.23s-8-33.32-4.78-45.14,9.49-27,30.34-23.64,45.45,12.27,45.45,12.27-1.24,15.4-17.09,10.43l9.83,7.7s-1.4,12.32-14.79,5.74l9.14,10.21s-5.75,10.12-15.6,3.63S2154.22,2083.24,2126.29,2079.23Z" transform="translate(-296 -200)"/><path class="cls-59" d="M2246.4,1973.88a16.87,16.87,0,1,0,16.87-17.07A17,17,0,0,0,2246.4,1973.88Z" transform="translate(-296 -200)"/><path class="cls-60" d="M2176.37,1985.14l-4.3-1.29,11.7-40.17a18.17,18.17,0,0,1,13.62-12.82c37.08-7.84,134.75-9.44,138.89-9.5l.07,4.54c-1,0-101.38,1.65-138,9.4a13.68,13.68,0,0,0-10.23,9.67Z" transform="translate(-296 -200)"/><path class="cls-61" d="M1496.27,2553.63c-6.12,9.17-30.47,216.91-34.28,293.64a9,9,0,0,0,9,9.51h0a9,9,0,0,0,8.87-7.69l44.53-288.85Z" transform="translate(-296 -200)"/><path class="cls-62" d="M1692,2553.63c6.12,9.17,30.47,216.91,34.28,293.64a9,9,0,0,1-9,9.51h0a9,9,0,0,1-8.88-7.69l-44.53-288.85Z" transform="translate(-296 -200)"/><path class="cls-63" d="M1459.45,2537.41l0,2.27c-.15,16.3,13.72,29.67,31.09,30l205.83,3.55c17.12.29,31.39-12.23,32.22-28.27l.1-2.08c.87-16.73-13.17-30.83-31-31.15L1491.73,2508C1474.11,2507.63,1459.6,2520.88,1459.45,2537.41Z" transform="translate(-296 -200)"/><path class="cls-64" d="M1893,2839.72c-36.59,0-52.78-3.18-60-6.07a13.92,13.92,0,0,0,13.52,10.88H1976a6.36,6.36,0,0,0,6.07-8.05C1967.3,2837.68,1936,2839.72,1893,2839.72Z" transform="translate(-296 -200)"/><path class="cls-65" d="M1982.05,2836.48a6.25,6.25,0,0,0-1.06-2.23c-9.86-12.74-29.66-32.75-56.61-32.37-39.47.56-53.23,4.9-83.9.25l-7.24,24.27a14.1,14.1,0,0,0-.22,7.25c7.24,2.89,23.43,6.07,60,6.07C1936,2839.72,1967.3,2837.68,1982.05,2836.48Z" transform="translate(-296 -200)"/><path class="cls-66" d="M1849.36,2776l-8.88,30.58s19.67,9.07,37,1.79l3.4-26.49Z" transform="translate(-296 -200)"/><path class="cls-64" d="M2117.64,2820.46c-28.52,23.2-43.1,31-50.52,33.34a13.72,13.72,0,0,0,17.24-.13l100.9-82.06a6.39,6.39,0,0,0-.22-10.09C2174.28,2771.8,2151.1,2793.25,2117.64,2820.46Z" transform="translate(-296 -200)"/><path class="cls-67" d="M2185,2761.52a6,6,0,0,0-2.2-1.06c-15.53-3.64-43.3-6.61-64.07,10.77-30.42,25.47-38.48,37.55-65.25,53.39l9.31,23.42a13.74,13.74,0,0,0,4.29,5.76c7.42-2.34,22-10.14,50.52-33.34C2151.1,2793.25,2174.28,2771.8,2185,2761.52Z" transform="translate(-296 -200)"/><path class="cls-68" d="M1659.35,2427.58s219.06,18.1,264,39.52-36.67,321.53-36.67,321.53-12.24,6-39.46-2.61c0,0,27.92-221.47,7.14-269.5l-237.18-39.27Z" transform="translate(-296 -200)"/><path class="cls-69" d="M2031.75,2782.46c2,1.88,21.77,42.16,21.77,42.16s22-4.81,26.44-18.88l-19.76-36.36Z" transform="translate(-296 -200)"/><path class="cls-70" d="M1527.41,2425.72a113.53,113.53,0,0,0-6.85,40.5,60.46,60.46,0,0,0,57.32,59.47l259,12a12.45,12.45,0,0,1,11.47,9.45c6.09,23.82,35.83,97,181.23,243a11.63,11.63,0,0,0,14.5,1.6l20.7-13.24a4.85,4.85,0,0,0,1.57-6.51L1915.53,2511.3a58.4,58.4,0,0,0-35.46-26.61l-220.72-57.11Z" transform="translate(-296 -200)"/><path class="cls-71" d="M1782.62,2018.59s-27.74,49.65-56,73.7l58.47,33s13.17-52.56,43.27-67.95Z" transform="translate(-296 -200)"/><path class="cls-72" d="M1522.71,2427.58s69.91,17.24,136.64,0c0,0,93.37-127.06,129.5-161.64,0,0,57.62,92,185.88,105.08l7.15-16.18s-102.1-47.64-133.54-120.85-44.06-104.43-72.65-123.53c-17.81-11.89-28.48-20-34-24.46a9,9,0,0,0-10.47-.67C1700.88,2104.05,1558.07,2203.05,1522.71,2427.58Z" transform="translate(-296 -200)"/><path class="cls-73" d="M1785.06,2264.15a4.44,4.44,0,0,1-3.56-1.78c-22.26-29.38-34.66-61.77-35.18-63.14a4.55,4.55,0,0,1,2.58-5.86,4.46,4.46,0,0,1,5.79,2.61c.12.32,12.48,32.56,33.93,60.87a4.58,4.58,0,0,1-.83,6.36A4.47,4.47,0,0,1,1785.06,2264.15Z" transform="translate(-296 -200)"/><path class="cls-74" d="M1967,2346.39l14.43-3.9,43.84-10.27a20.08,20.08,0,0,1,15.4,2.63l37.69,24-104.08-.18Z" transform="translate(-296 -200)"/><path class="cls-75" d="M1826.67,1944.14s27,45.37,31.64,70.44,12.18,40.75-16,49.68-54.39-2.37-70.83-25.78c0,0-25.68-36-23.12-52.51S1826.67,1944.14,1826.67,1944.14Z" transform="translate(-296 -200)"/><path class="cls-76" d="M1779,2019.08l3.65-.49s-19.09-29.2-6.6-36.44,63.4-25,72.24-45.31c8.52-19.56-4.23-41.67-19.6-46.28a2,2,0,0,0-2.35,1.26l-.9,2.46a2,2,0,0,1-3.67.11h0a2,2,0,0,0-3.58-.08c-2.72,6.08-10.89,16.46-35.37,24.5-34.73,11.4-56.37,29.12-53.71,54.1a2,2,0,0,1-2.82,2c-2.84-1.27-7.15-1.47-12.14,4.07-8.7,9.62-1.89,30.67,21.85,45.57a2,2,0,0,1,.32,3.19c-3.55,3.08-8.54,9.94,7.52,16.06,16.43,6.26,25.4,4.14,28.71,2.79a2,2,0,0,0,1.22-2.25l-4.22-21.89a2,2,0,0,1,1.68-2.36Z" transform="translate(-296 -200)"/><path class="cls-77" d="M1780.47,2023.58s-11.9-29.69-24.39-19.26,11.55,33.51,22.64,33.2Z" transform="translate(-296 -200)"/><path class="cls-78" d="M1926.81,2379.52h.51l222.35-.22a10.06,10.06,0,0,0,0-20.11l-222.35.22a10.06,10.06,0,0,0-.48,20.1Z" transform="translate(-296 -200)"/><path class="cls-79" d="M2235.77,2159.11l-.22.46L2142,2363.75a10.11,10.11,0,0,0,4.83,13.36,9.84,9.84,0,0,0,13.2-4.91L2253.57,2168a10.11,10.11,0,0,0-4.82-13.37A9.9,9.9,0,0,0,2235.77,2159.11Z" transform="translate(-296 -200)"/><rect class="cls-80" x="2498.55" y="2384.71" width="23.47" height="256.89"/><path class="cls-81" d="M2909.05,2846.55H2703.51a15.37,15.37,0,0,1,15.28-15.46h175a15.37,15.37,0,0,1,15.27,15.46Z" transform="translate(-296 -200)"/><path class="cls-82" d="M2939.56,2575.79a25.47,25.47,0,0,1-25.24,25.55h-208a25.47,25.47,0,0,1-25.23-25.55V2552.7a25.47,25.47,0,0,1,25.23-25.55h208a25.47,25.47,0,0,1,25.24,25.55Z" transform="translate(-296 -200)"/><path class="cls-83" d="M2633,2413.42s-34.87,5.48-74.08,32a19.86,19.86,0,0,0-8.62,18.9c4.69,37.64,24,159.48,87.65,278.48a30.31,30.31,0,0,1,2.84,20.55l-11.06,52.1-20.51,19.46h52.82l35.18-96.34-15-4.82a28.76,28.76,0,0,1-19.88-27l-1.76-103.35c1.5-46-27.89-77.81-27.89-77.81l84.36-4.16Z" transform="translate(-296 -200)"/><path class="cls-84" d="M2588.62,2844.32c-4.81,6.37,51.78,14.78,80.37.84,0,0,39.63-69.79,39.63-105.73,0,0-3.14-7.33-26.41-5.67,0,0-13.31,82.65-27.36,91.9s-39.31.94-39.31.94S2595.72,2834.92,2588.62,2844.32Z" transform="translate(-296 -200)"/><path class="cls-85" d="M2706.36,2527.15c-.44-.79-90.82-11-90.82-11s2.95,27.82-6.29,66.11-141.94,204.18-141.94,204.18l13.91,44.65c-43,15.17-85.33,17.59-127,7.73l86.23-52.38s80.7-278.36,130.13-328l90.59-31.73Z" transform="translate(-296 -200)"/><path class="cls-8" d="M2909.05,2365.18s52.07,78.39,56.34,114.15-14.26,50.3-68.89,52.69-200.5,2.36-200.5,2.36l-124.48-107.69s90.72-32.77,114.3-42S2909.05,2365.18,2909.05,2365.18Z" transform="translate(-296 -200)"/><path class="cls-86" d="M2476,2816.05s15,14.69,4.86,31c0,0-118.66,21.29-150.88,11.63,0,0,6.69-15.46,43-33.05l-2.68,2.08a4.39,4.39,0,0,0,2.86,7.87C2397,2834.23,2446.48,2829.8,2476,2816.05Z" transform="translate(-296 -200)"/><path class="cls-87" d="M2683.5,1868c106.44-18.31,156.55,69.56,152.89,88a3.36,3.36,0,0,0,4.18,3.88c12.22-3.33,39.21-7.53,55.95,13.69,14.77,18.74,3.73,36.43-5.27,46.14a3.39,3.39,0,0,0,2.8,5.74c22.47-2.87,71.29-3.56,79.28,42.74,7.45,43.17-22.24,55.34-39.84,58.77a3.4,3.4,0,0,0-1.12,6.19c8.79,5.64,19,17.29,14.85,40.29-6.45,36.05-76.27,33.1-84.43,32.63a3.27,3.27,0,0,1-1.45-.44l-111.84-64.56a3.46,3.46,0,0,1-1.65-2.38l-22.57-132a3.4,3.4,0,0,1,.89-2.94l-72.91-104.14C2626.79,1895.7,2682.24,1868.22,2683.5,1868Z" transform="translate(-296 -200)"/><path class="cls-8" d="M2768.23,2354.8s-60.64-58.44-90.49-97.15a82.93,82.93,0,0,1-13.73-73.92c13.62-46.48,37.84-94.61,40-102.1,3.38-11.48,71.37-11,71.37-11s133.79,87.89,186.36,236.77l-59,18.61s-34.94-59.33-69.45-97c0,0,59.72,79.86,61.82,112.55Z" transform="translate(-296 -200)"/><path class="cls-88" d="M2695.84,2017.46c.71,2.38,18.45,61.93,19.84,63.17s38.92,3.28,56.58-8.94l-43.82-86.76Z" transform="translate(-296 -200)"/><path class="cls-89" d="M2624.7,1940.94s-8.58,34.11,15.15,80,50.58,45.83,65.27,31.14,32.79-39.6,28.49-84S2637.08,1897.54,2624.7,1940.94Z" transform="translate(-296 -200)"/><path class="cls-90" d="M2700.79,1970.53s-39.37-60.92-76.29-13l-.67,17.43s-43.23-5.19-35.67-45.32,44.94-65.22,93.06-47.83,75.69,35.21,78.8,70.11-24.33,27.26-24.33,27.26-9-24.58-21.67-27.14-9.42,16.61-9.42,16.61Z" transform="translate(-296 -200)"/><path class="cls-91" d="M2717.55,1983.66s-20.42-31.19.5-35.84,17.68,30.39,15.42,43.36Z" transform="translate(-296 -200)"/><path class="cls-92" d="M2644.7,2359.14l44.55-43.47,61.63,26.36s61.35,9.62,96.46,0l35.11-9.62,79.34-25,12.46,35.65a21.6,21.6,0,0,1-7.74,24.66c-6.87,4.94-14.91,10.36-20,12.64-10.45,4.62-257.58-3.21-257.58-3.21Z" transform="translate(-296 -200)"/><path class="cls-93" d="M2813.29,2379.63a5.76,5.76,0,0,1-.59,0l-258.43-.28a11.71,11.71,0,0,1,0-23.42l258.44.29a11.71,11.71,0,0,1,.56,23.4Z" transform="translate(-296 -200)"/><path class="cls-94" d="M2322,2142.12h215.22a41,41,0,0,1,37.1,23.81l99.5,213.56H2406.3a24.93,24.93,0,0,1-23.18-16L2306,2165.91A17.38,17.38,0,0,1,2322,2142.12Z" transform="translate(-296 -200)"/><path class="cls-5" d="M2473.57,2251.62c4.67,14.67,1.22,28.91-7.69,31.82s-19.92-6.64-24.59-21.3-1.22-28.91,7.7-31.82S2468.91,2237,2473.57,2251.62Z" transform="translate(-296 -200)"/><path class="cls-95" d="M3107.93,2814.17a322.26,322.26,0,0,1,3.78,33.35,14.3,14.3,0,0,1-12.78,15.15c-26.46,2.6-86.67,7.4-125.11,1.78a6.55,6.55,0,0,1-3.55-11.24c15.85-14.95,54.14-44,117.15-50.39Z" transform="translate(-296 -200)"/><path class="cls-96" d="M3121.08,2779.81,3107.7,2813a10.9,10.9,0,0,1-11.21,6.86,58.37,58.37,0,0,1-10.93-2.14,14.57,14.57,0,0,1-9.54-18.07l10.09-34.17Z" transform="translate(-296 -200)"/><path class="cls-97" d="M3349.73,2840.6s-26.78,22.68-37.21,51.78a12.34,12.34,0,0,0,11.6,16.43h55.11a13.12,13.12,0,0,0,12.85-15.39C3388.57,2873.33,3378.45,2840.68,3349.73,2840.6Z" transform="translate(-296 -200)"/><path class="cls-98" d="M3382.91,2811.08s-5.41,24.24-9.57,40.26a5.06,5.06,0,0,1-6.62,3.49c-8.34-3-15.12-4.36-20.06-3.69a3.92,3.92,0,0,1-4.3-3.94l-.52-40.25Z" transform="translate(-296 -200)"/><path class="cls-99" d="M3240.47,2265.72l-162.89,503s31.24,20.71,46.13,19.85l193.48-404.27s33.86,249.1,17.45,427.93l55.42,4.28s90.12-457,21.86-613.53Z" transform="translate(-296 -200)"/><path class="cls-100" d="M3316.14,2380l.2,0a1.58,1.58,0,0,0,1.37-1.78l-6.32-50.79a1.58,1.58,0,1,0-3.13.4l6.32,50.79A1.58,1.58,0,0,0,3316.14,2380Z" transform="translate(-296 -200)"/><path class="cls-5" d="M3209.93,1823.08s132,11.86,113.31,107.05c0,0,73,139,107.06,302.67a9.61,9.61,0,0,1-7.71,11.44l-219.79,38.09a11.83,11.83,0,0,1-13.45-8.8l-52.52-205.44-20.46,95.52-65-17.15,54.74-280.67S3113.72,1824.84,3209.93,1823.08Z" transform="translate(-296 -200)"/><path class="cls-64" d="M3135.72,2058.9a1.45,1.45,0,0,0,.35,0,1.65,1.65,0,0,0,1.25-2L3119,1971.74a1.64,1.64,0,1,0-3.2.71l18.32,85.15A1.64,1.64,0,0,0,3135.72,2058.9Z" transform="translate(-296 -200)"/><path class="cls-101" d="M3149,2312.29a31.08,31.08,0,0,1,22.7-3l15.29,3.85a5.55,5.55,0,0,0,6.85-4.81l15.82-142.57c19.79,9.51,48.33,8.37,57.75,7.67L3231,2341.52H3103.51Z" transform="translate(-296 -200)"/><path class="cls-102" d="M2810.34,2003l3.85-13a25.52,25.52,0,0,1,14.81-16.4l69.67-28.36s1-9-14.72-15.19-12.09-24-12.09-24,21.55,10,53.1,25.73c18,9,28.16,25,33.53,37l157.88,194.83-18.53,12.89a49.17,49.17,0,0,1-71.75-17.83l-85.53-166C2897.61,2005.72,2854.16,2008.22,2810.34,2003Z" transform="translate(-296 -200)"/><path class="cls-103" d="M3167.18,1732.19l40.59,115s-35.94,28.44-62.17,18.83l-20.46-65.92S3140.76,1719.53,3167.18,1732.19Z" transform="translate(-296 -200)"/><path class="cls-104" d="M3046,1690.89c0,1.78,39.1,112,39.1,112l61.73-23.94-21.72-110.09S3046,1661.23,3046,1690.89Z" transform="translate(-296 -200)"/><path class="cls-105" d="M3114.31,1695.73l15.92,57a8.39,8.39,0,0,1,.31,2.23c0,4.65-1.13,20.66-17.24,18.48-14.62-2-28-3.56-36.5.5a8.3,8.3,0,0,0-4.21,10.28c3.55,10,12,32.45,22.23,50.8a8.11,8.11,0,0,0,10.49,3.4c11.6-5.34,35.74-17.29,52.93-31.51a8.35,8.35,0,0,0,2.9-8c-2.71-14.6-10.77-59-11.12-71.7-.34-11.94,12.9-21,18.73-24.48a8.08,8.08,0,0,0,3.78-5.15c1.83-7.68,3.38-25.07-18.53-28.91a8.28,8.28,0,0,1-6.65-9.86c1.86-9.19,1.26-22.71-16-27.7-17.52-5.06-28.55,5.62-34.16,13.81a8.13,8.13,0,0,1-10.14,2.74c-2.07-.94-4.57-1-7.26,1.31a8,8,0,0,1-11.78-1.81c-5.11-7.62-14.4-15.22-30.11-10.07-27.89,9.14-26.56,41.68-16.34,59.38s39.91,6,54-5.68c10.68-8.91,26.95-3.58,34.13-.51A8.17,8.17,0,0,1,3114.31,1695.73Z" transform="translate(-296 -200)"/><path class="cls-106" d="M3155.61,1748.14s-16.51-31.61-5.59-41.53,29.41-8.3,28.91,16.41C3178.31,1753.76,3155.61,1748.14,3155.61,1748.14Z" transform="translate(-296 -200)"/><path class="cls-64" d="M3254.58,2175.58a155.35,155.35,0,0,0,16.13-.77l1.17-.13,48.06-226.8a1.65,1.65,0,0,0-1.26-2,1.63,1.63,0,0,0-1.94,1.27l-47.56,224.44c-7.15.64-45.34,3.2-65.5-11.25l41.63-197.05-8.69-16.57a1.63,1.63,0,0,0-2.22-.69,1.67,1.67,0,0,0-.67,2.24l8.13,15.51-41.82,198,.83.64C3215.44,2173.49,3238.91,2175.58,3254.58,2175.58Z" transform="translate(-296 -200)"/><path class="cls-64" d="M1813.88,2867.06a7.7,7.7,0,0,1-3.3-.75c-4.25-2-6.21-7.46-4.39-12.16l175.61-451c1.83-4.69,6.75-6.86,11-4.84s6.21,7.46,4.38,12.15l-175.6,451A8.39,8.39,0,0,1,1813.88,2867.06Z" transform="translate(-296 -200)"/><path class="cls-64" d="M2011.71,2867.06a8.4,8.4,0,0,1-7.7-5.6l-175.6-451c-1.83-4.69.13-10.13,4.38-12.15s9.17.15,11,4.84l175.61,451c1.83,4.7-.14,10.14-4.38,12.16A7.74,7.74,0,0,1,2011.71,2867.06Z" transform="translate(-296 -200)"/><path class="cls-64" d="M3005.69,2867.06a7.71,7.71,0,0,1-3.31-.75c-4.25-2-6.21-7.46-4.38-12.16l175.61-451c1.82-4.69,6.74-6.86,11-4.84s6.21,7.46,4.38,12.15l-175.61,451A8.38,8.38,0,0,1,3005.69,2867.06Z" transform="translate(-296 -200)"/><path class="cls-64" d="M3203.51,2867.06a8.38,8.38,0,0,1-7.69-5.6l-175.61-451c-1.83-4.69.14-10.13,4.38-12.15s9.18.15,11,4.84l175.61,451c1.83,4.7-.13,10.14-4.38,12.16A7.71,7.71,0,0,1,3203.51,2867.06Z" transform="translate(-296 -200)"/><path class="cls-107" d="M2980.21,2371.28h254.34v-26.57H2980.21C2985.65,2344.71,2985.65,2371.28,2980.21,2371.28Z" transform="translate(-296 -200)"/><path class="cls-108" d="M3232.56,2371.28a2,2,0,0,0,2-2v-22.55a2,2,0,0,0-2-2H2974.44a2,2,0,0,1-2-2v-2a2,2,0,0,1,2-2h274.67a11.06,11.06,0,0,1,11,11.12v17a10.42,10.42,0,0,1-10.36,10.48h-275.3a2,2,0,0,1-2-2v-2a2,2,0,0,1,2-2Z" transform="translate(-296 -200)"/><path class="cls-64" d="M3271.42,2389.19c.85-3-.31-6-3.18-8.37a18.69,18.69,0,0,0-11.62-3.68h-1524c-5.92,0-11.43,2-14.61,5.38s-3.62,7.55-1.14,11.16l16.52,24c3.78,5.49,12,9,21,9H3246.16c8.39,0,15.6-4,17.19-9.52Z" transform="translate(-296 -200)"/><ellipse class="cls-109" cx="1454.52" cy="1150.05" rx="154.72" ry="155.82"/><path class="cls-2" d="M1798.54,1291.1a10.72,10.72,0,1,0,10.64,10.72A10.68,10.68,0,0,0,1798.54,1291.1Z" transform="translate(-296 -200)"/><path class="cls-2" d="M1751.26,1304.84a45,45,0,1,0,44.68,45A44.88,44.88,0,0,0,1751.26,1304.84Zm0,73.81a28.82,28.82,0,1,1,28.62-28.82A28.75,28.75,0,0,1,1751.26,1378.65Z" transform="translate(-296 -200)"/><path class="cls-2" d="M1786.73,1441.18H1714.3c-30,0-54.49-24.61-54.49-54.87v-73c0-30.26,24.45-54.88,54.49-54.88h72.43c30,0,54.49,24.62,54.49,54.88v73C1841.22,1416.57,1816.77,1441.18,1786.73,1441.18Zm-72.43-165.51a37.6,37.6,0,0,0-37.42,37.69v73A37.6,37.6,0,0,0,1714.3,1424h72.43a37.6,37.6,0,0,0,37.42-37.69v-73a37.6,37.6,0,0,0-37.42-37.69Z" transform="translate(-296 -200)"/><path class="cls-110" d="M2781.54,1454.73a110.73,110.73,0,1,0-128,109.39v-77.38h-28.12v-32h28.12v-24.4c0-27.75,16.53-43.08,41.82-43.08a170.47,170.47,0,0,1,24.79,2.16v27.25h-14c-13.76,0-18,8.54-18,17.3v20.77h30.71l-4.91,32h-25.8v77.38A110.76,110.76,0,0,0,2781.54,1454.73Z" transform="translate(-296 -200)"/><path class="cls-2" d="M2713.91,1486.74l4.91-32h-30.71V1434c0-8.76,4.29-17.3,18-17.3h14v-27.25a170.47,170.47,0,0,0-24.79-2.16c-25.29,0-41.82,15.33-41.82,43.08v24.4h-28.12v32h28.12v77.38a112.35,112.35,0,0,0,34.6,0v-77.38Z" transform="translate(-296 -200)"/><ellipse class="cls-111" cx="1097.82" cy="798.22" rx="84.14" ry="82.59"/><path class="cls-2" d="M1348.36,1045l7-25.69a46.62,46.62,0,0,1-6.06-22.92c0-26.15,21.68-47.44,48.33-47.44S1446,970.19,1446,996.34s-21.68,47.44-48.33,47.44a49,49,0,0,1-23-5.74Zm27.62-16.54,1.66,1a39.65,39.65,0,0,0,20,5.44c21.61,0,39.19-17.26,39.19-38.48s-17.58-38.47-39.19-38.47-39.2,17.26-39.2,38.47a37.81,37.81,0,0,0,5.73,19.95l1,1.64-3.92,14.34Z" transform="translate(-296 -200)"/><path class="cls-112" d="M1415.63,1002.94c-2-1.17-4.58-2.47-6.92-1.53-1.8.72-3,3.49-4.11,4.9a1.75,1.75,0,0,1-2.23.47,31.2,31.2,0,0,1-15.65-13.15,1.87,1.87,0,0,1,.24-2.58c1.13-1.3,2.54-2.77,2.84-4.53s-.53-3.8-1.27-5.36c-.94-2-2-4.83-4-6a5.59,5.59,0,0,0-6,.88,11.87,11.87,0,0,0-4.22,9.47,13.19,13.19,0,0,0,.38,3,24.54,24.54,0,0,0,2.94,6.65q1.41,2.35,3.06,4.58A47,47,0,0,0,1394,1011.9a40.39,40.39,0,0,0,8.29,3.87c3.25,1.05,6.15,2.15,9.66,1.5,3.67-.69,7.29-2.92,8.75-6.4a5.48,5.48,0,0,0,.41-3.26C1420.58,1005.36,1417.48,1004,1415.63,1002.94Z" transform="translate(-296 -200)"/></g></svg>