<svg id="Layer_1" data-name="Layer 1" xmlns="http://www.w3.org/2000/svg" xmlns:xlink="http://www.w3.org/1999/xlink" viewBox="0 0 3000 2000"><defs><style>.cls-1{fill:#ffd29b;}.cls-2{fill:#ffe42d;}.cls-3{fill:#14194c;}.cls-4{fill:#ebebeb;}.cls-5{fill:#ffca1d;}.cls-6{fill:#231a5b;}.cls-7{fill:#fff;}.cls-8{fill:#f7f2f3;}.cls-9{fill:#ffd468;}.cls-10{fill:#757aa5;}.cls-11{clip-path:url(#clip-path);}.cls-12{fill:#ffd785;}.cls-13{clip-path:url(#clip-path-2);}.cls-14{clip-path:url(#clip-path-3);}.cls-15{clip-path:url(#clip-path-4);}.cls-16{clip-path:url(#clip-path-5);}.cls-17{fill:#ffc94e;}.cls-18{clip-path:url(#clip-path-6);}.cls-19{clip-path:url(#clip-path-7);}.cls-20{clip-path:url(#clip-path-8);}.cls-21{clip-path:url(#clip-path-9);}.cls-22{clip-path:url(#clip-path-10);}.cls-23{clip-path:url(#clip-path-11);}.cls-24{clip-path:url(#clip-path-12);}.cls-25{clip-path:url(#clip-path-13);}.cls-26{clip-path:url(#clip-path-14);}.cls-27{clip-path:url(#clip-path-15);}.cls-28{clip-path:url(#clip-path-16);}.cls-29{fill:#d5d5d5;}.cls-30{clip-path:url(#clip-path-17);}</style><clipPath id="clip-path"><polygon class="cls-1" points="2120.34 1770.59 2132.05 1737.97 2074.68 1728.6 2064.62 1770.47 2120.34 1770.59"/></clipPath><clipPath id="clip-path-2"><polygon class="cls-1" points="2429.99 1712.7 2428.32 1681.83 2370.11 1700.51 2378.6 1734.22 2429.99 1712.7"/></clipPath><clipPath id="clip-path-3"><path class="cls-1" d="M2237.52,1064.9c-8.91,7.65-221.58,24.67-221.58,24.67s-26.39,21-30.86,14.4c-3.23-4.74-5.24-5.85-9.82-16.47-1.4-3.24-4.32-14.46-3.82-18,1.93-13.33,11-15.78,11-15.78,6.6-2.72,30.32-.58,30.32-.58l194.7-48.63Z"/></clipPath><clipPath id="clip-path-4"><path class="cls-1" d="M2294.8,845.86c4.7.89,9.56-3.94,10.84-10.78s-1.48-13.09-6.19-14c-2.82-.53-5.7,1-7.82,3.8-4.77-19.7-17-33.72-31.31-33.72-18.47,0-33.44,23.29-33.44,52s15,52,33.44,52v38.7l42.67.14-6.52-35.65a166.85,166.85,0,0,1-2.71-29.93V845.56A5.38,5.38,0,0,0,2294.8,845.86Z"/></clipPath><clipPath id="clip-path-5"><path class="cls-5" d="M2393.56,1207.22,2357.11,973a70.22,70.22,0,0,0-73.49-56.72h0a70.13,70.13,0,0,0-49.5,25.28h0l-.07.1a69.41,69.41,0,0,0-4.24,5.69l-37.41,50.3a68.11,68.11,0,0,0,.82,82.37l33.12,17.08-7.59,110.15Z"/></clipPath><clipPath id="clip-path-6"><path class="cls-1" d="M2280.7,958.17h0a40.52,40.52,0,0,0-5.89-1.42c-20.69-3.4-40.87,8.52-48.68,28L2197,1057.16h0L2026.84,1118s-23.88-4.22-30.18-.88c0,0-11.37,4.27-9.24,22.77,0,0,3.77,13.65,8.84,19.74s37.15-10.09,37.15-10.09,128.18-11.61,200.85-33.4a59.15,59.15,0,0,0,17.33-12.4h0a47.76,47.76,0,0,0,4.83-5.84c3.17-4.53,44.85-89.27,44.85-89.27A35.72,35.72,0,0,0,2280.7,958.17Z"/></clipPath><clipPath id="clip-path-7"><path class="cls-1" d="M1277.3,708.88c-22,4.45-34.25,35.84-27.32,70.09l6.1,30.15a202.73,202.73,0,0,1,4,36.35l.83,44.07,50.85-10.46-9.34-46.15c22-4.45,34.26-35.83,27.33-70.09S1299.33,704.42,1277.3,708.88Z"/></clipPath><clipPath id="clip-path-8"><polygon class="cls-6" points="1416.71 1141.62 1363.33 1745.43 1233.45 1745.43 1301.36 1211.39 1206.03 1745.43 1065.51 1745.43 1215.88 1141.62 1416.71 1141.62"/></clipPath><clipPath id="clip-path-9"><rect class="cls-6" x="1682.55" y="1295.15" width="79.62" height="79.62"/></clipPath><clipPath id="clip-path-10"><path class="cls-1" d="M782.86,1046.19l90.32-248.93L903,816.36s-3.34,230.2-37.27,249.1C832.41,1084,782.86,1046.19,782.86,1046.19Z"/></clipPath><clipPath id="clip-path-11"><path class="cls-1" d="M665.77,695.55C644,700,631.9,731,638.75,764.86l6,29.81c0,.12.05.24.07.36a158.84,158.84,0,0,1,1.27,53.76l-2.55,17.73h57.6l-10.58-48.3c21.78-4.4,33.87-35.43,27-69.31S687.55,691.15,665.77,695.55Z"/></clipPath><clipPath id="clip-path-12"><path class="cls-2" d="M777.53,1060,818.9,948.91,717.21,865.52c-.52-.44-1-.86-1.57-1.28l-.8-.66h0a67.73,67.73,0,0,0-41.76-14.35h-4.2c-34.92,0-59.7,21.69-68.9,60.56l-34.37,153.83,30.8,5c-.58,5.44-1.36,10.86-2.38,16.25L574.65,1188H790.09l-24.43-136.89Z"/></clipPath><clipPath id="clip-path-13"><path class="cls-1" d="M873.18,797.26s-5.86-59.22-2.67-62,8.66,31.41,16,31,21.88-60.14,27.35-59.23,27.8,31.9,26.89,42.84S903,816.36,903,816.36,873.69,802.63,873.18,797.26Z"/></clipPath><clipPath id="clip-path-14"><path class="cls-1" d="M898.66,1006.9c-6.61-.34-318.47,58.61-318.47,58.61s3.1,59.78,30.25,73.06c33.64,16.45,232.66-77.44,232.66-77.44l0-.49,36.69-17.09s27,5.14,38.29.45,29.25-21.31,29.25-21.31S905.26,1007.23,898.66,1006.9Z"/></clipPath><clipPath id="clip-path-15"><rect class="cls-3" x="783" y="373.6" width="432.64" height="260.54" rx="14.01"/></clipPath><clipPath id="clip-path-16"><path class="cls-3" d="M2660.38,1613.92c2.53-84.36-32.49-190.2-32.49-190.2-46.59,66.39-52,123.42-43,166.89-18.64-24.46-42-45.62-69.19-50.86,0,0,16.21,119.08,66.1,142.48H2685c94.78-29.8,78.67-199.89,78.67-199.89C2685.85,1539.26,2676,1563,2660.38,1613.92Z"/></clipPath><clipPath id="clip-path-17"><polygon class="cls-4" points="2526.63 1682.23 2744.53 1682.23 2695.53 1846.61 2569.18 1846.61 2526.63 1682.23"/></clipPath></defs><rect class="cls-7" width="3000" height="2000"/><path class="cls-8" d="M213.43,1846.61H2806s294.15-952.64-436.73-1256-921.1,223.27-1520.61,297S-64.49,1282.83,213.43,1846.61Z"/><path class="cls-4" d="M1763.76,464.2h-34A184.93,184.93,0,0,0,1700,392.41l24.06-24.06a7.74,7.74,0,0,0,0-11l-37.28-37.29a7.77,7.77,0,0,0-11,0l-24.06,24.06A184.85,184.85,0,0,0,1580,314.43v-34a7.75,7.75,0,0,0-7.75-7.75h-52.73a7.76,7.76,0,0,0-7.76,7.75v34a184.86,184.86,0,0,0-71.78,29.73l-24.06-24.06a7.77,7.77,0,0,0-11,0l-37.28,37.29a7.74,7.74,0,0,0,0,11l24.06,24.06A184.77,184.77,0,0,0,1362,464.2h-34a7.75,7.75,0,0,0-7.76,7.76v52.72a7.75,7.75,0,0,0,7.76,7.76h34a184.77,184.77,0,0,0,29.74,71.79l-24.06,24a7.76,7.76,0,0,0,0,11l37.28,37.29a7.77,7.77,0,0,0,11,0l24.06-24.06a184.86,184.86,0,0,0,71.78,29.73v34a7.76,7.76,0,0,0,7.76,7.75h52.73a7.75,7.75,0,0,0,7.75-7.75v-34a184.85,184.85,0,0,0,71.79-29.73l24.06,24.06a7.77,7.77,0,0,0,11,0l37.28-37.29a7.76,7.76,0,0,0,0-11l-24.06-24a184.93,184.93,0,0,0,29.74-71.79h34a7.75,7.75,0,0,0,7.75-7.76V472A7.75,7.75,0,0,0,1763.76,464.2Zm-217.92,119a84.92,84.92,0,1,1,84.92-84.92A84.92,84.92,0,0,1,1545.84,583.24Z"/><path class="cls-7" d="M1545.84,623.13a124.81,124.81,0,1,1,124.81-124.81A124.94,124.94,0,0,1,1545.84,623.13Zm0-243.79a119,119,0,1,0,119,119A119.11,119.11,0,0,0,1545.84,379.34Z"/><path class="cls-3" d="M2036.45,697.83H2013a127.42,127.42,0,0,0-20.49-49.46l16.58-16.57a5.36,5.36,0,0,0,0-7.56l-25.69-25.68a5.34,5.34,0,0,0-7.56,0l-16.57,16.57a127.51,127.51,0,0,0-49.46-20.49V571.2a5.34,5.34,0,0,0-5.34-5.34h-36.33a5.34,5.34,0,0,0-5.34,5.34v23.44a127.45,127.45,0,0,0-49.46,20.49l-16.58-16.57a5.33,5.33,0,0,0-7.55,0l-25.69,25.68a5.34,5.34,0,0,0,0,7.56l16.57,16.57a127.4,127.4,0,0,0-20.48,49.46h-23.44a5.35,5.35,0,0,0-5.35,5.35V739.5a5.35,5.35,0,0,0,5.35,5.35h23.44a127.4,127.4,0,0,0,20.48,49.46l-16.57,16.57a5.34,5.34,0,0,0,0,7.56l25.69,25.68a5.33,5.33,0,0,0,7.55,0l16.58-16.57A127.45,127.45,0,0,0,1862.81,848v23.44a5.34,5.34,0,0,0,5.34,5.34h36.33a5.34,5.34,0,0,0,5.34-5.34V848a127.51,127.51,0,0,0,49.46-20.49l16.57,16.57a5.34,5.34,0,0,0,7.56,0l25.69-25.68a5.36,5.36,0,0,0,0-7.56l-16.58-16.57A127.42,127.42,0,0,0,2013,744.85h23.44a5.35,5.35,0,0,0,5.34-5.35V703.18A5.35,5.35,0,0,0,2036.45,697.83Zm-150.14,82a58.51,58.51,0,1,1,58.51-58.51A58.51,58.51,0,0,1,1886.31,779.85Z"/><path class="cls-7" d="M1886.31,807.33a86,86,0,1,1,86-86A86.09,86.09,0,0,1,1886.31,807.33Zm0-168a82,82,0,1,0,82,82A82.06,82.06,0,0,0,1886.31,639.37Z"/><rect class="cls-3" x="319.14" y="383.32" width="320.98" height="182.54" rx="17.2"/><rect class="cls-4" x="341.55" y="415.14" width="276.16" height="23.54" rx="4.94"/><rect class="cls-8" x="341.55" y="462.82" width="276.16" height="23.54" rx="4.94"/><rect class="cls-8" x="341.55" y="510.5" width="152.39" height="23.54" rx="3.67"/><rect class="cls-3" x="2178.45" y="457.3" width="207.11" height="236.4" rx="14.5"/><rect class="cls-7" x="2205.8" y="477.1" width="42.43" height="42.43" rx="3.04"/><rect class="cls-7" x="2260.79" y="477.1" width="42.43" height="42.43" rx="3.04"/><rect class="cls-7" x="2315.78" y="477.1" width="42.43" height="42.43" rx="3.04"/><path class="cls-4" d="M2350.16,556.65H2213.85a8,8,0,0,1-8-8h0a8,8,0,0,1,8-8.05h136.31a8.05,8.05,0,0,1,8.05,8.05h0A8.05,8.05,0,0,1,2350.16,556.65Z"/><path class="cls-4" d="M2350.16,585.11H2213.85a8.05,8.05,0,0,1-8-8.05h0a8,8,0,0,1,8-8h136.31a8.05,8.05,0,0,1,8.05,8h0A8.06,8.06,0,0,1,2350.16,585.11Z"/><path class="cls-4" d="M2350.16,613.56H2213.85a8,8,0,0,1-8-8h0a8.05,8.05,0,0,1,8-8h136.31a8.06,8.06,0,0,1,8.05,8h0A8.05,8.05,0,0,1,2350.16,613.56Z"/><path class="cls-4" d="M2350.16,642H2213.85a8,8,0,0,1-8-8h0a8.05,8.05,0,0,1,8-8.05h136.31a8.06,8.06,0,0,1,8.05,8.05h0A8.05,8.05,0,0,1,2350.16,642Z"/><path class="cls-4" d="M2350.16,670.48H2213.85a8.05,8.05,0,0,1-8-8.05h0a8,8,0,0,1,8-8h136.31a8.05,8.05,0,0,1,8.05,8h0A8.06,8.06,0,0,1,2350.16,670.48Z"/><rect class="cls-5" x="1328.65" y="1386.05" width="779.26" height="29.11" rx="5.65"/><polygon class="cls-9" points="1378.1 1846.61 1363.32 1846.61 1455.71 1415.16 1470.49 1415.16 1378.1 1846.61"/><polygon class="cls-9" points="2058.46 1846.61 2073.24 1846.61 1980.85 1415.16 1966.07 1415.16 2058.46 1846.61"/><path class="cls-6" d="M2218.75,1207.22l-164.93,518,94.85,15.5,164.42-415.42s78.26-31.56,75.19-118Z"/><path class="cls-10" d="M2064.62,1770.47,2053.89,1786l-69.11,24.27c-11.74,4.12-21.81,14.18-25.41,25.38h148.39l12.58-65Z"/><path class="cls-6" d="M2045.57,1788.88l1.75,10.12c.38,2.23-1.47,4.92-4.07,5.92h0c-2.37.91-4.52.07-5-1.93l-2.33-10.74Z"/><path class="cls-6" d="M2028.69,1794.83l1.75,10.12c.38,2.23-1.47,4.93-4.06,5.92h0c-2.37.91-4.53.07-5-1.93l-2.33-10.74Z"/><path class="cls-6" d="M2009.62,1801.52l1.75,10.12c.38,2.23-1.47,4.92-4.06,5.92h0c-2.37.91-4.53.07-5-1.93l-2.33-10.75Z"/><polygon class="cls-6" points="2107.76 1835.6 2104.22 1846.61 1955.82 1846.61 1959.37 1835.6 2107.76 1835.6"/><polygon class="cls-1" points="2120.34 1770.59 2132.05 1737.97 2074.68 1728.6 2064.62 1770.47 2120.34 1770.59"/><g class="cls-11"><polygon class="cls-12" points="2060.57 1726.29 2132.05 1758.57 2144.38 1717.92 2060.57 1726.29"/></g><polygon class="cls-6" points="2359.82 1257.68 2436.59 1679.17 2353.16 1705.94 2241.96 1303.75 2359.82 1257.68"/><path class="cls-10" d="M2378.6,1734.22l-3.88,18.43-54.28,49.19c-9.22,8.35-14.6,21.53-13.57,33.25h0l136.76-57.59L2430,1712.7Z"/><path class="cls-6" d="M2368.18,1758.57l5.54,8.66c1.22,1.9.56,5.1-1.45,7h0c-1.83,1.75-4.14,1.82-5.31.15l-6.32-9Z"/><path class="cls-6" d="M2354.93,1770.61l5.54,8.65c1.22,1.9.56,5.11-1.44,7h0c-1.84,1.76-4.15,1.82-5.32.15l-6.31-9Z"/><path class="cls-6" d="M2340,1784.17l5.54,8.65c1.22,1.91.56,5.11-1.44,7h0c-1.83,1.75-4.15,1.82-5.32.14l-6.31-9Z"/><polygon class="cls-6" points="2443.63 1777.5 2444.64 1789.02 2307.88 1846.61 2306.87 1835.09 2443.63 1777.5"/><polygon class="cls-1" points="2429.99 1712.7 2428.32 1681.83 2370.11 1700.51 2378.6 1734.22 2429.99 1712.7"/><g class="cls-13"><polygon class="cls-12" points="2353.66 1704.66 2437.79 1703.14 2429.64 1668.54 2353.66 1704.66"/></g><path class="cls-10" d="M2273,1417.94a2,2,0,0,1-.75-.15,1.87,1.87,0,0,1-.95-2.45l40.35-91.44.6-.3c.38-.18,37.92-18.83,50.78-40.37a1.86,1.86,0,1,1,3.19,1.9c-12.66,21.21-46.57,38.9-51.72,41.5l-39.8,90.21A1.86,1.86,0,0,1,2273,1417.94Z"/><path class="cls-1" d="M2237.52,1064.9c-8.91,7.65-221.58,24.67-221.58,24.67s-26.39,21-30.86,14.4c-3.23-4.74-5.24-5.85-9.82-16.47-1.4-3.24-4.32-14.46-3.82-18,1.93-13.33,11-15.78,11-15.78,6.6-2.72,30.32-.58,30.32-.58l194.7-48.63Z"/><g class="cls-14"><path class="cls-12" d="M2087.17,1083.47c1.28-.12,73.47-31.07,73.47-31.07s3.77-33.22,16.76-47.84l21.8-3.73-2.51,88.19s-108.37,2.46-109.52-5.55"/><path class="cls-12" d="M1994.12,1076.32c-5.59-5.75-10.94-11.74-16.29-17.72-7.64,2.08-13,9.61-14.11,17.45s1.48,15.84,5.49,22.67c2.47,4.2,5.68,8.23,10.14,10.19,5.21,2.3,11.29,1.41,16.68-.43a51.43,51.43,0,0,0,17.92-10.56c1.69-1.54,3.56-3.84,3.26-6.29-.26-2.14-2.39-2.05-4.08-2.43-4.85-1.12-9.13-3.9-12.89-7.07C1998.09,1080.31,1996.08,1078.34,1994.12,1076.32Z"/></g><path class="cls-6" d="M2249.83,788.39s-22.7-2.61-34.18,19.31c-7.76,14.82,6.17,45.49,14.41,66.07,6,15,22.3,23.44,37.85,19.1a26.35,26.35,0,0,0,3.25-1.14Z"/><path class="cls-1" d="M2294.8,845.86c4.7.89,9.56-3.94,10.84-10.78s-1.48-13.09-6.19-14c-2.82-.53-5.7,1-7.82,3.8-4.77-19.7-17-33.72-31.31-33.72-18.47,0-33.44,23.29-33.44,52s15,52,33.44,52v38.7l42.67.14-6.52-35.65a166.85,166.85,0,0,1-2.71-29.93V845.56A5.38,5.38,0,0,0,2294.8,845.86Z"/><g class="cls-15"><path class="cls-12" d="M2273.51,791.18s4.12,32.27-13.19,45.17c-14.17,10.55-38.52,4.9-38.52,4.9s13.13-50.1,23.88-53.32S2273.51,791.18,2273.51,791.18Z"/><path class="cls-7" d="M2238,872.91s7.79,2.31,16.51-8.62c0,0,.65,14-6.68,14.66S2238,872.91,2238,872.91Z"/></g><path class="cls-12" d="M2260.32,895.23s13.34-2,21.68-19.74c0,0-2.71,24.76-21.68,26.32Z"/><path class="cls-6" d="M2246.44,795.88s-5.89,36.4,45.19,29c0,0,7.41-8.35,12.71.05s-2.29,20.82-10.58,20.61c0,0-2.08,40.16,3.54,57.36A128.14,128.14,0,0,1,2312,873.33c14.11-21.4,14.27-49.41-.86-70.11a59.24,59.24,0,0,0-29.1-21.45C2235.83,765.91,2246.44,795.88,2246.44,795.88Z"/><path class="cls-5" d="M2393.56,1207.22,2357.11,973a70.22,70.22,0,0,0-73.49-56.72h0a70.13,70.13,0,0,0-49.5,25.28h0l-.07.1a69.41,69.41,0,0,0-4.24,5.69l-37.41,50.3a68.11,68.11,0,0,0,.82,82.37l33.12,17.08-7.59,110.15Z"/><g class="cls-16"><path class="cls-9" d="M2305.34,991s-6,116.93-52.65,139.81L2212,1142.71l-3.39-43.22L2305.34,991"/></g><path class="cls-6" d="M2355.14,811.49a48.25,48.25,0,0,1,33.37,28c4.5,10.83,4.84,22.89,4.67,34.62-.43,31.17-3.77,63.42,7.19,92.6-5.7.63-11.42-.68-17-2-16.91-4.1-35.62-10.23-43.39-25.79-5.48-11-4-24.14-.87-36s7.85-23.48,8.54-35.74-3.74-25.86-14.53-31.73c-4.31-2.34-24.36-6.68-17.29-15,2.66-3.15,7.64-5.17,11.39-6.64a48.75,48.75,0,0,1,13-3.15A46.78,46.78,0,0,1,2355.14,811.49Z"/><path class="cls-17" d="M2318.88,817.8l3.28,14.27s2.58,4.56,8.19,2.22c0,0-3.58-18.72-4.33-20S2318.83,813.92,2318.88,817.8Z"/><path class="cls-6" d="M2018,1175.47l-.66.19a5.54,5.54,0,0,1-6.91-3.69l-49.18-162.48a5.54,5.54,0,0,1,3.69-6.91l.66-.2a5.54,5.54,0,0,1,6.91,3.7l49.19,162.47A5.55,5.55,0,0,1,2018,1175.47Z"/><path class="cls-1" d="M2280.7,958.17h0a40.52,40.52,0,0,0-5.89-1.42c-20.69-3.4-40.87,8.52-48.68,28L2197,1057.16h0L2026.84,1118s-23.88-4.22-30.18-.88c0,0-11.37,4.27-9.24,22.77,0,0,3.77,13.65,8.84,19.74s37.15-10.09,37.15-10.09,128.18-11.61,200.85-33.4a59.15,59.15,0,0,0,17.33-12.4h0a47.76,47.76,0,0,0,4.83-5.84c3.17-4.53,44.85-89.27,44.85-89.27A35.72,35.72,0,0,0,2280.7,958.17Z"/><g class="cls-18"><path class="cls-12" d="M2118.74,1141.5c38.38-2.66,104.15-8.62,122.55-19.07,26.47-15,69.62-104.67,69.62-104.67s41-51-14.74-46.08c0,0-41.57,113.53-54.21,125s-151.61,46.56-151.61,46.56S2101.91,1142.67,2118.74,1141.5Z"/></g><path class="cls-1" d="M1627.39,835s17-54.87,21.92-53.84S1648,809.3,1654.75,808s16.82-55.13,20.71-52,26.92,32.62,23.55,49.19S1653.59,855,1653.59,855Z"/><path class="cls-1" d="M1211.13,786.72s32.61-47.29,28.76-50.51-21.36,18.44-24.51,12.36,32.92-47.31,28.08-48.44-42.28-1-53.22,11.89-11.11,66.53-11.11,66.53Z"/><path class="cls-1" d="M1277.3,708.88c-22,4.45-34.25,35.84-27.32,70.09l6.1,30.15a202.73,202.73,0,0,1,4,36.35l.83,44.07,50.85-10.46-9.34-46.15c22-4.45,34.26-35.83,27.33-70.09S1299.33,704.42,1277.3,708.88Z"/><g class="cls-19"><path class="cls-12" d="M1325.29,812.83s-21.18,10.77-26.69,5.06l3.8,15s21.57-2.84,22.89-20.1"/></g><polygon class="cls-6" points="1416.71 1141.62 1363.33 1745.43 1233.45 1745.43 1301.36 1211.39 1206.03 1745.43 1065.51 1745.43 1215.88 1141.62 1416.71 1141.62"/><g class="cls-20"><path class="cls-10" d="M1128.7,1746.5a1,1,0,0,1-.66-.23,1.06,1.06,0,0,1-.18-1.48c5.32-8.29,95.75-406.5,142.84-616a1.09,1.09,0,0,1,1.28-.81,1.07,1.07,0,0,1,.8,1.28c-5.58,24.85-136.92,608.83-143.24,616.8A1.08,1.08,0,0,1,1128.7,1746.5Z"/><path class="cls-10" d="M1310.19,1746.5h-.09a1.06,1.06,0,0,1-1-1.15l50-621.89a1.07,1.07,0,0,1,2.13.17l-50,621.89A1.06,1.06,0,0,1,1310.19,1746.5Z"/></g><path class="cls-10" d="M1342.17,1745.43l-2.72,20.46,77.29,32.29c13.13,5.49,20.44,18.88,18.46,33.77H1237.72l11.52-86.52Z"/><path class="cls-6" d="M1303.71,1794.08c-1.21,9.07-9.54,16.43-18.61,16.43s-15.45-7.36-14.24-16.43,9.54-16.43,18.61-16.43S1304.92,1785,1303.71,1794.08Z"/><path class="cls-6" d="M1348.76,1769.78l-8.46,13.47c-1.86,3-1,6.55,1.83,7.88h0a6.4,6.4,0,0,0,7.76-2.57l9.6-14.3Z"/><path class="cls-6" d="M1367.62,1777.7l-8.45,13.47c-1.87,3-1,6.55,1.82,7.88h0a6.4,6.4,0,0,0,7.76-2.57l9.6-14.3Z"/><path class="cls-6" d="M1389,1786.6l-8.46,13.47c-1.86,3-1,6.55,1.83,7.88h0a6.4,6.4,0,0,0,7.76-2.57l9.6-14.3Z"/><polygon class="cls-6" points="1237.72 1831.95 1235.76 1846.61 1433.25 1846.61 1435.2 1831.95 1237.72 1831.95"/><path class="cls-10" d="M1096.72,1745.43l-2.72,20.46-85.9,32.29c-14.58,5.49-25.46,18.88-27.45,33.77h197.48l11.53-86.52Z"/><ellipse class="cls-6" cx="1138.65" cy="1794.08" rx="17.56" ry="15.37" transform="translate(-918.55 1261.95) rotate(-43.1)"/><path class="cls-6" d="M1083.65,1769.78l4.87,13.47c1.07,3-.72,6.55-3.92,7.88h0c-2.93,1.21-6,.09-7.09-2.57l-5.78-14.3Z"/><path class="cls-6" d="M1062.68,1777.7l4.87,13.47c1.07,3-.72,6.55-3.92,7.88h0c-2.93,1.21-6,.09-7.09-2.57l-5.78-14.3Z"/><path class="cls-6" d="M1039,1786.6l4.87,13.47c1.07,3-.72,6.55-3.92,7.88h0c-2.93,1.21-6,.09-7.09-2.57l-5.78-14.3Z"/><polygon class="cls-6" points="1178.13 1831.95 1176.18 1846.61 978.7 1846.61 980.65 1831.95 1178.13 1831.95"/><path class="cls-2" d="M1615.85,818.43,1506.73,965.8l-.32.42-94.78-77.12c-28.13-22.89-62.44-35.61-96-35.61h-87.81q-5,0-10,.38L1238.3,785l-67.08-18.7-88.29,205.09a66,66,0,0,0,2,56.46h0a66.06,66.06,0,0,0,43.92,34.09h0a44.47,44.47,0,0,0,44.08-14.87l9-10.83,4.23,123.34h256.71l-31.8-129.79,28.43,24.8-.11.14,7.9,6.66,7.61,6.64.11-.14,5.28,4.45a66.06,66.06,0,0,0,53.64,14.61h0a66.05,66.05,0,0,0,46.32-32.35L1671.1,860.81Z"/><path class="cls-9" d="M1217.85,853.87s-54.17,7.7-82.69,43.86L1086.56,963l38.76-90S1161.43,832.27,1217.85,853.87Z"/><path class="cls-9" d="M1411.07,1029.82l-51.57-46.73s-9.79,73,83.37,176.52Z"/><path class="cls-6" d="M1308.54,720.72s14.08,34.35,9.8,45.61c0,0-7.26-12.59-15.07-5.11s2.6,19.2,13,19.52c0,0-23.57,33.51-26.43,34.81s-31.82,4.89-31.82,4.89-43.26-53.36-37.73-82,33.84-51.08,64.42-52.05,63.77,22,63.77,22S1334.31,725.44,1308.54,720.72Z"/><path class="cls-9" d="M1181.93,1036.27l-2.8-62.26s-28.36,89-50.3,88C1128.83,1062,1159.83,1074,1181.93,1036.27Z"/><rect class="cls-6" x="1682.55" y="1295.15" width="79.62" height="79.62"/><g class="cls-21"><rect class="cls-10" x="1682.55" y="1310.03" width="79.62" height="13.12"/></g><rect class="cls-6" x="1605.81" y="1017.58" width="233.1" height="351.81" rx="28.09" transform="translate(2915.84 -528.88) rotate(90)"/><rect class="cls-7" x="1556.67" y="1087.14" width="331.38" height="212.68" rx="17.88"/><path class="cls-10" d="M1672.15,1370.28h95.42a14,14,0,0,1,14,14v2.12a0,0,0,0,1,0,0H1658.1a0,0,0,0,1,0,0v-2.12A14,14,0,0,1,1672.15,1370.28Z"/><rect class="cls-5" x="1627.05" y="1129.74" width="30.41" height="127.48"/><rect class="cls-3" x="1680.45" y="1163.94" width="30.41" height="93.28"/><rect class="cls-3" x="1733.85" y="1179.38" width="30.41" height="77.84"/><rect class="cls-3" x="1787.25" y="1216.16" width="30.41" height="41.06"/><path class="cls-6" d="M1921.5,1353.07h0a28.94,28.94,0,0,1,28.94,28.94v4.44a0,0,0,0,1,0,0h-57.88a0,0,0,0,1,0,0V1382a28.94,28.94,0,0,1,28.94-28.94Z"/><path class="cls-1" d="M782.86,1046.19l90.32-248.93L903,816.36s-3.34,230.2-37.27,249.1C832.41,1084,782.86,1046.19,782.86,1046.19Z"/><g class="cls-22"><path class="cls-12" d="M876.62,1061.21c22.73-23.58,37.93-56.9,37.93-56.9C813.29,995.94,800.49,995,800.49,995l-29.72,34.83S783.3,1065.9,818.9,1081C840.13,1090,860.31,1078.12,876.62,1061.21Z"/></g><path class="cls-1" d="M665.77,695.55C644,700,631.9,731,638.75,764.86l6,29.81c0,.12.05.24.07.36a158.84,158.84,0,0,1,1.27,53.76l-2.55,17.73h57.6l-10.58-48.3c21.78-4.4,33.87-35.43,27-69.31S687.55,691.15,665.77,695.55Z"/><g class="cls-23"><path class="cls-12" d="M663.67,738.44s26.1,10.57,60.63,6.7c0,0-2.82-27.49-19-40.52,0,0-46.86,4.58-47.91,7.75S663.67,738.44,663.67,738.44Z"/><path class="cls-12" d="M690.59,818.22s-11.45-.08-18.65-7.28c0,0,1.85,15.93,20.82,17.17h0l-2.17-9.89"/></g><path class="cls-2" d="M777.53,1060,818.9,948.91,717.21,865.52c-.52-.44-1-.86-1.57-1.28l-.8-.66h0a67.73,67.73,0,0,0-41.76-14.35h-4.2c-34.92,0-59.7,21.69-68.9,60.56l-34.37,153.83,30.8,5c-.58,5.44-1.36,10.86-2.38,16.25L574.65,1188H790.09l-24.43-136.89Z"/><g class="cls-24"><polyline class="cls-9" points="765.66 1051.12 737.92 926.09 811.33 1004.46 787.08 1057.03 765.66 1051.12"/></g><path class="cls-9" d="M596.41,1068.6l86.91,12.14,11.85-113.82s12.29,180,6.84,186.07c-15.89,17.67-125.17,27.49-125.17,27.49Z"/><path class="cls-1" d="M873.18,797.26s-5.86-59.22-2.67-62,8.66,31.41,16,31,21.88-60.14,27.35-59.23,27.8,31.9,26.89,42.84S903,816.36,903,816.36,873.69,802.63,873.18,797.26Z"/><g class="cls-25"><path class="cls-12" d="M913.81,707.05S900,783.36,891.55,780.78s-21-45.47-21-45.47S883.85,760.83,887,758s16.15-54.47,26.81-50.9"/></g><path class="cls-1" d="M898.66,1006.9c-6.61-.34-318.47,58.61-318.47,58.61s3.1,59.78,30.25,73.06c33.64,16.45,232.66-77.44,232.66-77.44l0-.49,36.69-17.09s27,5.14,38.29.45,29.25-21.31,29.25-21.31S905.26,1007.23,898.66,1006.9Z"/><g class="cls-26"><path class="cls-12" d="M677.42,1047.21s-80.08,62.59-99,61.65-8.3-47.58-8.3-47.58,102.36-13.14,107.3-14.07"/></g><path class="cls-6" d="M643.42,788.73Q648,776,652.15,763s-12.35-12.41-4.37-22.23,15.11,8.08,14.14,11.16c0,0,10.78-26,21.37-31.37s5.73,19,30.68,15.19S737.92,690,737.92,690s-58.67-16.56-92.83-9.32-14.15,22.78-14.15,22.78-28.64,8.28-28.64,24.16S643.42,788.73,643.42,788.73Z"/><path class="cls-10" d="M550.61,1720.84l-7.79,17.37,57,58.52a33.82,33.82,0,0,1,6.64,37.43h0L438.7,1759l32.95-73.5Z"/><path class="cls-6" d="M504.91,1750a15.29,15.29,0,1,1-7.7-20.21A15.29,15.29,0,0,1,504.91,1750Z"/><path class="cls-6" d="M549.69,1745.26l-10.79,8.91a5.39,5.39,0,0,0-.56,7.79h0a5.39,5.39,0,0,0,7.28.65l12-9.22Z"/><path class="cls-6" d="M563.59,1759.58l-10.79,8.91a5.39,5.39,0,0,0-.56,7.78h0a5.41,5.41,0,0,0,7.29.65l12-9.22Z"/><path class="cls-6" d="M579.33,1775.71l-10.79,8.91a5.4,5.4,0,0,0-.56,7.79h0a5.39,5.39,0,0,0,7.28.65l12-9.23Z"/><rect class="cls-6" x="512.98" y="1710.85" width="13.65" height="183.86" transform="translate(-1337.89 1539.71) rotate(-65.86)"/><path class="cls-6" d="M773.9,1188h-187l-28.86,253.54a255,255,0,0,1-24,82.13L454.23,1688l121.09,44.49,75.74-188.27a131.17,131.17,0,0,0,9.22-40.91l23.2-244.63-5.06,493.7H799.33Z"/><path class="cls-10" d="M779.63,1752.33v19l76,30.07A33.81,33.81,0,0,1,877,1832.88H693.11v-80.55Z"/><circle class="cls-6" cx="734.57" cy="1797.62" r="15.29" transform="translate(-1183.27 2102.47) rotate(-76.81)"/><path class="cls-6" d="M788.79,1775l-6.21,12.54a5.41,5.41,0,0,0,2.68,7.34h0a5.39,5.39,0,0,0,6.91-2.39l7.16-13.31Z"/><path class="cls-6" d="M807.33,1782.36l-6.2,12.55a5.38,5.38,0,0,0,2.67,7.33h0a5.38,5.38,0,0,0,6.91-2.39l7.16-13.31Z"/><path class="cls-6" d="M828.29,1790.65l-6.2,12.54a5.4,5.4,0,0,0,2.67,7.34h0a5.4,5.4,0,0,0,6.91-2.39l7.17-13.32Z"/><rect class="cls-6" x="693.11" y="1832.88" width="183.86" height="13.65"/><rect class="cls-3" x="783" y="373.6" width="432.64" height="260.54" rx="14.01"/><g class="cls-27"><path class="cls-2" d="M762.75,635.18a206.38,206.38,0,0,1,17.45-40.49c10.93-19.35,25.37-37.22,44.31-48.84s42.79-16.36,63.87-9.35c15,5,27.53,15.37,40.94,23.77s29.35,15.1,44.77,11.53c13.61-3.16,24.13-13.68,33.53-24,16.62-18.3,32.4-37.7,52.15-52.57s44.5-25,69-21.53c22.9,3.27,42.52,17.82,59.64,33.39a395.89,395.89,0,0,1,47.49,51.58V687.3h-469Z"/><rect class="cls-6" x="763.78" y="361.92" width="468.21" height="67.25"/></g><path class="cls-2" d="M830,397a9.81,9.81,0,1,1-9.8-9.8A9.81,9.81,0,0,1,830,397Z"/><path class="cls-7" d="M868.43,397a9.81,9.81,0,1,1-9.8-9.8A9.81,9.81,0,0,1,868.43,397Z"/><path class="cls-7" d="M906.87,397a9.81,9.81,0,1,1-9.81-9.8A9.81,9.81,0,0,1,906.87,397Z"/><path class="cls-3" d="M2660.38,1613.92c2.53-84.36-32.49-190.2-32.49-190.2-46.59,66.39-52,123.42-43,166.89-18.64-24.46-42-45.62-69.19-50.86,0,0,16.21,119.08,66.1,142.48H2685c94.78-29.8,78.67-199.89,78.67-199.89C2685.85,1539.26,2676,1563,2660.38,1613.92Z"/><g class="cls-28"><path class="cls-29" d="M2550,1664.73s38.93,11.64,45.19-20.13c0,0,15.66,21.92,37.59,18.34s25.5-26,25.5-26,15.66,37.14,69.36,27.3c0,0-43.41,29.08-62.65,30s-81.43-.89-84.12-1.79S2550,1664.73,2550,1664.73Z"/></g><polygon class="cls-4" points="2526.63 1682.23 2744.53 1682.23 2695.53 1846.61 2569.18 1846.61 2526.63 1682.23"/><g class="cls-30"><path class="cls-29" d="M2531,1788.26s148.84-45.46,213.57-126.72h22.07l-56.88,199.08H2544.16Z"/></g><rect class="cls-3" x="319.14" y="601.87" width="239.69" height="141.88" rx="14.25"/><rect class="cls-4" x="340.6" y="628.84" width="101.76" height="16.43" rx="2.66"/><rect class="cls-8" x="340.6" y="678.73" width="101.76" height="16.43" rx="2.66"/><rect class="cls-8" x="451.63" y="678.73" width="90.24" height="16.43" rx="2.5"/><rect class="cls-8" x="451.63" y="628.84" width="46.96" height="16.43" rx="1.81"/><rect class="cls-8" x="340.6" y="653.61" width="53.41" height="16.43" rx="1.93"/><rect class="cls-8" x="404.45" y="653.61" width="94.14" height="16.43" rx="2.56"/><rect class="cls-8" x="506.13" y="653.61" width="35.74" height="16.43" rx="1.58"/><rect class="cls-8" x="506.13" y="628.84" width="35.74" height="16.43" rx="1.58"/><rect class="cls-4" x="440.1" y="703.85" width="35.01" height="16.43" rx="1.56" transform="translate(915.21 1424.13) rotate(180)"/><rect class="cls-4" x="483.37" y="703.85" width="35.01" height="16.43" rx="1.56" transform="translate(1001.76 1424.13) rotate(180)"/><rect class="cls-4" x="526.65" y="703.85" width="15.22" height="16.43" rx="3.63" transform="translate(1068.51 1424.13) rotate(180)"/><rect class="cls-8" x="383.87" y="703.85" width="46.96" height="16.43" rx="1.81" transform="translate(814.7 1424.13) rotate(180)"/><rect class="cls-8" x="340.6" y="703.85" width="35.74" height="16.43" rx="1.58" transform="translate(716.93 1424.13) rotate(180)"/><rect class="cls-6" x="134.8" y="1843.86" width="2758.71" height="5.34"/></svg>